<?xml version="1.0" encoding="UTF-8" standalone="no"?>
<svg
   xmlns="http://www.w3.org/2000/svg"
   width="16"
   height="16"
   viewBox="0 0 16 16"
   fill="none"
   version="1.1"
   id="svg90">
  <path
     fill-rule="evenodd"
     clip-rule="evenodd"
     d="m 10.336601,8.6251326 2.905621,-1.6683404 1.876354,1.0552745 -5.8799585,3.3748623 -0.1657955,0.09447 -0.062683,0.03622 -0.2669113,0.150763 -0.070767,0.03818 -0.2224243,0.118581 -0.202199,0.102436 -0.131432,0.06436 -0.1840027,0.0864 -0.1759082,0.07636 -0.1577228,0.06436 -0.1658064,0.06229 -0.1597301,0.05629 -0.159741,0.04822 -0.1556937,0.04429 -0.1516465,0.03611 -0.1516574,0.03218 h -0.014149 l -0.1496283,0.02618 -0.1476101,0.02007 -0.1455811,0.01604 -0.1476101,0.01015 H 5.9063549 5.7526793 5.6070982 l -0.1374974,-0.01015 -0.1435629,-0.01604 -0.1455811,-0.02007 -0.1172721,-0.02007 -0.1435629,-0.02815 -0.1455919,-0.03425 -0.088963,-0.02411 -0.145592,-0.04222 -0.145581,-0.04822 -0.1475993,-0.05225 -0.1476101,-0.05825 -0.076843,-0.03218 -0.1475992,-0.06633 -0.131432,-0.06436 -0.1455811,-0.0744 -0.097058,-0.05422 -0.1354793,-0.07844 -0.1192903,-0.07429 -0.097058,-0.06633 -0.056618,-0.04222 -0.060665,-0.05029 v 3.328674 l -1.8460921,1.05721 V 8.6010127 8.3517631 L 1.1970994,8.1286515 V 7.9799068 L 1.2153066,7.778897 1.235521,7.5919707 1.2597827,7.4211134 1.2880916,7.2482488 1.3204478,7.0834242 v -0.014062 l 0.036393,-0.1588028 0.04044,-0.1527592 0.042469,-0.1487447 0.048523,-0.1447193 v -0.018087 l 0.050553,-0.1407048 0.056618,-0.134672 0.058636,-0.1326648 0.064701,-0.1306575 0.066731,-0.126632 v -0.010047 l 0.072785,-0.1246248 0.074814,-0.1205994 0.08088,-0.1165849 0.082909,-0.1145666 0.088963,-0.1125595 0.076843,-0.092465 0.097058,-0.1105522 0.101094,-0.1065376 0.066731,-0.066327 0.1091885,-0.1025122 0.1132249,-0.1025122 0.1193012,-0.098498 0.1233484,-0.09648 0.070767,-0.054272 0.1314321,-0.092454 0.1233375,-0.084425 0.1354793,-0.086432 0.097058,-0.05628 0.1334502,-0.076385 0.1253666,-0.066327 0.1051413,-0.04824 0.064701,-0.028145 0.074814,-0.028134 L 1.148576,2.1186355 V 4.8738269e-5 L 7.0305963,3.3829489 l 0.1637773,0.09648 0.066731,0.036174 0.260835,0.1547774 0.070767,0.042207 0.2143407,0.1306575 0.1900681,0.1205994 0.1233375,0.082418 0.1658064,0.1145666 0.1516465,0.1125594 0.1374975,0.1045304 0.1354793,0.1105522 0.1273848,0.1105521 0.1213193,0.1105522 0.1132358,0.1125594 0.1091885,0.1125594 0.1010941,0.1125594 0.012131,0.012065 0.097058,0.1165848 0.090992,0.1165849 0.084927,0.1165739 0.080879,0.1206103 0.076832,0.1205994 v 0.012054 l 0.072796,0.1226175 0.06672,0.1266321 0.06065,0.126632 0.05869,0.1286394 0.05455,0.134672 0.04244,0.1125703 0.04658,0.1366793 0.04244,0.1407047 0.02422,0.090447 0.03644,0.1467375 0.03033,0.1487446 0.02825,0.150752 0.02225,0.1547664 0.01222,0.088451 0.01407,0.1587919 0.01211,0.1467265 v 0.1608101 0.2653186 0.1407047 0.018087 0.1145776 0.070352 z M 3.2509214,9.0547958 C 3.6768865,10.075478 4.6794922,10.74046 5.7911009,10.739696 7.3079367,10.738605 8.5369812,9.5159097 8.5369812,8.0080521 8.5369812,6.9030215 7.8672647,5.9068413 6.84019,5.4841489 5.8131154,5.0614566 4.6310342,5.2955317 3.8453001,6.0771967 3.0595661,6.8588618 2.8249673,8.0341138 3.2509214,9.0547958 Z"
     fill="#ffffff"
     id="path88"
     style="stroke-width:1.0909" />
</svg>
