<?xml version="1.0" encoding="UTF-8" standalone="no"?>
<svg
   xmlns="http://www.w3.org/2000/svg"
   width="16"
   height="16"
   viewBox="0 0 16 16"
   fill="none"
   version="1.1"
   id="svg170">
  <path
     fill-rule="evenodd"
     clip-rule="evenodd"
     d="m 10.31417,8.6251375 2.905644,-1.6683535 1.876369,1.0552828 -5.8800046,3.3748892 -0.1657968,0.09447 -0.062684,0.03622 -0.2669134,0.150764 -0.070768,0.03818 -0.222426,0.118582 -0.2022006,0.102437 -0.1314331,0.06436 -0.1840041,0.0864 -0.1759095,0.07636 -0.1577241,0.06436 -0.1658077,0.06229 -0.1597313,0.05629 -0.1597423,0.04822 -0.1556949,0.04429 -0.1516477,0.03611 -0.1516586,0.03218 h -0.014149 l -0.1496295,0.02618 -0.1476113,0.02007 -0.1455822,0.01604 -0.1476113,0.01014 H 5.8838896 5.7302128 5.5846306 l -0.1374985,-0.01014 -0.143564,-0.01604 -0.1455822,-0.02007 -0.1172731,-0.02007 -0.143564,-0.02815 -0.1455931,-0.03425 -0.088964,-0.02411 -0.1455931,-0.04222 -0.1455822,-0.04822 -0.1476004,-0.05225 -0.1476113,-0.05825 -0.076844,-0.03218 -0.1476004,-0.06633 -0.1314331,-0.06436 -0.1455822,-0.0744 -0.097058,-0.05422 -0.1354804,-0.07844 -0.1192912,-0.07429 -0.097058,-0.06633 -0.056618,-0.04222 -0.060666,-0.05029 v 3.328699 L 1.1624662,15.999986 V 8.6010174 8.3517658 L 1.1745972,8.1286525 V 7.9799067 L 1.1928045,7.7788952 1.2130191,7.5919675 1.237281,7.4211088 1.2655902,7.2482429 1.2979466,7.083417 V 7.069355 l 0.036393,-0.1588041 0.04044,-0.1527604 0.042469,-0.1487458 0.048524,-0.1447204 v -0.018087 l 0.050553,-0.1407058 0.056618,-0.1346731 0.058636,-0.1326658 0.064702,-0.1306586 0.066731,-0.126633 v -0.010047 l 0.072786,-0.1246258 0.074815,-0.1206003 0.08088,-0.1165858 0.082909,-0.1145676 0.088964,-0.1125603 0.076844,-0.092466 0.097058,-0.110553 0.1010949,-0.1065384 0.066731,-0.066327 0.1091894,-0.102513 0.1132258,-0.102513 0.1193021,-0.098498 0.1233494,-0.09648 0.070768,-0.054273 0.1314331,-0.092455 0.1233385,-0.084426 0.1354803,-0.086433 0.097058,-0.05628 0.1334512,-0.076386 0.1253676,-0.066327 0.1051421,-0.04824 0.064702,-0.028146 0.074815,-0.028135 -2.905644,-1.6663353 V -1.4e-5 l 5.8820664,3.3829267 0.1637787,0.09648 0.066731,0.036175 0.2608371,0.1547786 0.070767,0.042207 0.2143424,0.1306585 0.1900696,0.1206004 0.1233385,0.082418 0.1658077,0.1145676 0.1516477,0.1125603 0.1374986,0.1045312 0.1354803,0.110553 0.1273858,0.110553 0.1213203,0.1105531 0.1132367,0.1125603 0.1091894,0.1125603 0.1010948,0.1125603 0.012131,0.012065 0.097058,0.1165858 0.090993,0.1165858 0.084927,0.1165748 0.08088,0.1206112 0.076833,0.1206004 v 0.012054 l 0.072797,0.1226185 0.06672,0.1266331 0.06066,0.1266331 0.05869,0.1286403 0.05455,0.1346731 0.04244,0.1125712 0.04658,0.1366804 0.04244,0.1407058 0.02422,0.090448 0.03644,0.1467386 0.03033,0.1487458 0.02825,0.1507531 0.02225,0.1547677 0.01222,0.088451 0.01407,0.1587931 0.01211,0.1467277 V 7.9376993 8.20302 8.3437258 8.3618131 8.4763916 8.5467445 Z M 3.2284353,9.0548041 c 0.4259684,1.0206899 1.428582,1.6856769 2.5401995,1.6849139 1.5168476,-0.0011 2.7459017,-1.2237964 2.7459017,-2.7316658 0,-1.1050393 -0.6697217,-2.1012274 -1.6968044,-2.523923 C 5.7906494,5.0614335 4.608559,5.2955105 3.8228187,6.0771817 3.0370785,6.8588528 2.8024778,8.0341141 3.2284353,9.0548041 Z"
     fill="#8f8f8f"
     id="path168"
     style="stroke-width:1.09091" />
</svg>
