<?xml version="1.0" encoding="UTF-8" standalone="no"?>
<svg
   xmlns="http://www.w3.org/2000/svg"
   width="16"
   height="16"
   viewBox="0 0 16 16"
   fill="none"
   version="1.1"
   id="svg78">
  <g
     id="g97"
     transform="matrix(1.09091,0,0,1.09091,-1.0342007,-0.7272799)">
    <path
       fill-rule="evenodd"
       clip-rule="evenodd"
       d="m 10.4224,8.57304 2.6635,-1.52932 1.72,0.96734 -5.38999,3.09364 -0.15198,0.0866 -0.05746,0.0332 -0.24467,0.1382 -0.06487,0.035 -0.20389,0.1087 -0.18535,0.0939 -0.12048,0.059 -0.16867,0.0792 -0.16125,0.07 -0.14458,0.059 L 7.76072,11.9246 7.6143,11.9762 7.46787,12.0204 7.32515,12.061 7.18614,12.0941 7.04712,12.1236 H 7.03415 L 6.89699,12.1476 6.76168,12.166 6.62823,12.1807 6.49292,12.19 H 6.36132 6.22045 6.087 L 5.96096,12.1807 5.82936,12.166 5.69591,12.1476 5.58841,12.1292 5.45681,12.1034 5.32335,12.072 5.2418,12.0499 5.10834,12.0112 4.97489,11.967 4.83959,11.9191 4.70428,11.8657 4.63384,11.8362 4.49854,11.7754 4.37806,11.7164 4.24461,11.6482 4.15564,11.5985 4.03145,11.5266 3.9221,11.4585 3.83313,11.3977 3.78123,11.359 3.72562,11.3129 v 3.0513 L 2.03336,15.3333 V 8.55093 8.32245 L 2.04448,8.11793 V 7.98158 L 2.06117,7.79732 2.0797,7.62597 2.10194,7.46935 2.12789,7.31089 2.15755,7.1598 V 7.14691 L 2.19091,7.00134 2.22798,6.86131 2.26691,6.72496 2.31139,6.5923 V 6.57572 L 2.35773,6.44674 2.40963,6.32329 2.46338,6.20168 2.52269,6.08191 2.58386,5.96583 V 5.95662 L 2.65058,5.84238 2.71916,5.73183 2.7933,5.62496 2.8693,5.51994 2.95085,5.41676 3.02129,5.332 3.11026,5.23066 3.20293,5.133 3.2641,5.0722 3.36419,4.97823 3.46798,4.88426 3.57734,4.79397 3.69041,4.70553 3.75528,4.65578 3.87576,4.57103 3.98882,4.49364 4.11301,4.41441 4.20198,4.36282 4.32431,4.2928 4.43923,4.232 4.53561,4.18778 4.59492,4.16198 4.6635,4.13619 2,2.60872 V 0.666672 L 7.39188,3.76768 7.54201,3.85612 7.60318,3.88928 7.84228,4.03116 7.90715,4.06985 8.10363,4.18962 8.27786,4.30017 8.39092,4.37572 8.54291,4.48074 8.68192,4.58392 8.80796,4.67974 8.93215,4.78108 9.04892,4.88242 9.16013,4.98376 9.26393,5.08694 9.36402,5.19012 9.45669,5.2933 9.46781,5.30436 9.55678,5.41123 9.64019,5.5181 9.71804,5.62496 9.79218,5.73552 9.86261,5.84607 v 0.01105 l 0.06673,0.1124 0.06116,0.11608 0.0556,0.11608 0.0538,0.11792 0.05,0.12345 0.0389,0.10319 0.0427,0.12529 0.0389,0.12898 0.0222,0.08291 0.0334,0.13451 0.0278,0.13635 0.0259,0.13819 0.0204,0.14187 0.0112,0.08108 0.0129,0.14556 0.0111,0.1345 V 7.94289 8.1861 8.31508 8.33166 8.43669 8.50118 Z M 3.92716,8.9669 c 0.39047,0.93563 1.30953,1.5452 2.32851,1.5445 1.39044,-10e-4 2.51707,-1.12181 2.51707,-2.50402 0,-1.01295 -0.61391,-1.92612 -1.5554,-2.31359 C 6.27585,5.30632 5.19227,5.52089 4.47201,6.23742 3.75175,6.95395 3.5367,8.03127 3.92716,8.9669 Z"
       fill="#000000"
       id="path74" />
    <path
       fill-rule="evenodd"
       clip-rule="evenodd"
       d="m 12.1609,11.703 2.7893,2.7893 c 0.5567,-0.7811 0.4846,-1.8724 -0.2161,-2.5732 -0.7008,-0.7007 -1.7921,-0.7728 -2.5732,-0.2161 z m -0.4714,0.4714 2.7893,2.7893 c -0.7811,0.5566 -1.8724,0.4846 -2.5732,-0.2161 -0.7007,-0.7008 -0.7728,-1.7922 -0.2161,-2.5732 z"
       fill="#ff0000"
       id="path76" />
  </g>
</svg>
