<svg width="16" height="16" viewBox="0 0 16 16" fill="none" xmlns="http://www.w3.org/2000/svg">
<path fill-rule="evenodd" clip-rule="evenodd" d="M10.4224 8.57336L13.0859 7.04404L14.8059 8.01138L9.41591 11.105L9.26393 11.1916L9.20647 11.2248L8.9618 11.363L8.89693 11.398L8.69304 11.5067L8.50769 11.6007L8.38721 11.6596L8.21854 11.7389L8.05729 11.8089L7.91271 11.8678L7.76072 11.9249L7.6143 11.9765L7.46787 12.0208L7.32515 12.0613L7.18614 12.0945L7.04712 12.1239H7.03415L6.89699 12.1479L6.76168 12.1663L6.62823 12.1811L6.49292 12.1903H6.36132H6.22045H6.087L5.96096 12.1811L5.82936 12.1663L5.69591 12.1479L5.58841 12.1295L5.45681 12.1037L5.32335 12.0724L5.2418 12.0502L5.10834 12.0115L4.97489 11.9673L4.83959 11.9194L4.70428 11.866L4.63384 11.8365L4.49854 11.7757L4.37806 11.7167L4.24461 11.6486L4.15564 11.5988L4.03145 11.527L3.9221 11.4588L3.83313 11.398L3.78123 11.3593L3.72562 11.3132V14.3645L2.03336 15.3337V8.55125V8.32277L2.04448 8.11825V7.9819L2.06117 7.79765L2.0797 7.62629L2.10194 7.46967L2.12789 7.31121L2.15755 7.16012V7.14723L2.19091 7.00167L2.22798 6.86163L2.26691 6.72528L2.31139 6.59262V6.57604L2.35773 6.44706L2.40963 6.32361L2.46338 6.202L2.52269 6.08223L2.58386 5.96615V5.95694L2.65058 5.8427L2.71916 5.73215L2.7933 5.62528L2.8693 5.52026L2.95085 5.41708L3.02129 5.33232L3.11026 5.23098L3.20293 5.13332L3.2641 5.07252L3.36419 4.97855L3.46798 4.88458L3.57734 4.7943L3.69041 4.70585L3.75528 4.6561L3.87576 4.57135L3.98882 4.49396L4.11301 4.41473L4.20198 4.36314L4.32431 4.29312L4.43923 4.23232L4.53561 4.1881L4.59492 4.1623L4.6635 4.13651L2 2.60904V0.666992L7.39188 3.768L7.54201 3.85644L7.60318 3.88961L7.84228 4.03148L7.90715 4.07017L8.10363 4.18994L8.27786 4.30049L8.39092 4.37604L8.54291 4.48106L8.68192 4.58424L8.80796 4.68006L8.93215 4.7814L9.04892 4.88274L9.16013 4.98408L9.26393 5.08726L9.36402 5.19044L9.45669 5.29363L9.46781 5.30468L9.55678 5.41155L9.64019 5.51842L9.71804 5.62528L9.79218 5.73584L9.86261 5.84639V5.85744L9.92934 5.96984L9.9905 6.08592L10.0461 6.202L10.0999 6.31992L10.1499 6.44337L10.1888 6.54656L10.2315 6.67185L10.2704 6.80083L10.2926 6.88374L10.326 7.01825L10.3538 7.1546L10.3797 7.29279L10.4001 7.43466L10.4113 7.51574L10.4242 7.6613L10.4353 7.7958V7.94321V8.18642V8.3154V8.33198V8.43701V8.5015L10.4224 8.57336ZM3.92741 8.96723C4.31787 9.90286 5.23694 10.5125 6.25591 10.5117C7.64636 10.5107 8.77299 9.38992 8.77299 8.00771C8.77299 6.99476 8.15907 6.08159 7.21758 5.69412C6.2761 5.30665 5.19252 5.52122 4.47226 6.23775C3.75199 6.95428 3.53694 8.0316 3.92741 8.96723Z" fill="white"/>
<path d="M13.3203 4.33301C14.4249 4.33301 15.3203 3.43758 15.3203 2.33301C15.3203 1.22844 14.4249 0.333008 13.3203 0.333008C12.2157 0.333008 11.3203 1.22844 11.3203 2.33301C11.3203 3.43758 12.2157 4.33301 13.3203 4.33301Z" fill="#E2184A"/>
</svg>
