<svg width="22" height="12" viewBox="0 0 22 12" fill="none" xmlns="http://www.w3.org/2000/svg">
<path fill-rule="evenodd" clip-rule="evenodd" d="M11.5 0L7.03022 6.58276C6.80481 6.91474 7.0426 7.36364 7.44388 7.36364H9.5L8.50014 12L12.9698 5.41723C13.1952 5.08526 12.9574 4.63636 12.5561 4.63636H10.5L11.5 0Z" fill="black"/>
<path fill-rule="evenodd" clip-rule="evenodd" d="M11.1605 0.5H11.1605L10.4815 1.5H10.4815L11.1605 0.5ZM9.95173 0.5H2C1.17157 0.5 0.5 1.17157 0.5 2V10C0.5 10.8284 1.17157 11.5 2 11.5H7.58497L7.80062 10.5H2C1.72386 10.5 1.5 10.2761 1.5 10V2C1.5 1.72386 1.72386 1.5 2 1.5H9.27272L9.95173 0.5ZM10.7273 10.5L10.0483 11.5H18C18.8284 11.5 19.5 10.8284 19.5 10V9H20C20.8284 9 21.5 8.32843 21.5 7.5V4.5C21.5 3.67157 20.8284 3 20 3H19.5V2C19.5 1.17157 18.8284 0.5 18 0.5H12.4151L12.1995 1.5H18C18.2761 1.5 18.5 1.72386 18.5 2V3.5V4H19H20C20.2761 4 20.5 4.22386 20.5 4.5V7.5C20.5 7.77614 20.2761 8 20 8H19H18.5V8.5V10C18.5 10.2761 18.2761 10.5 18 10.5H10.7273Z" fill="black"/>
</svg>
