<svg width="22" height="12" viewBox="0 0 22 12" fill="none" xmlns="http://www.w3.org/2000/svg">
<path fill-rule="evenodd" clip-rule="evenodd" d="M11 0L6.53022 6.58276C6.30481 6.91474 6.5426 7.36364 6.94388 7.36364H9L8.00014 12L12.4698 5.41723C12.6952 5.08526 12.4574 4.63636 12.0561 4.63636H10L11 0Z" fill="black"/>
<path fill-rule="evenodd" clip-rule="evenodd" d="M7.7542 3L5.70291 6.02099C5.02666 7.01692 5.74004 8.36361 6.94387 8.36361H7.76135L7.62411 9H3C2.72386 9 2.5 8.77614 2.5 8.5V3.5C2.5 3.22386 2.72386 3 3 3H7.7542Z" fill="#D6AB3C"/>
<path fill-rule="evenodd" clip-rule="evenodd" d="M10.6605 0.5H10.6605L9.98148 1.5H9.98146L10.6605 0.5ZM9.45173 0.5H1.5C0.671573 0.5 0 1.17157 0 2V10C0 10.8284 0.671574 11.5 1.5 11.5H7.08497L7.30062 10.5H1.5C1.22386 10.5 1 10.2761 1 10V2C1 1.72386 1.22386 1.5 1.5 1.5H8.77272L9.45173 0.5ZM10.2273 10.5L9.54835 11.5H17.5C18.3284 11.5 19 10.8284 19 10V9H19.5C20.3284 9 21 8.32843 21 7.5V4.5C21 3.67157 20.3284 3 19.5 3H19V2C19 1.17157 18.3284 0.5 17.5 0.5H11.9151L11.6995 1.5H17.5C17.7761 1.5 18 1.72386 18 2V3.5V4H18.5H19.5C19.7761 4 20 4.22386 20 4.5V7.5C20 7.77614 19.7761 8 19.5 8H18.5H18V8.5V10C18 10.2761 17.7761 10.5 17.5 10.5H10.2273Z" fill="black"/>
</svg>
