<?xml version="1.0" encoding="UTF-8" standalone="no"?>
<svg
        xmlns="http://www.w3.org/2000/svg"
        width="928"
        height="928"
        viewBox="0 0 928 928"
        fill="none">
  <g
          filter="url(#filter0_d)"
          id="g251"
          transform="matrix(0.92993422,0,0,0.9288711,31.861855,31.244183)">
    <circle
            cx="464"
            cy="454"
            r="450"
            fill="url(#paint0_linear)"
            id="circle247"
            style="fill:url(#paint0_linear)" />
    <circle
            cx="464"
            cy="454"
            r="449.5"
            stroke="#CCCCCC"
            id="circle249" />
  </g>
  <path
          d="m 463.51686,547.25528 c -51.88848,0 -93.95033,-42.36488 -93.95033,-94.62688 0,-52.262 42.06185,-94.62688 93.95033,-94.62688 51.8894,0 93.95125,42.36488 93.95125,94.62688 0,52.262 -42.06185,94.62688 -93.95125,94.62688 z m 254.79081,-131.02191 -99.32719,57.75628 0.4538,-2.71602 0.2827,-2.40856 0.32455,-3.99415 0.0177,-0.30188 0.0186,-0.27773 0.19065,-4.87751 0.0362,-5.35308 -0.0735,-3.87711 -0.2455,-5.55651 -0.36174,-5.09392 -0.54494,-5.50728 -0.37383,-3.0244 -0.78488,-5.35959 -0.92528,-5.26577 -1.07872,-5.15524 -1.22101,-5.05677 -0.8388,-3.11729 -1.45349,-4.88308 -1.59297,-4.77904 -1.42838,-3.89568 -1.86451,-4.61185 -1.99099,-4.51338 -2.12118,-4.38335 -2.2988,-4.35825 -2.43364,-4.27839 -0.2204,-0.35855 -2.61776,-4.21706 -2.77679,-4.14834 -2.9358,-4.07496 -3.11434,-4.03781 -3.30964,-3.99414 -0.37384,-0.43842 -3.50678,-3.93842 -3.68998,-3.88454 -3.91037,-3.8641 -4.12519,-3.84089 -0.32548,-0.2898 -4.36976,-3.81487 -4.65246,-3.82789 -4.67106,-3.6486 -5.22994,-3.87153 -5.65122,-3.97 -4.23492,-2.85813 -6.47978,-4.192 -7.30649,-4.54404 -2.42713,-1.46947 -8.96829,-5.32151 -2.21882,-1.30227 -5.64656,-3.28542 L 304.8226,175.2192 v 73.3706 l 99.32163,57.75534 -2.55639,0.95674 -2.21325,0.95766 -3.5914,1.71005 -0.27619,0.14212 -0.2576,0.12912 -4.2842,2.27294 -4.61062,2.64171 -3.30312,2.00079 -4.65246,2.98818 -4.19959,2.87021 -4.46182,3.22969 -2.44014,1.85123 -4.21075,3.35881 -4.05172,3.43961 -3.8927,3.51205 -3.72719,3.5873 -2.27368,2.30267 -3.46959,3.70435 -3.30313,3.77307 -2.64286,3.21017 -3.02787,3.92077 -2.88094,3.98764 -2.72191,4.05638 -2.59266,4.17343 -2.45224,4.2598 -0.22132,0.39569 -2.30438,4.38335 -2.16953,4.4883 -2.04121,4.59327 -1.90637,4.72888 -1.78361,4.871 -0.19621,0.57405 -1.63018,5.01962 -1.48976,5.14965 -1.37351,5.32708 -1.23216,5.51378 -0.0921,0.45608 -1.09082,5.71162 -0.96806,5.95778 -0.80346,5.92063 -0.7114,6.48909 -0.58866,6.90244 -0.34221,5.14223 -0.36174,7.73564 -0.25201,8.6255 -0.0558,2.88879 -0.0911,10.45909 -0.007,2.60548 -0.006,6.56804 v 233.86652 l 63.08213,-36.68484 V 577.55692 l 2.12768,1.75928 1.90637,1.44439 3.30312,2.2971 0.22691,0.14769 0.17204,0.11797 4.12519,2.62313 4.61619,2.72345 3.33474,1.85774 4.93424,2.58691 4.52413,2.20978 5.05047,2.29709 2.64194,1.12951 5.03281,2.01287 5.02629,1.84009 5.01421,1.64782 4.98351,1.47598 3.03438,0.81461 4.96492,1.17967 4.93423,1.00597 4.00336,0.6855 4.92214,0.69759 4.91563,0.51924 4.76314,0.33346 4.92213,0.18485 4.93424,0.0121 0.31897,-0.006 4.95933,-0.17834 4.99561,-0.34554 5.00769,-0.52482 5.07001,-0.71058 5.12394,-0.88893 0.4538,-0.0929 5.17323,-1.09235 5.22344,-1.2837 5.31364,-1.49456 5.41315,-1.69797 0.29386,-0.0985 5.4987,-1.9144 5.6633,-2.16056 5.38803,-2.22279 5.98878,-2.6482 6.29008,-2.96403 4.48042,-2.22837 6.89639,-3.57429 7.61244,-4.13719 2.3732,-1.32736 9.12079,-5.19239 2.16954,-1.25305 5.64563,-3.27799 201.08711,-116.93279 z"
          fill="#000000"
          id="path253"
          style="stroke-width:0.929403" />
  <defs
          id="defs275">
    <filter
            id="filter0_d"
            x="0"
            y="0"
            width="928"
            height="928"
            filterUnits="userSpaceOnUse"
            color-interpolation-filters="sRGB">
      <feFlood
              flood-opacity="0"
              result="BackgroundImageFix"
              id="feFlood255" />
      <feColorMatrix
              in="SourceAlpha"
              type="matrix"
              values="0 0 0 0 0 0 0 0 0 0 0 0 0 0 0 0 0 0 127 0"
              id="feColorMatrix257" />
      <feOffset
              dy="10"
              id="feOffset259" />
      <feGaussianBlur
              stdDeviation="7"
              id="feGaussianBlur261" />
      <feColorMatrix
              type="matrix"
              values="0 0 0 0 0 0 0 0 0 0 0 0 0 0 0 0 0 0 0.1 0"
              id="feColorMatrix263" />
      <feBlend
              mode="normal"
              in2="BackgroundImageFix"
              result="effect1_dropShadow"
              id="feBlend265" />
      <feBlend
              mode="normal"
              in="SourceGraphic"
              in2="effect1_dropShadow"
              result="shape"
              id="feBlend267" />
    </filter>
    <linearGradient
            id="paint0_linear"
            x1="464"
            y1="4"
            x2="464"
            y2="904"
            gradientUnits="userSpaceOnUse">
      <stop
              stop-color="#FCFCFC"
              id="stop270" />
      <stop
              offset="1"
              stop-color="#F1F1F1"
              id="stop272" />
    </linearGradient>
  </defs>
</svg>
