<svg width="212" height="166" viewBox="0 0 212 166" fill="none" xmlns="http://www.w3.org/2000/svg">
<g clip-path="url(#clip0)">
<path d="M205.3 61.8C214.3 90.3 214.2 121.5 199.4 137.5C184.5 153.7 154.9 154.7 123.8 159C92.7 163.3 60.2 171.1 38.7 157.5C17.2 143.9 6.9 109.2 15.4 83.3C23.9 57.4 51.1 40.2 78.3 24.8C105.3 9.30001 132.5 -4.49999 155.1 1.50001C177.8 7.50001 196.1 33.2 205.3 61.8Z" fill="#F2F2F2"/>
<path d="M28.9 9.30005C28.9 12.1 26.6 14.3 23.9 14.3" stroke="#939393" stroke-miterlimit="10"/>
<path d="M33.9 14.3C31.1 14.3 28.9 12 28.9 9.30005" stroke="#939393" stroke-miterlimit="10"/>
<path d="M23.9 14.3C26.7 14.3 28.9 16.6 28.9 19.3" stroke="#939393" stroke-miterlimit="10"/>
<path d="M28.9 19.4C28.9 16.6 31.2 14.4 33.9 14.4" stroke="#939393" stroke-miterlimit="10"/>
<path d="M194.3 117.3C194.3 120.1 192 122.3 189.3 122.3" stroke="#939393" stroke-miterlimit="10"/>
<path d="M199.3 122.3C196.5 122.3 194.3 120 194.3 117.3" stroke="#939393" stroke-miterlimit="10"/>
<path d="M189.3 122.3C192.1 122.3 194.3 124.6 194.3 127.3" stroke="#939393" stroke-miterlimit="10"/>
<path d="M194.3 127.3C194.3 124.5 196.6 122.3 199.3 122.3" stroke="#939393" stroke-miterlimit="10"/>
<path d="M176.5 35.3C176.5 38.1 174.2 40.3 171.5 40.3" stroke="#939393" stroke-miterlimit="10"/>
<path d="M181.5 40.3C178.7 40.3 176.5 38 176.5 35.3" stroke="#939393" stroke-miterlimit="10"/>
<path d="M171.4 40.3C174.2 40.3 176.4 42.6 176.4 45.3" stroke="#939393" stroke-miterlimit="10"/>
<path d="M176.5 45.3C176.5 42.5 178.8 40.3 181.5 40.3" stroke="#939393" stroke-miterlimit="10"/>
<path d="M55.7 16.8C55.7 19.6 53.4 21.8 50.7 21.8" stroke="#939393" stroke-miterlimit="10"/>
<path d="M60.7 21.8C57.9 21.8 55.7 19.5 55.7 16.8" stroke="#939393" stroke-miterlimit="10"/>
<path d="M50.7 21.8C53.5 21.8 55.7 24.1 55.7 26.8" stroke="#939393" stroke-miterlimit="10"/>
<path d="M55.7 26.9C55.7 24.1 58 21.9 60.7 21.9" stroke="#939393" stroke-miterlimit="10"/>
<path d="M5 84.5C5 87.3 2.7 89.5 0 89.5" stroke="#939393" stroke-miterlimit="10"/>
<path d="M10.1 89.5C7.3 89.5 5.1 87.2 5.1 84.5" stroke="#939393" stroke-miterlimit="10"/>
<path d="M0 89.5C2.8 89.5 5 91.8 5 94.5" stroke="#939393" stroke-miterlimit="10"/>
<path d="M5 94.5C5 91.7 7.3 89.5 10 89.5" stroke="#939393" stroke-miterlimit="10"/>
<path d="M128.1 4.30005C128.1 7.10005 125.8 9.30005 123.1 9.30005" stroke="#939393" stroke-miterlimit="10"/>
<path d="M133.1 9.30005C130.3 9.30005 128.1 7.00005 128.1 4.30005" stroke="#939393" stroke-miterlimit="10"/>
<path d="M123.1 9.30005C125.9 9.30005 128.1 11.6 128.1 14.3" stroke="#939393" stroke-miterlimit="10"/>
<path d="M128.1 14.3C128.1 11.5 130.4 9.30005 133.1 9.30005" stroke="#939393" stroke-miterlimit="10"/>
<path d="M28.9 136.7C30.6673 136.7 32.1 135.267 32.1 133.5C32.1 131.733 30.6673 130.3 28.9 130.3C27.1327 130.3 25.7 131.733 25.7 133.5C25.7 135.267 27.1327 136.7 28.9 136.7Z" stroke="#939393" stroke-miterlimit="10"/>
<path d="M206.9 81.9C208.667 81.9 210.1 80.4673 210.1 78.7C210.1 76.9327 208.667 75.5 206.9 75.5C205.133 75.5 203.7 76.9327 203.7 78.7C203.7 80.4673 205.133 81.9 206.9 81.9Z" stroke="#939393" stroke-miterlimit="10"/>
<path d="M128.1 131.3H93.2L101.6 103.2H119.8L128.1 131.3Z" fill="white" stroke="#939393" stroke-miterlimit="10"/>
<path d="M166.1 105.7H55.2C42.4 105.7 32.1 95.3 32.1 82.6C32.1 69.8 42.5 59.5 55.2 59.5H166.1C178.9 59.5 189.2 69.9 189.2 82.6C189.3 95.4 178.9 105.7 166.1 105.7Z" fill="white" stroke="#939393" stroke-miterlimit="10"/>
<path d="M110.7 94.8C117.438 94.8 122.9 89.3379 122.9 82.6C122.9 75.8621 117.438 70.4 110.7 70.4C103.962 70.4 98.5 75.8621 98.5 82.6C98.5 89.3379 103.962 94.8 110.7 94.8Z" fill="#E4EAEF" stroke="#939393" stroke-miterlimit="10"/>
<path d="M110.8 29.1C138.4 29.1 160.7 51.4 160.7 79C160.7 84.8 159.7 90.4 157.8 95.6C157.8 95.7 157.9 95.7 157.9 95.8C158 95.9 158.5 96.5 158.7 96.7C159.6 97.7 160.7 98.5 161.7 99.4C162 99.6 162.2 99.9 162.4 100.1C165.1 93.6 166.6 86.4 166.6 78.9C166.6 48.1 141.6 23.1 110.8 23.1C80 23.1 55 48.2 55 79C55 87.7 57 96 60.6 103.3C61.3 101.1 62.7 99.2 64.9 98.4C62.4 92.4 61 85.9 61 79C60.9 51.5 83.2 29.1 110.8 29.1Z" fill="#E4EAEF" stroke="#939393" stroke-miterlimit="10"/>
<path fill-rule="evenodd" clip-rule="evenodd" d="M58 128.5L50.7 121.1V96.9L58 89.5V128.5Z" fill="white" stroke="#939393" stroke-miterlimit="10"/>
<path fill-rule="evenodd" clip-rule="evenodd" d="M65.1 133.5H59.8C58.8 133.5 58 132.7 58 131.7V86.3C58 85.3 58.8 84.5 59.8 84.5H65.1C66.1 84.5 66.9 85.3 66.9 86.3V131.7C66.9 132.7 66.1 133.5 65.1 133.5Z" fill="white" stroke="#939393" stroke-miterlimit="10"/>
<path fill-rule="evenodd" clip-rule="evenodd" d="M163 90L170.3 97.4V121.6L163 129V90Z" fill="white" stroke="#939393" stroke-miterlimit="10"/>
<path fill-rule="evenodd" clip-rule="evenodd" d="M156.1 84.5H161.4C162.4 84.5 163.2 85.3 163.2 86.3V131.7C163.2 132.7 162.4 133.5 161.4 133.5H156.1C155.1 133.5 154.3 132.7 154.3 131.7V86.3C154.3 85.3 155.1 84.5 156.1 84.5Z" fill="white" stroke="#939393" stroke-miterlimit="10"/>
</g>
<defs>
<clipPath id="clip0">
<rect width="211.4" height="165.2" fill="white"/>
</clipPath>
</defs>
</svg>
