<svg width="12" height="12" viewBox="0 0 12 12" xmlns="http://www.w3.org/2000/svg" fill="none">
  <g stroke="null" id="svg_4">
   <path stroke="null" id="svg_1" fill="black" d="m6,9.65733c-0.60348,0 -1.09327,0.48978 -1.09327,1.09327c0,0.60348 0.48978,1.09327 1.09327,1.09327c0.60348,0 1.09327,-0.48978 1.09327,-1.09327c0,-0.60348 -0.48978,-1.09327 -1.09327,-1.09327z"/>
   <path stroke="null" id="svg_2" fill="black" d="m0.61663,5.06719c3.0396,-2.80815 7.72717,-2.80815 10.76672,0c0.2772,0.25608 0.29431,0.68838 0.03826,0.96557c-0.2561,0.27719 -0.68843,0.2943 -0.96557,0.03822c-2.51599,-2.32442 -6.39607,-2.32442 -8.91207,0c-0.27719,0.25608 -0.70948,0.23897 -0.96556,-0.03822c-0.25608,-0.27719 -0.23897,-0.70949 0.03822,-0.96557z" clip-rule="evenodd" fill-rule="evenodd" opacity="0.15"/>
   <path stroke="null" id="svg_3" fill="black" d="m8.7136,8.57888c-1.5221,-1.44098 -3.90506,-1.44098 -5.42714,0c-0.27404,0.25943 -0.70651,0.24762 -0.96596,-0.02646c-0.25944,-0.27403 -0.24761,-0.70647 0.02643,-0.96596c2.04909,-1.93991 5.25711,-1.93991 7.30622,0c0.27403,0.25949 0.28583,0.69193 0.0264,0.96596c-0.25943,0.27408 -0.69193,0.28589 -0.96596,0.02646z" clip-rule="evenodd" fill-rule="evenodd"/>
  </g>
</svg>