<svg width="12" height="12" viewBox="0 0 12 12" xmlns="http://www.w3.org/2000/svg" fill="null">
  <path stroke="none" id="svg_1" fill="null" d="m10.37043,1.01907c0.21383,-0.19583 0.54595,-0.18124 0.74177,0.03259c0.19583,0.21383 0.18123,0.54592 -0.0326,0.74175l-8.66253,7.93336c-0.21383,0.19583 -0.54592,0.18123 -0.74175,-0.0326c-0.19583,-0.21383 -0.18124,-0.54595 0.03259,-0.74177l0.93898,-0.8599c-0.06585,-0.03323 -0.12717,-0.07823 -0.18078,-0.13487c-0.24918,-0.26318 -0.23781,-0.67856 0.02538,-0.92773c0.79562,-0.75322 1.77316,-1.20195 2.78553,-1.34616l1.83945,-1.68459c-1.88538,-0.33773 -3.89392,0.18733 -5.39615,1.57517c-0.26622,0.24595 -0.6814,0.22951 -0.92735,-0.0367c-0.24595,-0.26622 -0.22951,-0.68141 0.0367,-0.92736c2.06457,-1.90736 4.92075,-2.46582 7.44884,-1.67536l2.09192,-1.91582zm-1.10996,3.78797l1.00139,-0.91712c0.31626,0.21379 0.62008,0.4539 0.90846,0.72033c0.26623,0.24595 0.28266,0.66114 0.03675,0.92736c-0.24596,0.26622 -0.66119,0.28265 -0.92736,0.0367c-0.31894,-0.29465 -0.66071,-0.5504 -1.01924,-0.76727zm-1.31907,1.20799l-1.11463,1.02085c0.64754,0.14411 1.26473,0.45985 1.77944,0.94715c0.26318,0.24917 0.67856,0.23777 0.92773,-0.02541c0.24917,-0.26318 0.23783,-0.67856 -0.02536,-0.92773c-0.46919,-0.4442 -1.00165,-0.78246 -1.56718,-1.01486zm-2.9914,4.05373c0,-0.5796 0.4704,-1.05 1.05,-1.05c0.5796,0 1.05,0.4704 1.05,1.05c0,0.5796 -0.4704,1.05 -1.05,1.05c-0.5796,0 -1.05,-0.4704 -1.05,-1.05z"
    clip-rule="evenodd" fill-rule="evenodd"/>
</svg>