<svg width="12" height="12" viewBox="0 0 12 12" xmlns="http://www.w3.org/2000/svg" fill="none">
  <g stroke="null" id="svg_4">
   <path stroke="null" id="svg_1" fill="black" d="m6,9.73234c-0.57363,0 -1.03919,0.46556 -1.03919,1.03919c0,0.57363 0.46556,1.03919 1.03919,1.03919c0.57363,0 1.03919,-0.46556 1.03919,-1.03919c0,-0.57363 -0.46556,-1.03919 -1.03919,-1.03919z"/>
   <path stroke="null" id="svg_2" fill="black" d="m0.88293,5.36926c2.88924,-2.66924 7.34493,-2.66924 10.23412,0c0.26349,0.24341 0.27975,0.65433 0.03637,0.9178c-0.24343,0.26348 -0.65438,0.27974 -0.91781,0.03632c-2.39153,-2.20943 -6.07967,-2.20943 -8.47121,0c-0.26348,0.24341 -0.67438,0.22715 -0.9178,-0.03632c-0.24341,-0.26348 -0.22715,-0.67439 0.03632,-0.9178z" clip-rule="evenodd" fill-rule="evenodd"/>
   <path stroke="null" id="svg_3" fill="black" d="m8.57936,8.70724c-1.44681,-1.3697 -3.71188,-1.3697 -5.15868,0c-0.26048,0.2466 -0.67156,0.23538 -0.91817,-0.02515c-0.24661,-0.26047 -0.23536,-0.67152 0.02512,-0.91817c1.94772,-1.84395 4.99706,-1.84395 6.9448,0c0.26047,0.24665 0.2717,0.6577 0.0251,0.91817c-0.2466,0.26052 -0.6577,0.27175 -0.91817,0.02515z" clip-rule="evenodd" fill-rule="evenodd"/>
  </g>
</svg>