<svg width="36" height="36" viewBox="0 0 36 36" fill="none" xmlns="http://www.w3.org/2000/svg">
<path fill-rule="evenodd" clip-rule="evenodd" d="M16.22 6.17396C16.22 7.09603 16.9675 7.84352 17.8895 7.84352C18.8116 7.84352 19.5591 7.09603 19.5591 6.17396C19.5591 5.25188 18.8116 4.50439 17.8895 4.50439C16.9675 4.50439 16.22 5.25188 16.22 6.17396Z" stroke="black" stroke-linecap="round" stroke-linejoin="round"/>
<path fill-rule="evenodd" clip-rule="evenodd" d="M27.0722 6.17391C27.0722 8.4791 25.2848 10.3478 23.0798 10.3478H12.6995C10.4945 10.3478 8.70703 8.4791 8.70703 6.17391C8.70703 3.86872 10.4945 2 12.6995 2H23.0798C25.2848 2 27.0722 3.86872 27.0722 6.17391Z" stroke="black" stroke-linecap="round" stroke-linejoin="round"/>
<path d="M3.61207 7.78613L2 6.17406L3.61207 4.56199" stroke="black" stroke-linecap="round"/>
<path d="M32.0522 7.78613L33.6643 6.17406L32.0522 4.56199" stroke="black" stroke-linecap="round"/>
<path d="M17.0548 10.3477L15.3853 14.9061H20.7642L19.0947 10.3477" stroke="black"/>
<path fill-rule="evenodd" clip-rule="evenodd" d="M30.6896 32.8867C30.6896 33.5014 30.1913 33.9998 29.5766 33.9998H6.20264C5.58793 33.9998 5.0896 33.5014 5.0896 32.8867V30.6606H15.107V31.7737H20.6722V30.6606H30.6896V32.8867Z" stroke="black" stroke-linecap="round" stroke-linejoin="round"/>
<path d="M6.20264 30.6607V17.3042C6.20264 16.0748 7.19929 15.0781 8.42872 15.0781H27.3505C28.5799 15.0781 29.5765 16.0748 29.5765 17.3042V30.6607" stroke="black" stroke-linecap="round" stroke-linejoin="round"/>
</svg>
