<svg width="28" height="16" viewBox="0 1 28 16" xmlns="http://www.w3.org/2000/svg" fill="none">
   <rect stroke="null" x="0.46328" y="1.91523" id="svg_1" fill="black" rx="3" height="13.92348" width="27.07344"/>
   <path stroke="null" id="svg_2" fill="white" d="m10.2173,7.84199c0,-0.68225 -0.42467,-1.19742 -1.46893,-1.19742l-1.48288,0l0,4.55298l1.67085,0c1.09299,0 1.46893,-0.50125 1.46893,-1.31577c0,-0.52213 -0.22974,-0.90503 -0.75187,-1.05122l0,-0.01392c0.41074,-0.17404 0.5639,-0.49428 0.5639,-0.97464zm-1.95625,1.40627l0.6196,0c0.37593,0 0.51517,0.12531 0.51517,0.55694c0,0.42467 -0.1462,0.57086 -0.51517,0.57086l-0.6196,0l0,-1.1278zm0,-1.76132l0.52213,0c0.36897,0 0.50125,0.12531 0.50125,0.49428c0,0.36897 -0.12531,0.52909 -0.49428,0.52909l-0.52909,0l0,-1.02338zm3.12366,-0.84237l0,4.55298l2.75685,0l0,-0.86326l-1.73347,0l0,-1.08603l1.24615,0l0,-0.76579l-1.24615,0l0,-0.96768l1.67778,0l0,-0.87022l-2.70116,0zm3.39779,0l0,0.87718l1.01641,0l0,3.6758l1.03034,0l0,-3.6758l1.01641,0l0,-0.87718l-3.06317,0zm4.48746,3.62707l1.32969,0l0.2367,0.92591l1.0373,0l-1.35058,-4.55298l-1.16261,0l-1.35058,4.55298l1.03034,0l0.22974,-0.92591zm0.6544,-2.68723l0.01392,0l0.4734,1.93536l-0.96072,0l0.4734,-1.93536z"/>
</svg>