<svg width="55" height="46" viewBox="0 0 55 46" fill="none" xmlns="http://www.w3.org/2000/svg">
<path d="M47.0373 45.3029C40.8071 47.9379 30.9932 42.5032 22.7782 38.9898C14.5632 35.5314 7.94705 33.9943 3.92225 29.1085C-0.0474177 24.2777 -1.42578 16.0982 1.77201 10.9928C4.9698 5.94239 12.6886 3.96613 20.5177 2.09967C28.3467 0.288096 36.2861 -1.41368 42.6265 1.82519C48.967 5.00916 53.7085 13.0789 54.7561 22.4661C55.8587 31.9082 53.2123 42.6129 47.0373 45.3029Z" fill="#F8F9F7"/>
<path d="M34.1675 13.7702C35.9065 13.4907 37.6643 13.3443 39.4255 13.3324C39.5769 13.3301 39.723 13.3876 39.8322 13.4924C39.8852 13.5438 39.9275 13.6052 39.9565 13.6732C39.9855 13.7411 40.0007 13.8141 40.0011 13.888V31.4087C39.9997 31.5556 39.9407 31.6961 39.8368 31.8C39.7329 31.9039 39.5924 31.9629 39.4455 31.9643C30.2307 32.0788 27.5006 35 27.5006 35M27.5006 35V16.3681C27.5006 16.3681 24.7727 13.4502 15.5756 13.3324C15.4235 13.3295 15.2764 13.387 15.1667 13.4924C15.114 13.544 15.0722 13.6055 15.0436 13.6734C15.015 13.7413 15.0002 13.8143 15 13.888V31.4087C15.0014 31.5556 15.0604 31.6961 15.1643 31.8C15.2682 31.9039 15.4087 31.9629 15.5556 31.9643C24.7704 32.0788 27.5006 35 27.5006 35ZM27.5005 34.4522C27.676 33.0121 28.3139 31.6677 29.3183 30.6209C30.6108 29.2267 32.3058 28.27 34.1674 27.8841V10.5467C34.1658 10.4573 34.1417 10.3698 34.0974 10.2922C34.0532 10.2145 33.9901 10.1492 33.9141 10.1022C33.8332 10.0514 33.7423 10.0185 33.6476 10.0059C33.5529 9.99322 33.4566 10.0011 33.3652 10.0289C31.806 10.4769 30.4039 11.3535 29.3183 12.559C28.3143 13.6052 27.6765 14.9487 27.5005 16.3881" stroke="black" stroke-width="1.5" stroke-linecap="round" stroke-linejoin="round"/>
</svg>