<svg width="191" height="138" viewBox="0 0 191 138" fill="none" xmlns="http://www.w3.org/2000/svg">
    <g>
      <path d="M156.94 75.8199C140.94 92.4799 118.48 107.16 94.47 112.41C70.43 117.59 44.92 113.24 30.08 102.07C15.14 90.9399 10.85 72.9299 16.21 53.7399C21.47 34.5899 36.36 14.2499 54.7 9.01986C73.02 3.71986 94.69 13.6199 118.23 18.2499C141.77 22.8799 167.09 22.2399 174.93 31.2999C182.67 40.3799 173.02 59.0499 156.94 75.8199Z" fill="#F2F2F2"/>
      <g>
        <path d="M78.33 54.0001C82.44 43.7601 92.46 36.5301 104.17 36.5301C109.64 36.5301 114.73 38.1201 119.04 40.8501C113.8 32.0101 104.16 26.0801 93.14 26.0801C76.52 26.0801 63.04 39.5501 63.04 56.1801C63.04 72.8001 76.51 86.2801 93.14 86.2801C103.27 86.2801 112.22 81.2701 117.67 73.6101H85.87L78.33 54.0001Z" fill="white" stroke="#939393" stroke-miterlimit="10"/>
        <path d="M119.04 40.8503C114.74 38.1203 109.65 36.5303 104.17 36.5303C92.46 36.5303 82.44 43.7603 78.33 54.0003L85.87 73.6003H117.68C121.18 68.6803 123.24 62.6703 123.24 56.1803C123.24 50.5803 121.7 45.3403 119.04 40.8503Z" fill="#E4EAEF" stroke="#939393" stroke-miterlimit="10"/>
        <path d="M127.5 116.27C125.86 103.91 127.5 88.8496 102.48 88.8496H86.59C61.57 88.8496 63.21 103.91 61.57 116.27H127.5Z" fill="white" stroke="#939393" stroke-miterlimit="10"/>
        <path d="M83.95 112.07V116.27" stroke="#939393" stroke-miterlimit="10"/>
        <path d="M110.86 112.07V116.27" stroke="#939393" stroke-miterlimit="10"/>
        <path d="M110.38 84.2803H76.94V89.8403H110.38V84.2803Z" fill="white" stroke="#939393" stroke-miterlimit="10"/>
        <path d="M97.95 25.5999C96.97 25.0699 92.66 23.4199 88.8 23.9899C84.94 24.5599 83.05 25.4499 80.56 27.2899C79.75 27.8899 79.08 28.4399 78.52 28.9599C79.23 27.9799 79.97 27.0799 80.76 26.2699C81.1 25.9199 81.45 25.5799 81.8 25.2599C81.98 25.0999 82.16 24.9399 82.34 24.7899C82.7 24.4899 83.07 24.1999 83.44 23.9199C83.81 23.6499 84.19 23.3899 84.58 23.1399C84.97 22.8999 85.36 22.6699 85.75 22.4499C86.35 22.1299 86.96 21.8399 87.58 21.5799C87.73 21.5199 87.87 21.4599 88.02 21.4099C88.07 21.3899 88.12 21.3799 88.17 21.3599C88.27 21.3299 88.36 21.2899 88.46 21.2599C88.52 21.2399 88.57 21.2299 88.63 21.2099C88.72 21.1799 88.81 21.1599 88.89 21.1299C88.94 21.1399 89 21.1199 89.06 21.0999C89.15 21.0799 89.23 21.0599 89.32 21.0399C89.38 21.0299 89.44 21.0099 89.5 20.9999C89.58 20.9799 89.67 20.9699 89.75 20.9499C89.81 20.9399 89.87 20.9299 89.92 20.9199C90.01 20.8999 90.09 20.8899 90.18 20.8799C90.23 20.8699 90.29 20.8599 90.34 20.8599C90.44 20.8499 90.53 20.8399 90.62 20.8199C90.66 20.8099 90.71 20.8099 90.75 20.7999C90.88 20.7899 91.01 20.7699 91.14 20.7599C91.19 20.7599 91.24 20.7499 91.29 20.7499C91.37 20.7399 91.45 20.7399 91.53 20.7399C91.59 20.7399 91.65 20.7399 91.72 20.7299C91.78 20.7299 91.85 20.7299 91.91 20.7199C91.97 20.7199 92.04 20.7199 92.1 20.7199C92.16 20.7199 92.22 20.7199 92.27 20.7199C92.34 20.7199 92.4 20.7199 92.46 20.7199C92.51 20.7199 92.56 20.7199 92.62 20.7299C92.69 20.7299 92.75 20.7399 92.82 20.7399C92.87 20.7399 92.91 20.7499 92.95 20.7499C93.02 20.7499 93.09 20.7599 93.15 20.7599C93.18 20.7599 93.22 20.7699 93.25 20.7699C93.32 20.7799 93.4 20.7799 93.47 20.7899C93.54 20.8099 93.61 20.8299 93.69 20.8499C93.7 20.8499 93.7 20.8499 93.71 20.8599C93.78 20.8799 93.85 20.8999 93.92 20.9199C93.93 20.9199 93.95 20.9299 93.96 20.9299C94.03 20.9499 94.1 20.9799 94.17 20.9999C94.19 21.0099 94.21 21.0099 94.23 21.0199C94.3 21.0399 94.36 21.0699 94.43 21.0899C94.45 21.0999 94.48 21.1099 94.5 21.1199C94.56 21.1399 94.63 21.1699 94.7 21.1999C94.73 21.2099 94.76 21.2199 94.79 21.2399C94.87 21.2699 94.94 21.2999 95 21.3299C95.04 21.3499 95.07 21.3599 95.11 21.3799C95.17 21.4099 95.23 21.4399 95.3 21.4699C95.34 21.4899 95.38 21.5099 95.42 21.5299C95.48 21.5599 95.54 21.5899 95.6 21.6199C95.64 21.6399 95.69 21.6599 95.73 21.6899C95.79 21.7199 95.85 21.7499 95.91 21.7799C95.96 21.8099 96.01 21.8299 96.05 21.8599C96.11 21.8899 96.17 21.9199 96.22 21.9599C96.27 21.9899 96.32 22.0199 96.37 22.0499C96.43 22.0799 96.48 22.1199 96.54 22.1499C96.59 22.1799 96.65 22.2199 96.7 22.2499C96.76 22.2899 96.81 22.3199 96.87 22.3599C96.93 22.3999 96.98 22.4299 97.04 22.4699C97.1 22.5099 97.15 22.5399 97.21 22.5799C97.27 22.6199 97.33 22.6599 97.39 22.6999C97.44 22.7399 97.5 22.7799 97.55 22.8199C97.61 22.8599 97.67 22.9099 97.73 22.9599C97.78 22.9999 97.84 23.0399 97.89 23.0899C97.95 23.1399 98.01 23.1899 98.08 23.2399C98.13 23.2799 98.19 23.3299 98.24 23.3699C98.3 23.4199 98.37 23.4799 98.43 23.5299C98.48 23.5799 98.54 23.6199 98.59 23.6699C98.65 23.7299 98.72 23.7899 98.78 23.8499C98.83 23.8999 98.88 23.9499 98.94 23.9999C99 24.0599 99.07 24.1299 99.13 24.1899C99.18 24.2399 99.23 24.2899 99.28 24.3399C99.35 24.4099 99.41 24.4699 99.48 24.5399C99.53 24.5899 99.58 24.6499 99.63 24.6999C99.7 24.7699 99.76 24.8399 99.83 24.9199C99.88 24.9799 99.93 25.0299 99.98 25.0899C100.05 25.1699 100.11 25.2399 100.17 25.3199C100.22 25.3799 100.27 25.4399 100.32 25.4999C100.38 25.5799 100.45 25.6599 100.51 25.7399C100.56 25.7999 100.61 25.8699 100.66 25.9299C100.72 26.0099 100.79 26.0999 100.85 26.1899C100.9 26.2599 100.95 26.3199 101 26.3899C101.06 26.4799 101.13 26.5699 101.19 26.6599C101.24 26.7299 101.28 26.7999 101.33 26.8699C101.39 26.9699 101.46 27.0599 101.52 27.1599C101.57 27.2299 101.61 27.2999 101.66 27.3799C101.7 27.4399 101.73 27.4999 101.77 27.5599C102.34 27.6399 102.83 27.8399 103.27 28.0799C103.58 28.0799 103.88 28.1099 104.16 28.1599C100.66 21.4799 94.87 20.4999 94.28 20.3799C94.07 20.3399 93.77 20.2699 93.41 20.2099C92.92 20.1299 92.3 20.0499 91.56 20.0199C91.2 19.9999 90.81 19.9999 90.39 20.0199C88.91 20.0899 87.11 20.4099 85.07 21.2599C84.45 21.5199 83.84 21.8099 83.24 22.1299C82.84 22.3399 82.45 22.5699 82.07 22.8199C81.69 23.0699 81.31 23.3199 80.93 23.5999C79.81 24.4199 78.75 25.3799 77.75 26.4799C77.58 26.6599 77.42 26.8499 77.25 27.0399C74.8 29.9199 72.73 33.7399 71.13 38.6499C70.81 39.6299 70.51 40.6599 70.22 41.7299V41.7399H70.21C69.93 41.7099 69.7 42.0999 69.7 42.0999C67.1 51.0199 67.76 58.9099 68.24 62.2099C67.14 63.3599 66.59 64.9499 66.56 66.7399C66.29 67.6499 66 68.7199 65.93 69.2999C65.92 69.3399 65.95 69.4199 65.98 69.4999C64.6 71.0499 64.91 74.1499 66.81 76.8299C66.81 76.8399 66.82 76.8399 66.82 76.8499C66.82 76.8599 66.83 76.8599 66.83 76.8699C66.98 77.0799 67.13 77.2699 67.29 77.4599C69.33 79.9099 72.15 80.9299 73.9 79.7899C74 79.9099 74.06 79.9799 74.06 79.9799C74.06 79.9799 75.42 79.7599 75.7 79.6799C75.89 79.6299 76.24 79.4099 76.6 79.1199C78.52 79.4799 80.34 79.1499 81.74 78.0399C84.94 75.4899 84.64 69.7799 81.06 65.2699C78.5 62.0399 74.95 60.3199 71.96 60.5299C71.35 55.8399 71.35 49.1999 73.25 42.8999C73.25 42.8999 73.24 42.3899 73.01 42.2599C72.98 42.2499 72.95 42.2299 72.91 42.2099C73.41 40.9799 73.98 39.7499 74.63 38.5699C74.88 38.1099 75.15 37.6599 75.42 37.2199C75.56 36.9999 75.7 36.7799 75.84 36.5599C76.27 35.9099 76.74 35.2799 77.23 34.6899C77.4 34.4899 77.56 34.2999 77.74 34.0999C78.04 33.7699 78.35 33.4499 78.67 33.1399C79.13 33.1499 79.74 33.0699 79.99 32.7899C80.3 32.4299 84.49 28.3599 89.83 26.5999C95.17 24.8399 98.94 26.5399 98.94 26.5399C99.16 26.2599 99.05 26.1999 97.95 25.5999ZM75.55 34.0899C75.85 33.4399 76.16 32.8199 76.48 32.2299C76.59 32.3399 76.75 32.4499 76.94 32.5499C76.45 33.0399 75.99 33.5499 75.55 34.0899Z" fill="white" stroke="#939393" stroke-miterlimit="10"/>
        <path d="M78.34 33.1302C78.75 33.1902 79.68 33.1602 79.98 32.8002C80.29 32.4402 84.48 28.3702 89.82 26.6102C95.16 24.8502 98.93 26.5502 98.93 26.5502C99.16 26.2702 99.05 26.2002 97.95 25.6002C96.97 25.0702 92.66 23.4202 88.8 23.9902C84.94 24.5602 83.05 25.4502 80.56 27.2902C78.07 29.1302 76.86 30.5102 76.31 31.8502" fill="#E4EAEF"/>
        <path d="M78.34 33.1302C78.75 33.1902 79.68 33.1602 79.98 32.8002C80.29 32.4402 84.48 28.3702 89.82 26.6102C95.16 24.8502 98.93 26.5502 98.93 26.5502C99.16 26.2702 99.05 26.2002 97.95 25.6002C96.97 25.0702 92.66 23.4202 88.8 23.9902C84.94 24.5602 83.05 25.4502 80.56 27.2902C78.07 29.1302 76.86 30.5102 76.31 31.8502" stroke="#939393" stroke-miterlimit="10"/>
        <path d="M79.5191 32.7115C79.6045 32.3913 78.9558 31.9401 78.0701 31.7035C77.1844 31.467 76.3971 31.5348 76.3116 31.8549C76.2261 32.175 76.8748 32.6263 77.7605 32.8629C78.6462 33.0994 79.4336 33.0316 79.5191 32.7115Z" fill="white" stroke="#939393" stroke-miterlimit="10"/>
        <path d="M79.36 32.3702C79 32.0702 78.7 31.9002 78.15 31.7602C78.15 31.7602 78.15 31.7602 78.14 31.7702C77.98 31.7202 77.86 31.6902 77.86 31.7002C74.76 34.3702 72.63 38.1902 71.15 42.0202L71.37 42.1402V42.1502L72.67 42.8402C74.15 39.0102 76.29 35.1802 79.39 32.5102C79.41 32.4802 79.39 32.3902 79.36 32.3702Z" fill="white" stroke="#939393" stroke-miterlimit="10"/>
        <path d="M72.67 42.8298C74.15 38.9998 76.29 35.1698 79.39 32.4998C79.41 32.4798 79.39 32.3998 79.36 32.3698C79 32.0698 78.7 31.8998 78.15 31.7598C75.01 34.4298 72.86 38.2798 71.37 42.1398" fill="white"/>
        <path d="M72.67 42.8298C74.15 38.9998 76.29 35.1698 79.39 32.4998C79.41 32.4798 79.39 32.3998 79.36 32.3698C79 32.0698 78.7 31.8998 78.15 31.7598C75.01 34.4298 72.86 38.2798 71.37 42.1398" stroke="#939393" stroke-miterlimit="10"/>
        <path d="M72.45 42.7007C73.94 38.8407 76.09 34.9907 79.23 32.3207C78.71 31.9007 77.88 31.6707 77.86 31.6907C74.76 34.3607 72.63 38.1807 71.15 42.0107" fill="white"/>
        <path d="M72.45 42.7007C73.94 38.8407 76.09 34.9907 79.23 32.3207C78.71 31.9007 77.88 31.6707 77.86 31.6907C74.76 34.3607 72.63 38.1807 71.15 42.0107" stroke="#939393" stroke-miterlimit="10"/>
        <path d="M78.3 31.8903C78.33 31.8703 78.35 31.8503 78.38 31.8203L78.3 31.8903Z" fill="white"/>
        <path d="M78.3 31.8903C78.33 31.8703 78.35 31.8503 78.38 31.8203" stroke="#939393" stroke-miterlimit="10"/>
        <path d="M101.76 27.5499C102.34 27.6299 102.83 27.8299 103.28 28.0699C103.59 28.0699 103.89 28.0999 104.17 28.1499C100.67 21.4699 94.88 20.4899 94.29 20.3699C93.15 20.1399 89.72 19.3199 85.06 21.2599C78.43 24.0199 73.25 30.2999 70.22 41.7299L70.89 43.2099L72.6 42.6899L72.73 42.0699C75.76 30.6399 80.94 24.3599 87.57 21.5999C89.74 20.6999 91.94 20.6399 93.48 20.7999C95.47 21.3199 98.98 22.9699 101.76 27.5499Z" fill="white" stroke="#939393" stroke-miterlimit="10"/>
        <path d="M101.76 27.5501C102.34 27.6301 102.83 27.8301 103.27 28.0701C103.58 28.0701 103.88 28.1001 104.16 28.1501C103.22 26.4401 100 21.4001 93.72 20.6101C90.87 20.2501 93.32 20.7601 93.32 20.7601C95.28 21.2401 98.91 22.8401 101.76 27.5501Z" fill="#E4EAEF" stroke="#939393" stroke-miterlimit="10"/>
        <path d="M103.8 28.0902C103.92 28.1002 104.04 28.1202 104.16 28.1402C100.66 21.4802 94.88 20.4802 94.3 20.3602C93.16 20.1302 89.73 19.3102 85.07 21.2502C78.43 24.0202 73.25 30.3002 70.22 41.7302L70.89 43.2102L72.6 42.6902L72.73 42.0702C75.76 30.6402 80.94 24.3602 87.57 21.6002C90.03 20.5802 92.53 20.6402 94.06 20.8702C95.5 21.0902 100.2 21.8502 103.8 28.0902Z" fill="#E4EAEF" stroke="#939393" stroke-miterlimit="10"/>
        <path d="M81.7317 78.035C84.9357 75.4891 84.6308 69.7728 81.0507 65.2674C77.4706 60.762 71.9711 59.1734 68.7671 61.7193C65.5632 64.2652 65.8681 69.9815 69.4481 74.4869C73.0282 78.9924 78.5277 80.5809 81.7317 78.035Z" fill="#E4EAEF" stroke="#939393" stroke-miterlimit="10"/>
        <path d="M80.8147 78.3271C83.383 76.2863 82.833 71.3195 79.5863 67.2334C76.3395 63.1474 71.6253 61.4895 69.057 63.5303C66.4886 65.5712 67.0386 70.538 70.2854 74.624C73.5322 78.71 78.2463 80.368 80.8147 78.3271Z" fill="white" stroke="#939393" stroke-miterlimit="10"/>
        <path d="M80.6203 78.1632C83.0979 76.1945 82.53 71.3562 79.3519 67.3567C76.1738 63.3571 71.589 61.7108 69.1115 63.6795C66.6339 65.6482 67.2018 70.4864 70.3799 74.486C73.558 78.4855 78.1428 80.1318 80.6203 78.1632Z" fill="#E4EAEF" stroke="#939393" stroke-miterlimit="10"/>
        <path d="M66.8 76.8199C65.26 74.6599 64.76 72.3999 65.4 70.4299C65.71 69.4599 66.51 68.2399 67.19 67.7499C69.25 66.2899 72.77 67.7199 75.06 70.9499C77.35 74.1799 77.54 77.9799 75.49 79.4399C74.99 79.7899 73.6 80.0999 72.89 80.1899C70.68 80.4499 68.54 79.2699 66.8 76.8199Z" fill="#E4EAEF" stroke="#939393" stroke-miterlimit="10"/>
        <path d="M72.53 63.7399C71.47 59.3099 70.86 50.8199 73.25 42.8999C73.25 42.8999 73.24 42.3899 73.01 42.2599C72.78 42.1299 72.06 41.9199 70.21 41.7399C69.93 41.7099 69.7 42.0999 69.7 42.0999C66.27 53.8599 68.51 63.8499 68.51 63.8499C68.51 63.8499 68.48 63.9999 68.74 64.0799C69 64.1599 70.1 64.3899 70.67 64.4399C71.24 64.4899 71.85 64.3599 72.06 64.2299C72.27 64.0999 72.53 63.7399 72.53 63.7399Z" fill="#E4EAEF" stroke="#939393" stroke-miterlimit="10"/>
        <path d="M68.46 63.5999C69 63.8999 70.1 64.0899 70.85 64.0899C71.6 64.0899 71.86 64.0799 72.45 63.3799" fill="white"/>
        <path d="M68.46 63.5999C69 63.8999 70.1 64.0899 70.85 64.0899C71.6 64.0899 71.86 64.0799 72.45 63.3799" stroke="#939393" stroke-miterlimit="10"/>
        <path d="M69.7 42.1006C69.79 41.9506 71.2 42.1106 71.95 42.2406C72.7 42.3806 73.12 42.4706 73.25 42.9006" fill="white"/>
        <path d="M69.7 42.1006C69.79 41.9506 71.2 42.1106 71.95 42.2406C72.7 42.3806 73.12 42.4706 73.25 42.9006" stroke="#939393" stroke-miterlimit="10"/>
        <path d="M82.41 69.0595C82.75 69.1195 83.12 69.1895 83.52 69.2495C88.81 70.0995 99.67 70.9595 112.52 63.6095C113.95 62.7895 114.51 64.2895 114.9 65.0195C115.58 66.2695 115.42 67.1995 114.29 67.8495C109.22 70.7595 96.53 76.5995 83.75 73.6695" fill="#E4EAEF"/>
        <path d="M82.41 69.0595C82.75 69.1195 83.12 69.1895 83.52 69.2495C88.81 70.0995 99.67 70.9595 112.52 63.6095C113.95 62.7895 114.51 64.2895 114.9 65.0195C115.58 66.2695 115.42 67.1995 114.29 67.8495C109.22 70.7595 96.53 76.5995 83.75 73.6695" stroke="#939393" stroke-miterlimit="10"/>
        <path d="M116.75 81.1305L112.94 79.0305L115.23 86.9705L123.17 84.6805L119.9 82.8705C122.5 78.5905 124.46 73.5305 125.59 67.9805L129.99 68.9505L125.55 61.9805L118.58 66.4205L122.33 67.2505C121.14 72.4105 119.23 77.1205 116.75 81.1305Z" fill="#E4EAEF" stroke="#939393" stroke-miterlimit="10"/>
      </g>
    </g>
</svg>
