<svg width="191" height="137" viewBox="0 0 191 137" fill="none" xmlns="http://www.w3.org/2000/svg">
  <path d="M33.7093 48.7595C49.7093 32.0995 72.1693 17.4195 96.1794 12.1695C120.219 6.9895 145.729 11.3395 160.569 22.5095C175.509 33.6395 179.799 51.6495 174.439 70.8395C169.189 89.9895 154.289 110.329 135.949 115.559C117.629 120.859 95.9594 110.959 72.4193 106.329C48.8693 101.709 23.5593 102.339 15.7193 93.2795C7.97935 84.1995 17.6293 65.5295 33.7093 48.7595Z" fill="#F2F2F2"/>
  <g>
    <path d="M127.71 115.38C126.07 103.02 127.71 87.96 102.69 87.96H86.8C61.78 87.96 63.42 103.02 61.78 115.38H127.71Z" fill="white" stroke="#939393" stroke-miterlimit="10"/>
    <path d="M84.15 111.18V115.38" stroke="#939393" stroke-miterlimit="10"/>
    <path d="M111.07 111.18V115.38" stroke="#939393" stroke-miterlimit="10"/>
    <path d="M94.74 87.9603C112.038 87.9603 126.06 73.9379 126.06 56.6403C126.06 39.3428 112.038 25.3203 94.74 25.3203C77.4425 25.3203 63.42 39.3428 63.42 56.6403C63.42 73.9379 77.4425 87.9603 94.74 87.9603Z" fill="white" stroke="#939393" stroke-miterlimit="10"/>
    <path d="M115.71 82.4707H73.26V87.9607H115.71V82.4707Z" fill="white" stroke="#939393" stroke-miterlimit="10"/>
    <path d="M94.49 36.1904C82.3 36.1904 71.88 43.7204 67.6 54.3704L75.44 74.7604H113.54L121.38 54.3704C117.1 43.7104 106.68 36.1904 94.49 36.1904Z" fill="#E4EAEF" stroke="#939393" stroke-miterlimit="10"/>
    <path d="M62.88 54.11C62.88 36.1 77.27 21.5 95.02 21.5C112.77 21.5 127.17 36.1 127.17 54.11" stroke="#939393" stroke-miterlimit="10"/>
    <path d="M62.88 57.6002C62.88 39.5902 77.27 24.9902 95.03 24.9902C112.79 24.9902 127.18 39.5902 127.18 57.6002" stroke="#939393" stroke-miterlimit="10"/>
    <path fill-rule="evenodd" clip-rule="evenodd" d="M61.47 66.7799L58.5 63.7799V53.9199L61.47 50.9199V66.7799Z" fill="#E4EAEF" stroke="#939393" stroke-miterlimit="10"/>
    <path d="M64.4 61.46H62.22V86.86H64.4V61.46Z" fill="#E4EAEF"/>
    <path d="M64.4 85.8701V86.8701H63.4" stroke="#939393" stroke-miterlimit="10"/>
    <path d="M63.22 86.8701H62.22V85.8701" stroke="#939393" stroke-miterlimit="10"/>
    <path d="M62.22 83.7403V63.5303" stroke="#939393" stroke-miterlimit="10" stroke-dasharray="2.13 2.13"/>
    <path d="M62.22 62.46V61.46H63.22" stroke="#939393" stroke-miterlimit="10"/>
    <path d="M63.4 61.46H64.4V62.46" stroke="#939393" stroke-miterlimit="10"/>
    <path d="M64.4 64.5898V84.8098" stroke="#939393" stroke-miterlimit="10" stroke-dasharray="2.13 2.13"/>
    <path fill-rule="evenodd" clip-rule="evenodd" d="M63.3 68.8396C62.29 68.8396 61.47 68.0196 61.47 67.0096V50.6796C61.47 49.6696 62.29 48.8496 63.3 48.8496C64.31 48.8496 65.13 49.6696 65.13 50.6796V66.9996C65.13 68.0196 64.31 68.8396 63.3 68.8396Z" fill="#E4EAEF" stroke="#939393" stroke-miterlimit="10"/>
    <path fill-rule="evenodd" clip-rule="evenodd" d="M129.35 50.9199L132.32 53.9199V63.7799L129.35 66.7799V50.9199Z" fill="#E4EAEF" stroke="#939393" stroke-miterlimit="10"/>
    <path fill-rule="evenodd" clip-rule="evenodd" d="M127.52 48.8604C128.53 48.8604 129.35 49.6804 129.35 50.6904V67.0103C129.35 68.0203 128.53 68.8404 127.52 68.8404C126.51 68.8404 125.69 68.0203 125.69 67.0103V50.6804C125.7 49.6704 126.51 48.8604 127.52 48.8604Z" fill="#E4EAEF" stroke="#939393" stroke-miterlimit="10"/>
    <path fill-rule="evenodd" clip-rule="evenodd" d="M97.23 74.7003C97.23 73.3603 96.22 72.2803 94.92 72.1403C94.92 72.1003 94.92 72.0703 94.92 72.0703C75.99 72.0703 67.3 66.1003 65.47 58.2803C65.26 59.1403 65.13 60.0003 65.13 60.9003C65.13 69.9603 75.73 77.3003 94.92 77.3003C94.92 77.3003 94.92 77.2803 94.92 77.2603C96.22 77.1203 97.23 76.0403 97.23 74.7003Z" fill="#E4EAEF" stroke="#939393" stroke-miterlimit="10"/>
    <path d="M77.08 71.5098L79.14 74.7498C75.12 77.2698 70.95 79.0898 66.83 80.2298V83.9598C71.55 82.7498 76.36 80.5998 80.93 77.5698L83.35 81.3698L85.14 73.2998L77.08 71.5098Z" fill="#E4EAEF" stroke="#939393" stroke-miterlimit="10"/>
  </g>
</svg>
