<svg width="12" height="12" viewBox="0 0 12 12" xmlns="http://www.w3.org/2000/svg" fill="none">
  <path transform="rotate(14.6129 6.00218 6.00062)" id="svg_2" fill="white" d="m10.07728,3.2078c-1.32275,-1.93145 -3.81816,-2.67144 -5.97999,-1.77332c-0.2102,0.08733 -0.4514,-0.01228 -0.53872,-0.22248c-0.08733,-0.2102 0.01228,-0.4514 0.22248,-0.53872c2.52202,-1.04777 5.43319,-0.18449 6.9763,2.06877c1.37063,2.00125 1.32875,4.61237 -0.02088,6.55353l1.44789,0c0.22761,0 0.41214,0.18452 0.41214,0.41214c0,0.22762 -0.18453,0.41214 -0.41214,0.41214l-2.27959,0c-0.02521,0.00232 -0.0506,0.00232 -0.07583,0l-0.11744,0c-0.22762,0 -0.41214,-0.18452 -0.41214,-0.41214l0,-2.47287c0,-0.22762 0.18452,-0.41214 0.41214,-0.41214c0.22762,0 0.41214,0.18452 0.41214,0.41214l0,1.49575c1.09356,-1.65341 1.10631,-3.83973 -0.04635,-5.52281zm-8.19654,1.55419l0,-1.49734c-1.09759,1.65363 -1.11238,3.84303 0.04139,5.52834c1.32352,1.93326 3.82172,2.67293 5.98441,1.77181c0.21012,-0.08748 0.45141,0.01187 0.53895,0.22201c0.08754,0.21014 -0.01183,0.45138 -0.22193,0.53897c-2.52307,1.05113 -5.43754,0.18827 -6.98159,-2.06715c-1.37128,-2.003 -1.32764,-4.61634 0.02506,-6.55737l-1.44701,0c-0.22762,0 -0.41214,-0.18452 -0.41214,-0.41214c0,-0.22762 0.18452,-0.41214 0.41214,-0.41214l2.28139,0c0.02428,-0.00214 0.04872,-0.00214 0.07302,0l0.11846,0c0.22762,0 0.41214,0.18452 0.41214,0.41214l0,2.47287c0,0.22762 -0.18452,0.41214 -0.41214,0.41214c-0.22762,0 -0.41214,-0.18452 -0.41214,-0.41214z" clip-rule="evenodd" fill-rule="evenodd"/>
</svg>