<svg width="196" height="106" viewBox="0 0 196 106" fill="none" xmlns="http://www.w3.org/2000/svg">
<path d="M177.957 55.86C237.757 96.51 124.587 105.71 79.6174 105.71C34.6474 105.71 -19.7726 83.39 15.1074 35.6C30.5874 14.4 58.3574 6 103.327 6C148.297 6 140.147 30.16 177.957 55.86Z" fill="#F2F2F2"/>
<path d="M102.087 82.4C101.947 81.56 101.707 79.45 101.707 78.57C101.707 69.54 108.167 62.23 116.137 62.23C124.107 62.23 130.567 69.55 130.567 78.57C130.567 79.45 130.507 80.32 130.387 81.16" fill="#F7F8F9"/>
<path d="M102.087 82.4C101.947 81.56 101.707 79.45 101.707 78.57C101.707 69.54 108.167 62.23 116.137 62.23C124.107 62.23 130.567 69.55 130.567 78.57C130.567 79.45 130.507 80.32 130.387 81.16" stroke="#939393" stroke-miterlimit="10"/>
<path d="M107.377 82.77C107.217 81.54 107.007 79.89 107.007 78.57C107.007 69.54 111.027 62.23 115.987 62.23C120.947 62.23 124.967 69.55 124.967 78.57C124.967 79.89 124.877 81.17 124.717 82.4" fill="#F7F8F9"/>
<path d="M107.377 82.77C107.217 81.54 107.007 79.89 107.007 78.57C107.007 69.54 111.027 62.23 115.987 62.23C120.947 62.23 124.967 69.55 124.967 78.57C124.967 79.89 124.877 81.17 124.717 82.4" stroke="#939393" stroke-miterlimit="10"/>
<path d="M112.597 82.99C112.537 81.76 112.597 79.89 112.597 78.57C112.607 69.29 114.177 62.21 116.127 62.23C118.077 62.25 119.657 69.55 119.657 78.57C119.657 79.89 119.627 81.17 119.557 82.4" fill="#F7F8F9"/>
<path d="M112.597 82.99C112.537 81.76 112.597 79.89 112.597 78.57C112.607 69.29 114.177 62.21 116.127 62.23C118.077 62.25 119.657 69.55 119.657 78.57C119.657 79.89 119.627 81.17 119.557 82.4" stroke="#939393" stroke-miterlimit="10"/>
<path d="M99.5074 78.52H101.707" stroke="#939393" stroke-miterlimit="10"/>
<path d="M110.697 78.52H112.897" stroke="#939393" stroke-miterlimit="10"/>
<path d="M125.127 78.52H127.327" stroke="#939393" stroke-miterlimit="10"/>
<path d="M130.427 75.2802L132.627 74.9902" stroke="#939393" stroke-miterlimit="10"/>
<path d="M105.097 75.2798L107.297 75.5798" stroke="#939393" stroke-miterlimit="10"/>
<path d="M119.527 73.2198L121.727 72.3398" stroke="#939393" stroke-miterlimit="10"/>
<path d="M112.757 75.6999L115.247 74.6899" stroke="#939393" stroke-miterlimit="10"/>
<path d="M108.187 70.5699L105.987 69.6899" stroke="#939393" stroke-miterlimit="10"/>
<path d="M123.657 69.9801L125.857 69.1001" stroke="#939393" stroke-miterlimit="10"/>
<path d="M128.657 69.9801L130.857 69.1001" stroke="#939393" stroke-miterlimit="10"/>
<path d="M122.767 64.0901L124.677 62.3201" stroke="#939393" stroke-miterlimit="10"/>
<path d="M109.067 64.0901L107.167 62.3201" stroke="#939393" stroke-miterlimit="10"/>
<path d="M103.767 69.98L101.867 68.8" stroke="#939393" stroke-miterlimit="10"/>
<path d="M113.487 68.5101L111.577 67.3301" stroke="#939393" stroke-miterlimit="10"/>
<path d="M62.5275 9.70996H77.7775" stroke="#939393" stroke-miterlimit="10"/>
<path d="M64.5374 6.48008C64.5374 3.36008 67.0774 0.830078 70.1874 0.830078C73.2974 0.830078 75.8374 3.37008 75.8374 6.48008V78.9801L70.5874 82.1801L64.5274 84.8401V6.48008H64.5374Z" fill="#F7F8F9"/>
<path d="M70.1974 1.33008C73.0474 1.33008 75.3474 3.64008 75.3474 6.48008V78.7001L70.3374 81.7601L65.0374 84.0801V6.48008C65.0374 3.64008 67.3474 1.33008 70.1974 1.33008ZM70.1974 0.330078C66.8074 0.330078 64.0474 3.09008 64.0474 6.48008V84.0801V85.6101L65.4474 85.0001L70.7474 82.6801L70.8074 82.6501L70.8674 82.6101L75.8774 79.5501L76.3574 79.2601V78.7001V6.48008C76.3474 3.09008 73.5874 0.330078 70.1974 0.330078Z" fill="#939393"/>
<path d="M70.3374 3.46997V82.17" stroke="#939393" stroke-miterlimit="10"/>
<path d="M72.9874 5.23999V80.42" stroke="#939393" stroke-miterlimit="10"/>
<path d="M67.3975 4.93994V83.3999" stroke="#939393" stroke-miterlimit="10"/>
<path d="M83.5374 18.3399V26.0999C83.5374 26.9399 82.8574 27.6199 82.0174 27.6199H75.8774V35.5699H83.5374H83.8274C88.0574 35.5699 91.4874 32.1399 91.4874 27.9099V18.3399C91.4874 16.1399 89.7074 14.3599 87.5074 14.3599C85.3174 14.3699 83.5374 16.1499 83.5374 18.3399Z" fill="#F7F8F9" stroke="#939393" stroke-miterlimit="10"/>
<path d="M76.0175 30.62H76.9775H77.3275H81.9675C84.3875 30.62 86.3475 28.66 86.3475 26.24V16.22" stroke="#939393" stroke-miterlimit="10"/>
<path d="M75.7274 33.2098H77.9674H79.2574H82.8074C86.1674 33.2098 88.8974 30.4898 88.8974 27.1198V17.2998" stroke="#939393" stroke-miterlimit="10"/>
<path d="M73.1274 12.6499H74.8374" stroke="#939393" stroke-miterlimit="10"/>
<path d="M91.6774 20.6001H93.3874" stroke="#939393" stroke-miterlimit="10"/>
<path d="M91.6774 29.1401H93.3874" stroke="#939393" stroke-miterlimit="10"/>
<path d="M88.7374 22.0801H90.4474" stroke="#939393" stroke-miterlimit="10"/>
<path d="M84.6074 24.73H86.3174" stroke="#939393" stroke-miterlimit="10"/>
<path d="M81.6674 21.7798H83.3774" stroke="#939393" stroke-miterlimit="10"/>
<path d="M79.5774 25.9299V27.6399" stroke="#939393" stroke-miterlimit="10"/>
<path d="M82.5175 35.6499V37.3599" stroke="#939393" stroke-miterlimit="10"/>
<path d="M60.1375 50.3799V52.0899" stroke="#939393" stroke-miterlimit="10"/>
<path d="M60.1375 43.3101V45.0201" stroke="#939393" stroke-miterlimit="10"/>
<path d="M89.2775 33.5498L90.4875 34.7598" stroke="#939393" stroke-miterlimit="10"/>
<path d="M86.0374 30.01L87.2474 31.22" stroke="#939393" stroke-miterlimit="10"/>
<path d="M83.0974 14.1099L84.3074 15.3199" stroke="#939393" stroke-miterlimit="10"/>
<path d="M65.1274 1.1499L66.3374 2.3599" stroke="#939393" stroke-miterlimit="10"/>
<path d="M48.9374 28.24L50.1474 29.45" stroke="#939393" stroke-miterlimit="10"/>
<path d="M56.6274 28.24L55.4174 29.45" stroke="#939393" stroke-miterlimit="10"/>
<path d="M50.7375 47.98L49.5275 49.19" stroke="#939393" stroke-miterlimit="10"/>
<path d="M54.5574 43.8501L53.3474 45.0601" stroke="#939393" stroke-miterlimit="10"/>
<path d="M74.8774 0.859863L73.6674 2.06986" stroke="#939393" stroke-miterlimit="10"/>
<path d="M91.0774 13.52L89.8674 14.73" stroke="#939393" stroke-miterlimit="10"/>
<path d="M56.7275 32.77V40.53C56.7275 41.37 57.4075 42.05 58.2475 42.05H64.3875V50H56.7275H56.4375C52.2075 50 48.7775 46.57 48.7775 42.34V32.77C48.7775 30.57 50.5575 28.79 52.7575 28.79C54.9475 28.8 56.7275 30.58 56.7275 32.77Z" fill="#F7F8F9" stroke="#939393" stroke-miterlimit="10"/>
<path d="M64.2473 45.0499H63.2873H62.9374H57.6874C55.5974 45.0499 53.9073 43.3599 53.9073 41.2699V30.6499" stroke="#939393" stroke-miterlimit="10"/>
<path d="M64.5274 47.64H62.2874H60.9974H57.4474C54.0874 47.64 51.3574 44.92 51.3574 41.55V31.73" stroke="#939393" stroke-miterlimit="10"/>
<path d="M53.9974 44.5498L52.7874 45.7598" stroke="#939393" stroke-miterlimit="10"/>
<path d="M48.5774 32.97H46.8674" stroke="#939393" stroke-miterlimit="10"/>
<path d="M58.5975 37.98H56.8875" stroke="#939393" stroke-miterlimit="10"/>
<path d="M51.8174 37.98H50.1074" stroke="#939393" stroke-miterlimit="10"/>
<path d="M68.4174 6.76001H70.1274" stroke="#939393" stroke-miterlimit="10"/>
<path d="M65.4674 15.6001H67.1774" stroke="#939393" stroke-miterlimit="10"/>
<path d="M62.5275 21.49H64.2375" stroke="#939393" stroke-miterlimit="10"/>
<path d="M70.1774 21.49H71.8874" stroke="#939393" stroke-miterlimit="10"/>
<path d="M71.6573 17.6599H73.3673" stroke="#939393" stroke-miterlimit="10"/>
<path d="M76.0674 19.72H77.7774" stroke="#939393" stroke-miterlimit="10"/>
<path d="M73.1274 25.02H74.8374" stroke="#939393" stroke-miterlimit="10"/>
<path d="M67.2374 25.02H68.9474" stroke="#939393" stroke-miterlimit="10"/>
<path d="M62.8174 30.9099H64.5274" stroke="#939393" stroke-miterlimit="10"/>
<path d="M62.8174 39.75H64.5274" stroke="#939393" stroke-miterlimit="10"/>
<path d="M65.7675 36.51H67.4775" stroke="#939393" stroke-miterlimit="10"/>
<path d="M70.1774 30.6201H71.8874" stroke="#939393" stroke-miterlimit="10"/>
<path d="M72.8374 33.5601H74.5474" stroke="#939393" stroke-miterlimit="10"/>
<path d="M75.7775 39.45H77.4875" stroke="#939393" stroke-miterlimit="10"/>
<path d="M70.1774 42.1001H71.8874" stroke="#939393" stroke-miterlimit="10"/>
<path d="M67.2374 47.99H68.9474" stroke="#939393" stroke-miterlimit="10"/>
<path d="M63.1174 60.6499H64.8274" stroke="#939393" stroke-miterlimit="10"/>
<path d="M67.2374 56.8301H68.9474" stroke="#939393" stroke-miterlimit="10"/>
<path d="M76.0674 53.8799H77.7774" stroke="#939393" stroke-miterlimit="10"/>
<path d="M76.0674 71.5498H77.7774" stroke="#939393" stroke-miterlimit="10"/>
<path d="M69.8875 71.5498H71.5975" stroke="#939393" stroke-miterlimit="10"/>
<path d="M71.3574 52.7H73.0674" stroke="#939393" stroke-miterlimit="10"/>
<path d="M71.3574 61.54H73.0674" stroke="#939393" stroke-miterlimit="10"/>
<path d="M65.7675 67.1299H67.4775" stroke="#939393" stroke-miterlimit="10"/>
<path d="M60.1375 43.6001V45.3101" stroke="#939393" stroke-miterlimit="10"/>
<path d="M62.8174 76.5601H64.5274" stroke="#939393" stroke-miterlimit="10"/>
<path d="M132.477 54.47C153.687 55.24 173.207 56.93 190.077 60.56" stroke="#939393" stroke-miterlimit="10"/>
<path d="M96.4073 82.17L110.427 83.04C113.637 83.25 116.857 83.15 120.037 82.72C128.017 81.64 142.417 79.37 152.047 77.75C172.117 74.38 190.007 80.1 190.007 80.1" stroke="#939393" stroke-miterlimit="10"/>
<path d="M45.7874 73.4297C49.2274 74.0397 52.4574 74.6897 55.6674 75.1997" stroke="#939393" stroke-miterlimit="10"/>
<path d="M4.71741 74.0401L11.1574 72.9001C12.9174 72.5901 14.6874 72.3301 16.4574 72.1201" stroke="#939393" stroke-miterlimit="10"/>
<path d="M92.7774 80.4201C92.7774 81.7201 88.5474 82.7701 83.3274 82.7701C78.1074 82.7701 74.1874 81.6801 74.1874 80.3801C74.1874 79.0801 78.1074 78.0801 83.3274 78.0801C88.5474 78.0801 92.7774 79.1301 92.7774 80.4201Z" stroke="#939393" stroke-miterlimit="10"/>
<path d="M92.7774 80.4201C92.7774 81.7201 88.5474 82.7701 83.3274 82.7701C78.1074 82.7701 74.1874 81.6801 74.1874 80.3801C74.1874 79.0801 78.1074 78.0801 83.3274 78.0801C88.5474 78.0801 92.7774 79.1301 92.7774 80.4201Z" stroke="#939393" stroke-miterlimit="10"/>
<path d="M75.7074 81.73C76.5774 81.4 77.7774 81.13 79.2174 80.96C80.4374 80.81 81.8374 80.73 83.3374 80.73C84.9574 80.73 86.4774 80.83 87.8074 81.01C89.1574 81.19 90.3074 81.45 91.1674 81.76" stroke="#939393" stroke-miterlimit="10"/>
<path d="M74.0074 80.1099C66.2274 85.8999 61.2974 84.8299 59.4674 86.2299" stroke="#939393" stroke-miterlimit="10"/>
<path d="M92.4474 79.8003C103.177 86.5303 107.487 86.8903 109.757 86.6503" stroke="#939393" stroke-miterlimit="10"/>
<path d="M145.598 85.6528C147.943 85.4038 149.794 84.73 149.732 84.1478C149.671 83.5657 147.719 83.2957 145.374 83.5447C143.029 83.7937 141.178 84.4675 141.24 85.0497C141.302 85.6318 143.253 85.9019 145.598 85.6528Z" stroke="#939393" stroke-miterlimit="10"/>
<path d="M141.437 84.8203C138.217 87.8003 135.787 87.6403 135.027 88.3503" stroke="#939393" stroke-miterlimit="10"/>
<path d="M149.717 83.9604C154.867 86.4704 156.657 86.3604 157.667 86.1404" stroke="#939393" stroke-miterlimit="10"/>
<path d="M37.4509 91.9374C37.4835 91.3529 35.6013 90.7726 33.2468 90.6412C30.8923 90.5099 28.9572 90.8772 28.9246 91.4617C28.892 92.0462 30.7743 92.6265 33.1287 92.7579C35.4832 92.8892 37.4183 92.5219 37.4509 91.9374Z" stroke="#939393" stroke-miterlimit="10"/>
<path d="M29.1575 91.2603C25.4975 93.6803 23.1275 93.1303 22.2675 93.7203" stroke="#939393" stroke-miterlimit="10"/>
<path d="M37.4675 91.75C42.1475 95.06 43.9375 95.23 44.9675 95.18" stroke="#939393" stroke-miterlimit="10"/>
<path d="M35.9937 69.133C36.0129 68.2938 33.2802 67.5508 29.8902 67.4735C26.5002 67.3961 23.7365 68.0138 23.7174 68.853C23.6983 69.6922 26.4309 70.4352 29.8209 70.5126C33.2109 70.5899 35.9746 69.9722 35.9937 69.133Z" stroke="#939393" stroke-miterlimit="10"/>
<path d="M24.0475 68.3799C18.9075 72.0199 15.8575 72.1899 14.2775 72.4099" stroke="#939393" stroke-miterlimit="10"/>
<path d="M35.9975 68.8599C42.8675 73.3899 44.2775 73.0499 46.5675 73.5699" stroke="#939393" stroke-miterlimit="10"/>
<path d="M76.0674 53.9099C79.9774 53.8899 83.9274 53.8799 87.9174 53.8799C87.9174 53.8799 96.2574 52.0399 101.697 49.6999C106.487 47.6399 115.587 47.9899 118.357 48.9999C122.017 50.3299 127.397 54.2399 133.847 54.5199" stroke="#939393" stroke-miterlimit="10" stroke-linecap="round" stroke-linejoin="round"/>
<path d="M1.46741 58.91C20.0574 55.41 41.3974 54.34 64.4074 54.02" stroke="#939393" stroke-miterlimit="10" stroke-linecap="round" stroke-linejoin="round"/>
<path d="M113.467 13C113.467 15.35 111.557 17.26 109.207 17.26" stroke="#939393" stroke-miterlimit="10"/>
<path d="M117.727 17.26C115.377 17.26 113.467 15.35 113.467 13" stroke="#939393" stroke-miterlimit="10"/>
<path d="M109.197 17.26C111.547 17.26 113.457 19.17 113.457 21.52" stroke="#939393" stroke-miterlimit="10"/>
<path d="M113.467 21.53C113.467 19.18 115.377 17.27 117.727 17.27" stroke="#939393" stroke-miterlimit="10"/>
<path d="M139.617 17.6599C139.617 19.2899 138.297 20.5999 136.677 20.5999" stroke="#939393" stroke-miterlimit="10"/>
<path d="M142.557 20.5999C140.927 20.5999 139.617 19.2799 139.617 17.6599" stroke="#939393" stroke-miterlimit="10"/>
<path d="M136.667 20.5999C138.297 20.5999 139.607 21.9199 139.607 23.5399" stroke="#939393" stroke-miterlimit="10"/>
<path d="M139.617 23.5499C139.617 21.9199 140.937 20.6099 142.557 20.6099" stroke="#939393" stroke-miterlimit="10"/>
<path d="M129.037 34.4199C129.037 36.0499 127.717 37.3599 126.097 37.3599" stroke="#939393" stroke-miterlimit="10"/>
<path d="M131.977 37.3599C130.347 37.3599 129.037 36.0399 129.037 34.4199" stroke="#939393" stroke-miterlimit="10"/>
<path d="M126.087 37.3599C127.717 37.3599 129.027 38.6799 129.027 40.2999" stroke="#939393" stroke-miterlimit="10"/>
<path d="M129.037 40.3099C129.037 38.6799 130.357 37.3699 131.977 37.3699" stroke="#939393" stroke-miterlimit="10"/>
<path d="M44.3573 6.76001C44.3573 8.39001 43.0374 9.70001 41.4174 9.70001" stroke="#939393" stroke-miterlimit="10"/>
<path d="M47.2973 9.71002C45.6673 9.71002 44.3573 8.39002 44.3573 6.77002" stroke="#939393" stroke-miterlimit="10"/>
<path d="M41.4073 9.70996C43.0373 9.70996 44.3474 11.03 44.3474 12.65" stroke="#939393" stroke-miterlimit="10"/>
<path d="M44.3573 12.65C44.3573 11.02 45.6773 9.70996 47.2973 9.70996" stroke="#939393" stroke-miterlimit="10"/>
<path d="M19.2774 20.47C19.2774 22.1 17.9574 23.41 16.3374 23.41" stroke="#939393" stroke-miterlimit="10"/>
<path d="M22.2174 23.42C20.5874 23.42 19.2774 22.1 19.2774 20.48" stroke="#939393" stroke-miterlimit="10"/>
<path d="M16.3274 23.4199C17.9574 23.4199 19.2674 24.7399 19.2674 26.3599" stroke="#939393" stroke-miterlimit="10"/>
<path d="M19.2774 26.3599C19.2774 24.7299 20.5974 23.4199 22.2174 23.4199" stroke="#939393" stroke-miterlimit="10"/>
<path d="M33.6174 43.26C33.6174 44.89 32.2974 46.2 30.6774 46.2" stroke="#939393" stroke-miterlimit="10"/>
<path d="M36.5674 46.21C34.9374 46.21 33.6274 44.89 33.6274 43.27" stroke="#939393" stroke-miterlimit="10"/>
<path d="M30.6774 46.21C32.3074 46.21 33.6174 47.53 33.6174 49.15" stroke="#939393" stroke-miterlimit="10"/>
<path d="M33.6174 49.15C33.6174 47.52 34.9374 46.21 36.5574 46.21" stroke="#939393" stroke-miterlimit="10"/>
<path d="M170.627 9.70996C170.627 11.34 169.307 12.65 167.687 12.65" stroke="#939393" stroke-miterlimit="10"/>
<path d="M173.567 12.65C171.937 12.65 170.627 11.33 170.627 9.70996" stroke="#939393" stroke-miterlimit="10"/>
<path d="M167.677 12.6499C169.307 12.6499 170.617 13.9699 170.617 15.5899" stroke="#939393" stroke-miterlimit="10"/>
<path d="M170.627 15.5999C170.627 13.9699 171.947 12.6599 173.567 12.6599" stroke="#939393" stroke-miterlimit="10"/>
</svg>
