<svg width="173" height="129" viewBox="0 0 173 129" fill="none" xmlns="http://www.w3.org/2000/svg">
  <g>
    <path d="M1.36999 99.6105C-5.14001 81.5205 12.23 53.4405 40.45 30.7105C68.82 7.85046 107.9 -9.80954 135.83 6.11046C163.76 22.1805 180.55 71.8205 167.53 98.7405C154.51 125.66 111.81 130 75.19 127.98C38.57 126.1 8.02999 117.85 1.36999 99.6105Z" fill="#F2F2F2"/>
    <path d="M168.63 13.1602H19.79V108.54H168.63V13.1602Z" fill="white" stroke="#939393" stroke-miterlimit="10"/>
    <path d="M52.01 41.3203H19.79V47.5303H52.01V41.3203Z" fill="#E4EAEF" stroke="#939393" stroke-miterlimit="10"/>
    <path d="M42.65 41.3202H31.94L30.45 31.1902C30.18 29.3502 31.61 27.7002 33.47 27.7002H41.12C42.98 27.7002 44.41 29.3502 44.14 31.1902L42.65 41.3202Z" fill="white" stroke="#939393" stroke-miterlimit="10"/>
    <path d="M36.62 27.7296C37.84 22.9896 41.55 19.2996 46.3 18.1096L46.52 18.0596" stroke="#939393" stroke-miterlimit="10"/>
    <path d="M36.42 27.7303C35.71 24.9503 33.53 22.7903 30.75 22.1003L30.62 22.0703" stroke="#939393" stroke-miterlimit="10"/>
    <path d="M48.39 16.9896C50.78 17.5696 52.01 20.9596 52.01 20.9596C52.01 20.9596 49.36 23.3896 46.97 22.8096C44.58 22.2296 42.64 21.7496 43.35 18.8396C44.06 15.9296 46 16.4096 48.39 16.9896Z" fill="#E4EAEF" stroke="#939393" stroke-miterlimit="10"/>
    <path d="M28.51 24.2403C27.09 24.2403 25.93 22.5103 25.93 22.5103C25.93 22.5103 27.08 20.7803 28.51 20.7803C29.93 20.7803 31.09 20.7803 31.09 22.5103C31.09 24.2403 29.93 24.2403 28.51 24.2403Z" fill="#E4EAEF" stroke="#939393" stroke-miterlimit="10"/>
    <path d="M168.63 24.2402H142.19V95.6202H168.63V24.2402Z" fill="#E4EAEF" stroke="#939393" stroke-miterlimit="10"/>
    <path d="M168.63 28.2402H146.19V91.6202H168.63V28.2402Z" fill="white" stroke="#939393" stroke-miterlimit="10"/>
    <path d="M162.78 58.7804C162.78 57.6004 163.96 56.6504 165.41 56.6504C166.86 56.6504 168.04 57.6004 168.04 58.7804" stroke="#939393" stroke-miterlimit="10"/>
    <path d="M168.63 58.79H146.19V61.05H168.63V58.79Z" fill="#E4EAEF" stroke="#939393" stroke-miterlimit="10"/>
    <path d="M126.43 108.54C124.79 96.1801 126.43 77.1201 101.41 77.1201H85.52C60.5 77.1201 62.14 96.1801 60.5 108.54H126.43Z" fill="white" stroke="#939393" stroke-miterlimit="10"/>
    <path d="M94.11 78.2999C107.205 78.2999 117.82 67.6846 117.82 54.5899C117.82 41.4952 107.205 30.8799 94.11 30.8799C81.0153 30.8799 70.4 41.4952 70.4 54.5899C70.4 67.6846 81.0153 78.2999 94.11 78.2999Z" fill="white" stroke="#939393" stroke-miterlimit="10"/>
    <path d="M109.99 74.1494H77.84V78.2994H109.99V74.1494Z" fill="white" stroke="#939393" stroke-miterlimit="10"/>
    <path d="M93.92 39.0996C84.69 39.0996 76.8 44.7996 73.56 52.8696L79.5 68.3096H108.35L114.29 52.8696C111.04 44.7996 103.14 39.0996 93.92 39.0996Z" fill="#E4EAEF" stroke="#939393" stroke-miterlimit="10"/>
    <g>
      <path d="M69.7177 51.1261C69.7177 37.4591 80.6804 26.3799 94.2029 26.3799C107.725 26.3799 118.696 37.4591 118.696 51.1261" stroke="#939393" stroke-miterlimit="10"/>
      <path d="M69.7177 53.7745C69.7177 40.1076 80.6804 29.0283 94.2105 29.0283C107.741 29.0283 118.703 40.1076 118.703 53.7745" stroke="#939393" stroke-miterlimit="10"/>
      <path fill-rule="evenodd" clip-rule="evenodd" d="M68.6436 60.7405L66.3809 58.4639V50.9816L68.6436 48.7051V60.7405Z" fill="#E4EAEF" stroke="#939393" stroke-miterlimit="10"/>
      <path fill-rule="evenodd" clip-rule="evenodd" d="M70.0377 62.3033C69.2683 62.3033 68.6436 61.681 68.6436 60.9146V48.5225C68.6436 47.756 69.2683 47.1338 70.0377 47.1338C70.8071 47.1338 71.4318 47.756 71.4318 48.5225V60.907C71.4318 61.681 70.8071 62.3033 70.0377 62.3033Z" fill="#E4EAEF" stroke="#939393" stroke-miterlimit="10"/>
      <path fill-rule="evenodd" clip-rule="evenodd" d="M120.356 48.7051L122.619 50.9816V58.4639L120.356 60.7405V48.7051Z" fill="#E4EAEF" stroke="#939393" stroke-miterlimit="10"/>
      <path fill-rule="evenodd" clip-rule="evenodd" d="M118.962 47.1416C119.732 47.1416 120.356 47.7639 120.356 48.5303V60.9148C120.356 61.6812 119.732 62.3035 118.962 62.3035C118.193 62.3035 117.568 61.6812 117.568 60.9148V48.5227C117.576 47.7563 118.193 47.1416 118.962 47.1416Z" fill="#E4EAEF" stroke="#939393" stroke-miterlimit="10"/>
      <path fill-rule="evenodd" clip-rule="evenodd" d="M93 68.7504C93 67.7335 93.7695 66.914 94.7598 66.8077C94.7598 66.7774 94.7598 66.7546 94.7598 66.7546C109.181 66.7546 115.802 62.2243 117.196 56.29C117.356 56.9427 117.455 57.5953 117.455 58.2782C117.455 65.1534 109.379 70.7234 94.7598 70.7234C94.7598 70.7234 94.7598 70.7082 94.7598 70.6931C93.7695 70.5868 93 69.7673 93 68.7504Z" fill="#E4EAEF" stroke="#939393" stroke-miterlimit="10"/>
    </g>
    <path d="M77.84 100.35V108.54" stroke="#939393" stroke-miterlimit="10"/>
    <path d="M109.79 100.35V108.54" stroke="#939393" stroke-miterlimit="10"/>
  </g>
</svg>
