<svg width="17" height="18" viewBox="0 0 17 18" fill="none" xmlns="http://www.w3.org/2000/svg">
  <path fill-rule="evenodd" clip-rule="evenodd"
        d="M15.6345 2.25709C15.8377 2.46875 15.8309 2.80505 15.6192 3.00824L2.33796 15.7582C2.1263 15.9614 1.79 15.9546 1.58682 15.7429C1.38363 15.5313 1.39049 15.195 1.60214 14.9918L14.8834 2.24176C15.0951 2.03857 15.4313 2.04544 15.6345 2.25709ZM13.5597 6.47688C13.7327 6.23989 14.065 6.18801 14.302 6.36099C15.1203 6.95828 15.8764 7.63639 16.5588 8.38508L16.561 8.38741C17.1466 9.0376 17.1466 10.0251 16.5609 10.6753L16.5594 10.677C14.7039 12.719 11.6258 14.8935 8.49677 14.8439C7.71524 14.849 6.93756 14.7337 6.19115 14.5019C5.91095 14.4149 5.75435 14.1172 5.84137 13.837C5.92839 13.5568 6.22608 13.4002 6.50628 13.4872C7.15015 13.6872 7.82106 13.7864 8.49525 13.7814L8.50816 13.7813L8.50815 13.7814C11.1848 13.8265 13.9937 11.9203 15.7721 9.96346C15.9928 9.71777 15.9929 9.34527 15.7724 9.09949C15.1382 8.40402 14.4358 7.77408 13.6756 7.21919C13.4386 7.0462 13.3867 6.71386 13.5597 6.47688ZM10.3363 4.43419C9.73592 4.28478 9.11894 4.21236 8.50026 4.21867C5.42249 4.17101 2.33726 6.29812 0.440878 8.38406L0.440874 8.38406L0.439237 8.38587C-0.146412 9.03605 -0.146412 10.0235 0.439237 10.6737L0.439228 10.6737L0.441732 10.6765C1.02657 11.3167 1.66491 11.9059 2.3498 12.4378C2.58154 12.6177 2.91528 12.5757 3.09523 12.344C3.27518 12.1123 3.2332 11.7785 3.00146 11.5986C2.36479 11.1042 1.77138 10.5565 1.22763 9.96144C1.00734 9.71569 1.00746 9.3434 1.22798 9.09777C3.04319 7.10152 5.8601 5.23743 8.49001 5.28114L8.5048 5.28118C9.03548 5.27523 9.56475 5.33708 10.0798 5.46524C10.3645 5.53609 10.6527 5.36272 10.7236 5.078C10.7944 4.79328 10.6211 4.50504 10.3363 4.43419ZM8.49848 7.40625C7.93488 7.4061 7.39433 7.62992 6.99581 8.02844C6.59729 8.42696 6.37347 8.96752 6.37362 9.53111C6.3737 9.82451 6.13591 10.0624 5.84251 10.0625C5.54911 10.0626 5.3112 9.82479 5.31112 9.53139C5.31089 8.68591 5.64666 7.87499 6.24451 7.27714C6.84235 6.67929 7.65328 6.34353 8.49876 6.34375C8.79216 6.34383 9.02995 6.58174 9.02987 6.87514C9.02979 7.16854 8.79188 7.40633 8.49848 7.40625ZM10.6236 9.5307C10.6238 10.0944 10.4 10.635 10.0014 11.0337C9.60289 11.4323 9.0623 11.6563 8.49862 11.6563C8.20521 11.6563 7.96737 11.8941 7.96737 12.1875C7.96737 12.4809 8.20521 12.7188 8.49862 12.7188C9.34414 12.7188 10.155 12.3828 10.7528 11.7849C11.3506 11.1869 11.6863 10.3759 11.6861 9.53042L10.6236 9.5307Z"
        fill="black" />
</svg>
