<svg width="191" height="137" viewBox="0 0 191 137" fill="none" xmlns="http://www.w3.org/2000/svg">
  <path d="M0.150008 69.7898C-0.569992 41.5798 18.22 38.3098 36.75 30.7798C71.5 16.7998 76.87 23.2998 101.23 23.2098C125.49 23.2098 141.78 11.2098 157.74 18.5898C173.69 26.1398 202.75 50.0398 185.88 77.0798C180.72 85.5198 174.05 101.01 154.44 118.37C137.69 130.4 114.78 135.29 96.97 131.51C79.09 127.82 56.27 115.06 37.68 105.34C19.17 95.7098 -1.95999 99.4198 0.150008 69.7898Z" fill="#F2F2F2"/>
  <g>
    <path d="M158.25 105.33H46.7C43.83 105.33 41.5 103 41.5 100.13V28.0799C41.5 25.2099 43.83 22.8799 46.7 22.8799H158.25C161.12 22.8799 163.45 25.2099 163.45 28.0799V100.13C163.45 103 161.12 105.33 158.25 105.33Z" fill="white" stroke="#939393" stroke-miterlimit="10"/>
    <path d="M153.92 102.44H51.03C48.13 102.44 45.78 100.09 45.78 97.1895V31.0195C45.78 28.1195 48.13 25.7695 51.03 25.7695H153.93C156.83 25.7695 159.18 28.1195 159.18 31.0195V97.1895C159.18 100.09 156.83 102.44 153.92 102.44Z" fill="white" stroke="#939393" stroke-miterlimit="10"/>
    <path d="M114.55 102.44C113.09 91.4104 107.77 84.9004 92.24 84.9004H78.06C63.2 84.9004 57.2 91.4104 55.74 102.44H114.55Z" fill="white" stroke="#939393" stroke-miterlimit="10"/>
    <path d="M85.72 85.9504C97.4008 85.9504 106.87 76.4812 106.87 64.8004C106.87 53.1196 97.4008 43.6504 85.72 43.6504C74.0392 43.6504 64.57 53.1196 64.57 64.8004C64.57 76.4812 74.0392 85.9504 85.72 85.9504Z" fill="white" stroke="#939393" stroke-miterlimit="10"/>
    <path d="M99.89 82.25H71.22V85.96H99.89V82.25Z" fill="white" stroke="#939393" stroke-miterlimit="10"/>
    <path d="M85.55 50.9902C77.32 50.9902 70.28 56.0702 67.39 63.2702L72.69 77.0402H98.42L103.72 63.2702C100.82 56.0802 93.79 50.9902 85.55 50.9902Z" fill="#E4EAEF" stroke="#939393" stroke-miterlimit="10"/>
    <path d="M105.57 14.2197H99.39V28.4797H105.57V14.2197Z" fill="#E4EAEF" stroke="#939393" stroke-miterlimit="10"/>
    <path d="M102.47 19.66C106.38 19.66 109.55 16.4902 109.55 12.58C109.55 8.66982 106.38 5.5 102.47 5.5C98.5598 5.5 95.39 8.66982 95.39 12.58C95.39 16.4902 98.5598 19.66 102.47 19.66Z" fill="#E4EAEF" stroke="#939393" stroke-miterlimit="10"/>
    <path d="M102.47 15.6702C104.177 15.6702 105.56 14.2868 105.56 12.5802C105.56 10.8737 104.177 9.49023 102.47 9.49023C100.763 9.49023 99.38 10.8737 99.38 12.5802C99.38 14.2868 100.763 15.6702 102.47 15.6702Z" fill="white" stroke="#939393" stroke-miterlimit="10"/>
    <path d="M122.93 25.7695V102.44" stroke="#939393" stroke-miterlimit="10"/>
    <g>
      <path d="M62.4568 61.3812C62.4568 48.6634 72.6502 38.3535 85.2237 38.3535C97.7972 38.3535 107.998 48.6634 107.998 61.3812" stroke="#939393" stroke-miterlimit="10"/>
      <path d="M62.4568 63.8461C62.4568 51.1282 72.6502 40.8184 85.2308 40.8184C97.8114 40.8184 108.005 51.1282 108.005 63.8461" stroke="#939393" stroke-miterlimit="10"/>
      <path fill-rule="evenodd" clip-rule="evenodd" d="M61.458 70.3276L59.3542 68.2091V61.2464L61.458 59.1279V70.3276Z" fill="#E4EAEF" stroke="#939393" stroke-miterlimit="10"/>
      <path fill-rule="evenodd" clip-rule="evenodd" d="M62.7543 71.7821C62.0389 71.7821 61.458 71.203 61.458 70.4898V58.9583C61.458 58.2451 62.0389 57.666 62.7543 57.666C63.4698 57.666 64.0507 58.2451 64.0507 58.9583V70.4827C64.0507 71.203 63.4698 71.7821 62.7543 71.7821Z" fill="#E4EAEF" stroke="#939393" stroke-miterlimit="10"/>
      <path fill-rule="evenodd" clip-rule="evenodd" d="M109.542 59.1279L111.646 61.2464V68.2091L109.542 70.3276V59.1279Z" fill="#E4EAEF" stroke="#939393" stroke-miterlimit="10"/>
      <path fill-rule="evenodd" clip-rule="evenodd" d="M108.246 57.6738C108.961 57.6738 109.542 58.2529 109.542 58.9661V70.4905C109.542 71.2038 108.961 71.7828 108.246 71.7828C107.53 71.7828 106.949 71.2038 106.949 70.4905V58.959C106.956 58.2458 107.53 57.6738 108.246 57.6738Z" fill="#E4EAEF" stroke="#939393" stroke-miterlimit="10"/>
      <path fill-rule="evenodd" clip-rule="evenodd" d="M86.7892 77.9203C86.7892 76.974 86.0738 76.2114 85.1529 76.1125C85.1529 76.0843 85.1529 76.0631 85.1529 76.0631C71.7435 76.0631 65.5878 71.8473 64.2915 66.3252C64.1427 66.9325 64.0507 67.5398 64.0507 68.1753C64.0507 74.5731 71.5593 79.7563 85.1529 79.7563C85.1529 79.7563 85.1529 79.7421 85.1529 79.728C86.0738 79.6292 86.7892 78.8665 86.7892 77.9203Z" fill="#E4EAEF" stroke="#939393" stroke-miterlimit="10"/>
    </g>
    <path d="M136.37 45.0498H148.72" stroke="#939393" stroke-miterlimit="10"/>
    <path d="M133.01 42.1904H127.29V47.9104H133.01V42.1904Z" fill="#E4EAEF" stroke="#939393" stroke-miterlimit="10"/>
    <path d="M136.37 35.0498H148.72" stroke="#939393" stroke-miterlimit="10"/>
    <path d="M133.01 32.1904H127.29V37.9104H133.01V32.1904Z" fill="#E4EAEF" stroke="#939393" stroke-miterlimit="10"/>
    <path d="M136.37 55.0498H148.72" stroke="#939393" stroke-miterlimit="10"/>
    <path d="M133.01 52.1904H127.29V57.9104H133.01V52.1904Z" fill="#E4EAEF" stroke="#939393" stroke-miterlimit="10"/>
    <path d="M136.37 65.0498H148.72" stroke="#939393" stroke-miterlimit="10"/>
    <path d="M133.01 62.1904H127.29V67.9104H133.01V62.1904Z" fill="#E4EAEF" stroke="#939393" stroke-miterlimit="10"/>
    <path d="M136.37 75.0498H148.72" stroke="#939393" stroke-miterlimit="10"/>
    <path d="M133.01 72.1904H127.29V77.9104H133.01V72.1904Z" fill="#E4EAEF" stroke="#939393" stroke-miterlimit="10"/>
    <path d="M115.56 105.33H91.02V122.11H115.56V105.33Z" fill="white" stroke="#939393" stroke-miterlimit="10"/>
    <path d="M133.02 122.1H74.17V127.55H133.02V122.1Z" fill="white" stroke="#939393" stroke-miterlimit="10"/>
  </g>
</svg>
