<svg width="191" height="137" viewBox="0 0 191 137" fill="none" xmlns="http://www.w3.org/2000/svg">
<path d="M184.981 75.4292C189.48 92.3492 197.549 113.789 181.261 120.419C150.686 132.699 117.481 116.279 96.0648 116.349C74.7182 116.349 35.5543 119.299 21.5065 112.809C7.45874 106.179 38.9138 88.2992 26.7457 72.1092C10.0883 49.9492 35.1844 41.2092 49.2222 32.7592C63.27 24.1592 79.6574 22.6492 95.3149 25.9692C111.042 29.2092 124.74 43.8792 141.108 52.4192C157.405 60.8692 178.882 61.8192 184.981 75.4292Z" fill="#F2F2F2"/>
<path d="M163.824 102.128H149.596C149.276 102.128 149.026 101.878 149.026 101.558C149.026 101.238 149.276 100.988 149.596 100.988H162.524L157.565 64.0785C157.525 63.7685 157.745 63.4885 158.055 63.4385C158.355 63.3885 158.645 63.6185 158.695 63.9285L163.824 102.128Z" fill="#939393"/>
<path d="M168.584 102.1H37.3843V103.24H168.584V102.1Z" fill="#939393"/>
<path d="M125.96 102.208L107.293 102.498L106.753 101.358L125.91 98.7383L125.96 102.208Z" fill="#E4EAEF"/>
<path d="M106.923 103.07L105.893 100.89L126.46 98.0801L126.53 102.76L106.923 103.07ZM107.593 101.82L107.643 101.93L125.38 101.66L125.35 99.3901L107.593 101.82Z" fill="#939393"/>
<path d="M77.1378 102.569L72.1786 67.5392L54.2314 61.6992L54.9013 102.559H77.1378V102.569Z" fill="white" stroke="#939393" stroke-miterlimit="10"/>
<path d="M76.6281 67.1084L54.9215 59.7284C54.0116 57.7284 53.4917 55.5084 53.4917 53.1584C53.4917 44.4584 60.5506 37.3984 69.2592 37.3984C77.9679 37.3984 85.0267 44.4584 85.0267 53.1684C85.0168 59.2184 81.6273 64.4684 76.6281 67.1084Z" fill="#E4EAEF" stroke="#939393" stroke-miterlimit="10"/>
<path d="M76.6181 67.1084L54.9215 59.7284C54.0116 57.7284 53.4917 55.5084 53.4917 53.1584C53.4917 44.4584 60.5506 37.3984 69.2592 37.3984C73.1886 37.3984 76.788 38.8384 79.5376 41.2184L72.2687 54.4584L83.577 59.7584C82.1272 62.9084 79.6776 65.4884 76.6181 67.1084Z" fill="white" stroke="#939393" stroke-miterlimit="10"/>
<path d="M73.7882 67.9587L54.2612 61.3887L73.7882 67.9587Z" fill="white"/>
<path d="M73.7882 67.9587L54.2612 61.3887" stroke="#939393" stroke-miterlimit="10"/>
<path d="M69.2691 58.9384C72.4586 58.9384 75.0382 56.3584 75.0382 53.1684C75.0382 49.9784 72.4586 47.3984 69.2691 47.3984C66.0796 47.3984 63.5 49.9784 63.5 53.1684C63.5 56.3584 66.0796 58.9384 69.2691 58.9384Z" fill="white" stroke="#939393" stroke-miterlimit="10"/>
<path d="M69.2693 56.1899C70.9393 56.1899 72.2793 54.8399 72.2793 53.1799C72.2793 51.5099 70.9293 50.1699 69.2693 50.1699C67.6093 50.1699 66.2593 51.5199 66.2593 53.1799C66.2493 54.8399 67.5993 56.1899 69.2693 56.1899Z" fill="white" stroke="#939393" stroke-miterlimit="10"/>
<path d="M106.993 94.1602V99.3302L109.593 97.9602C111.642 96.8802 114.032 96.7802 116.172 97.6702L117.602 98.2701C117.801 98.3601 117.931 98.2402 117.981 98.1602C118.031 98.0902 118.121 97.9302 117.971 97.7502L116.262 95.7102C115.482 94.7702 114.332 94.2402 113.112 94.2202L106.993 94.1602Z" fill="white" stroke="#939393" stroke-miterlimit="10"/>
<path d="M84.3764 90.779L71.9484 72.169C70.2586 69.239 66.5192 68.239 63.5997 69.929C60.6701 71.619 59.6703 75.359 61.36 78.279L77.0376 101.369L107.183 99.739V94.039L84.3764 90.779Z" fill="white" stroke="#939393" stroke-miterlimit="10"/>
<path d="M160.509 35.74L156.165 35.375L151.331 92.9329L155.676 93.2979L160.509 35.74Z" fill="#E4EAEF" stroke="#939393" stroke-miterlimit="10"/>
<path d="M161.624 35.8395L154.835 36.7595C153.246 36.9795 151.836 35.7395 151.836 34.1395C151.836 32.5395 153.246 31.3095 154.835 31.5195L161.624 32.4395C162.474 32.5595 163.104 33.2795 163.104 34.1395C163.104 34.9995 162.464 35.7195 161.624 35.8395Z" fill="#E4EAEF" stroke="#939393" stroke-miterlimit="10"/>
<path d="M37.3843 103.099V14.4395" stroke="#939393" stroke-miterlimit="10"/>
<path d="M123.971 0V12.71" stroke="#939393" stroke-miterlimit="10"/>
<path d="M123.971 25.0509C125.606 25.0509 126.931 23.7256 126.931 22.0909C126.931 20.4561 125.606 19.1309 123.971 19.1309C122.336 19.1309 121.011 20.4561 121.011 22.0909C121.011 23.7256 122.336 25.0509 123.971 25.0509Z" fill="white" stroke="#939393" stroke-miterlimit="10"/>
<path d="M123.97 20.5194C127.52 20.5194 132.089 22.6394 134.679 24.0094C135.569 24.4794 136.648 23.7194 136.449 22.7294C135.319 16.9594 130.25 12.6094 124.15 12.6094C118.371 12.6094 113.522 16.5194 112.072 21.8394C111.782 22.8894 112.952 23.7594 113.882 23.1794C116.562 21.5294 120.091 20.5194 123.97 20.5194Z" fill="#E4EAEF" stroke="#939393" stroke-miterlimit="10"/>
<path d="M115.232 25.7695L103.464 30.5695L115.232 25.7695ZM117.412 28.9195L110.543 35.7895L117.412 28.9195ZM120.531 30.9095L115.542 42.7695L120.531 30.9095ZM124.251 40.5295V28.5495V40.5295ZM127.78 30.7595L132.719 42.8695L127.78 30.7595ZM130.8 28.6395L140.118 37.9595L130.8 28.6395Z" fill="white" stroke="#939393" stroke-miterlimit="10"/>
</svg>
