<svg width="187" height="133" viewBox="0 0 187 133" fill="none" xmlns="http://www.w3.org/2000/svg">
  <g>
    <path d="M184.92 32.7502C191.43 50.8402 174.06 78.9202 145.84 101.65C117.47 124.52 78.39 142.18 50.46 126.26C22.53 110.19 5.74002 60.5502 18.76 33.6302C31.78 6.71016 74.48 2.36016 111.1 4.38016C147.72 6.26016 178.26 14.5102 184.92 32.7502Z" fill="#F2F2F2"/>
    <path d="M22.99 41.7897V11.6797H53.09" stroke="#939393" stroke-miterlimit="10"/>
    <path d="M122.99 11.6797H153.09V41.7897" stroke="#939393" stroke-miterlimit="10"/>
    <path d="M153.09 81.6797V111.79H122.99" stroke="#939393" stroke-miterlimit="10"/>
    <path d="M53.09 111.79H22.99V81.6797" stroke="#939393" stroke-miterlimit="10"/>
    <path d="M124.71 111.79C122.82 97.5103 115.92 89.0703 95.8 89.0703H77.44C58.19 89.0703 50.42 97.5003 48.53 111.79H124.71Z" fill="white" stroke="#939393" stroke-miterlimit="10"/>
    <path d="M87.37 90.4397C102.503 90.4397 114.77 78.1723 114.77 63.0396C114.77 47.907 102.503 35.6396 87.37 35.6396C72.2374 35.6396 59.97 47.907 59.97 63.0396C59.97 78.1723 72.2374 90.4397 87.37 90.4397Z" fill="white" stroke="#939393" stroke-miterlimit="10"/>
    <path d="M105.72 85.6396H68.58V90.4397H105.72V85.6396Z" fill="white" stroke="#939393" stroke-miterlimit="10"/>
    <path d="M87.15 45.1494C76.49 45.1494 67.37 51.7294 63.63 61.0594L70.49 78.8994H103.82L110.68 61.0594C106.93 51.7294 97.81 45.1494 87.15 45.1494Z" fill="#E4EAEF" stroke="#939393" stroke-miterlimit="10"/>
    <g>
      <path d="M58.37 59.1625C58.37 43.0279 71.256 29.9482 87.1508 29.9482C103.046 29.9482 115.941 43.0279 115.941 59.1625" stroke="#939393" stroke-miterlimit="10"/>
      <path d="M58.37 62.2895C58.37 46.1549 71.256 33.0752 87.1597 33.0752C103.063 33.0752 115.949 46.1549 115.949 62.2895" stroke="#939393" stroke-miterlimit="10"/>
      <path fill-rule="evenodd" clip-rule="evenodd" d="M57.1073 70.5132L54.4478 67.8256V58.9923L57.1073 56.3047V70.5132Z" fill="#E4EAEF" stroke="#939393" stroke-miterlimit="10"/>
      <path fill-rule="evenodd" clip-rule="evenodd" d="M58.7461 72.3586C57.8416 72.3586 57.1073 71.624 57.1073 70.7192V56.0896C57.1073 55.1848 57.8416 54.4502 58.7461 54.4502C59.6505 54.4502 60.3848 55.1848 60.3848 56.0896V70.7102C60.3848 71.624 59.6505 72.3586 58.7461 72.3586Z" fill="#E4EAEF" stroke="#939393" stroke-miterlimit="10"/>
      <path fill-rule="evenodd" clip-rule="evenodd" d="M117.893 56.3047L120.552 58.9923V67.8256L117.893 70.5132V56.3047Z" fill="#E4EAEF" stroke="#939393" stroke-miterlimit="10"/>
      <path fill-rule="evenodd" clip-rule="evenodd" d="M116.254 54.459C117.158 54.459 117.893 55.1936 117.893 56.0984V70.719C117.893 71.6238 117.158 72.3584 116.254 72.3584C115.349 72.3584 114.615 71.6238 114.615 70.719V56.0895C114.624 55.1846 115.349 54.459 116.254 54.459Z" fill="#E4EAEF" stroke="#939393" stroke-miterlimit="10"/>
      <path fill-rule="evenodd" clip-rule="evenodd" d="M89.1298 79.6086C89.1298 78.4081 88.2253 77.4406 87.0612 77.3152C87.0612 77.2793 87.0612 77.2525 87.0612 77.2525C70.1097 77.2525 62.328 71.9041 60.6892 64.8984C60.5012 65.6689 60.3848 66.4393 60.3848 67.2456C60.3848 75.3622 69.8769 81.9378 87.0612 81.9378C87.0612 81.9378 87.0612 81.9199 87.0612 81.902C88.2253 81.7766 89.1298 80.8091 89.1298 79.6086Z" fill="#E4EAEF" stroke="#939393" stroke-miterlimit="10"/>
    </g>
    <path d="M94.13 111.58V106.52H102.73V111.58" stroke="#939393" stroke-miterlimit="10"/>
    <path d="M96.57 106.52V104.46" stroke="#939393" stroke-miterlimit="10"/>
    <path d="M98.63 106.52V103.39" stroke="#939393" stroke-miterlimit="10"/>
    <path d="M63.63 111.79L64.88 106.52" stroke="#939393" stroke-miterlimit="10"/>
    <path d="M110.67 111.79L109.42 106.52" stroke="#939393" stroke-miterlimit="10"/>
  </g>
</svg>
