<svg width="17" height="18" viewBox="0 0 17 18" fill="none" xmlns="http://www.w3.org/2000/svg">
  <path fill-rule="evenodd" clip-rule="evenodd"
        d="M16.5588 7.8529C14.6607 5.7659 11.5761 3.6406 8.49884 3.68829C5.42158 3.6406 2.337 5.76589 0.440755 7.85313L0.440751 7.85313L0.439237 7.85481C-0.146412 8.50499 -0.146412 9.49248 0.439237 10.1427L0.439234 10.1427L0.440645 10.1442C2.29429 12.1858 5.37063 14.3597 8.49884 14.3113C11.627 14.3597 14.704 12.1859 16.559 10.1444L16.5606 10.1427C17.1462 9.49248 17.1462 8.50499 16.5606 7.8548L16.5588 7.8529ZM1.22808 9.43088C1.00732 9.1851 1.00731 8.81242 1.22804 8.56663C3.04307 6.56918 5.85995 4.70642 8.48988 4.75078C8.49585 4.75088 8.50183 4.75088 8.5078 4.75078C11.1377 4.70642 13.9546 6.56913 15.7719 8.5668C15.9925 8.81255 15.9924 9.18504 15.7718 9.43076C13.9934 11.3877 11.1844 13.2939 8.50778 13.2488C8.50182 13.2487 8.49586 13.2487 8.4899 13.2488C5.81326 13.2939 3.00505 11.3877 1.22808 9.43088ZM8.49876 6.87448C9.06245 6.87433 9.60309 7.09823 10.0016 7.49687C10.4002 7.89552 10.6239 8.43622 10.6236 8.99991L11.1549 9.00019L10.6236 9.00005C10.6233 10.1736 9.67177 11.1247 8.49824 11.1245C7.32471 11.1243 6.37351 10.1728 6.37362 8.99929C6.37372 7.82576 7.32509 6.87448 8.49862 6.87448H8.49876ZM10.753 6.74567C11.3509 7.34367 11.6865 8.15475 11.6861 9.00033L8.49862 5.81198C9.3442 5.8118 10.1552 6.14768 10.753 6.74567ZM8.49805 12.187C10.2583 12.1873 11.6856 10.7607 11.6861 9.00048L8.49847 5.81198C6.73824 5.81206 5.31127 7.23895 5.31112 8.9992C5.31096 10.7595 6.73775 12.1867 8.49805 12.187Z"
        fill="black" />
</svg>
