<svg width="55" height="46" viewBox="0 0 55 46" fill="none" xmlns="http://www.w3.org/2000/svg">
<path d="M47.0373 0.697151C40.8071 -1.93786 30.9932 3.49685 22.7782 7.0102C14.5632 10.4686 7.94705 12.0057 3.92225 16.8915C-0.047417 21.7223 -1.42578 29.9018 1.77201 35.0072C4.9698 40.0576 12.6886 42.0339 20.5177 43.9003C28.3467 45.7119 36.2861 47.4137 42.6265 44.1748C48.967 40.9909 53.7085 32.9211 54.7561 23.5339C55.8587 14.0918 53.2123 3.38706 47.0373 0.697151Z" fill="#F8F9F7"/>
<path d="M15 17.844L17.6859 26.9358C17.7842 27.3038 18.0012 27.629 18.3032 27.861C18.6053 28.093 18.9754 28.2188 19.3563 28.2188H31.8281C32.2095 28.2195 32.5805 28.0941 32.8832 27.862C33.1859 27.63 33.4035 27.3043 33.5019 26.9358L37.2345 12.9251C37.3818 12.373 37.7074 11.8849 38.1605 11.5368C38.6137 11.1887 39.1692 11 39.7406 11H40.9372M25.3753 23.0312L20.5913 18.0351C20.1709 17.6144 19.8934 17.0721 19.7982 16.4849C19.7031 15.8978 19.795 15.2956 20.061 14.7636C20.2618 14.3619 20.5551 14.0137 20.9169 13.7476C21.2786 13.4816 21.6984 13.3053 22.1417 13.2334C22.5849 13.1614 23.0389 13.1959 23.4662 13.3338C23.8936 13.4718 24.282 13.7094 24.5995 14.0269L25.381 14.8097L26.1638 14.0269C26.4813 13.7094 26.8697 13.4718 27.297 13.3338C27.7243 13.1959 28.1783 13.1614 28.6216 13.2334C29.0648 13.3053 29.4846 13.4816 29.8464 13.7476C30.2081 14.0137 30.5015 14.3619 30.7022 14.7636C30.9681 15.2957 31.0598 15.898 30.9645 16.4851C30.8691 17.0722 30.5914 17.6145 30.1708 18.0351L25.3753 23.0312ZM19.3232 33.8387C19.3232 34.4119 19.551 34.9617 19.9563 35.367C20.3617 35.7724 20.9114 36.0001 21.4847 36.0001C22.0579 36.0001 22.6077 35.7724 23.013 35.367C23.4184 34.9617 23.6461 34.4119 23.6461 33.8387C23.6461 33.2654 23.4184 32.7157 23.013 32.3103C22.6077 31.905 22.0579 31.6772 21.4847 31.6772C20.9114 31.6772 20.3617 31.905 19.9563 32.3103C19.551 32.7157 19.3232 33.2654 19.3232 33.8387ZM27.9688 33.8387C27.9688 34.4119 28.1965 34.9617 28.6018 35.367C29.0072 35.7724 29.5569 36.0001 30.1302 36.0001C30.7034 36.0001 31.2532 35.7724 31.6585 35.367C32.0639 34.9617 32.2916 34.4119 32.2916 33.8387C32.2916 33.2654 32.0639 32.7157 31.6585 32.3103C31.2532 31.905 30.7034 31.6772 30.1302 31.6772C29.5569 31.6772 29.0072 31.905 28.6018 32.3103C28.1965 32.7157 27.9688 33.2654 27.9688 33.8387Z" stroke="black" stroke-width="1.5" stroke-linecap="round" stroke-linejoin="round"/>
</svg>
