<svg width="55" height="46" viewBox="0 0 55 46" fill="none" xmlns="http://www.w3.org/2000/svg">
<path d="M7.96275 0.697144C14.1929 -1.93787 24.0068 3.49684 32.2218 7.01019C40.4368 10.4686 47.0529 12.0057 51.0778 16.8915C55.0474 21.7223 56.4258 29.9018 53.228 35.0072C50.0302 40.0576 42.3114 42.0339 34.4823 43.9003C26.6533 45.7119 18.7139 47.4137 12.3735 44.1748C6.03304 40.9908 1.2915 32.9211 0.243946 23.5339C-0.85874 14.0918 1.78771 3.38705 7.96275 0.697144Z" fill="#F8F9F7"/>
<path fill-rule="evenodd" clip-rule="evenodd" d="M19.6135 29.9341H15.4593C14.8858 29.9341 14.4208 30.3805 14.4208 30.9311V37.9101H20.6521V30.9311C20.6521 30.3805 20.1871 29.9341 19.6135 29.9341Z" stroke="black" stroke-width="1.5" stroke-linecap="round" stroke-linejoin="round"/>
<path fill-rule="evenodd" clip-rule="evenodd" d="M29.9989 19.9641H25.8448C25.2712 19.9641 24.8062 20.4105 24.8062 20.9611V37.9101H31.0375V20.9611C31.0375 20.4105 30.5725 19.9641 29.9989 19.9641Z" stroke="black" stroke-width="1.5" stroke-linecap="round" stroke-linejoin="round"/>
<path fill-rule="evenodd" clip-rule="evenodd" d="M40.6927 26H36.5385C35.965 26 35.5 26.4464 35.5 26.997V37.964H41.7313V26.997C41.7313 26.4464 41.2663 26 40.6927 26Z" stroke="black" stroke-width="1.5" stroke-linecap="round" stroke-linejoin="round"/>
<path fill-rule="evenodd" clip-rule="evenodd" d="M14.4208 22.955C15.568 22.955 16.4979 22.0623 16.4979 20.961C16.4979 19.8598 15.568 18.967 14.4208 18.967C13.2737 18.967 12.3438 19.8598 12.3438 20.961C12.3438 22.0623 13.2737 22.955 14.4208 22.955Z" stroke="black" stroke-width="1.5" stroke-linecap="round" stroke-linejoin="round"/>
<path fill-rule="evenodd" clip-rule="evenodd" d="M23.7677 11.988C24.9148 11.988 25.8447 11.0953 25.8447 9.994C25.8447 8.89274 24.9148 8 23.7677 8C22.6205 8 21.6906 8.89274 21.6906 9.994C21.6906 11.0953 22.6205 11.988 23.7677 11.988Z" stroke="black" stroke-width="1.5" stroke-linecap="round" stroke-linejoin="round"/>
<path fill-rule="evenodd" clip-rule="evenodd" d="M41.4229 16.9731C42.5701 16.9731 43.5 16.0804 43.5 14.9791C43.5 13.8779 42.5701 12.9851 41.4229 12.9851C40.2758 12.9851 39.3459 13.8779 39.3459 14.9791C39.3459 16.0804 40.2758 16.9731 41.4229 16.9731Z" stroke="black" stroke-width="1.5" stroke-linecap="round" stroke-linejoin="round"/>
<path d="M15.7363 19.4176L22.4522 11.5374" stroke="black" stroke-width="1.5" stroke-linecap="round" stroke-linejoin="round"/>
<path d="M39.4303 14.4155L25.7603 10.5564" stroke="black" stroke-width="1.5" stroke-linecap="round" stroke-linejoin="round"/>
</svg>
