<svg width="55" height="46" viewBox="0 0 55 46" fill="none" xmlns="http://www.w3.org/2000/svg">
<path d="M7.96275 0.697144C14.1929 -1.93787 24.0068 3.49684 32.2218 7.01019C40.4368 10.4686 47.0529 12.0057 51.0778 16.8915C55.0474 21.7223 56.4258 29.9018 53.228 35.0072C50.0302 40.0576 42.3114 42.0339 34.4823 43.9003C26.6533 45.7119 18.7139 47.4137 12.3735 44.1748C6.03304 40.9908 1.2915 32.9211 0.243946 23.5339C-0.85874 14.0918 1.78771 3.38705 7.96275 0.697144Z" fill="#F8F9F7"/>
<path fill-rule="evenodd" clip-rule="evenodd" d="M28.0832 11C30.0055 10.9966 31.9024 11.4396 33.6244 12.2941C35.3468 13.1487 36.8471 14.3917 38.0072 15.9251C39.1673 17.4584 39.9554 19.2402 40.3095 21.1301C40.6636 23.02 40.5739 24.9663 40.0476 26.8156C39.5213 28.6649 38.5726 30.3667 37.2765 31.7869C35.9803 33.2071 34.372 34.3069 32.5784 34.9996C30.7847 35.6923 28.8547 35.9589 26.9404 35.7786C25.1639 35.6112 23.446 35.063 21.903 34.1733L15.0726 37.4271C14.7859 37.5637 14.4443 37.5049 14.2197 37.2804C13.9952 37.0559 13.9364 36.7143 14.0729 36.4276L17.3256 29.5961C16.2912 27.8029 15.721 25.7771 15.6703 23.7032C15.6162 21.4909 16.1551 19.3044 17.2311 17.3707C18.3071 15.4369 19.881 13.8264 21.7895 12.7061C23.6976 11.5861 25.8707 10.9971 28.0832 11ZM28.0833 11.75L28.0823 12.5C26.137 12.4972 24.2264 13.015 22.5488 13.9998C20.8712 14.9845 19.4877 16.4002 18.5418 18.1C17.596 19.7999 17.1222 21.7218 17.1698 23.6665C17.2174 25.6112 17.7845 27.5077 18.8123 29.1593C18.9474 29.3763 18.9626 29.6472 18.8527 29.878L16.336 35.1638L21.6208 32.6462C21.8516 32.5363 22.1224 32.5515 22.3395 32.6865C23.7749 33.5793 25.3981 34.1266 27.0812 34.2852C28.7642 34.4438 30.461 34.2093 32.038 33.6003C33.615 32.9913 35.029 32.0244 36.1685 30.7757C37.3081 29.5271 38.1421 28.0309 38.6049 26.405C39.0676 24.7791 39.1465 23.0679 38.8352 21.4063C38.5239 19.7448 37.8309 18.1782 36.811 16.8301C35.791 15.482 34.4719 14.3891 32.9576 13.6377C31.4433 12.8863 29.7752 12.4969 28.0847 12.5L28.0833 11.75Z" fill="black"/>
<path d="M23.0837 23C23.0013 23 22.9207 23.0244 22.8522 23.0702C22.7837 23.116 22.7303 23.1811 22.6987 23.2572C22.6672 23.3334 22.6589 23.4171 22.675 23.498C22.6911 23.5788 22.7308 23.653 22.7891 23.7113C22.8473 23.7696 22.9216 23.8092 23.0024 23.8253C23.0832 23.8414 23.167 23.8332 23.2431 23.8016C23.3193 23.7701 23.3843 23.7167 23.4301 23.6482C23.4759 23.5796 23.5003 23.4991 23.5003 23.4167C23.5003 23.3062 23.4564 23.2002 23.3783 23.122C23.3002 23.0439 23.1942 23 23.0837 23Z" fill="black"/>
<path fill-rule="evenodd" clip-rule="evenodd" d="M22.4355 22.4466C22.6274 22.3184 22.8529 22.25 23.0837 22.25C23.3931 22.25 23.6898 22.3729 23.9086 22.5917C24.1274 22.8105 24.2503 23.1072 24.2503 23.4167C24.2503 23.6474 24.1819 23.873 24.0537 24.0648C23.9255 24.2567 23.7433 24.4062 23.5301 24.4945C23.317 24.5828 23.0824 24.6059 22.8561 24.5609C22.6298 24.5159 22.4219 24.4048 22.2587 24.2416C22.0956 24.0785 21.9844 23.8706 21.9394 23.6443C21.8944 23.418 21.9175 23.1834 22.0058 22.9702C22.0941 22.757 22.2437 22.5748 22.4355 22.4466ZM23.2112 23.7246C23.2313 23.7163 23.2506 23.706 23.2689 23.6938C23.3054 23.6694 23.3366 23.6381 23.3608 23.6019C23.3729 23.5838 23.3832 23.5645 23.3916 23.5442C23.4085 23.5036 23.417 23.4602 23.417 23.4167C23.417 23.3949 23.4149 23.3732 23.4106 23.3516C23.3977 23.287 23.366 23.2276 23.3194 23.181C23.2728 23.1343 23.2134 23.1026 23.1487 23.0897C23.1272 23.0855 23.1054 23.0833 23.0837 23.0833C23.0401 23.0833 22.9968 23.0919 22.9561 23.1087C22.9358 23.1171 22.9166 23.1274 22.8985 23.1395C22.8623 23.1637 22.831 23.1949 22.8065 23.2315C22.7943 23.2497 22.784 23.269 22.7757 23.2891C22.759 23.3294 22.7503 23.3727 22.7503 23.4167C22.7503 23.4387 22.7525 23.4604 22.7568 23.4817C22.7695 23.5459 22.801 23.6054 22.848 23.6524C22.8949 23.6993 22.9545 23.7308 23.0186 23.7436C23.0399 23.7478 23.0617 23.75 23.0837 23.75C23.1277 23.75 23.171 23.7413 23.2112 23.7246Z" fill="black"/>
<path d="M28.0837 23C28.0013 23 27.9207 23.0244 27.8522 23.0702C27.7837 23.116 27.7303 23.1811 27.6987 23.2572C27.6672 23.3334 27.6589 23.4171 27.675 23.498C27.6911 23.5788 27.7308 23.653 27.7891 23.7113C27.8473 23.7696 27.9216 23.8092 28.0024 23.8253C28.0832 23.8414 28.167 23.8332 28.2431 23.8016C28.3193 23.7701 28.3843 23.7167 28.4301 23.6482C28.4759 23.5796 28.5003 23.4991 28.5003 23.4167C28.5003 23.3062 28.4564 23.2002 28.3783 23.122C28.3002 23.0439 28.1942 23 28.0837 23Z" fill="black"/>
<path fill-rule="evenodd" clip-rule="evenodd" d="M27.4355 22.4466C27.6274 22.3184 27.8529 22.25 28.0837 22.25C28.3931 22.25 28.6898 22.3729 28.9086 22.5917C29.1274 22.8105 29.2503 23.1072 29.2503 23.4167C29.2503 23.6474 29.1819 23.873 29.0537 24.0648C28.9255 24.2567 28.7433 24.4062 28.5301 24.4945C28.317 24.5828 28.0824 24.6059 27.8561 24.5609C27.6298 24.5159 27.4219 24.4048 27.2587 24.2416C27.0956 24.0785 26.9844 23.8706 26.9394 23.6443C26.8944 23.418 26.9175 23.1834 27.0058 22.9702C27.0941 22.757 27.2437 22.5748 27.4355 22.4466ZM28.2112 23.7246C28.2313 23.7163 28.2506 23.706 28.2689 23.6938C28.3054 23.6694 28.3366 23.6381 28.3608 23.6019C28.3729 23.5838 28.3832 23.5645 28.3916 23.5442C28.4085 23.5036 28.417 23.4602 28.417 23.4167C28.417 23.3949 28.4149 23.3732 28.4106 23.3516C28.3977 23.287 28.366 23.2276 28.3194 23.181C28.2728 23.1343 28.2134 23.1026 28.1487 23.0897C28.1272 23.0855 28.1054 23.0833 28.0837 23.0833C28.0401 23.0833 27.9968 23.0919 27.9561 23.1087C27.9358 23.1171 27.9166 23.1274 27.8985 23.1395C27.8623 23.1637 27.831 23.1949 27.8065 23.2315C27.7943 23.2497 27.784 23.269 27.7757 23.2891C27.759 23.3294 27.7503 23.3727 27.7503 23.4167C27.7503 23.4387 27.7525 23.4604 27.7568 23.4817C27.7695 23.5459 27.801 23.6054 27.848 23.6524C27.8949 23.6993 27.9545 23.7308 28.0186 23.7436C28.0399 23.7478 28.0617 23.75 28.0837 23.75C28.1277 23.75 28.171 23.7413 28.2112 23.7246Z" fill="black"/>
<path d="M33.0837 23C33.0013 23 32.9207 23.0244 32.8522 23.0702C32.7837 23.116 32.7303 23.1811 32.6987 23.2572C32.6672 23.3334 32.6589 23.4171 32.675 23.498C32.6911 23.5788 32.7308 23.653 32.7891 23.7113C32.8473 23.7696 32.9216 23.8092 33.0024 23.8253C33.0832 23.8414 33.167 23.8332 33.2431 23.8016C33.3193 23.7701 33.3843 23.7167 33.4301 23.6482C33.4759 23.5796 33.5003 23.4991 33.5003 23.4167C33.5003 23.3062 33.4564 23.2002 33.3783 23.122C33.3002 23.0439 33.1942 23 33.0837 23Z" fill="black"/>
<path fill-rule="evenodd" clip-rule="evenodd" d="M32.4355 22.4466C32.6274 22.3184 32.8529 22.25 33.0837 22.25C33.3931 22.25 33.6898 22.3729 33.9086 22.5917C34.1274 22.8105 34.2503 23.1072 34.2503 23.4167C34.2503 23.6474 34.1819 23.873 34.0537 24.0648C33.9255 24.2567 33.7433 24.4062 33.5301 24.4945C33.317 24.5828 33.0824 24.6059 32.8561 24.5609C32.6298 24.5159 32.4219 24.4048 32.2587 24.2416C32.0956 24.0785 31.9844 23.8706 31.9394 23.6443C31.8944 23.418 31.9175 23.1834 32.0058 22.9702C32.0941 22.757 32.2437 22.5748 32.4355 22.4466ZM33.2112 23.7246C33.2313 23.7163 33.2506 23.706 33.2689 23.6938C33.3054 23.6694 33.3366 23.6381 33.3608 23.6019C33.3729 23.5838 33.3832 23.5645 33.3916 23.5442C33.4085 23.5036 33.417 23.4602 33.417 23.4167C33.417 23.3949 33.4149 23.3732 33.4106 23.3516C33.3978 23.287 33.366 23.2276 33.3194 23.181C33.2728 23.1343 33.2134 23.1026 33.1487 23.0897C33.1272 23.0855 33.1054 23.0833 33.0837 23.0833C33.0401 23.0833 32.9968 23.0919 32.9561 23.1087C32.9359 23.1171 32.9166 23.1274 32.8985 23.1395C32.8623 23.1637 32.831 23.1949 32.8065 23.2315C32.7943 23.2497 32.784 23.269 32.7757 23.2891C32.7591 23.3294 32.7503 23.3727 32.7503 23.4167C32.7503 23.4387 32.7525 23.4604 32.7568 23.4817C32.7695 23.5459 32.801 23.6054 32.848 23.6524C32.8949 23.6993 32.9545 23.7308 33.0187 23.7436C33.0399 23.7478 33.0617 23.75 33.0837 23.75C33.1277 23.75 33.171 23.7413 33.2112 23.7246Z" fill="black"/>
</svg>