<svg width="13" height="12" viewBox="0 0 13 12" fill="none" xmlns="http://www.w3.org/2000/svg">
  <path fill-rule="evenodd" clip-rule="evenodd" d="M6.5 -0.000976562C9.81371 -0.000976562 12.5 2.68531 12.5 5.99902C12.5 9.31273 9.81371 11.999 6.5 11.999C3.18629 11.999 0.5 9.31273 0.5 5.99902C0.5 2.68531 3.18629 -0.000976562 6.5 -0.000976562ZM6.5 0.749512C3.60051 0.749512 1.25 3.10002 1.25 5.99951C1.25 8.89901 3.60051 11.2495 6.5 11.2495C9.3995 11.2495 11.75 8.89901 11.75 5.99951C11.75 3.10002 9.3995 0.749512 6.5 0.749512ZM4.41849 8.56608L3.19349 6.82758C3.07419 6.65828 3.11473 6.42433 3.28403 6.30503C3.45333 6.18574 3.68728 6.22628 3.80657 6.39558L5.03665 8.14146C5.06352 8.1816 5.10813 8.20629 5.15641 8.20773C5.2047 8.20917 5.2507 8.1872 5.28433 8.14305L9.20583 3.18155C9.33425 3.01906 9.57008 2.99145 9.73256 3.11988C9.89505 3.2483 9.92266 3.48413 9.79423 3.64661L5.87714 8.60242C5.70133 8.83385 5.42453 8.96607 5.13402 8.9574C4.84351 8.94872 4.5751 8.80021 4.41849 8.56608Z" fill="#26870D"/>
</svg>
