<svg width="12" height="12" viewBox="0 0 12 12" xmlns="http://www.w3.org/2000/svg" fill="none">
  <g stroke="null" id="svg_3">
   <path stroke="null" id="svg_1" fill="black" d="m9.49609,2.50393c0.24789,0.24791 0.24789,0.64987 0,0.89778l-6.09438,6.09439c-0.24791,0.24789 -0.64987,0.24789 -0.89779,0c-0.24791,-0.24794 -0.24791,-0.64986 0.00001,-0.8978l6.09436,-6.09437c0.24794,-0.24792 0.64986,-0.24792 0.8978,0z" clip-rule="evenodd" fill-rule="evenodd"/>
   <path stroke="null" id="svg_2" fill="black" d="m9.49609,9.4961c-0.24794,0.24789 -0.64986,0.24789 -0.8978,0l-6.09436,-6.09439c-0.24792,-0.24791 -0.24792,-0.64987 0,-0.89778c0.24791,-0.24792 0.64987,-0.24792 0.89778,0l6.09438,6.09437c0.24789,0.24794 0.24789,0.64986 0,0.8978z" clip-rule="evenodd" fill-rule="evenodd"/>
  </g>
</svg>