<svg width="197" height="99" viewBox="0 0 197 99" fill="none" xmlns="http://www.w3.org/2000/svg">
<path d="M51.4759 26.6277C35.9896 35.8535 26.125 47.5672 29.8375 58.6072C33.6561 69.6471 51.1577 79.9613 73.1142 84.7298C95.0708 89.55 121.588 88.8244 145.348 83.7968C169.108 78.8211 190.11 69.5434 188.943 60.9395C187.882 52.3357 164.547 44.4574 147.576 35.0243C130.604 25.5911 119.997 14.6548 104.087 12.5816C88.1762 10.5602 67.0682 17.35 51.4759 26.6277Z" fill="#F2F2F2"/>
<path d="M60.3213 59.6627L33.5303 53.3625L37.0266 40.9492L54.5427 44.581L60.3213 59.6627Z" fill="white"/>
<path d="M105.065 34.9684C105.385 34.6635 105.787 34.4209 106.266 34.2615C105.815 33.7278 105.586 33.0763 105.544 32.3901C102.173 32.806 98.8429 33.409 95.6033 34.3655C97.1225 34.4278 98.6417 34.4971 100.154 34.6011C101.791 34.7189 103.428 34.8437 105.065 34.9684Z" fill="white" stroke="#939393" stroke-width="0.773899" stroke-miterlimit="10"/>
<path d="M40.9126 63.4241C41.0833 63.3314 41.4958 75.7306 41.4958 75.7306C46.8587 76.1678 57.805 77.1547 64.1139 77.7309C67.1439 78.0091 70.1525 77.0487 72.3645 75.0948L89.8544 59.6885L99.5275 48.9849" fill="white"/>
<path d="M40.9126 63.4241C41.0833 63.3314 41.4958 75.7306 41.4958 75.7306C46.8587 76.1678 57.805 77.1547 64.1139 77.7309C67.1439 78.0091 70.1525 77.0487 72.3645 75.0948L89.8544 59.6885L99.5275 48.9849" stroke="#939393" stroke-width="0.773899" stroke-miterlimit="10"/>
<path d="M45.5405 62.353C44.1694 62.353 41.4272 62.353 40.913 63.3814C40.3988 64.4097 41.4272 63.8955 41.4272 63.8955H44.5122L45.5405 62.353Z" fill="white"/>
<path d="M59.0519 60.2456L41.2791 62.2902" stroke="#939393" stroke-width="0.773899" stroke-miterlimit="10"/>
<path d="M11.6017 86.0285C11.3659 80.5669 11.026 72.7765 10.797 67.4882C10.6583 64.2861 13.1418 61.583 16.3467 61.4375C16.3883 61.7355 22.3959 61.7217 25.1291 62.4633C26.794 62.9138 28.556 62.8237 30.2833 62.7613C33.7033 62.6366 37.1233 62.4702 40.5433 62.3177C40.7722 62.3108 41.0081 62.2969 41.2855 62.2831C41.4728 66.5872 41.6671 70.8358 41.8544 75.1608C41.5908 75.1746 41.341 75.1815 41.0844 75.1954C37.8101 75.341 34.5288 75.4726 31.2545 75.6459C30.866 75.6667 30.4984 75.8053 30.1931 76.0479C28.6184 77.2955 27.0645 78.5708 25.5314 79.8669C25.2678 80.0886 25.0666 80.3797 24.9556 80.7055C23.9706 83.5264 22.9786 86.3473 22.0629 89.1959C21.5079 90.9148 20.4535 92.1138 18.1781 92.1277C18.1573 92.1277 18.1365 92.1277 18.1157 92.1277C14.6402 92.1623 11.7544 89.4939 11.6017 86.0285Z" fill="white" stroke="#939393" stroke-width="0.773899" stroke-miterlimit="10"/>
<path d="M14.0088 64.0576C13.7105 64.0715 13.4261 64.0853 13.1348 64.0992C13.1486 64.3972 13.1625 64.6537 13.1695 64.924C13.4816 64.9101 13.7522 64.8963 14.0435 64.8824C14.0296 64.5844 14.0227 64.3487 14.0088 64.0576Z" fill="white"/>
<path d="M16.4302 61.625L17.7829 92.128" stroke="#939393" stroke-width="0.773899" stroke-miterlimit="10"/>
<path d="M11.0889 68.4799L13.4475 68.376" stroke="#939393" stroke-width="0.773899" stroke-miterlimit="10"/>
<path d="M11.2412 71.938L13.6068 71.834" stroke="#939393" stroke-width="0.773899" stroke-miterlimit="10"/>
<path d="M11.394 75.4033L13.7596 75.2993" stroke="#939393" stroke-width="0.773899" stroke-miterlimit="10"/>
<path d="M11.5537 78.8613L13.9123 78.7573" stroke="#939393" stroke-width="0.773899" stroke-miterlimit="10"/>
<path d="M11.7061 82.3276L14.0647 82.2236" stroke="#939393" stroke-width="0.773899" stroke-miterlimit="10"/>
<path d="M11.8586 85.7856L14.2173 85.6816" stroke="#939393" stroke-width="0.773899" stroke-miterlimit="10"/>
<path d="M27.4463 73.2344L27.6613 78.1553" stroke="#939393" stroke-width="0.773899" stroke-miterlimit="10"/>
<path d="M25.4275 74.7104L25.6425 79.6314" stroke="#939393" stroke-width="0.773899" stroke-miterlimit="10"/>
<path d="M29.458 71.7583L29.68 76.6723" stroke="#939393" stroke-width="0.773899" stroke-miterlimit="10"/>
<path d="M33.5303 53.364C33.7314 53.3224 35.5073 54.0433 38.0255 55.1314C43.0202 57.2869 50.9285 60.8772 55.174 62.8109C57.0817 63.6842 59.2114 63.9545 61.2786 63.5941L80.2932 60.295C98.0452 57.2176 115.048 50.7857 130.386 41.3389C134.43 38.8507 135.124 32.0029 136.192 29.5355L125.252 15.833" fill="white"/>
<path d="M33.5303 53.364C33.7314 53.3224 35.5073 54.0433 38.0255 55.1314C43.0202 57.2869 50.9285 60.8772 55.174 62.8109C57.0817 63.6842 59.2114 63.9545 61.2786 63.5941L80.2932 60.295C98.0452 57.2176 115.048 50.7857 130.386 41.3389C134.43 38.8507 135.124 32.0029 136.192 29.5355L125.252 15.833" stroke="#939393" stroke-width="0.773899" stroke-miterlimit="10"/>
<path d="M125.252 15.8326C123.74 15.5485 54.5425 44.5822 54.5425 44.5822L37.0264 40.9503" stroke="#939393" stroke-width="0.773899" stroke-miterlimit="10"/>
<path d="M176.531 62.7057L178.737 63.1077L184.884 29.3263L182.678 28.9243L176.531 62.7057Z" fill="#E4EAEF" stroke="#939393" stroke-width="0.773899" stroke-miterlimit="10"/>
<path d="M185.438 69.0278H176.975C176.788 69.0278 176.635 68.8753 176.635 68.6882C176.635 68.501 176.788 68.3485 176.975 68.3485H184.661L181.713 46.4191C181.692 46.2319 181.817 46.0656 182.004 46.0379C182.185 46.0101 182.358 46.1418 182.386 46.329L185.438 69.0278Z" fill="#939393"/>
<path d="M195.844 70.0732H143.816V74.9249H195.844V70.0732Z" fill="white" stroke="#939393" stroke-width="0.773899" stroke-miterlimit="10"/>
<path d="M172.261 97.9998V74.9268H169.833V97.9998H172.261Z" fill="white" stroke="#939393" stroke-width="0.773899" stroke-miterlimit="10"/>
<path d="M155.269 48.0752L154.603 52.4278L156.969 51.61C158.828 50.9723 160.86 51.1872 162.539 52.2199L163.663 52.913C163.822 53.017 163.94 52.9268 163.996 52.8714C164.044 52.8229 164.142 52.6981 164.044 52.5249L162.865 50.5911C162.331 49.704 161.429 49.101 160.402 48.9346L155.269 48.0752Z" fill="white" stroke="#939393" stroke-width="0.773899" stroke-miterlimit="10"/>
<path d="M136.671 42.3084L128.603 25.0573C127.562 22.3819 124.545 21.0581 121.86 22.0978C119.175 23.1374 117.857 26.1524 118.898 28.8346L129.13 50.272L154.714 52.781L155.449 47.9848L136.671 42.3084Z" fill="white" stroke="#939393" stroke-width="0.773899" stroke-miterlimit="10"/>
<path d="M1.39758 54.1957C2.88212 48.9352 5.00487 41.4359 6.44778 36.3416C7.32186 33.2574 10.5268 31.4692 13.6138 32.3356C13.5583 32.6336 19.2675 34.498 21.6261 36.0575C23.0621 37.007 24.7686 37.4714 26.4266 37.9566C29.7148 38.913 33.0099 39.821 36.305 40.7497C36.527 40.8121 36.7559 40.8745 37.0195 40.9507C35.8472 45.0954 34.6956 49.1916 33.5163 53.364C33.2596 53.2947 33.0168 53.2254 32.774 53.1561C29.6177 52.2689 26.4613 51.3679 23.298 50.5015C22.9234 50.3976 22.528 50.4184 22.1672 50.5501C20.2803 51.2432 18.4073 51.9709 16.5412 52.7194C16.2221 52.8511 15.9377 53.0591 15.7296 53.3363C13.9052 55.7067 12.0807 58.0771 10.3187 60.489C9.2573 61.9445 7.87682 62.7554 5.70551 62.0554C5.6847 62.0485 5.66389 62.0415 5.64308 62.0346C2.3549 60.9742 0.454138 57.5364 1.39758 54.1957Z" fill="white" stroke="#939393" stroke-width="0.773899" stroke-miterlimit="10"/>
<path d="M10.5751 34.0882C10.2907 34.005 10.0132 33.9288 9.72882 33.8525C9.64558 34.1436 9.57621 34.3862 9.50684 34.6496C9.80513 34.7328 10.0687 34.809 10.3532 34.8852C10.4295 34.6011 10.4919 34.3724 10.5751 34.0882Z" fill="white"/>
<path d="M13.6345 32.5425L5.34473 61.9297" stroke="#939393" stroke-width="0.773899" stroke-miterlimit="10"/>
<path d="M6.41992 37.3735L8.68835 38.0112" stroke="#939393" stroke-width="0.773899" stroke-miterlimit="10"/>
<path d="M5.47656 40.7075L7.75193 41.3452" stroke="#939393" stroke-width="0.773899" stroke-miterlimit="10"/>
<path d="M4.5332 44.041L6.80857 44.6856" stroke="#939393" stroke-width="0.773899" stroke-miterlimit="10"/>
<path d="M3.59668 47.3818L5.87204 48.0195" stroke="#939393" stroke-width="0.773899" stroke-miterlimit="10"/>
<path d="M2.65332 50.7158L4.92869 51.3535" stroke="#939393" stroke-width="0.773899" stroke-miterlimit="10"/>
<path d="M1.71655 54.0493L3.98498 54.687" stroke="#939393" stroke-width="0.773899" stroke-miterlimit="10"/>
<path d="M20.4538 47.0137L19.115 51.7475" stroke="#939393" stroke-width="0.773899" stroke-miterlimit="10"/>
<path d="M18.0745 47.7837L16.7356 52.5175" stroke="#939393" stroke-width="0.773899" stroke-miterlimit="10"/>
<path d="M22.8332 46.2451L21.4944 50.9789" stroke="#939393" stroke-width="0.773899" stroke-miterlimit="10"/>
<path d="M91.4132 57.9029L80.2722 33.8525" stroke="#939393" stroke-width="0.773899" stroke-miterlimit="10"/>
<path d="M85.621 59.2407L74.8962 36.0845" stroke="#939393" stroke-width="0.773899" stroke-miterlimit="10"/>
<path d="M119.557 30.2067L123.414 28.1968" stroke="#939393" stroke-width="0.773899" stroke-miterlimit="10"/>
<path d="M120.251 32.2863L124.108 30.2764" stroke="#939393" stroke-width="0.773899" stroke-miterlimit="10"/>
<path d="M115.943 19.2563L101.777 54.3685" stroke="#939393" stroke-width="0.773899" stroke-miterlimit="10"/>
<path d="M119.446 30.1582L110.796 51.5956" stroke="#939393" stroke-width="0.773899" stroke-miterlimit="10"/>
<path d="M125.252 15.8325L122.713 22.0565" stroke="#939393" stroke-width="0.773899" stroke-miterlimit="10"/>
<path d="M136.671 42.3086L134.277 44.7067" stroke="#939393" stroke-width="0.773899" stroke-miterlimit="10"/>
<path d="M54.5427 44.5815L55.5 48.0747" stroke="#939393" stroke-width="0.773899" stroke-miterlimit="10"/>
<path d="M121.402 16.9614L72.5027 36.6661C69.1382 28.3351 73.1756 18.8536 81.5139 15.4921L100.202 7.95816C108.548 4.59666 118.038 8.63046 121.402 16.9614Z" fill="#E4EAEF" stroke="#939393" stroke-width="0.773899" stroke-miterlimit="10"/>
<path d="M81.1393 29.202C83.2542 29.202 84.9686 27.4891 84.9686 25.3762C84.9686 23.2632 83.2542 21.5503 81.1393 21.5503C79.0245 21.5503 77.3101 23.2632 77.3101 25.3762C77.3101 27.4891 79.0245 29.202 81.1393 29.202Z" fill="white" stroke="#939393" stroke-width="0.773899" stroke-miterlimit="10"/>
<path d="M104.795 23.6576L100.931 14.585" stroke="#939393" stroke-width="0.773899" stroke-miterlimit="10"/>
<path d="M107.195 22.7771L104.17 15.6729" stroke="#939393" stroke-width="0.773899" stroke-miterlimit="10"/>
<path d="M109.491 22.0558L106.467 14.9585" stroke="#939393" stroke-width="0.773899" stroke-miterlimit="10"/>
<path d="M143.622 14.4252C148.512 12.339 154.346 13.2123 158.439 17.0243C158.752 12.845 157.322 8.56165 154.124 5.36649C148.297 -0.455496 138.856 -0.455496 133.029 5.36649C127.202 11.1885 127.202 20.6215 133.029 26.4435C136.574 29.9852 141.464 31.3644 146.064 30.5882L139.397 23.9275L143.622 14.4252Z" fill="white" stroke="#939393" stroke-width="0.773899" stroke-miterlimit="10"/>
<path d="M158.44 17.0241C154.347 13.2121 148.506 12.3457 143.622 14.425L139.397 23.9273L146.064 30.588C149.019 30.0889 151.849 28.7166 154.125 26.4433C156.754 23.8164 158.183 20.4549 158.44 17.0241Z" fill="#E4EAEF" stroke="#939393" stroke-width="0.773899" stroke-miterlimit="10"/>
<path d="M135.713 32.4109L124.933 14.8895L127.091 13.5449L137.566 30.5673L135.713 32.4109Z" fill="white" stroke="#939393" stroke-width="0.773899" stroke-miterlimit="10"/>
<path d="M138.696 19.3394C140.833 21.4741 144.302 21.4741 146.438 19.3394C148.575 17.2047 148.575 13.7392 146.438 11.6045C144.302 9.46974 140.833 9.46974 138.696 11.6045C136.56 13.7392 136.56 17.2047 138.696 19.3394Z" fill="white" stroke="#939393" stroke-width="0.773899" stroke-miterlimit="10"/>
<path d="M140.549 17.4958C141.665 18.6117 143.476 18.6117 144.593 17.4958C145.71 16.3799 145.71 14.571 144.593 13.4551C143.476 12.3392 141.665 12.3392 140.549 13.4551C139.432 14.571 139.432 16.3799 140.549 17.4958Z" fill="white" stroke="#939393" stroke-width="0.773899" stroke-miterlimit="10"/>
<circle cx="20.8604" cy="41.272" r="3.21221" stroke="#939393" stroke-width="0.773899"/>
<circle cx="24.9739" cy="68.0088" r="3.21221" stroke="#939393" stroke-width="0.773899"/>
</svg>
