<svg width="12" height="12" viewBox="0 0 12 12" xmlns="http://www.w3.org/2000/svg" fill="none">
<path stroke="null" id="svg_1" fill="black" d="m8.67262,1.70238c0.12819,0 0.23214,-0.10394 0.23214,-0.23214c0,-0.12821 -0.10395,-0.23214 -0.23214,-0.23214l-5.10714,0c-1.15388,0 -2.08929,0.93541 -2.08929,2.08929l0,4.64286c0,0.12819 0.10394,0.23214 0.23214,0.23214c0.12821,0 0.23214,-0.10395 0.23214,-0.23214l0,-4.64286c0,-0.89746 0.72754,-1.625 1.625,-1.625l5.10714,0zm2.08929,1.98611c0,-0.58218 -0.47538,-1.05754 -1.05755,-1.05754l-5.77777,0c-0.58218,0 -1.05754,0.47536 -1.05754,1.05754l0,5.77777c0,0.58217 0.47536,1.05755 1.05754,1.05755l5.77777,0c0.58217,0 1.05755,-0.47538 1.05755,-1.05755l0,-5.77777zm-1.05755,-0.59326c0.32579,0 0.59326,0.26749 0.59326,0.59326l0,5.77777c0,0.32579 -0.26748,0.59326 -0.59326,0.59326l-5.77777,0c-0.32576,0 -0.59326,-0.26748 -0.59326,-0.59326l0,-5.77777c0,-0.32576 0.26749,-0.59326 0.59326,-0.59326l5.77777,0z" clip-rule="evenodd" fill-rule="evenodd"/>
</svg>