<svg width="187" height="132" viewBox="0 0 187 132" fill="none" xmlns="http://www.w3.org/2000/svg">
  <path d="M180.294 71.4329C184.651 83.5639 178.562 99.3823 168.107 109.434C157.789 119.486 143.116 123.792 128.648 127.322C114.111 130.794 99.7796 133.491 83.5201 131.068C67.3192 128.567 49.2584 120.879 38.9408 106.522C28.6917 92.0959 26.1367 71.0896 33.1261 54.928C40.1155 38.629 56.6589 27.1942 73.0654 16.7205C89.4131 6.17819 105.682 -3.31482 117.723 1.11787C129.91 5.56036 138.006 24.0757 149.43 37.4522C160.981 50.8385 175.938 59.3018 180.294 71.4329Z" fill="#F2F2F2"/>
  <path d="M173.344 19.4963L167.99 18.5156L155.421 87.8401L160.775 88.8208L173.344 19.4963Z" fill="#E4EAEF"/>
  <path d="M161.137 89.3497L154.892 88.2023L154.97 87.7512L167.628 17.9756L173.873 19.123L173.795 19.5741L161.137 89.3497ZM155.949 87.4766L160.403 88.2906L172.816 19.8585L168.362 19.0445L155.949 87.4766Z" fill="#939393"/>
  <path d="M173.941 100.285H156.84C156.458 100.285 156.155 99.9807 156.155 99.5982C156.155 99.2158 156.458 98.9118 156.84 98.9118H172.375L166.414 54.4868C166.365 54.1141 166.629 53.7709 167.001 53.7121C167.363 53.6532 167.716 53.9278 167.774 54.3005L173.941 100.285Z" fill="#939393"/>
  <path d="M179.648 100.245H21.996V101.618H179.648V100.245Z" fill="#939393"/>
  <path d="M128.432 100.373L105.996 100.716L105.35 99.3433L128.373 96.1855L128.432 100.373Z" fill="#E4EAEF"/>
  <path d="M105.565 101.412L104.322 98.7935L129.039 95.4102L129.117 101.049L105.565 101.412ZM106.368 99.9017L106.426 100.029L127.737 99.7055L127.698 96.9792L106.368 99.9017Z" fill="#939393"/>
  <path d="M157.271 74.3549L73.085 37.089L72.5955 36.5986L164.123 37.089" fill="#E4EAEF"/>
  <path d="M157.271 74.355L73.085 37.089L72.5955 36.5986L164.123 37.089" stroke="#939393" stroke-miterlimit="10" stroke-dasharray="5 5"/>
  <path d="M69.7665 100.804L63.8049 58.6447L42.2495 51.623L43.0522 100.804H69.7665Z" fill="white" stroke="#939393" stroke-miterlimit="10"/>
  <path d="M65.7432 59.1543L42.2789 51.25L65.7432 59.1543Z" fill="white"/>
  <path d="M65.7432 59.1543L42.2789 51.25" stroke="#939393" stroke-miterlimit="10"/>
  <path d="M105.643 90.6934V96.9207L108.766 95.2731C111.223 93.9786 114.101 93.8512 116.666 94.9299L118.379 95.6556C118.624 95.7635 118.77 95.6164 118.839 95.5281C118.898 95.4497 119.005 95.2535 118.829 95.0378L116.773 92.5861C115.834 91.4583 114.453 90.811 112.985 90.7914L105.643 90.6934Z" fill="white" stroke="#939393" stroke-miterlimit="10"/>
  <path d="M78.4689 86.6135L63.5406 64.2147C61.5143 60.694 57.0211 59.4878 53.5069 61.5178C49.9926 63.5478 48.7886 68.0491 50.8149 71.5698L69.6588 99.3624L105.878 97.401V90.5362L78.4689 86.6135Z" fill="white" stroke="#939393" stroke-miterlimit="10"/>
  <path d="M56.8352 36.7261C59.3412 30.4693 65.3516 26.017 72.4291 25.7621C68.9638 21.7315 63.8441 19.1719 58.1273 19.1719C47.702 19.1719 39.2443 27.645 39.2443 38.0893C39.2443 48.5335 47.702 57.0066 58.1273 57.0066C64.4804 57.0066 70.0895 53.8586 73.5059 49.0435H61.5633L56.8352 36.7261Z" fill="white" stroke="#939393" stroke-miterlimit="10"/>
  <path d="M72.4193 25.7617C65.3418 26.0069 59.3314 30.469 56.8254 36.7258L61.5535 49.0431H73.4863C75.6889 45.954 76.9908 42.1784 76.9908 38.0889C77.0006 33.3816 75.2679 29.0764 72.4193 25.7617Z" fill="#E4EAEF" stroke="#939393" stroke-miterlimit="10"/>
  <path d="M65.8704 59.9488L41.251 54.0647V50.75L65.8704 56.6341V59.9488Z" fill="white" stroke="#939393" stroke-miterlimit="10"/>
  <path d="M56.8352 45.5525C60.6627 45.5525 63.7658 42.4437 63.7658 38.6093C63.7658 34.7748 60.6627 31.666 56.8352 31.666C53.0076 31.666 49.9045 34.7748 49.9045 38.6093C49.9045 42.4437 53.0076 45.5525 56.8352 45.5525Z" fill="white" stroke="#939393" stroke-miterlimit="10"/>
  <path d="M56.8352 42.2385C58.8321 42.2385 60.4571 40.6106 60.4571 38.61C60.4571 36.6094 58.8321 34.9814 56.8352 34.9814C54.8382 34.9814 53.2132 36.6094 53.2132 38.61C53.2132 40.6106 54.8284 42.2385 56.8352 42.2385Z" fill="white" stroke="#939393" stroke-miterlimit="10"/>
  <path d="M78.792 86.8105L75.0526 90.547" stroke="#939393" stroke-miterlimit="10"/>
  <path d="M42.6606 57.458L49.9045 59.1546" stroke="#939393" stroke-miterlimit="10"/>
</svg>
