<svg width="135" height="138" viewBox="0 0 135 138" fill="none" xmlns="http://www.w3.org/2000/svg">
  <g>
    <path d="M134.482 85.0198C138.181 98.966 121.398 107.817 107.982 113.273C82.8216 123.4 78.9288 118.692 61.2955 118.757C43.7271 118.757 31.9377 127.45 20.3794 122.105C8.83048 116.639 -7.95206 101.87 4.26267 82.2916C16.3664 62.8982 8.57157 62.4173 22.7651 49.849C34.8966 41.1372 51.4849 37.5952 64.3747 40.3326C77.3199 43.0054 98.2171 54.9632 111.68 62.0011C125.088 68.965 129.461 73.7925 134.482 85.0198Z" fill="#F2F2F2"/>
    <path d="M63.4315 38.2145L70.9767 91.4747H53.2973C47.9805 91.4747 43.7178 87.0725 43.8843 81.7548L43.0613 31.5928" fill="white"/>
    <path d="M63.4315 38.2145L70.9767 91.4747H53.2973C47.9805 91.4747 43.7178 87.0725 43.8843 81.7548L43.0613 31.5928" stroke="#939393" stroke-miterlimit="10"/>
    <path d="M65.2623 38.6952L43.0983 31.2412L65.2623 38.6952Z" fill="white"/>
    <path d="M102.951 68.4375V74.3101L105.901 72.7564C108.222 71.5356 110.94 71.4154 113.363 72.4327L114.981 73.1171C115.212 73.2188 115.351 73.0801 115.416 72.9969C115.471 72.9229 115.573 72.7379 115.406 72.5344L113.465 70.2224C112.577 69.1589 111.273 68.5485 109.886 68.53L102.951 68.4375Z" fill="white" stroke="#939393" stroke-miterlimit="10"/>
    <path d="M80.5746 101.028H46.5842C39.1685 101.028 33.1397 94.9615 33.1397 87.5075L35.2109 62.6299L36.1356 62.7039L34.0736 87.5445C34.0736 94.4528 39.6955 100.103 46.5935 100.103H80.5839V101.028H80.5746Z" fill="#939393"/>
    <path d="M43.9952 82.7438C43.9952 88.0615 48.2671 92.3897 53.5839 92.4544L98.2079 93.0463L102.249 129.789H115.194L114.389 86.1749C114.325 82.4109 109.997 79.3867 104.68 79.3867L81.9062 77.5371" fill="white"/>
    <path d="M43.9397 82.2999C43.9397 87.6176 48.2671 92.3897 53.5839 92.4544L98.2079 93.0463L102.249 136.568H115.194L114.389 86.1749C114.325 82.4109 109.997 79.3867 104.68 79.3867L81.9062 77.5371" stroke="#939393" stroke-miterlimit="10"/>
    <path d="M87.7962 100.565H43.4034C43.4034 96.2649 46.8709 92.7783 51.1428 92.7783H80.0476C84.3288 92.7783 87.7962 96.2649 87.7962 100.565Z" fill="#E4EAEF"/>
    <path d="M88.2586 101.028H42.9411V100.566C42.9411 96.0157 46.6212 92.3164 51.1428 92.3164H80.0476C84.5692 92.3164 88.2493 96.0157 88.2493 100.566L88.2586 101.028ZM43.8843 100.103H87.3247C87.0843 96.2839 83.9219 93.2412 80.0569 93.2412H51.1521C47.287 93.2412 44.1247 96.2839 43.8843 100.103Z" fill="#939393"/>
    <path d="M67.6664 100.566H63.5332L68.6928 78.7588H72.826L67.6664 100.566Z" fill="#E4EAEF"/>
    <path d="M68.0363 101.028H62.9599L68.3414 78.2959H73.4178L68.0363 101.028ZM64.125 100.103H67.3058L72.2527 79.2207H69.0719L64.125 100.103Z" fill="#939393"/>
    <path d="M68.1842 100.63H63.0247V114.262H68.1842V100.63Z" fill="#E4EAEF"/>
    <path d="M68.6466 114.725H62.5623V100.168H68.6466V114.725ZM63.487 113.8H67.7219V101.093H63.487V113.8Z" fill="#939393"/>
    <path d="M69.4788 109.712H61.7394V137.216H69.4788V109.712Z" fill="#E4EAEF"/>
    <path d="M69.9411 137.679H61.277V109.25H69.9411V137.679ZM62.1925 136.754H69.0072V110.175H62.1925V136.754Z" fill="#939393"/>
    <path d="M59.9271 77.2051H81.6103C81.6103 81.7922 77.9117 85.5099 73.3531 85.5099H68.1935C63.6164 85.5099 59.9271 81.7922 59.9271 77.2051Z" fill="#E4EAEF"/>
    <path d="M73.3438 85.9718H68.1842C63.376 85.9718 59.4647 82.0414 59.4647 77.2046V76.7422H82.0726V77.2046C82.0634 82.0414 78.1521 85.9718 73.3438 85.9718ZM60.3986 77.667C60.639 81.7824 64.0418 85.047 68.1842 85.047H73.3438C77.4863 85.047 80.889 81.7732 81.1294 77.667H60.3986Z" fill="#939393"/>
    <path d="M37.014 87.2292L34.3325 38.5006C38.3178 38.2786 41.7298 41.349 41.9425 45.3535L43.8288 79.5717C44.0507 83.5762 40.9993 87.0072 37.014 87.2292Z" fill="#E4EAEF"/>
    <path d="M36.5795 87.7199L33.8425 38.0665L34.3048 38.0388C36.3575 37.9185 38.3178 38.6122 39.8435 39.9809C41.3784 41.3589 42.2938 43.2547 42.4048 45.3263L44.2911 79.5353C44.5223 83.7895 41.2767 87.4517 37.0418 87.6829L36.5795 87.7199ZM34.8134 38.9543L37.4486 86.7304C40.9438 86.2957 43.5606 83.1883 43.3664 79.6L41.4801 45.3911C41.3784 43.5692 40.5832 41.8953 39.224 40.6837C37.9942 39.574 36.4408 38.9728 34.8134 38.9543Z" fill="#939393"/>
    <path d="M77.2829 64.5896L63.1726 43.4668C61.2585 40.1467 57.0144 39.0092 53.6948 40.9236C50.3753 42.8379 49.238 47.0828 51.152 50.4029L68.9609 76.6123L103.173 74.7626V68.2889L77.2829 64.5896Z" fill="white" stroke="#939393" stroke-miterlimit="10"/>
    <path d="M57.0884 17.5171C59.4555 11.6168 65.1329 7.41811 71.8181 7.17766C68.5449 3.37666 63.7181 0.962891 58.3089 0.962891C48.4613 0.962891 40.4723 8.95331 40.4723 18.8026C40.4723 28.6519 48.4613 36.6423 58.3089 36.6423C64.3099 36.6423 69.6082 33.6737 72.8353 29.1328H61.5544L57.0884 17.5171Z" fill="white" stroke="#939393" stroke-miterlimit="10"/>
    <path d="M71.8181 7.17773C65.1329 7.40894 59.4555 11.6169 57.0883 17.5172L61.5544 29.1329H72.826C74.9065 26.2197 76.1363 22.6592 76.1363 18.8027C76.1455 14.3543 74.5089 10.3036 71.8181 7.17773Z" fill="#E4EAEF" stroke="#939393" stroke-miterlimit="10"/>
    <path d="M65.6322 39.416L42.377 33.8671V30.7412L65.6322 36.2901V39.416Z" fill="white" stroke="#939393" stroke-miterlimit="10"/>
    <path d="M57.0884 25.8396C60.7038 25.8396 63.6349 22.9079 63.6349 19.2918C63.6349 15.6758 60.7038 12.7441 57.0884 12.7441C53.4729 12.7441 50.5418 15.6758 50.5418 19.2918C50.5418 22.9079 53.4729 25.8396 57.0884 25.8396Z" fill="white" stroke="#939393" stroke-miterlimit="10"/>
    <path d="M57.0883 22.7138C58.9746 22.7138 60.5096 21.1786 60.5096 19.2919C60.5096 17.4053 58.9746 15.8701 57.0883 15.8701C55.202 15.8701 53.6671 17.4053 53.6671 19.2919C53.6671 21.1786 55.202 22.7138 57.0883 22.7138Z" fill="white" stroke="#939393" stroke-miterlimit="10"/>
    <path d="M77.8284 64.7471L74.3055 68.2706" stroke="#939393" stroke-miterlimit="10"/>
    <path d="M100.113 91.4834L98.3466 93.2405" stroke="#939393" stroke-miterlimit="10"/>
    <path d="M43 36.5L49.8332 38.0999" stroke="#939393" stroke-miterlimit="10"/>
  </g>
</svg>
