<svg width="191" height="137" viewBox="0 0 191 137" fill="none" xmlns="http://www.w3.org/2000/svg">
  <g>
    <path d="M151.778 104.012C139.164 120.925 121.007 134.41 101.053 136.513C81.0754 138.529 59.3669 129.051 46.3016 113.365C33.1465 97.7028 28.6115 75.7451 32.1386 54.0371C35.5758 32.3531 47.0751 10.9189 62.2492 7.87268C77.4001 4.73992 96.159 20.1056 116.224 29.56C136.289 39.0143 157.569 42.5813 164.64 54.5904C171.621 66.6235 164.459 86.9883 151.778 104.012Z" fill="#F2F2F2"/>
    <g>
      <path d="M58.8736 70.3845L32.8207 64.2578L36.2207 52.1865L53.2542 55.7183L58.8736 70.3845Z" fill="white"/>
      <path d="M102.385 46.3696C102.695 46.073 103.087 45.8371 103.552 45.6821C103.114 45.1631 102.891 44.5296 102.851 43.8623C99.572 44.2667 96.334 44.8531 93.1836 45.7832C94.661 45.8439 96.1383 45.9113 97.609 46.0124C99.201 46.1269 100.793 46.2483 102.385 46.3696Z" fill="white" stroke="#939393" stroke-miterlimit="10"/>
      <path d="M40 74.0415C40.166 73.9513 40.5672 86.0089 40.5672 86.0089C45.7823 86.434 56.427 87.3937 62.5621 87.9541C65.5086 88.2246 68.4343 87.2907 70.5854 85.3906L87.5934 70.4087L97 60" fill="white"/>
      <path d="M40 74.0415C40.166 73.9513 40.5672 86.0089 40.5672 86.0089C45.7823 86.434 56.427 87.3937 62.5621 87.9541C65.5086 88.2246 68.4343 87.2907 70.5854 85.3906L87.5934 70.4087L97 60" stroke="#939393" stroke-miterlimit="10"/>
      <path d="M44.5 73C43.1667 73 40.5 73 40 74C39.5 75 40.5 74.5 40.5 74.5H43.5L44.5 73Z" fill="white"/>
      <path d="M57.6391 70.9502L40.356 72.9385" stroke="#939393" stroke-miterlimit="10"/>
      <path d="M11.4967 96.0228C11.2674 90.7117 10.9368 83.136 10.7142 77.9934C10.5793 74.8795 12.9943 72.2509 16.111 72.1094C16.1514 72.3992 21.9934 72.3857 24.6513 73.1069C26.2704 73.545 27.9839 73.4574 29.6636 73.3967C32.9894 73.2754 36.3151 73.1136 39.6409 72.9654C39.8635 72.9586 40.0928 72.9451 40.3627 72.9317C40.5448 77.1172 40.7337 81.2488 40.9159 85.4545C40.6595 85.468 40.4167 85.4748 40.1671 85.4882C36.983 85.6298 33.7921 85.7578 30.608 85.9263C30.2303 85.9465 29.8727 86.0813 29.5759 86.3172C28.0446 87.5304 26.5335 88.7706 25.0426 90.031C24.7863 90.2467 24.5906 90.5297 24.4827 90.8465C23.5248 93.5897 22.5601 96.3329 21.6696 99.103C21.13 100.775 20.1046 101.941 17.8919 101.954C17.8717 101.954 17.8514 101.954 17.8312 101.954C14.4515 101.988 11.6451 99.3928 11.4967 96.0228Z" fill="white" stroke="#939393" stroke-miterlimit="10"/>
      <path d="M13.8376 74.6572C13.5475 74.6707 13.2709 74.6842 12.9876 74.6977C13.0011 74.9875 13.0146 75.2369 13.0213 75.4997C13.3249 75.4862 13.588 75.4728 13.8713 75.4593C13.8578 75.1695 13.8511 74.9403 13.8376 74.6572Z" fill="white"/>
      <path d="M16.1919 72.292L17.5074 101.955" stroke="#939393" stroke-miterlimit="10"/>
      <path d="M10.9975 78.9576L13.2911 78.8564" stroke="#939393" stroke-miterlimit="10"/>
      <path d="M11.1459 82.3208L13.4463 82.2197" stroke="#939393" stroke-miterlimit="10"/>
      <path d="M11.2943 85.6909L13.5947 85.5898" stroke="#939393" stroke-miterlimit="10"/>
      <path d="M11.4495 89.0542L13.7431 88.9531" stroke="#939393" stroke-miterlimit="10"/>
      <path d="M11.5979 92.4243L13.8915 92.3232" stroke="#939393" stroke-miterlimit="10"/>
      <path d="M11.7463 95.7876L14.0399 95.6865" stroke="#939393" stroke-miterlimit="10"/>
      <path d="M26.9045 83.5811L27.1136 88.3664" stroke="#939393" stroke-miterlimit="10"/>
      <path d="M24.9414 85.0166L25.1505 89.802" stroke="#939393" stroke-miterlimit="10"/>
      <path d="M28.8608 82.1455L29.0767 86.9242" stroke="#939393" stroke-miterlimit="10"/>
      <path d="M32.8207 64.2587C33.0163 64.2183 34.7433 64.9192 37.1921 65.9774C42.0492 68.0735 49.7396 71.5648 53.8681 73.4453C55.7233 74.2945 57.7943 74.5574 59.8046 74.2069L78.2952 70.9987C95.5582 68.0061 112.092 61.7514 127.008 52.5648C130.941 50.1452 131.615 43.4861 132.654 41.0867L122.016 27.7617" fill="white"/>
      <path d="M32.8207 64.2587C33.0163 64.2183 34.7433 64.9192 37.1921 65.9774C42.0492 68.0735 49.7396 71.5648 53.8681 73.4453C55.7233 74.2945 57.7943 74.5574 59.8046 74.2069L78.2952 70.9987C95.5582 68.0061 112.092 61.7514 127.008 52.5648C130.941 50.1452 131.615 43.4861 132.654 41.0867L122.016 27.7617" stroke="#939393" stroke-miterlimit="10"/>
      <path d="M122.016 27.7608C120.545 27.4845 53.2542 55.7182 53.2542 55.7182L36.2207 52.1865" stroke="#939393" stroke-miterlimit="10"/>
      <path d="M171.882 73.3428L174.027 73.7338L180.004 40.8831L177.859 40.4922L171.882 73.3428Z" fill="#E4EAEF" stroke="#939393" stroke-miterlimit="10"/>
      <path d="M180.544 79.49H172.314C172.132 79.49 171.983 79.3417 171.983 79.1597C171.983 78.9777 172.132 78.8295 172.314 78.8295H179.788L176.921 57.5042C176.901 57.3222 177.022 57.1604 177.205 57.1335C177.38 57.1065 177.549 57.2346 177.576 57.4165L180.544 79.49Z" fill="#939393"/>
      <path d="M190.663 80.5078H140.068V85.2258H190.663V80.5078Z" fill="white" stroke="#939393" stroke-miterlimit="10"/>
      <path d="M167.729 107.665V85.2275H165.368V107.665H167.729Z" fill="white" stroke="#939393" stroke-miterlimit="10"/>
      <path d="M151.206 59.1152L150.558 63.3479L152.858 62.5526C154.666 61.9325 156.643 62.1415 158.275 63.1457L159.368 63.8197C159.523 63.9208 159.638 63.8332 159.692 63.7793C159.739 63.7321 159.834 63.6108 159.739 63.4423L158.592 61.5619C158.073 60.6991 157.196 60.1128 156.198 59.951L151.206 59.1152Z" fill="white" stroke="#939393" stroke-miterlimit="10"/>
      <path d="M133.12 53.5074L125.274 36.7316C124.262 34.13 121.328 32.8426 118.717 33.8536C116.106 34.8646 114.825 37.7965 115.837 40.4049L125.787 61.2516L150.666 63.6915L151.381 59.0274L133.12 53.5074Z" fill="white" stroke="#939393" stroke-miterlimit="10"/>
      <path d="M1.57341 65.066C3.01705 59.9503 5.08131 52.6577 6.48447 47.7038C7.33447 44.7045 10.4511 42.9656 13.4531 43.8081C13.3991 44.0979 18.951 45.9109 21.2446 47.4274C22.6411 48.3508 24.3006 48.8024 25.9128 49.2742C29.1104 50.2043 32.3148 51.0872 35.5191 51.9904C35.735 52.0511 35.9576 52.1117 36.2139 52.1859C35.0739 56.2164 33.954 60.1997 32.8072 64.2572C32.5576 64.1898 32.3215 64.1224 32.0854 64.055C29.016 63.1922 25.9466 62.316 22.8704 61.4735C22.5061 61.3724 22.1216 61.3927 21.7708 61.5207C19.9359 62.1947 18.1145 62.9024 16.2998 63.6303C15.9895 63.7584 15.713 63.9606 15.5106 64.2302C13.7364 66.5353 11.9622 68.8403 10.2487 71.1859C9.21659 72.6012 7.87414 73.3898 5.76266 72.7091C5.74242 72.7023 5.72218 72.6956 5.70194 72.6889C2.50436 71.6576 0.655964 68.3146 1.57341 65.066Z" fill="white" stroke="#939393" stroke-miterlimit="10"/>
      <path d="M10.4983 45.5133C10.2217 45.4325 9.9519 45.3583 9.67531 45.2842C9.59436 45.5673 9.5269 45.8032 9.45944 46.0593C9.74952 46.1402 10.0059 46.2143 10.2824 46.2884C10.3567 46.0121 10.4174 45.7897 10.4983 45.5133Z" fill="white"/>
      <path d="M13.4733 44.0107L5.41187 72.5883" stroke="#939393" stroke-miterlimit="10"/>
      <path d="M6.45749 48.708L8.66342 49.3281" stroke="#939393" stroke-miterlimit="10"/>
      <path d="M5.54004 51.9502L7.75271 52.5703" stroke="#939393" stroke-miterlimit="10"/>
      <path d="M4.62259 55.1924L6.83526 55.8192" stroke="#939393" stroke-miterlimit="10"/>
      <path d="M3.71188 58.4414L5.92456 59.0615" stroke="#939393" stroke-miterlimit="10"/>
      <path d="M2.79443 61.6826L5.00711 62.3027" stroke="#939393" stroke-miterlimit="10"/>
      <path d="M1.88373 64.9248L4.08966 65.5449" stroke="#939393" stroke-miterlimit="10"/>
      <path d="M20.1046 58.084L18.8026 62.6874" stroke="#939393" stroke-miterlimit="10"/>
      <path d="M17.7907 58.832L16.4887 63.4354" stroke="#939393" stroke-miterlimit="10"/>
      <path d="M22.4184 57.3359L21.1165 61.9393" stroke="#939393" stroke-miterlimit="10"/>
      <path d="M89.109 68.6719L78.275 45.2842" stroke="#939393" stroke-miterlimit="10"/>
      <path d="M83.4761 69.9734L73.0469 47.4551" stroke="#939393" stroke-miterlimit="10"/>
      <path d="M116.477 41.7397L120.228 39.7852" stroke="#939393" stroke-miterlimit="10"/>
      <path d="M117.152 43.7612L120.903 41.8066" stroke="#939393" stroke-miterlimit="10"/>
      <path d="M112.963 31.0898L99.1875 65.2346" stroke="#939393" stroke-miterlimit="10"/>
      <path d="M116.369 41.6924L107.957 62.5391" stroke="#939393" stroke-miterlimit="10"/>
      <path d="M122.016 27.7607L119.547 33.8132" stroke="#939393" stroke-miterlimit="10"/>
      <path d="M133.12 53.5068L130.792 55.8389" stroke="#939393" stroke-miterlimit="10"/>
      <path d="M53.2542 55.7178L54.1852 59.1147" stroke="#939393" stroke-miterlimit="10"/>
      <path d="M118.272 28.859L70.7195 48.0207C67.4477 39.9193 71.3739 30.699 79.4825 27.4301L97.6561 20.1037C105.772 16.8348 115 20.7575 118.272 28.859Z" fill="#E4EAEF" stroke="#939393" stroke-miterlimit="10"/>
      <path d="M79.1182 40.7622C81.1748 40.7622 82.842 39.0965 82.842 37.0418C82.842 34.987 81.1748 33.3213 79.1182 33.3213C77.0617 33.3213 75.3945 34.987 75.3945 37.0418C75.3945 39.0965 77.0617 40.7622 79.1182 40.7622Z" fill="white" stroke="#939393" stroke-miterlimit="10"/>
      <path d="M102.122 35.3705L98.3645 26.5479" stroke="#939393" stroke-miterlimit="10"/>
      <path d="M104.456 34.5139L101.515 27.6055" stroke="#939393" stroke-miterlimit="10"/>
      <path d="M106.689 33.8129L103.748 26.9111" stroke="#939393" stroke-miterlimit="10"/>
      <path d="M139.879 26.3923C144.635 24.3635 150.308 25.2128 154.288 28.9197C154.592 24.8555 153.202 20.6902 150.092 17.5831C144.426 11.9215 135.245 11.9215 129.578 17.5831C123.911 23.2447 123.911 32.4178 129.578 38.0794C133.025 41.5235 137.781 42.8648 142.254 42.1099L135.771 35.6328L139.879 26.3923Z" fill="white" stroke="#939393" stroke-miterlimit="10"/>
      <path d="M154.288 28.9202C150.308 25.2132 144.628 24.3707 139.879 26.3927L135.771 35.6332L142.254 42.1104C145.127 41.6251 147.88 40.2906 150.092 38.0799C152.649 35.5254 154.039 32.2565 154.288 28.9202Z" fill="#E4EAEF" stroke="#939393" stroke-miterlimit="10"/>
      <path d="M132.189 43.8824L121.705 26.8437L123.803 25.5361L133.99 42.0895L132.189 43.8824Z" fill="white" stroke="#939393" stroke-miterlimit="10"/>
      <path d="M135.089 31.1705C137.167 33.2465 140.54 33.2465 142.618 31.1705C144.696 29.0946 144.696 25.7246 142.618 23.6487C140.54 21.5728 137.167 21.5728 135.089 23.6487C133.012 25.7246 133.012 29.0946 135.089 31.1705Z" fill="white" stroke="#939393" stroke-miterlimit="10"/>
      <path d="M136.891 29.378C137.977 30.4632 139.737 30.4632 140.824 29.378C141.91 28.2929 141.91 26.5338 140.824 25.4486C139.737 24.3635 137.977 24.3635 136.891 25.4486C135.805 26.5338 135.805 28.2929 136.891 29.378Z" fill="white" stroke="#939393" stroke-miterlimit="10"/>
      <circle cx="20.5" cy="52.5" r="3" stroke="#939393"/>
      <circle cx="24.5" cy="78.5" r="3" stroke="#939393"/>
    </g>
  </g>
</svg>
