<svg width="155" height="136" viewBox="0 0 155 136" fill="none" xmlns="http://www.w3.org/2000/svg">
  <g>
    <path d="M145.67 77.6377C135.556 98.9322 118.434 119.099 96.6169 128.974C74.7605 138.78 48.2489 138.157 29.9459 128.143C11.5535 118.188 1.30027 98.764 0.129033 76.4008C-1.14146 54.1069 6.67008 28.874 22.9185 19.9683C39.1173 10.9835 63.7132 18.4544 88.3786 19.6913C113.044 20.9381 137.67 16.0102 148.409 24.8368C159.04 33.7227 155.834 56.2046 145.67 77.6377Z" fill="#F2F2F2"/>
    <path d="M33.8368 122.335C33.8368 122.315 33.8368 122.305 33.8368 122.285C33.7474 120.475 34.6606 119.584 36.0105 119.06C38.2438 118.209 40.4572 117.298 42.6707 116.388C42.9287 116.279 43.1471 116.111 43.3158 115.893C44.2885 114.617 45.2414 113.32 46.1645 112.014C46.3432 111.767 46.4424 111.46 46.4325 111.153C46.4226 108.541 46.3928 105.919 46.363 103.306C46.363 103.108 46.363 102.901 46.3531 102.693C49.8172 102.653 53.2217 102.624 56.6758 102.584C56.6758 102.802 56.6758 102.99 56.6858 103.178C56.7155 105.909 56.7255 108.63 56.7751 111.361C56.8049 112.736 56.8049 114.152 57.2416 115.448C57.9563 117.585 58.2044 122.374 58.4426 122.394C58.4724 124.947 56.4178 127.045 53.847 127.075C49.6087 127.124 43.3754 127.193 38.9981 127.243C36.2289 127.282 33.9757 125.096 33.8368 122.335Z" fill="white" stroke="#939393" stroke-miterlimit="10"/>
    <path d="M55.7924 124.383C55.7924 124.62 55.7925 124.838 55.8024 125.086C56.0207 125.086 56.2193 125.086 56.4674 125.076C56.4674 124.848 56.4674 124.611 56.4575 124.373C56.2193 124.373 56.0307 124.373 55.7924 124.383Z" fill="white"/>
    <path d="M33.8566 122.414C33.8566 122.394 33.8566 122.384 33.8566 122.365C33.7673 120.554 34.6904 119.663 36.0403 119.149C38.2736 118.298 40.487 117.397 42.7004 116.487C42.9585 116.378 43.1769 116.21 43.3456 115.992C44.3183 114.716 45.2712 113.429 46.2042 112.123C46.3829 111.876 46.4821 111.569 46.4821 111.262C46.4821 108.65 46.4523 106.028 46.4325 103.415C46.4325 103.217 46.4325 103.01 46.4226 102.802C49.8866 102.772 53.2912 102.742 56.7453 102.723C56.7453 102.94 56.7453 103.128 56.7453 103.316C56.7652 106.047 56.7751 108.769 56.8148 111.5C56.8346 112.875 56.8346 114.29 57.2714 115.596C57.9761 117.744 58.2143 122.523 58.4625 122.543C58.4823 125.096 56.4277 127.194 53.8569 127.213C49.6186 127.253 43.3853 127.302 39.0081 127.342C36.2388 127.362 33.9856 125.175 33.8566 122.414Z" fill="white" stroke="#939393" stroke-miterlimit="10"/>
    <path d="M55.8123 124.512C55.8123 124.749 55.8123 124.967 55.8222 125.214C56.0406 125.214 56.2391 125.214 56.4872 125.205C56.4872 124.977 56.4872 124.739 56.4773 124.502C56.2391 124.502 56.0505 124.512 55.8123 124.512Z" fill="white"/>
    <path d="M58.3136 122.474L33.8765 122.672" stroke="#939393" stroke-miterlimit="10"/>
    <path d="M53.0629 127.015L53.043 125.125" stroke="#939393" stroke-miterlimit="10"/>
    <path d="M50.2837 127.035L50.2737 125.155" stroke="#939393" stroke-miterlimit="10"/>
    <path d="M47.5144 127.055L47.4946 125.175" stroke="#939393" stroke-miterlimit="10"/>
    <path d="M44.7352 127.074L44.7253 125.194" stroke="#939393" stroke-miterlimit="10"/>
    <path d="M41.9659 127.104L41.956 125.214" stroke="#939393" stroke-miterlimit="10"/>
    <path d="M39.1967 127.124L39.1768 125.244" stroke="#939393" stroke-miterlimit="10"/>
    <path d="M48.5765 114.191L44.636 114.221" stroke="#939393" stroke-miterlimit="10"/>
    <path d="M47.4747 115.863L43.5342 115.893" stroke="#939393" stroke-miterlimit="10"/>
    <path d="M49.6683 112.528L45.7278 112.558" stroke="#939393" stroke-miterlimit="10"/>
    <path d="M69.083 123.502C69.083 127.223 78.0162 120.603 89.0238 120.603C100.031 120.603 108.965 127.223 108.965 123.502C108.965 119.782 100.031 116.764 89.0238 116.764C78.0162 116.764 69.083 119.782 69.083 123.502Z" fill="#E4EAEF" stroke="#939393" stroke-miterlimit="10"/>
    <path d="M108.538 127.341C110.676 127.341 112.409 125.614 112.409 123.482C112.409 121.351 110.676 119.623 108.538 119.623C106.4 119.623 104.667 121.351 104.667 123.482C104.667 125.614 106.4 127.341 108.538 127.341Z" fill="white" stroke="#939393" stroke-miterlimit="10"/>
    <path d="M71.3659 127.341C73.5038 127.341 75.2369 125.614 75.2369 123.482C75.2369 121.351 73.5038 119.623 71.3659 119.623C69.228 119.623 67.4949 121.351 67.4949 123.482C67.4949 125.614 69.228 127.341 71.3659 127.341Z" fill="white" stroke="#939393" stroke-miterlimit="10"/>
    <path d="M146.216 127.243H6.84875" stroke="#939393" stroke-miterlimit="10"/>
    <path d="M91.3265 31.9224L84.7954 77.8561H100.091C104.687 77.8561 108.379 74.0563 108.24 69.4748L108.955 26.2129" fill="white"/>
    <path d="M91.3265 31.9224L84.7954 77.8561H100.091C104.687 77.8561 108.379 74.0563 108.24 69.4748L108.955 26.2129" stroke="#939393" stroke-miterlimit="10"/>
    <path d="M89.7483 32.3372L108.925 25.9053L89.7483 32.3372Z" fill="white"/>
    <path d="M57.1324 57.9961V63.0624L54.5815 61.7266C52.5765 60.6777 50.2241 60.5688 48.1298 61.4495L46.7303 62.0432C46.5318 62.1323 46.4127 62.0136 46.3531 61.9443C46.3035 61.8849 46.2141 61.7167 46.363 61.5485L48.0405 59.5496C48.8048 58.6294 49.9363 58.1049 51.1373 58.0852L57.1324 57.9961Z" fill="white" stroke="#939393" stroke-miterlimit="10"/>
    <path d="M76.4975 86.0987H105.907C112.319 86.0987 117.54 80.8641 117.54 74.4421L115.744 52.9893L114.94 53.0486L116.726 74.4718C116.726 80.4287 111.863 85.3071 105.897 85.3071H76.4876L76.4975 86.0987Z" fill="#939393"/>
    <path d="M108.151 63.4482V70.3353C108.151 74.9168 104.458 78.6572 99.8527 78.7067L61.2417 79.2212L57.7478 110.906H46.5417L47.2365 73.294C47.296 70.0484 51.038 67.436 55.6336 67.436L75.3362 65.8429" fill="white"/>
    <path d="M108.151 63.4482V70.3353C108.151 74.9168 104.458 78.6572 99.8527 78.7067L61.2417 79.2212L57.7478 110.906H46.5417L47.2365 73.294C47.296 70.0484 51.038 67.436 55.6336 67.436L75.3362 65.8429" stroke="#939393" stroke-miterlimit="10"/>
    <path d="M70.2443 85.7023H108.657C108.657 81.9915 105.659 78.9834 101.957 78.9834H76.9442C73.2518 78.9834 70.2443 81.9915 70.2443 85.7023Z" fill="#E4EAEF"/>
    <path d="M69.8572 86.0984V85.7026C69.8572 81.7742 73.0433 78.5879 76.9541 78.5879H101.967C105.878 78.5879 109.064 81.7742 109.064 85.7026V86.0984H69.8572ZM101.957 79.3795H76.9441C73.5992 79.3795 70.8597 82.0017 70.6512 85.2968H108.24C108.031 82.0116 105.302 79.3795 101.957 79.3795Z" fill="#939393"/>
    <path d="M87.6639 85.7024H91.2372L86.7706 66.8916H83.1974L87.6639 85.7024Z" fill="#E4EAEF"/>
    <path d="M82.6912 66.4961H87.0883L91.7434 86.0985H87.3463L82.6912 66.4961ZM86.4431 67.2877H83.6937L87.9716 85.297H90.7211L86.4431 67.2877Z" fill="#939393"/>
    <path d="M87.2173 85.752H91.6839V97.5075H87.2173V85.752Z" fill="#E4EAEF"/>
    <path d="M86.8203 85.3564H92.0809V97.9135H86.8203V85.3564ZM91.2769 86.158H87.6143V97.1219H91.2769V86.158Z" fill="#939393"/>
    <path d="M86.0957 93.5889H92.7955V117.308H86.0957V93.5889Z" fill="#E4EAEF"/>
    <path d="M85.6986 93.1934H93.1926V117.714H85.6986V93.1934ZM92.3985 93.985H86.5026V116.912H92.3985V93.985Z" fill="#939393"/>
    <path d="M94.3638 65.5557H75.6042C75.6042 69.5138 78.8003 72.7198 82.7507 72.7198H87.2173C91.1677 72.7198 94.3638 69.5138 94.3638 65.5557Z" fill="#E4EAEF"/>
    <path d="M75.1972 65.556V65.1602H94.7608V65.556C94.7608 69.7318 91.3762 73.1159 87.2173 73.1159H82.7507C78.5918 73.1159 75.2072 69.7219 75.1972 65.556ZM76.0111 65.9518C76.2196 69.4943 79.1675 72.3144 82.7507 72.3144H87.2173C90.8005 72.3144 93.7484 69.4943 93.9568 65.9518H76.0111Z" fill="#939393"/>
    <path d="M114.185 74.1946L116.508 32.1696C113.064 31.9816 110.106 34.6236 109.927 38.0771L108.3 67.5846C108.101 71.048 110.741 74.0066 114.185 74.1946Z" fill="#E4EAEF"/>
    <path d="M114.166 74.5899C110.503 74.392 107.694 71.2354 107.893 67.5643L109.52 38.0567C109.62 36.2657 110.404 34.633 111.734 33.4456C113.054 32.268 114.751 31.6644 116.528 31.7733L116.925 31.7931L114.553 74.6196L114.166 74.5899ZM112.27 34.0591C111.099 35.108 110.404 36.5428 110.314 38.1161L108.687 67.6237C108.518 70.7209 110.781 73.4025 113.808 73.7686L116.091 32.5649C114.682 32.5748 113.342 33.0992 112.27 34.0591Z" fill="#939393"/>
    <path d="M79.3462 54.6715L91.5548 36.4544C93.2124 33.5946 96.8849 32.6051 99.7535 34.2576C102.622 35.9101 103.615 39.5714 101.957 42.4311L86.5423 65.0417L56.9438 63.4485V57.8676L79.3462 54.6715Z" fill="white" stroke="#939393" stroke-miterlimit="10"/>
    <path d="M97.4309 14.1208C95.4755 9.26229 90.7906 5.79896 85.2619 5.61095C87.9617 2.48406 91.9618 0.495117 96.4284 0.495117C104.567 0.495117 111.168 7.07544 111.168 15.1895C111.168 23.3036 104.567 29.8839 96.4284 29.8839C91.4754 29.8839 87.0982 27.4398 84.4282 23.6994H93.7484L97.4309 14.1208Z" fill="white" stroke="#939393" stroke-miterlimit="10"/>
    <path d="M85.2619 5.61133C90.7806 5.80923 95.4755 9.26267 97.4308 14.1212L93.7385 23.6899H84.4182C82.7011 21.2854 81.6887 18.3564 81.6887 15.1899C81.6887 11.5287 83.0386 8.18409 85.2619 5.61133Z" fill="#E4EAEF" stroke="#939393" stroke-miterlimit="10"/>
    <path d="M90.3737 32.159L109.59 27.5973V25.0146L90.3737 29.5862V32.159Z" fill="white" stroke="#939393" stroke-miterlimit="10"/>
    <path d="M97.4308 20.9782C94.4432 20.9782 92.0213 18.5637 92.0213 15.5853C92.0213 12.6068 94.4432 10.1924 97.4308 10.1924C100.418 10.1924 102.84 12.6068 102.84 15.5853C102.84 18.5637 100.418 20.9782 97.4308 20.9782Z" fill="white" stroke="#939393" stroke-miterlimit="10"/>
    <path d="M97.4309 18.4049C95.8725 18.4049 94.602 17.1482 94.602 15.5848C94.602 14.0312 95.8626 12.7646 97.4309 12.7646C98.9892 12.7646 100.26 14.0213 100.26 15.5848C100.26 17.1383 98.9892 18.4049 97.4309 18.4049Z" fill="white" stroke="#939393" stroke-miterlimit="10"/>
    <path d="M108.488 30.2295L102.84 31.5357" stroke="#939393" stroke-miterlimit="10"/>
    <path d="M79.3462 54.6709L80.7755 57.9957" stroke="#939393" stroke-miterlimit="10"/>
    <path d="M61.2417 79.2209L58.4426 77.0439" stroke="#939393" stroke-miterlimit="10"/>
  </g>
</svg>
