<svg width="191" height="102" viewBox="0 0 191 102" fill="none" xmlns="http://www.w3.org/2000/svg">
  <g>
    <path d="M185.01 51.5601C189.51 68.4801 197.58 89.9201 181.29 96.5501C150.71 108.83 117.5 92.4101 96.08 92.4801C74.73 92.4801 16.55 103.03 2.50001 96.5401C-11.55 89.9101 38.92 64.4301 26.75 48.2401C10.09 26.0801 35.19 17.3401 49.23 8.89007C63.28 0.290072 79.67 -1.21993 95.33 2.10007C111.06 5.34007 124.76 20.0101 141.13 28.5501C157.43 37.0001 178.91 37.9501 185.01 51.5601Z" fill="#F2F2F2"/>
    <path d="M177.08 3.53027L171.61 2.53027L158.77 73.2203L164.24 74.2203L177.08 3.53027Z" fill="#E4EAEF"/>
    <path d="M164.61 74.7605L158.23 73.5905L158.31 73.1305L171.24 1.98047L177.62 3.15047L177.54 3.61047L164.61 74.7605ZM159.31 72.8505L163.86 73.6805L176.54 3.90047L171.99 3.07047L159.31 72.8505Z" fill="#939393"/>
    <path d="M177.69 85.9102H160.22C159.83 85.9102 159.52 85.6002 159.52 85.2102C159.52 84.8202 159.83 84.5102 160.22 84.5102H176.09L170 39.2102C169.95 38.8302 170.22 38.4802 170.6 38.4202C170.97 38.3602 171.33 38.6402 171.39 39.0202L177.69 85.9102Z" fill="#939393"/>
    <path d="M183.52 85.8701H22.47V87.2701H183.52V85.8701Z" fill="#939393"/>
    <path d="M131.2 86.0005L108.28 86.3505L107.62 84.9505L131.14 81.7305L131.2 86.0005Z" fill="#E4EAEF"/>
    <path d="M107.84 87.0604L106.57 84.3904L131.82 80.9404L131.9 86.6904L107.84 87.0604ZM108.66 85.5204L108.72 85.6504L130.49 85.3204L130.45 82.5404L108.66 85.5204Z" fill="#939393"/>
    <path d="M71.27 86.44L65.18 43.45L43.16 36.29L43.98 86.44H71.27Z" fill="white" stroke="#939393" stroke-miterlimit="10"/>
    <path d="M67.16 43.9702L43.19 35.9102L67.16 43.9702Z" fill="white"/>
    <path d="M107.92 76.1299V82.4799L111.11 80.7999C113.62 79.4799 116.56 79.3499 119.18 80.4499L120.93 81.1899C121.18 81.2999 121.33 81.1499 121.4 81.0599C121.46 80.9799 121.57 80.7799 121.39 80.5599L119.29 78.0599C118.33 76.9099 116.92 76.2499 115.42 76.2299L107.92 76.1299Z" fill="white" stroke="#939393" stroke-miterlimit="10"/>
    <path d="M80.16 71.97L64.91 49.13C62.84 45.54 58.25 44.31 54.66 46.38C51.07 48.45 49.84 53.04 51.91 56.63L71.16 84.97L108.16 82.97V75.97L80.16 71.97Z" fill="white" stroke="#939393" stroke-miterlimit="10"/>
    <path d="M57.73 20.9C60.29 14.52 66.43 9.98 73.66 9.72C70.12 5.61 64.89 3 59.04 3C48.39 3 39.75 11.64 39.75 22.29C39.75 32.94 48.39 41.58 59.04 41.58C65.53 41.58 71.26 38.37 74.75 33.46H62.56L57.73 20.9Z" fill="white" stroke="#939393" stroke-miterlimit="10"/>
    <path d="M73.66 9.71973C66.43 9.96973 60.29 14.5197 57.73 20.8997L62.56 33.4597H74.75C77 30.3097 78.33 26.4597 78.33 22.2897C78.34 17.4897 76.57 13.0997 73.66 9.71973Z" fill="#E4EAEF" stroke="#939393" stroke-miterlimit="10"/>
    <path d="M66.96 44.58L41.81 38.58V35.21L66.96 41.21V44.58Z" fill="white" stroke="#939393" stroke-miterlimit="10"/>
    <path d="M57.73 29.9002C61.64 29.9002 64.81 26.7302 64.81 22.8202C64.81 18.9102 61.64 15.7402 57.73 15.7402C53.82 15.7402 50.65 18.9102 50.65 22.8202C50.65 26.7302 53.82 29.9002 57.73 29.9002Z" fill="white" stroke="#939393" stroke-miterlimit="10"/>
    <path d="M57.73 26.5201C59.77 26.5201 61.43 24.8601 61.43 22.8201C61.43 20.7801 59.77 19.1201 57.73 19.1201C55.69 19.1201 54.03 20.7801 54.03 22.8201C54.03 24.8601 55.69 26.5201 57.73 26.5201Z" fill="white" stroke="#939393" stroke-miterlimit="10"/>
    <path d="M80.16 71.9697L76.34 75.7897" stroke="#939393" stroke-miterlimit="10"/>
    <path d="M43.25 42.04L50.65 43.77" stroke="#939393" stroke-miterlimit="10"/>
  </g>
</svg>
