<svg width="219" height="206" viewBox="0 0 219 206" fill="none" xmlns="http://www.w3.org/2000/svg">
<g clip-path="url(#clip0_20493_192685)">
<path d="M205.043 32.092C222.666 55.6964 221.813 92.7408 212.355 125.068C202.756 157.545 184.702 185.436 159.055 198.025C133.409 210.613 100.179 207.609 69.3669 194.618C38.5552 181.627 10.49 158.715 2.46608 129.392C-5.55789 100.21 6.75933 64.7282 28.8252 40.2721C50.8912 15.6663 82.6964 2.07647 116.789 0.213956C151.031 -1.52689 187.28 8.62805 205.043 32.092Z" fill="#F2F2F2"/>
<g clip-path="url(#clip1_20493_192685)">
<path d="M80.5114 43.9883C80.5089 45.4487 79.9261 46.8485 78.891 47.8803C77.8558 48.9121 76.4529 49.4916 74.9902 49.4916" stroke="#939393" stroke-miterlimit="10"/>
<path d="M86.0235 49.4916C84.5617 49.4916 83.1598 48.9118 82.1261 47.8797C81.0924 46.8476 80.5117 45.4479 80.5117 43.9883" stroke="#939393" stroke-miterlimit="10"/>
<path d="M74.9902 49.4922C76.4545 49.4922 77.8589 50.073 78.8943 51.1068C79.9297 52.1406 80.5114 53.5428 80.5114 55.0049" stroke="#939393" stroke-miterlimit="10"/>
<path d="M80.5117 55.0517C80.5117 53.5913 81.0921 52.1905 82.1255 51.157C83.1589 50.1234 84.5608 49.5415 86.0235 49.5391" stroke="#939393" stroke-miterlimit="10"/>
</g>
<g clip-path="url(#clip2_20493_192685)">
<path d="M66.4508 21.5273C66.4483 22.9878 65.8656 24.3875 64.8304 25.4193C63.7953 26.4511 62.3924 27.0307 60.9297 27.0307" stroke="#939393" stroke-miterlimit="10"/>
<path d="M71.963 27.0307C70.5011 27.0307 69.0992 26.4509 68.0656 25.4188C67.0319 24.3867 66.4512 22.9869 66.4512 21.5273" stroke="#939393" stroke-miterlimit="10"/>
<path d="M60.9297 27.0312C62.394 27.0312 63.7983 27.6121 64.8337 28.6459C65.8692 29.6797 66.4508 31.0819 66.4508 32.5439" stroke="#939393" stroke-miterlimit="10"/>
<path d="M66.4512 32.5908C66.4512 31.1304 67.0316 29.7296 68.065 28.6961C69.0984 27.6625 70.5003 27.0806 71.963 27.0781" stroke="#939393" stroke-miterlimit="10"/>
</g>
<g clip-path="url(#clip3_20493_192685)">
<path d="M128.318 46.7969C128.316 48.2573 127.733 49.6571 126.698 50.6889C125.662 51.7207 124.26 52.3002 122.797 52.3002" stroke="#939393" stroke-miterlimit="10"/>
<path d="M133.83 52.3002C132.368 52.3002 130.966 51.7204 129.933 50.6883C128.899 49.6562 128.318 48.2564 128.318 46.7969" stroke="#939393" stroke-miterlimit="10"/>
<path d="M122.797 52.3008C124.261 52.3008 125.666 52.8816 126.701 53.9154C127.736 54.9492 128.318 56.3514 128.318 57.8135" stroke="#939393" stroke-miterlimit="10"/>
<path d="M128.318 57.8603C128.318 56.3999 128.899 54.9991 129.932 53.9656C130.966 52.932 132.367 52.3501 133.83 52.3477" stroke="#939393" stroke-miterlimit="10"/>
</g>
<g clip-path="url(#clip4_20493_192685)">
<path d="M158.314 17.7812C158.312 19.2417 157.729 20.6414 156.694 21.6732C155.659 22.7051 154.256 23.2846 152.793 23.2846" stroke="#939393" stroke-miterlimit="10"/>
<path d="M163.826 23.2846C162.364 23.2846 160.962 22.7048 159.929 21.6727C158.895 20.6406 158.314 19.2408 158.314 17.7812" stroke="#939393" stroke-miterlimit="10"/>
<path d="M152.793 23.2852C154.257 23.2852 155.662 23.866 156.697 24.8998C157.732 25.9336 158.314 27.3358 158.314 28.7978" stroke="#939393" stroke-miterlimit="10"/>
<path d="M158.314 28.8447C158.314 27.3843 158.895 25.9835 159.928 24.95C160.962 23.9164 162.364 23.3345 163.826 23.332" stroke="#939393" stroke-miterlimit="10"/>
</g>
<g clip-path="url(#clip5_20493_192685)">
<path d="M205.183 60.8359C205.181 62.2964 204.598 63.6961 203.563 64.7279C202.528 65.7597 201.125 66.3393 199.662 66.3393" stroke="#939393" stroke-miterlimit="10"/>
<path d="M210.695 66.3393C209.234 66.3393 207.832 65.7594 206.798 64.7274C205.764 63.6953 205.184 62.2955 205.184 60.8359" stroke="#939393" stroke-miterlimit="10"/>
<path d="M199.662 66.3398C201.126 66.3398 202.531 66.9206 203.566 67.9545C204.602 68.9883 205.183 70.3905 205.183 71.8525" stroke="#939393" stroke-miterlimit="10"/>
<path d="M205.184 71.8994C205.184 70.439 205.764 69.0382 206.797 68.0046C207.831 66.9711 209.233 66.3892 210.695 66.3867" stroke="#939393" stroke-miterlimit="10"/>
</g>
<g clip-path="url(#clip6_20493_192685)">
<path d="M210.806 6.55078C210.804 8.01121 210.221 9.41098 209.186 10.4428C208.151 11.4746 206.748 12.0541 205.285 12.0541" stroke="#939393" stroke-miterlimit="10"/>
<path d="M216.318 12.0541C214.857 12.0541 213.455 11.4743 212.421 10.4422C211.387 9.41014 210.807 8.01035 210.807 6.55078" stroke="#939393" stroke-miterlimit="10"/>
<path d="M205.285 12.0547C206.749 12.0547 208.154 12.6355 209.189 13.6693C210.225 14.7031 210.806 16.1053 210.806 17.5674" stroke="#939393" stroke-miterlimit="10"/>
<path d="M210.807 17.6142C210.807 16.1538 211.387 14.753 212.42 13.7195C213.454 12.6859 214.856 12.104 216.318 12.1016" stroke="#939393" stroke-miterlimit="10"/>
</g>
<g clip-path="url(#clip7_20493_192685)">
<path d="M183.623 151.621C183.62 153.082 183.037 154.481 182.002 155.513C180.967 156.545 179.564 157.124 178.102 157.124" stroke="#939393" stroke-miterlimit="10"/>
<path d="M189.135 157.124C187.673 157.124 186.271 156.545 185.237 155.513C184.204 154.48 183.623 153.081 183.623 151.621" stroke="#939393" stroke-miterlimit="10"/>
<path d="M178.102 157.125C179.566 157.125 180.97 157.706 182.006 158.74C183.041 159.773 183.623 161.176 183.623 162.638" stroke="#939393" stroke-miterlimit="10"/>
<path d="M183.623 162.685C183.623 161.224 184.203 159.823 185.237 158.79C186.27 157.756 187.672 157.174 189.135 157.172" stroke="#939393" stroke-miterlimit="10"/>
</g>
<g clip-path="url(#clip8_20493_192685)">
<path d="M119.88 184.379C119.878 185.839 119.295 187.239 118.26 188.271C117.225 189.303 115.822 189.882 114.359 189.882" stroke="#939393" stroke-miterlimit="10"/>
<path d="M125.393 189.882C123.931 189.882 122.529 189.302 121.495 188.27C120.462 187.238 119.881 185.838 119.881 184.379" stroke="#939393" stroke-miterlimit="10"/>
<path d="M114.359 189.883C115.824 189.883 117.228 190.464 118.263 191.497C119.299 192.531 119.88 193.933 119.88 195.395" stroke="#939393" stroke-miterlimit="10"/>
<path d="M119.881 195.442C119.881 193.982 120.461 192.581 121.495 191.548C122.528 190.514 123.93 189.932 125.393 189.93" stroke="#939393" stroke-miterlimit="10"/>
</g>
<g clip-path="url(#clip9_20493_192685)">
<path d="M48.6403 148.812C48.6378 150.273 48.055 151.673 47.0199 152.705C45.9847 153.736 44.5818 154.316 43.1191 154.316" stroke="#939393" stroke-miterlimit="10"/>
<path d="M54.1524 154.316C52.6906 154.316 51.2887 153.736 50.255 152.704C49.2213 151.672 48.6406 150.272 48.6406 148.812" stroke="#939393" stroke-miterlimit="10"/>
<path d="M43.1191 154.316C44.5834 154.316 45.9878 154.897 47.0232 155.931C48.0586 156.965 48.6403 158.367 48.6403 159.829" stroke="#939393" stroke-miterlimit="10"/>
<path d="M48.6406 159.876C48.6406 158.416 49.221 157.015 50.2544 155.981C51.2878 154.948 52.6897 154.366 54.1524 154.363" stroke="#939393" stroke-miterlimit="10"/>
</g>
<g clip-path="url(#clip10_20493_192685)">
<path d="M10.2086 162.852C10.2061 164.312 9.62338 165.712 8.58823 166.744C7.55308 167.775 6.15018 168.355 4.6875 168.355" stroke="#939393" stroke-miterlimit="10"/>
<path d="M15.7208 168.355C14.259 168.355 12.857 167.775 11.8234 166.743C10.7897 165.711 10.209 164.311 10.209 162.852" stroke="#939393" stroke-miterlimit="10"/>
<path d="M4.6875 168.355C6.1518 168.355 7.55613 168.936 8.59155 169.97C9.62697 171.004 10.2086 172.406 10.2086 173.868" stroke="#939393" stroke-miterlimit="10"/>
<path d="M10.209 173.915C10.209 172.455 10.7894 171.054 11.8228 170.02C12.8562 168.987 14.2581 168.405 15.7208 168.402" stroke="#939393" stroke-miterlimit="10"/>
</g>
<g clip-path="url(#clip11_20493_192685)">
<path d="M54.2653 178.766C54.2628 180.226 53.68 181.626 52.6449 182.658C51.6097 183.689 50.2068 184.269 48.7441 184.269" stroke="#939393" stroke-miterlimit="10"/>
<path d="M59.7774 184.269C58.3156 184.269 56.9137 183.689 55.88 182.657C54.8463 181.625 54.2656 180.225 54.2656 178.766" stroke="#939393" stroke-miterlimit="10"/>
<path d="M48.7441 184.27C50.2084 184.27 51.6128 184.85 52.6482 185.884C53.6836 186.918 54.2653 188.32 54.2653 189.782" stroke="#939393" stroke-miterlimit="10"/>
<path d="M54.2656 189.829C54.2656 188.369 54.846 186.968 55.8794 185.934C56.9128 184.901 58.3147 184.319 59.7774 184.316" stroke="#939393" stroke-miterlimit="10"/>
</g>
<g clip-path="url(#clip12_20493_192685)">
<path d="M147.066 157.238C147.064 158.699 146.481 160.098 145.446 161.13C144.411 162.162 143.008 162.742 141.545 162.742" stroke="#939393" stroke-miterlimit="10"/>
<path d="M152.578 162.742C151.116 162.742 149.714 162.162 148.681 161.13C147.647 160.098 147.066 158.698 147.066 157.238" stroke="#939393" stroke-miterlimit="10"/>
<path d="M141.545 162.742C143.009 162.742 144.414 163.323 145.449 164.357C146.484 165.391 147.066 166.793 147.066 168.255" stroke="#939393" stroke-miterlimit="10"/>
<path d="M147.066 168.302C147.066 166.841 147.647 165.441 148.68 164.407C149.714 163.373 151.116 162.792 152.578 162.789" stroke="#939393" stroke-miterlimit="10"/>
</g>
<g clip-path="url(#clip13_20493_192685)">
<path d="M45.8278 72.0664C45.8253 73.5268 45.2425 74.9266 44.2074 75.9584C43.1722 76.9902 41.7693 77.5697 40.3066 77.5697" stroke="#939393" stroke-miterlimit="10"/>
<path d="M51.3399 77.5697C49.8781 77.5697 48.4762 76.9899 47.4425 75.9578C46.4088 74.9258 45.8281 73.526 45.8281 72.0664" stroke="#939393" stroke-miterlimit="10"/>
<path d="M40.3066 77.5703C41.7709 77.5703 43.1753 78.1511 44.2107 79.1849C45.2461 80.2188 45.8278 81.6209 45.8278 83.083" stroke="#939393" stroke-miterlimit="10"/>
<path d="M45.8281 83.1299C45.8281 81.6694 46.4085 80.2687 47.4419 79.2351C48.4753 78.2016 49.8772 77.6197 51.3399 77.6172" stroke="#939393" stroke-miterlimit="10"/>
</g>
<g clip-path="url(#clip14_20493_192685)">
<path d="M24.89 37C24.8873 38.5604 24.2656 40.056 23.1613 41.1584C22.057 42.2608 20.5604 42.88 19 42.88" stroke="#939393" stroke-miterlimit="10"/>
<path d="M30.7706 42.88C29.2112 42.88 27.7156 42.2605 26.6129 41.1578C25.5101 40.0551 24.8906 38.5595 24.8906 37" stroke="#939393" stroke-miterlimit="10"/>
<path d="M19 42.8789C20.5621 42.8789 22.0603 43.4995 23.1649 44.604C24.2694 45.7086 24.89 47.2068 24.89 48.7689" stroke="#939393" stroke-miterlimit="10"/>
<path d="M24.8906 48.8197C24.8906 47.2593 25.5098 45.7627 26.6122 44.6584C27.7147 43.5541 29.2102 42.9323 30.7706 42.9297" stroke="#939393" stroke-miterlimit="10"/>
</g>
</g>
<defs>
<clipPath id="clip0_20493_192685">
<rect width="219" height="206" fill="white"/>
</clipPath>
<clipPath id="clip1_20493_192685">
<rect width="11.033" height="11.016" fill="white" transform="translate(74.9902 43.9883)"/>
</clipPath>
<clipPath id="clip2_20493_192685">
<rect width="11.033" height="11.016" fill="white" transform="translate(60.9297 21.5273)"/>
</clipPath>
<clipPath id="clip3_20493_192685">
<rect width="11.033" height="11.016" fill="white" transform="translate(122.797 46.7969)"/>
</clipPath>
<clipPath id="clip4_20493_192685">
<rect width="11.033" height="11.016" fill="white" transform="translate(152.793 17.7812)"/>
</clipPath>
<clipPath id="clip5_20493_192685">
<rect width="11.0329" height="11.016" fill="white" transform="translate(199.662 60.8359)"/>
</clipPath>
<clipPath id="clip6_20493_192685">
<rect width="11.033" height="11.016" fill="white" transform="translate(205.285 6.55078)"/>
</clipPath>
<clipPath id="clip7_20493_192685">
<rect width="11.033" height="11.016" fill="white" transform="translate(178.102 151.621)"/>
</clipPath>
<clipPath id="clip8_20493_192685">
<rect width="11.033" height="11.016" fill="white" transform="translate(114.359 184.379)"/>
</clipPath>
<clipPath id="clip9_20493_192685">
<rect width="11.033" height="11.016" fill="white" transform="translate(43.1191 148.812)"/>
</clipPath>
<clipPath id="clip10_20493_192685">
<rect width="11.033" height="11.016" fill="white" transform="translate(4.6875 162.852)"/>
</clipPath>
<clipPath id="clip11_20493_192685">
<rect width="11.033" height="11.016" fill="white" transform="translate(48.7441 178.766)"/>
</clipPath>
<clipPath id="clip12_20493_192685">
<rect width="11.033" height="11.016" fill="white" transform="translate(141.545 157.238)"/>
</clipPath>
<clipPath id="clip13_20493_192685">
<rect width="11.033" height="11.016" fill="white" transform="translate(40.3066 72.0664)"/>
</clipPath>
<clipPath id="clip14_20493_192685">
<rect width="11.77" height="11.77" fill="white" transform="translate(19 37)"/>
</clipPath>
</defs>
</svg>
