<svg width="36" height="36" viewBox="0 0 36 36" fill="none" xmlns="http://www.w3.org/2000/svg">
<path fill-rule="evenodd" clip-rule="evenodd" d="M16.1646 30.6031C17.8118 31.1763 19.6368 32.3086 21.6397 33.9999C23.9568 32.3061 25.9217 31.2156 27.5344 30.7286C29.1471 30.2416 30.9315 30.1998 32.8877 30.6031V15.8506C31.4678 15.2638 29.6879 15.2773 27.5479 15.8911C25.408 16.5049 23.4386 17.5669 21.6397 19.077C19.7174 17.5283 17.8923 16.5048 16.1646 16.0063C14.4368 15.5079 12.5339 15.456 10.4559 15.8506V21.804V30.3043C12.6145 29.9303 14.5173 30.0299 16.1646 30.6031Z" stroke="black" stroke-linecap="round"/>
<path d="M20.894 12.4382V10.9184C20.894 5.99291 16.8883 2 11.947 2C7.0057 2 3 5.99291 3 10.9184V12.4382" stroke="black" stroke-linecap="round" stroke-linejoin="round"/>
<path d="M5.98233 12.4379C5.98233 11.6144 5.31471 10.9468 4.49116 10.9468C3.66762 10.9468 3 11.6144 3 12.4379V15.4203C3 16.2438 3.66762 16.9114 4.49116 16.9114C5.31471 16.9114 5.98233 16.2438 5.98233 15.4203V12.4379Z" stroke="black"/>
<path d="M17.9116 12.7775C17.7544 12.1176 17.964 11.5978 18.5403 11.218C19.1166 10.8381 19.9011 10.8381 20.8939 11.218V14.2085" stroke="black" stroke-linecap="round"/>
</svg>
