<svg width="340" height="220" viewBox="0 0 340 220" fill="none" xmlns="http://www.w3.org/2000/svg">
<g clip-path="url(#clip0)">
<path d="M321.49 85.5659C335.418 118.138 319.021 164.075 288.202 182.093C257.58 199.913 212.439 189.617 169.47 195.953C126.601 202.191 86.299 224.862 56.2704 215.952C26.143 206.646 6.38739 165.758 3.02893 124.87C-0.329531 83.9818 12.4129 43.1929 38.194 22.2044C63.8763 0.918929 102.597 -0.368102 134.898 1.71095C167.396 3.59199 193.375 9.13612 228.638 21.5114C263.803 33.7877 307.661 52.7961 321.49 85.5659Z" fill="#F2F2F2"/>
<path d="M145.2 112.7H148.1" stroke="#939393" stroke-miterlimit="10"/>
<path d="M129.3 106.2C155.6 95.2 310.7 117.9 339.4 124.1" stroke="#939393" stroke-miterlimit="10"/>
<path d="M141.6 160.9L165.5 162.4C171 162.8 176.4 162.6 181.9 161.8C195.5 160 220 156.1 236.4 153.3C270.6 147.6 301.1 157.3 301.1 157.3" stroke="#939393" stroke-miterlimit="10"/>
<path d="M98.5996 143C104.5 144 110 145.1 115.4 146" stroke="#939393" stroke-miterlimit="10"/>
<path d="M28.5996 144.1L39.5996 142.2C42.5996 141.7 45.5996 141.2 48.5996 140.9" stroke="#939393" stroke-miterlimit="10"/>
<path d="M135.399 157.9C135.399 160.1 128.199 161.9 119.299 161.9C110.399 161.9 103.699 160 103.699 157.8C103.699 155.6 110.399 153.9 119.299 153.9C128.199 153.9 135.399 155.7 135.399 157.9Z" stroke="#939393" stroke-miterlimit="10"/>
<path d="M135.399 157.9C135.399 160.1 128.199 161.9 119.299 161.9C110.399 161.9 103.699 160 103.699 157.8C103.699 155.6 110.399 153.9 119.299 153.9C128.199 153.9 135.399 155.7 135.399 157.9Z" stroke="#939393" stroke-miterlimit="10"/>
<path d="M106.3 160.2C107.8 159.6 109.8 159.2 112.3 158.9C114.4 158.6 116.8 158.5 119.3 158.5C122.1 158.5 124.7 158.7 126.9 159C129.2 159.3 131.2 159.8 132.6 160.3" stroke="#939393" stroke-miterlimit="10"/>
<path d="M103.4 157.4C90.0996 167.3 81.6996 165.4 78.5996 167.8" stroke="#939393" stroke-miterlimit="10"/>
<path d="M134.8 156.9C153.1 168.4 160.4 169 164.3 168.6" stroke="#939393" stroke-miterlimit="10"/>
<path d="M225.394 166.886C229.403 166.46 232.568 165.313 232.463 164.325C232.358 163.336 229.023 162.88 225.014 163.306C221.005 163.732 217.84 164.878 217.945 165.867C218.05 166.855 221.385 167.311 225.394 166.886Z" stroke="#939393" stroke-miterlimit="10"/>
<path d="M218.3 165.4C212.8 170.5 208.7 170.2 207.4 171.4" stroke="#939393" stroke-miterlimit="10"/>
<path d="M232.4 164C241.2 168.3 244.2 168.1 245.9 167.7" stroke="#939393" stroke-miterlimit="10"/>
<path d="M81.9905 135.695C82.0233 134.26 77.3502 132.989 71.553 132.857C65.7557 132.724 61.0296 133.781 60.9968 135.216C60.9641 136.652 65.6371 137.923 71.4344 138.055C77.2316 138.187 81.9578 137.131 81.9905 135.695Z" stroke="#939393" stroke-miterlimit="10"/>
<path d="M61.6004 134.4C52.8004 140.6 47.6004 140.9 44.9004 141.3" stroke="#939393" stroke-miterlimit="10"/>
<path d="M81.9004 135.2C93.6004 142.9 96.0004 142.3 99.9004 143.2" stroke="#939393" stroke-miterlimit="10"/>
<path d="M18.0996 121.3C49.7996 115.3 86.0996 113.5 125.3 113" stroke="#939393" stroke-miterlimit="10" stroke-linecap="round" stroke-linejoin="round"/>
<path d="M208.9 43.1001C208.9 47.1001 205.6 50.4001 201.6 50.4001" stroke="#939393" stroke-miterlimit="10"/>
<path d="M216.199 50.3C212.199 50.3 208.899 47 208.899 43" stroke="#939393" stroke-miterlimit="10"/>
<path d="M201.699 50.2998C205.699 50.2998 208.999 53.5998 208.999 57.5998" stroke="#939393" stroke-miterlimit="10"/>
<path d="M208.899 57.5998C208.899 53.5998 212.199 50.2998 216.199 50.2998" stroke="#939393" stroke-miterlimit="10"/>
<path d="M141.7 51C141.7 53.8 139.5 56 136.7 56" stroke="#939393" stroke-miterlimit="10"/>
<path d="M146.7 56C143.9 56 141.7 53.8 141.7 51" stroke="#939393" stroke-miterlimit="10"/>
<path d="M136.7 56C139.5 56 141.7 58.2 141.7 61" stroke="#939393" stroke-miterlimit="10"/>
<path d="M141.7 61C141.7 58.2 143.9 56 146.7 56" stroke="#939393" stroke-miterlimit="10"/>
<path d="M91.2002 32.5C91.2002 35.3 89.0002 37.5 86.2002 37.5" stroke="#939393" stroke-miterlimit="10"/>
<path d="M96.2002 37.5C93.4002 37.5 91.2002 35.3 91.2002 32.5" stroke="#939393" stroke-miterlimit="10"/>
<path d="M86.2002 37.5C89.0002 37.5 91.2002 39.7 91.2002 42.5" stroke="#939393" stroke-miterlimit="10"/>
<path d="M91.2002 42.5C91.2002 39.7 93.4002 37.5 96.2002 37.5" stroke="#939393" stroke-miterlimit="10"/>
<path d="M48.5 55.7998C48.5 58.5998 46.3 60.7998 43.5 60.7998" stroke="#939393" stroke-miterlimit="10"/>
<path d="M53.5 60.7998C50.7 60.7998 48.5 58.5998 48.5 55.7998" stroke="#939393" stroke-miterlimit="10"/>
<path d="M43.5 60.7998C46.3 60.7998 48.5 62.9998 48.5 65.7998" stroke="#939393" stroke-miterlimit="10"/>
<path d="M48.5 65.7998C48.5 62.9998 50.7 60.7998 53.5 60.7998" stroke="#939393" stroke-miterlimit="10"/>
<path d="M72.9004 94.6001C72.9004 97.4001 70.7004 99.6001 67.9004 99.6001" stroke="#939393" stroke-miterlimit="10"/>
<path d="M77.9004 99.6001C75.1004 99.6001 72.9004 97.4001 72.9004 94.6001" stroke="#939393" stroke-miterlimit="10"/>
<path d="M67.9004 99.6001C70.7004 99.6001 72.9004 101.8 72.9004 104.6" stroke="#939393" stroke-miterlimit="10"/>
<path d="M72.9004 104.7C72.9004 101.9 75.1004 99.7002 77.9004 99.7002" stroke="#939393" stroke-miterlimit="10"/>
<path d="M286.399 77.2998C286.399 80.0998 284.199 82.2998 281.399 82.2998" stroke="#939393" stroke-miterlimit="10"/>
<path d="M291.399 82.3999C288.599 82.3999 286.399 80.1999 286.399 77.3999" stroke="#939393" stroke-miterlimit="10"/>
<path d="M281.3 82.3999C284.1 82.3999 286.3 84.5999 286.3 87.3999" stroke="#939393" stroke-miterlimit="10"/>
<path d="M286.399 87.3999C286.399 84.5999 288.599 82.3999 291.399 82.3999" stroke="#939393" stroke-miterlimit="10"/>
<path d="M72.4998 128.9L71.7998 122.3L100.7 119.2C102.6 119 104.5 119.4 106.2 120.5L112.7 124.6L72.4998 128.9Z" fill="white" stroke="#939393" stroke-miterlimit="10"/>
<path d="M68.9998 129.3L68.2998 122.7L72.0998 124.2L72.3998 127L68.9998 129.3Z" fill="#E4EAEF" stroke="#939393" stroke-miterlimit="10"/>
<path d="M102.399 113.2L106.599 100L117.799 100.5L111.699 119.2L102.399 113.2Z" fill="#E4EAEF" stroke="#939393" stroke-miterlimit="10"/>
<path d="M152.6 111L158.6 119.4" stroke="#939393" stroke-miterlimit="10"/>
<path d="M174.7 117.9L115.1 98.6001L108.3 119.4L176 143.2L181.2 140.5L179.5 132.3L174.8 128L176.3 120.9L174.7 117.9Z" fill="white" stroke="#939393" stroke-miterlimit="10"/>
<path d="M84.3994 107.8L88.8994 94L105.499 103.6L103.499 109.7L84.3994 107.8Z" fill="#E4EAEF" stroke="#939393" stroke-miterlimit="10"/>
<path d="M135.809 116.927L139.2 106.463L129.973 103.472L126.581 113.937L135.809 116.927Z" fill="#E4EAEF" stroke="#939393" stroke-miterlimit="10"/>
<path d="M113.5 139.2C111 146.9 104.7 145.1 96.9 142.6C89.1 140.1 83 137.8 85.5 130.1C88 122.4 96.3 118.2 104 120.7C111.7 123.2 116 131.5 113.5 139.2Z" fill="#E4EAEF" stroke="#939393" stroke-miterlimit="10"/>
<path d="M99.6002 141C103.135 141 106 138.135 106 134.6C106 131.066 103.135 128.2 99.6002 128.2C96.0656 128.2 93.2002 131.066 93.2002 134.6C93.2002 138.135 96.0656 141 99.6002 141Z" fill="white" stroke="#939393" stroke-miterlimit="10"/>
<path d="M168.7 121.5L170.3 116.5L174.7 117.9L176.3 120.9C176 121.8 176.2 125.9 175.3 125.6L169.8 123.5C168.9 123.3 168.4 122.4 168.7 121.5Z" fill="#E4EAEF" stroke="#939393" stroke-miterlimit="10"/>
<path d="M93.2994 106.2L88.8994 120L149.599 139.7C153.599 141 157.999 140.9 161.899 139.4L177.699 133.5L93.2994 106.2Z" fill="white" stroke="#939393" stroke-miterlimit="10"/>
<path d="M81.2998 117.5L85.7998 103.7L92.0998 110L90.1998 116.1L81.2998 117.5Z" fill="#E4EAEF" stroke="#939393" stroke-miterlimit="10"/>
<path d="M147.7 129.5L156.2 126.7" stroke="#939393" stroke-miterlimit="10"/>
<path d="M93.8994 123.6L92.8994 121.6" stroke="#939393" stroke-miterlimit="10"/>
<path d="M104.7 144.8L103.5 142.4" stroke="#939393" stroke-miterlimit="10"/>
<path d="M97 142.6L97.6 140.7" stroke="#939393" stroke-miterlimit="10"/>
<path d="M91.5994 138.7L89.3994 139.8" stroke="#939393" stroke-miterlimit="10"/>
<path d="M112.6 128L111.1 128.7" stroke="#939393" stroke-miterlimit="10"/>
<path d="M88.1996 130.9L85.5996 130.1" stroke="#939393" stroke-miterlimit="10"/>
<path d="M113.5 139.2L111.6 138.5" stroke="#939393" stroke-miterlimit="10"/>
<path d="M182.6 122.2L185.9 120.7L182.6 119.9V122.2Z" fill="white" stroke="#939393" stroke-miterlimit="10"/>
<path d="M254.1 96.3003C252.3 92.3003 234.5 95.4003 227.2 96.8003C225.3 97.2003 223.4 97.8003 221.5 98.6003L182.6 115.6V125.8L186 131.1L176.3 139.4L182.6 139.5L230.3 118.7C232.1 117.9 233.8 116.9 235.5 115.8C241.4 111.3 255.8 100.3 254.1 96.3003Z" fill="white" stroke="#939393" stroke-miterlimit="10"/>
<path d="M189.2 118.3L187.1 113.5L182.5 115.5V123L188.3 120.5C189.2 120.1 189.6 119.1 189.2 118.3Z" fill="#E4EAEF" stroke="#939393" stroke-miterlimit="10"/>
<path d="M215.3 109.7L212.4 103C212.3 102.9 212.4 102.7 212.5 102.7L221.2 98.9003C221.3 98.8003 221.5 98.9003 221.5 99.0003L224.4 105.7C224.5 105.8 224.4 106 224.3 106L215.6 109.8C215.5 109.9 215.4 109.9 215.3 109.7Z" fill="#E4EAEF" stroke="#939393" stroke-miterlimit="10"/>
<path d="M215.3 109.7L212.4 103C212.3 102.9 212.4 102.7 212.5 102.7L214.4 93.2001C214.5 93.1001 214.7 93.2001 214.7 93.3001L217.6 100C217.7 100.1 217.6 100.3 217.5 100.3L215.6 109.8C215.5 109.9 215.4 109.9 215.3 109.7Z" fill="white" stroke="#939393" stroke-miterlimit="10"/>
<path d="M226.999 136C226.599 135.3 226.399 134.6 226.399 133.7C226.399 131.2 228.399 129.2 230.899 129.2C233.399 129.2 235.399 131.2 235.399 133.7C235.399 134.7 235.099 135.7 234.499 136.4" fill="#E4EAEF"/>
<path d="M226.999 136C226.599 135.3 226.399 134.6 226.399 133.7C226.399 131.2 228.399 129.2 230.899 129.2C233.399 129.2 235.399 131.2 235.399 133.7C235.399 134.7 235.099 135.7 234.499 136.4" stroke="#939393" stroke-miterlimit="10"/>
<path d="M223.399 121.6L228.499 129.8" stroke="#939393" stroke-miterlimit="10"/>
<path d="M227 120L229.6 129.3" stroke="#939393" stroke-miterlimit="10"/>
<path d="M230.799 135C231.573 135 232.199 134.373 232.199 133.6C232.199 132.827 231.573 132.2 230.799 132.2C230.026 132.2 229.399 132.827 229.399 133.6C229.399 134.373 230.026 135 230.799 135Z" fill="white" stroke="#939393" stroke-miterlimit="10"/>
<path d="M235 133.5C236.5 133.9 237.4 134.5 237.4 135C237.3 136 234 136.6 230 136.4C226 136.2 222.8 135.2 222.8 134.2C222.8 133.6 224.1 133.1 225.9 132.9" stroke="#939393" stroke-miterlimit="10"/>
<path d="M223.2 133.8C217 137.9 212.9 137 211.5 138" stroke="#939393" stroke-miterlimit="10"/>
<path d="M237.4 134.6C245.4 140.2 248.4 140.5 250.2 140.4" stroke="#939393" stroke-miterlimit="10"/>
<path d="M107.3 142.2L109.9 140.9" stroke="#939393" stroke-miterlimit="10"/>
<path d="M91.0996 128.4L93.2996 129.3" stroke="#939393" stroke-miterlimit="10"/>
<path d="M155.6 130.6L152.1 134.1L156.1 135.8L153.4 141.3L159.4 141.4L157.7 138.1L157.8 134.1C157.8 134.1 155.9 133.6 155.7 133.3C155.5 133 155.6 130.6 155.6 130.6Z" fill="#F2F2F2"/>
<path d="M159.4 141.2L157.7 138.9L157.8 134.9C157.8 134.9 155.9 134.4 155.7 134.1C155.5 133.8 155.5 131.4 155.5 131.4L152 134.9L156 136.6L153.5 141" stroke="#939393" stroke-miterlimit="10"/>
<path d="M144.8 117.5L146.7 112L152.9 113L148 108.7L142.4 106.7L143 110.3L141.7 114.1C141.7 114.1 143.3 115.2 143.4 115.5C143.4 115.8 144.8 117.5 144.8 117.5Z" fill="#F2F2F2"/>
<path d="M141.7 106.9L143.1 110.1L141.8 113.9C141.8 113.9 143.4 115 143.5 115.3C143.6 115.6 144.8 117.4 144.8 117.4L146.7 111.9L152.9 112.9L147.3 108.9" stroke="#939393" stroke-miterlimit="10"/>
<path d="M206.5 130.3L195.4 130.8L194.9 121.6C194.9 119.2 196.9 117.2 199.3 117.2H202.3C204.7 117.2 206.7 119.2 206.7 121.6L206.5 130.3Z" fill="#E4EAEF" stroke="#939393" stroke-miterlimit="10"/>
<path d="M201.4 120.4C203.554 120.4 205.3 118.654 205.3 116.5C205.3 114.346 203.554 112.6 201.4 112.6C199.246 112.6 197.5 114.346 197.5 116.5C197.5 118.654 199.246 120.4 201.4 120.4Z" fill="white" stroke="#939393" stroke-miterlimit="10"/>
<path d="M201.4 114C200.3 114 199.3 114.7 198.9 115.7L199.6 117.6H203.1L203.8 115.7C203.5 114.7 202.5 114 201.4 114Z" fill="#E4EAEF" stroke="#939393" stroke-miterlimit="10"/>
<path d="M196.1 132.6L194.2 141.2C194.1 141.7 194 142.1 194 142.6V149.9H197.2L197.7 142C197.8 141.1 197.9 140.2 198.2 139.3L199.4 135.7C199.5 135.3 200 135.2 200.3 135.4C200.4 135.5 200.5 135.7 200.5 135.9V150.3L203.7 149.5L204.1 142.1L204.7 135.7L204.2 132.9L197.4 131.7L196.1 132.6Z" fill="white" stroke="#939393" stroke-miterlimit="10"/>
<path d="M204.5 133C206 132.3 207.4 130.7 207.4 129V126.6C207.4 125.5 207.2 124.4 206.8 123.3C206.3 121.9 205.5 120.6 204.4 119.6L204 119.2L198.9 119.1C197.5 119.1 196.2 119.9 195.7 121.1L193.5 125.9C193.1 126.7 193.1 127.6 193.5 128.4L195.3 132.1C195.3 132.1 197.4 133.1 197.5 133.2C197.6 133.3 199.9 133.2 199.9 133.2" fill="white"/>
<path d="M204.5 133C206 132.3 207.4 130.7 207.4 129V126.6C207.4 125.5 207.2 124.4 206.8 123.3C206.3 121.9 205.5 120.6 204.4 119.6L204 119.2L198.9 119.1C197.5 119.1 196.2 119.9 195.7 121.1L193.5 125.9C193.1 126.7 193.1 127.6 193.5 128.4L195.3 132.1C195.3 132.1 197.4 133.1 197.5 133.2C197.6 133.3 199.9 133.2 199.9 133.2" stroke="#939393" stroke-miterlimit="10"/>
<path d="M195.3 132.3L197.8 130.7C197.8 130.7 197.2 130.3 197 130.2C196.9 130.2 196.7 129.9 196.5 129.5C196 128.4 195.9 127.2 196.2 126.1L197 123.6" fill="white"/>
<path d="M195.3 132.3L197.8 130.7C197.8 130.7 197.2 130.3 197 130.2C196.9 130.2 196.7 129.9 196.5 129.5C196 128.4 195.9 127.2 196.2 126.1L197 123.6" stroke="#939393" stroke-miterlimit="10"/>
<path d="M197.9 130.6L200.4 130.9L200 133.3C200.9 133.7 202 133.8 203 133.5L204.4 133L203.5 130.3L204.4 129.5C205 128.9 205.3 128 205.2 127.1L204.8 123.9" stroke="#939393" stroke-miterlimit="10"/>
<path d="M203.1 130.5L200.3 131.1" stroke="#939393" stroke-miterlimit="10"/>
<path d="M202.9 124.6L202.1 125.4L201.4 124.6V123H202.9V124.6Z" fill="white" stroke="#939393" stroke-miterlimit="10"/>
<path d="M195.801 152.9H195.401C194.701 152.9 194.101 152.3 194.101 151.6V151.2C194.101 150.5 194.701 149.9 195.401 149.9H195.701C196.401 149.9 197.001 150.5 197.001 151.2V151.6C197.101 152.3 196.501 152.9 195.801 152.9Z" fill="white" stroke="#939393" stroke-miterlimit="10"/>
<path d="M203.6 153H202.6C202.1 153 201 152.5 201 152V151C201 150.4 200.9 150 201.5 150H202.5C203.1 150 205.3 151.1 205.3 151.7V152.7C205.2 153.1 204.1 153 203.6 153Z" fill="white" stroke="#939393" stroke-miterlimit="10"/>
<path d="M197.1 124.6L203.4 130.4" stroke="#939393" stroke-miterlimit="10"/>
<path d="M195.9 121.1L204.6 129.2" stroke="#939393" stroke-miterlimit="10"/>
</g>
<defs>
<clipPath id="clip0">
<rect width="339" height="219.2" fill="white" transform="translate(0.5)"/>
</clipPath>
</defs>
</svg>
