<svg width="16" height="16" viewBox="0 0 16 16" fill="none" xmlns="http://www.w3.org/2000/svg">
<path fill-rule="evenodd" clip-rule="evenodd" d="M8 0C12.4183 0 16 3.58172 16 8C16 12.4183 12.4183 16 8 16C3.58172 16 0 12.4183 0 8C0 3.58172 3.58172 0 8 0ZM8 1C4.13401 1 1 4.13401 1 8C1 11.866 4.13401 15 8 15C11.866 15 15 11.866 15 8C15 4.13401 11.866 1 8 1ZM5.22461 11.422L3.59127 9.104C3.43222 8.87827 3.48627 8.56633 3.712 8.40728C3.93773 8.24822 4.24967 8.30227 4.40872 8.528L6.04882 10.8558C6.08465 10.9094 6.14413 10.9423 6.20851 10.9442C6.27289 10.9461 6.33423 10.9168 6.37907 10.858L11.6077 4.24262C11.779 4.02598 12.0934 3.98917 12.31 4.1604C12.5267 4.33163 12.5635 4.64607 12.3923 4.86271L7.16948 11.4705C6.93506 11.779 6.56599 11.9553 6.17865 11.9438C5.7913 11.9322 5.43342 11.7342 5.22461 11.422Z" fill="#27CA41"/>
</svg>
