<svg width="24" height="24" viewBox="0 0 24 24" fill="none" xmlns="http://www.w3.org/2000/svg">
<path fill-rule="evenodd" clip-rule="evenodd" d="M12 2C6.47715 2 2 6.47715 2 12C2 17.5228 6.47715 22 12 22C17.5228 22 22 17.5228 22 12C22 9.34784 20.9464 6.8043 19.0711 4.92893C17.1957 3.05357 14.6522 2 12 2ZM12 4C13.6829 3.99982 15.3222 4.53572 16.68 5.53L5.56 16.69C3.80224 14.2611 3.5502 11.0532 4.90704 8.37953C6.26388 5.70587 9.0018 4.01535 12 4ZM6.94 18.11C8.35655 19.3076 10.1452 19.9757 12 20C15.116 20.011 17.9548 18.2117 19.2748 15.3892C20.5949 12.5666 20.1559 9.23444 18.15 6.85L6.94 18.11Z" fill="black"/>
</svg>
