<svg width="306" height="282" viewBox="0 0 306 282" fill="none" xmlns="http://www.w3.org/2000/svg">
<g clip-path="url(#clip0)">
<path d="M292.862 215.055C268.422 257.508 210.49 274.38 149.835 267.033C89.4516 259.481 26.0732 227.505 12.2538 171.921C-1.97401 116.406 33.2892 36.8744 89.2474 10.4773C145.206 -15.9198 221.654 10.4773 264.678 57.7608C307.838 104.84 317.165 172.806 292.862 215.055Z" fill="#F2F2F2"/>
<path d="M28.5922 107.834C44.195 107.834 56.8436 95.1927 56.8436 79.5995C56.8436 64.0063 44.195 51.3655 28.5922 51.3655C12.9894 51.3655 0.34082 64.0063 0.34082 79.5995C0.34082 95.1927 12.9894 107.834 28.5922 107.834Z" fill="#E4EAEF" stroke="#939393" stroke-miterlimit="10"/>
<path d="M44.9304 85.9946C45.7473 86.0626 46.4281 86.9471 46.4962 87.6954C46.4962 88.5119 45.8154 89.2602 45.475 90.2127C45.1347 91.0971 45.1347 92.1857 44.59 92.6619C44.0454 93.1382 43.0243 93.0701 42.2074 92.73C41.3905 92.3218 40.7097 91.6414 40.5736 90.893C40.4374 90.1447 40.8459 89.3963 41.2543 88.784C41.6628 88.1717 42.0712 87.6955 42.6839 87.1512C43.2966 86.5389 44.1135 85.8585 44.9304 85.9946Z" fill="#E4EAEF" stroke="#939393" stroke-miterlimit="10"/>
<path d="M27.5027 101.03C28.0473 100.35 27.9792 99.3293 27.4346 98.8531C26.822 98.3768 25.7328 98.4448 24.7797 98.1727C23.8266 97.9006 23.0097 97.2883 22.2609 97.3563C21.5121 97.4243 20.7632 98.2407 20.3548 99.1252C20.0144 100.01 20.0144 100.894 20.4229 101.438C20.8994 101.983 21.7844 102.119 22.5332 102.187C23.282 102.255 23.9628 102.187 24.8478 102.051C25.8008 101.915 26.9581 101.642 27.5027 101.03Z" fill="#E4EAEF" stroke="#939393" stroke-miterlimit="10"/>
<path d="M31.9275 80.4158C31.9956 81.2322 31.3148 82.1167 30.4979 82.2527C29.681 82.3888 28.796 81.8445 27.843 81.7085C26.8899 81.5724 25.8688 81.7085 25.2561 81.3683C24.6434 80.9601 23.0777 77.9666 23.2819 77.0822C23.4861 76.1977 24.0307 75.3813 24.7796 75.1092C25.4603 74.8371 26.958 72.728 29.0683 74.9051C29.7491 75.1772 29.6129 77.8986 30.2937 78.3748C31.0425 78.851 31.8594 79.5994 31.9275 80.4158Z" fill="#E4EAEF" stroke="#939393" stroke-miterlimit="10"/>
<path d="M35.7411 89.8498C35.8818 87.9387 33.8986 86.2352 31.3114 86.0449C28.7242 85.8546 26.5128 87.2496 26.372 89.1607C26.2313 91.0718 28.2145 92.7754 30.8017 92.9657C33.3889 93.1559 35.6004 91.761 35.7411 89.8498Z" fill="#E4EAEF" stroke="#939393" stroke-miterlimit="10"/>
<path d="M24.4399 61.3665C21.853 61.1624 23.2826 59.0534 20.0149 57.5566C18.313 56.7402 22.3295 54.291 24.9164 54.4271C27.5033 54.6312 29.4775 56.332 29.3413 58.237C29.2051 60.1419 27.0267 61.5706 24.4399 61.3665Z" fill="#E4EAEF" stroke="#939393" stroke-miterlimit="10"/>
<path d="M39.4847 75.7217C40.0293 73.6807 41.527 75.1094 43.2289 72.7282C44.1139 71.4356 45.5434 75.1094 44.9988 77.2184C44.4542 79.2594 42.7523 80.6201 41.2547 80.2119C39.757 79.8037 38.9401 77.8307 39.4847 75.7217Z" fill="#E4EAEF" stroke="#939393" stroke-miterlimit="10"/>
<path d="M5.03804 83.5454C5.58264 81.5044 7.0803 82.9331 8.7822 80.5519C9.66718 79.2593 11.0968 82.9331 10.5522 85.0422C10.0076 87.1512 8.30567 88.4439 6.808 88.0357C5.24226 87.6274 4.49343 85.6545 5.03804 83.5454Z" fill="#E4EAEF" stroke="#939393" stroke-miterlimit="10"/>
<path d="M53.4051 77.2812C53.5127 75.8197 52.7184 74.5702 51.6311 74.4902C50.5437 74.4102 49.575 75.5301 49.4673 76.9915C49.3597 78.453 50.154 79.7025 51.2413 79.7825C52.3287 79.8625 53.2974 78.7426 53.4051 77.2812Z" fill="#E4EAEF" stroke="#939393" stroke-miterlimit="10"/>
<path d="M36.6571 61.1842C36.7288 60.2099 36.2095 59.3776 35.497 59.3252C34.7846 59.2728 34.1489 60.0202 34.0772 60.9944C34.0054 61.9687 34.5248 62.801 35.2372 62.8534C35.9496 62.9058 36.5853 62.1585 36.6571 61.1842Z" fill="#E4EAEF" stroke="#939393" stroke-miterlimit="10"/>
<path d="M17.9608 76.952C18.0325 75.9777 17.5132 75.1454 16.8007 75.093C16.0883 75.0406 15.4526 75.788 15.3809 76.7623C15.3091 77.7366 15.8285 78.5688 16.5409 78.6212C17.2533 78.6736 17.889 77.9263 17.9608 76.952Z" fill="#E4EAEF" stroke="#939393" stroke-miterlimit="10"/>
<path d="M17.926 68.0572C19.3482 67.1413 19.8903 65.4514 19.1367 64.2828C18.3831 63.1142 16.6194 62.9093 15.1972 63.8252C13.775 64.7411 13.2329 66.431 13.9865 67.5996C14.7401 68.7683 16.5038 68.9731 17.926 68.0572Z" fill="#E4EAEF" stroke="#939393" stroke-miterlimit="10"/>
<path d="M18.0354 90.5567C19.4576 89.6408 19.9996 87.9509 19.2461 86.7823C18.4925 85.6137 16.7287 85.4088 15.3065 86.3247C13.8844 87.2407 13.3423 88.9305 14.0959 90.0992C14.8494 91.2678 16.6132 91.4727 18.0354 90.5567Z" fill="#E4EAEF" stroke="#939393" stroke-miterlimit="10"/>
<path d="M9.699 69.8256C9.80663 68.3642 9.01238 67.1146 7.92501 67.0346C6.83763 66.9547 5.8689 68.0745 5.76127 69.536C5.65365 70.9974 6.4479 72.247 7.53527 72.3269C8.62264 72.4069 9.59138 71.287 9.699 69.8256Z" fill="#E4EAEF" stroke="#939393" stroke-miterlimit="10"/>
<path d="M290.411 264.447H109.67" stroke="#939393" stroke-miterlimit="10"/>
<path d="M221.654 259.685H211.102L208.855 251.521H223.832L221.654 259.685Z" fill="#E4EAEF" stroke="#939393" stroke-miterlimit="10"/>
<path d="M224.785 253.902H208.175V168.996C208.175 167.499 208.311 166.002 208.651 164.506C209.877 158.995 213.144 145.66 216.48 145.66C219.816 145.66 223.083 158.995 224.309 164.506C224.649 166.002 224.785 167.499 224.785 168.996V253.902Z" fill="white" stroke="#939393" stroke-miterlimit="10"/>
<path d="M205.248 267.781H194.22V219.409C194.22 216.211 195.309 213.082 197.283 210.565L205.248 200.496V267.781Z" fill="white" stroke="#939393" stroke-miterlimit="10"/>
<path d="M200.755 223.967L205.452 217.64" stroke="#939393" stroke-miterlimit="10"/>
<path d="M227.849 267.781H238.877V219.409C238.877 216.211 237.788 213.082 235.813 210.565L227.849 200.496V267.781Z" fill="white" stroke="#939393" stroke-miterlimit="10"/>
<path d="M205.18 273.768H194.151L197.283 267.713H202.048L205.18 273.768Z" fill="#E4EAEF" stroke="#939393" stroke-miterlimit="10"/>
<path d="M238.741 273.836H227.713L230.844 267.781H235.678L238.741 273.836Z" fill="#E4EAEF" stroke="#939393" stroke-miterlimit="10"/>
<path d="M221.994 273.836H210.966L214.029 259.685H218.863L221.994 273.836Z" fill="#E4EAEF" stroke="#939393" stroke-miterlimit="10"/>
<path d="M231.933 223.151L227.917 217.64" stroke="#939393" stroke-miterlimit="10"/>
<path d="M215.936 183.691V189.882" stroke="#939393" stroke-miterlimit="10"/>
<path d="M224.785 234.648H208.447V241.996H224.785V234.648Z" fill="#E4EAEF" stroke="#939393" stroke-miterlimit="10"/>
<path d="M218.318 209.884H208.175V197.434H218.318C218.931 197.434 219.407 197.91 219.407 198.523V208.728C219.407 209.34 218.931 209.884 218.318 209.884Z" fill="#E4EAEF" stroke="#939393" stroke-miterlimit="10"/>
<path d="M221.177 176.684H211.374C211.306 176.684 211.238 176.616 211.238 176.548V169.268C211.238 169.2 211.306 169.132 211.374 169.132H221.177C221.245 169.132 221.313 169.2 221.313 169.268V176.548C221.382 176.616 221.313 176.684 221.177 176.684Z" fill="#E4EAEF" stroke="#939393" stroke-miterlimit="10"/>
<path d="M278.089 169.404H224.99V176.207H278.089V169.404Z" fill="#E4EAEF" stroke="#939393" stroke-miterlimit="10"/>
<path d="M278.089 217.028H241.805V223.831H278.089V217.028Z" fill="#E4EAEF" stroke="#939393" stroke-miterlimit="10"/>
<path d="M278.089 176.208H253.922V217.028H278.089V176.208Z" fill="#E4EAEF" stroke="#939393" stroke-miterlimit="10"/>
<path d="M278.089 223.763H253.922V281.592H278.089V223.763Z" fill="#E4EAEF" stroke="#939393" stroke-miterlimit="10"/>
<path d="M267.197 118.379V138.108" stroke="#939393" stroke-miterlimit="10"/>
<path d="M267.197 118.379C268.889 118.379 270.261 117.008 270.261 115.317C270.261 113.626 268.889 112.256 267.197 112.256C265.505 112.256 264.134 113.626 264.134 115.317C264.134 117.008 265.505 118.379 267.197 118.379Z" stroke="#939393" stroke-miterlimit="10"/>
<path d="M226.352 169.404L233.159 176.207" stroke="#939393" stroke-miterlimit="10"/>
<path d="M233.159 169.404L239.967 176.207" stroke="#939393" stroke-miterlimit="10"/>
<path d="M239.967 169.404L246.774 176.207" stroke="#939393" stroke-miterlimit="10"/>
<path d="M246.774 169.404L253.582 176.207" stroke="#939393" stroke-miterlimit="10"/>
<path d="M253.582 169.404L260.39 176.207" stroke="#939393" stroke-miterlimit="10"/>
<path d="M260.39 169.404L267.197 176.207" stroke="#939393" stroke-miterlimit="10"/>
<path d="M267.197 169.404L274.005 176.207" stroke="#939393" stroke-miterlimit="10"/>
<path d="M244.051 217.028L250.858 223.831" stroke="#939393" stroke-miterlimit="10"/>
<path d="M250.858 217.028L257.666 223.831" stroke="#939393" stroke-miterlimit="10"/>
<path d="M257.666 217.028L264.474 223.831" stroke="#939393" stroke-miterlimit="10"/>
<path d="M264.474 217.028L271.281 223.831" stroke="#939393" stroke-miterlimit="10"/>
<path d="M271.281 217.028L278.089 223.831" stroke="#939393" stroke-miterlimit="10"/>
<path d="M274.005 169.404L278.089 173.486" stroke="#939393" stroke-miterlimit="10"/>
<path d="M253.922 179.269H277.748" stroke="#939393" stroke-miterlimit="10"/>
<path d="M253.922 182.194H277.748" stroke="#939393" stroke-miterlimit="10"/>
<path d="M267.129 122.869L260.186 169.336" stroke="#939393" stroke-miterlimit="10"/>
<path d="M275.979 169.132L267.129 122.869" stroke="#939393" stroke-miterlimit="10"/>
<path d="M253.922 185.052H277.748" stroke="#939393" stroke-miterlimit="10"/>
<path d="M253.922 187.977H277.748" stroke="#939393" stroke-miterlimit="10"/>
<path d="M253.922 190.835H277.748" stroke="#939393" stroke-miterlimit="10"/>
<path d="M253.922 193.76H277.748" stroke="#939393" stroke-miterlimit="10"/>
<path d="M253.922 196.618H277.748" stroke="#939393" stroke-miterlimit="10"/>
<path d="M253.922 199.543H277.748" stroke="#939393" stroke-miterlimit="10"/>
<path d="M253.922 202.4H277.748" stroke="#939393" stroke-miterlimit="10"/>
<path d="M253.922 205.326H277.748" stroke="#939393" stroke-miterlimit="10"/>
<path d="M253.922 208.184H277.748" stroke="#939393" stroke-miterlimit="10"/>
<path d="M253.922 211.109H277.748" stroke="#939393" stroke-miterlimit="10"/>
<path d="M253.922 213.966H277.748" stroke="#939393" stroke-miterlimit="10"/>
<path d="M253.922 226.825H277.748" stroke="#939393" stroke-miterlimit="10"/>
<path d="M253.922 229.75H277.748" stroke="#939393" stroke-miterlimit="10"/>
<path d="M253.922 232.607H277.748" stroke="#939393" stroke-miterlimit="10"/>
<path d="M253.922 235.533H277.748" stroke="#939393" stroke-miterlimit="10"/>
<path d="M253.922 238.39H277.748" stroke="#939393" stroke-miterlimit="10"/>
<path d="M253.922 241.316H277.748" stroke="#939393" stroke-miterlimit="10"/>
<path d="M253.922 244.173H277.748" stroke="#939393" stroke-miterlimit="10"/>
<path d="M253.922 247.099H277.748" stroke="#939393" stroke-miterlimit="10"/>
<path d="M253.922 249.956H277.748" stroke="#939393" stroke-miterlimit="10"/>
<path d="M253.922 252.881H277.748" stroke="#939393" stroke-miterlimit="10"/>
<path d="M253.922 255.739H277.748" stroke="#939393" stroke-miterlimit="10"/>
<path d="M253.922 258.665H277.748" stroke="#939393" stroke-miterlimit="10"/>
<path d="M253.922 261.522H277.748" stroke="#939393" stroke-miterlimit="10"/>
<path d="M253.922 267.305H277.748" stroke="#939393" stroke-miterlimit="10"/>
<path d="M253.922 270.23H277.748" stroke="#939393" stroke-miterlimit="10"/>
<path d="M253.922 273.087H277.748" stroke="#939393" stroke-miterlimit="10"/>
<path d="M253.922 276.013H277.748" stroke="#939393" stroke-miterlimit="10"/>
<path d="M253.922 278.871H277.748" stroke="#939393" stroke-miterlimit="10"/>
<path d="M253.922 264.447H277.748" stroke="#939393" stroke-miterlimit="10"/>
<path d="M264.134 123.005H270.601" stroke="#939393" stroke-miterlimit="10"/>
<path d="M263.385 138.109H271.554" stroke="#939393" stroke-miterlimit="10"/>
<path d="M263.385 146.817H271.554" stroke="#939393" stroke-miterlimit="10"/>
<path d="M262.023 157.158H273.664" stroke="#939393" stroke-miterlimit="10"/>
<path d="M262.023 157.158L271.554 146.817" stroke="#939393" stroke-miterlimit="10"/>
<path d="M263.385 146.817L273.664 157.158" stroke="#939393" stroke-miterlimit="10"/>
<path d="M264.814 138.109L271.554 146.817" stroke="#939393" stroke-miterlimit="10"/>
<path d="M263.385 146.817L269.988 138.109" stroke="#939393" stroke-miterlimit="10"/>
<path d="M260.186 169.336L273.665 157.158" stroke="#939393" stroke-miterlimit="10"/>
<path d="M262.023 157.158L275.979 169.132" stroke="#939393" stroke-miterlimit="10"/>
<path d="M253.922 223.763L278.089 247.915" stroke="#939393" stroke-miterlimit="10"/>
<path d="M260.525 223.763L278.089 241.316" stroke="#939393" stroke-miterlimit="10"/>
<path d="M255.76 176.208L277.884 198.25" stroke="#939393" stroke-miterlimit="10"/>
<path d="M262.159 175.935L278.157 191.923" stroke="#939393" stroke-miterlimit="10"/>
<path d="M253.922 276.013H185.643V281.66H253.922V276.013Z" fill="#E4EAEF" stroke="#939393" stroke-miterlimit="10"/>
<path d="M226.011 276.013L231.593 281.592" stroke="#939393" stroke-miterlimit="10"/>
<path d="M231.594 276.013L237.108 281.592" stroke="#939393" stroke-miterlimit="10"/>
<path d="M237.107 276.013L242.69 281.592" stroke="#939393" stroke-miterlimit="10"/>
<path d="M242.689 276.013L248.204 281.592" stroke="#939393" stroke-miterlimit="10"/>
<path d="M248.204 276.013L253.786 281.592" stroke="#939393" stroke-miterlimit="10"/>
<path d="M203.818 276.013L209.401 281.592" stroke="#939393" stroke-miterlimit="10"/>
<path d="M209.4 276.013L214.915 281.592" stroke="#939393" stroke-miterlimit="10"/>
<path d="M214.915 276.013L220.497 281.592" stroke="#939393" stroke-miterlimit="10"/>
<path d="M220.497 276.013L226.011 281.592" stroke="#939393" stroke-miterlimit="10"/>
<path d="M187.208 276.013L192.722 281.592" stroke="#939393" stroke-miterlimit="10"/>
<path d="M192.722 276.013L198.304 281.592" stroke="#939393" stroke-miterlimit="10"/>
<path d="M198.305 276.013L203.819 281.592" stroke="#939393" stroke-miterlimit="10"/>
<path d="M259.981 26.6692C259.981 29.5266 257.666 31.7717 254.875 31.7717" stroke="#939393" stroke-miterlimit="10"/>
<path d="M265.086 31.7717C262.227 31.7717 259.98 29.4586 259.98 26.6692" stroke="#939393" stroke-miterlimit="10"/>
<path d="M254.807 31.7717C257.666 31.7717 259.912 34.0849 259.912 36.8743" stroke="#939393" stroke-miterlimit="10"/>
<path d="M259.98 36.9424C259.98 34.085 262.295 31.8398 265.086 31.8398" stroke="#939393" stroke-miterlimit="10"/>
<path d="M64.1957 155.457C65.6996 155.457 66.9187 154.239 66.9187 152.736C66.9187 151.233 65.6996 150.014 64.1957 150.014C62.6918 150.014 61.4727 151.233 61.4727 152.736C61.4727 154.239 62.6918 155.457 64.1957 155.457Z" stroke="#939393" stroke-miterlimit="10"/>
<path d="M131.454 121.032C130.637 120.76 129.888 120.216 129.344 119.604C129.003 119.263 128.799 118.855 128.595 118.447C128.391 118.039 128.323 117.631 128.323 117.154H127.846C127.846 117.222 127.914 117.358 127.846 117.426C127.71 117.903 127.506 118.243 127.233 118.651C127.029 118.991 126.825 119.399 126.553 119.672C126.212 120.012 125.804 120.216 125.395 120.42C124.987 120.624 124.51 120.896 124.034 120.964C123.966 120.964 123.966 120.964 123.966 120.964V121.576C124.17 121.645 124.374 121.713 124.578 121.849C124.647 121.849 124.715 121.849 124.715 121.849C124.783 121.849 124.783 121.917 124.851 121.917C124.851 121.917 124.851 121.917 124.919 121.917C125.532 122.189 126.076 122.597 126.553 123.073C126.825 123.345 127.029 123.618 127.233 123.958C127.37 124.094 127.438 124.298 127.506 124.502C127.574 124.638 127.574 124.774 127.574 124.91H128.255C128.595 124.162 129.071 123.481 129.616 122.869C129.888 122.529 130.229 122.189 130.569 121.917C130.91 121.713 131.318 121.645 131.726 121.508V120.896C131.59 121.032 131.522 121.032 131.454 121.032Z" fill="#F2F2F2"/>
<path d="M127.983 116.27C127.983 119.059 125.668 121.372 122.877 121.372" stroke="#939393" stroke-miterlimit="10"/>
<path d="M133.088 121.372C130.229 121.372 127.982 119.059 127.982 116.27" stroke="#939393" stroke-miterlimit="10"/>
<path d="M122.809 121.372C125.668 121.372 127.914 123.685 127.914 126.475" stroke="#939393" stroke-miterlimit="10"/>
<path d="M127.982 126.475C127.982 123.685 130.297 121.372 133.088 121.372" stroke="#939393" stroke-miterlimit="10"/>
<path d="M169.372 51.0254C168.555 50.7532 167.806 50.209 167.262 49.5967C166.921 49.2565 166.717 48.8483 166.513 48.4401C166.309 48.0319 166.241 47.6237 166.241 47.1475H165.764C165.764 47.2155 165.832 47.3516 165.764 47.4196C165.628 47.8958 165.424 48.236 165.151 48.6442C164.947 48.9844 164.743 49.3926 164.471 49.6647C164.13 50.0049 163.722 50.209 163.313 50.4131C162.905 50.6172 162.428 50.8893 161.952 50.9574C161.884 50.9574 161.884 50.9574 161.884 50.9574V51.5697C162.088 51.6377 162.292 51.7057 162.496 51.8418C162.565 51.8418 162.633 51.8418 162.633 51.8418C162.701 51.8418 162.701 51.9098 162.769 51.9098C162.769 51.9098 162.769 51.9098 162.837 51.9098C163.45 52.182 163.994 52.5902 164.471 53.0664C164.743 53.3385 164.947 53.6107 165.151 53.9508C165.288 54.0869 165.356 54.291 165.424 54.4951C165.492 54.6312 165.492 54.7672 165.492 54.9033H166.173C166.513 54.1549 166.989 53.4746 167.534 52.8623C167.806 52.5221 168.147 52.182 168.487 51.9098C168.827 51.7057 169.236 51.6377 169.644 51.5016V51.0254C169.508 51.0934 169.44 51.0934 169.372 51.0254Z" fill="#F2F2F2"/>
<path d="M165.901 46.2629C165.901 49.0523 163.586 51.3655 160.795 51.3655" stroke="#939393" stroke-miterlimit="10"/>
<path d="M171.006 51.3655C168.147 51.3655 165.9 49.0523 165.9 46.2629" stroke="#939393" stroke-miterlimit="10"/>
<path d="M160.795 51.3655C163.654 51.3655 165.901 53.6786 165.901 56.468" stroke="#939393" stroke-miterlimit="10"/>
<path d="M165.9 56.468C165.9 53.6786 168.215 51.3655 171.006 51.3655" stroke="#939393" stroke-miterlimit="10"/>
<path d="M48.6739 129.809C47.857 129.536 47.1081 128.992 46.5635 128.38C46.2231 128.04 46.0189 127.632 45.8147 127.223C45.6105 126.815 45.5424 126.407 45.5424 125.931H45.0659C45.0659 125.999 45.1339 126.135 45.0659 126.203C44.9297 126.679 44.7255 127.019 44.4532 127.427C44.249 127.768 44.0447 128.176 43.7724 128.448C43.432 128.788 43.0236 128.992 42.6151 129.196C42.2067 129.4 41.7302 129.673 41.2536 129.741C41.1855 129.741 41.1855 129.741 41.1855 129.741V130.353C41.3898 130.421 41.594 130.489 41.7982 130.625C41.8663 130.625 41.9344 130.625 41.9344 130.625C42.0025 130.625 42.0025 130.693 42.0705 130.693C42.0705 130.693 42.0705 130.693 42.1386 130.693C42.7513 130.965 43.2959 131.373 43.7724 131.85C44.0447 132.122 44.249 132.394 44.4532 132.734C44.5893 132.87 44.6574 133.074 44.7255 133.278C44.7936 133.414 44.7936 133.55 44.7936 133.687H45.4743C45.8147 132.938 46.2912 132.258 46.8358 131.646C47.1081 131.305 47.4485 130.965 47.7889 130.693C48.1293 130.489 48.5377 130.421 48.9462 130.285V129.673C48.81 129.809 48.7419 129.809 48.6739 129.809Z" fill="#F2F2F2"/>
<path d="M45.134 125.046C45.134 127.836 42.8194 130.149 40.0283 130.149" stroke="#939393" stroke-miterlimit="10"/>
<path d="M50.3078 130.149C47.4486 130.149 45.2021 127.836 45.2021 125.046" stroke="#939393" stroke-miterlimit="10"/>
<path d="M40.0283 130.149C42.8875 130.149 45.134 132.462 45.134 135.251" stroke="#939393" stroke-miterlimit="10"/>
<path d="M45.1338 135.251C45.1338 132.462 47.4484 130.149 50.2395 130.149" stroke="#939393" stroke-miterlimit="10"/>
<path d="M161.067 121.032C160.251 120.76 159.502 120.216 158.957 119.604C158.617 119.263 158.412 118.855 158.208 118.447C158.004 118.039 157.936 117.631 157.936 117.154H157.459C157.459 117.222 157.528 117.358 157.459 117.426C157.323 117.903 157.119 118.243 156.847 118.651C156.643 118.991 156.438 119.399 156.166 119.672C155.826 120.012 155.417 120.216 155.009 120.42C154.6 120.624 154.124 120.896 153.647 120.964C153.579 120.964 153.579 120.964 153.579 120.964V121.576C153.783 121.645 153.988 121.713 154.192 121.849C154.26 121.849 154.328 121.849 154.328 121.849C154.396 121.849 154.396 121.917 154.464 121.917C154.464 121.917 154.464 121.917 154.532 121.917C155.145 122.189 155.689 122.597 156.166 123.073C156.438 123.345 156.643 123.618 156.847 123.958C156.983 124.094 157.051 124.298 157.119 124.502C157.187 124.638 157.187 124.774 157.187 124.91H157.868C158.208 124.162 158.685 123.481 159.229 122.869C159.502 122.529 159.842 122.189 160.182 121.917C160.523 121.713 160.931 121.645 161.34 121.508V120.896C161.204 121.032 161.136 121.032 161.067 121.032Z" fill="#F2F2F2"/>
<path d="M157.596 116.27C157.596 119.059 155.281 121.372 152.49 121.372" stroke="#939393" stroke-miterlimit="10"/>
<path d="M162.701 121.372C159.842 121.372 157.596 119.059 157.596 116.27" stroke="#939393" stroke-miterlimit="10"/>
<path d="M152.422 121.372C155.281 121.372 157.528 123.685 157.528 126.475" stroke="#939393" stroke-miterlimit="10"/>
<path d="M157.596 126.475C157.596 123.685 159.91 121.372 162.701 121.372" stroke="#939393" stroke-miterlimit="10"/>
<path d="M260.865 83.8855C260.048 83.6134 259.3 83.0691 258.755 82.4568C258.415 82.1166 258.21 81.7084 258.006 81.3002C257.802 80.892 257.734 80.4838 257.734 80.0076H257.257C257.257 80.0756 257.325 80.2117 257.257 80.2797C257.121 80.7559 256.917 81.0961 256.645 81.5043C256.44 81.8445 256.236 82.2527 255.964 82.5248C255.623 82.865 255.215 83.0691 254.807 83.2732C254.398 83.4773 253.922 83.7494 253.445 83.8175C253.377 83.8175 253.377 83.8175 253.377 83.8175V84.4298C253.581 84.4978 253.785 84.5658 253.99 84.7019C254.058 84.7019 254.126 84.7019 254.126 84.7019C254.194 84.7019 254.194 84.7699 254.262 84.7699C254.262 84.7699 254.262 84.7699 254.33 84.7699C254.943 85.0421 255.487 85.4503 255.964 85.9265C256.236 86.1986 256.44 86.4708 256.645 86.8109C256.781 86.947 256.849 87.1511 256.917 87.3552C256.985 87.4913 256.985 87.6273 256.985 87.7634H257.666C258.006 87.015 258.483 86.3347 259.027 85.7224C259.3 85.3822 259.64 85.0421 259.98 84.7699C260.321 84.5658 260.729 84.4978 261.138 84.3617V83.7494C261.001 83.8855 260.933 83.8855 260.865 83.8855Z" fill="#F2F2F2"/>
<path d="M257.394 79.0552C257.394 81.8446 255.079 84.1577 252.288 84.1577" stroke="#939393" stroke-miterlimit="10"/>
<path d="M262.499 84.1577C259.64 84.1577 257.394 81.8446 257.394 79.0552" stroke="#939393" stroke-miterlimit="10"/>
<path d="M252.288 84.1577C255.147 84.1577 257.394 86.4709 257.394 89.2603" stroke="#939393" stroke-miterlimit="10"/>
<path d="M257.394 89.2603C257.394 86.4709 259.708 84.1577 262.499 84.1577" stroke="#939393" stroke-miterlimit="10"/>
<path d="M178.971 151.647C178.154 151.375 177.405 150.831 176.86 150.219C176.52 149.879 176.316 149.47 176.112 149.062C175.907 148.654 175.839 148.246 175.839 147.77H175.363C175.363 147.838 175.431 147.974 175.363 148.042C175.227 148.518 175.022 148.858 174.75 149.266C174.546 149.606 174.342 150.015 174.069 150.287C173.729 150.627 173.32 150.831 172.912 151.035C172.504 151.239 172.027 151.511 171.551 151.579C171.482 151.579 171.482 151.579 171.482 151.579V152.192C171.687 152.26 171.891 152.328 172.095 152.464C172.163 152.464 172.231 152.464 172.231 152.464C172.299 152.464 172.299 152.532 172.367 152.532C172.367 152.532 172.367 152.532 172.435 152.532C173.048 152.804 173.593 153.212 174.069 153.688C174.342 153.961 174.546 154.233 174.75 154.573C174.886 154.709 174.954 154.913 175.022 155.117C175.09 155.253 175.09 155.389 175.09 155.525H175.771C176.112 154.777 176.588 154.097 177.133 153.484C177.405 153.144 177.745 152.804 178.086 152.532C178.426 152.328 178.835 152.26 179.243 152.124V151.511C179.107 151.647 179.039 151.647 178.971 151.647Z" fill="#F2F2F2"/>
<path d="M175.431 146.885C175.431 149.674 173.116 151.988 170.325 151.988" stroke="#939393" stroke-miterlimit="10"/>
<path d="M180.605 151.988C177.746 151.988 175.499 149.674 175.499 146.885" stroke="#939393" stroke-miterlimit="10"/>
<path d="M170.325 151.988C173.184 151.988 175.431 154.301 175.431 157.09" stroke="#939393" stroke-miterlimit="10"/>
<path d="M175.431 157.09C175.431 154.301 177.745 151.988 180.536 151.988" stroke="#939393" stroke-miterlimit="10"/>
<path d="M158.48 193.42C157.663 193.148 156.914 192.604 156.369 191.991C156.029 191.651 155.825 191.243 155.62 190.835C155.416 190.427 155.348 190.018 155.348 189.542H154.872C154.872 189.61 154.94 189.746 154.872 189.814C154.735 190.291 154.531 190.631 154.259 191.039C154.055 191.379 153.85 191.787 153.578 192.059C153.238 192.4 152.829 192.604 152.421 192.808C152.012 193.012 151.536 193.284 151.059 193.352C150.991 193.352 150.991 193.352 150.991 193.352V193.964C151.195 194.032 151.4 194.1 151.604 194.237C151.672 194.237 151.74 194.237 151.74 194.237C151.808 194.237 151.808 194.305 151.876 194.305C151.876 194.305 151.876 194.305 151.944 194.305C152.557 194.577 153.102 194.985 153.578 195.461C153.85 195.733 154.055 196.005 154.259 196.346C154.395 196.482 154.463 196.686 154.531 196.89C154.599 197.026 154.599 197.162 154.599 197.298H155.28C155.62 196.55 156.097 195.869 156.641 195.257C156.914 194.917 157.254 194.577 157.595 194.305C157.935 194.1 158.343 194.032 158.752 193.896V193.284C158.616 193.42 158.548 193.42 158.48 193.42Z" fill="#F2F2F2"/>
<path d="M155.008 188.658C155.008 191.447 152.693 193.76 149.902 193.76" stroke="#939393" stroke-miterlimit="10"/>
<path d="M160.114 193.76C157.254 193.76 155.008 191.447 155.008 188.658" stroke="#939393" stroke-miterlimit="10"/>
<path d="M149.834 193.76C152.693 193.76 154.94 196.073 154.94 198.863" stroke="#939393" stroke-miterlimit="10"/>
<path d="M155.008 198.863C155.008 196.073 157.322 193.76 160.114 193.76" stroke="#939393" stroke-miterlimit="10"/>
<path d="M209.061 127.904C208.244 127.631 207.495 127.087 206.95 126.475C206.61 126.135 206.406 125.726 206.201 125.318C205.997 124.91 205.929 124.502 205.929 124.026H205.453C205.453 124.094 205.521 124.23 205.453 124.298C205.316 124.774 205.112 125.114 204.84 125.522C204.636 125.863 204.431 126.271 204.159 126.543C203.819 126.883 203.41 127.087 203.002 127.291C202.593 127.495 202.117 127.767 201.64 127.836C201.572 127.836 201.572 127.836 201.572 127.836V128.448C201.776 128.516 201.981 128.584 202.185 128.72C202.253 128.72 202.321 128.72 202.321 128.72C202.389 128.72 202.389 128.788 202.457 128.788C202.457 128.788 202.457 128.788 202.525 128.788C203.138 129.06 203.683 129.468 204.159 129.945C204.431 130.217 204.636 130.489 204.84 130.829C204.976 130.965 205.044 131.169 205.112 131.373C205.18 131.509 205.18 131.645 205.18 131.781H205.861C206.201 131.033 206.678 130.353 207.223 129.74C207.495 129.4 207.835 129.06 208.176 128.788C208.516 128.584 208.924 128.516 209.333 128.38V127.904C209.197 127.904 209.129 127.904 209.061 127.904Z" fill="#F2F2F2"/>
<path d="M205.589 123.141C205.589 125.931 203.274 128.244 200.483 128.244" stroke="#939393" stroke-miterlimit="10"/>
<path d="M210.695 128.244C207.835 128.244 205.589 125.931 205.589 123.141" stroke="#939393" stroke-miterlimit="10"/>
<path d="M200.415 128.244C203.274 128.244 205.521 130.557 205.521 133.346" stroke="#939393" stroke-miterlimit="10"/>
<path d="M205.589 133.346C205.589 130.557 207.903 128.244 210.695 128.244" stroke="#939393" stroke-miterlimit="10"/>
<path d="M108.036 91.5056C107.219 91.2335 106.47 90.6892 105.926 90.0769C105.585 89.7367 105.381 89.3285 105.177 88.9203C104.973 88.5121 104.905 88.1039 104.905 87.6277H104.428C104.428 87.6957 104.496 87.8318 104.428 87.8998C104.292 88.3761 104.088 88.7162 103.815 89.1244C103.611 89.4646 103.407 89.8728 103.135 90.1449C102.794 90.4851 102.386 90.6892 101.977 90.8933C101.569 91.0974 101.092 91.3695 100.616 91.4376C100.548 91.4376 100.548 91.4376 100.548 91.4376V92.0499C100.752 92.1179 100.956 92.186 101.161 92.322C101.229 92.322 101.297 92.322 101.297 92.322C101.365 92.322 101.365 92.3901 101.433 92.3901C101.433 92.3901 101.433 92.3901 101.501 92.3901C102.114 92.6622 102.658 93.0704 103.135 93.5466C103.407 93.8188 103.611 94.0909 103.815 94.4311C103.952 94.5671 104.02 94.7712 104.088 94.9753C104.156 95.1114 104.156 95.2475 104.156 95.3835H104.837C105.177 94.6352 105.654 93.9548 106.198 93.3425C106.47 93.0024 106.811 92.6622 107.151 92.3901C107.492 92.186 107.9 92.1179 108.308 91.9819V91.3695C108.104 91.5737 108.104 91.5736 108.036 91.5056Z" fill="#F2F2F2"/>
<path d="M104.496 86.7432C104.496 89.5325 102.182 91.8457 99.3906 91.8457" stroke="#939393" stroke-miterlimit="10"/>
<path d="M109.67 91.8457C106.811 91.8457 104.564 89.5325 104.564 86.7432" stroke="#939393" stroke-miterlimit="10"/>
<path d="M99.3906 91.8457C102.25 91.8457 104.496 94.1589 104.496 96.9482" stroke="#939393" stroke-miterlimit="10"/>
<path d="M104.496 96.9482C104.496 94.1589 106.811 91.8457 109.602 91.8457" stroke="#939393" stroke-miterlimit="10"/>
<path d="M176.52 93.1383C178.024 93.1383 179.243 91.9199 179.243 90.4169C179.243 88.9139 178.024 87.6956 176.52 87.6956C175.016 87.6956 173.797 88.9139 173.797 90.4169C173.797 91.9199 175.016 93.1383 176.52 93.1383Z" stroke="#939393" stroke-miterlimit="10"/>
<path d="M104.292 179.405C105.796 179.405 107.015 178.187 107.015 176.684C107.015 175.181 105.796 173.962 104.292 173.962C102.788 173.962 101.569 175.181 101.569 176.684C101.569 178.187 102.788 179.405 104.292 179.405Z" stroke="#939393" stroke-miterlimit="10"/>
<path d="M227.917 75.0413C229.421 75.0413 230.64 73.8229 230.64 72.32C230.64 70.817 229.421 69.5986 227.917 69.5986C226.413 69.5986 225.194 70.817 225.194 72.32C225.194 73.8229 226.413 75.0413 227.917 75.0413Z" stroke="#939393" stroke-miterlimit="10"/>
<path d="M117.09 40.3441C118.594 40.3441 119.813 39.1257 119.813 37.6227C119.813 36.1198 118.594 34.9014 117.09 34.9014C115.586 34.9014 114.367 36.1198 114.367 37.6227C114.367 39.1257 115.586 40.3441 117.09 40.3441Z" stroke="#939393" stroke-miterlimit="10"/>
<path d="M220.633 111.984C222.137 111.984 223.356 110.765 223.356 109.262C223.356 107.759 222.137 106.541 220.633 106.541C219.129 106.541 217.91 107.759 217.91 109.262C217.91 110.765 219.129 111.984 220.633 111.984Z" stroke="#939393" stroke-miterlimit="10"/>
<path d="M224.173 95.3154C223.356 95.0433 222.607 94.499 222.063 93.8867C221.722 93.5466 221.518 93.1384 221.314 92.7301C221.109 92.3219 221.041 91.9137 221.041 91.4375H220.565C220.565 91.5055 220.633 91.6416 220.565 91.7096C220.429 92.1859 220.225 92.526 219.952 92.9343C219.748 93.2744 219.544 93.6826 219.271 93.9548C218.931 94.2949 218.523 94.499 218.114 94.7031C217.706 94.9072 217.229 95.1794 216.753 95.2474C216.685 95.2474 216.685 95.2474 216.685 95.2474V95.8597C216.889 95.9277 217.093 95.9958 217.297 96.1318C217.365 96.1318 217.433 96.1318 217.433 96.1318C217.501 96.1318 217.501 96.1999 217.57 96.1999C217.57 96.1999 217.57 96.1999 217.638 96.1999C218.25 96.472 218.795 96.8802 219.271 97.3564C219.544 97.6286 219.748 97.9007 219.952 98.2409C220.088 98.3769 220.156 98.5811 220.225 98.7852C220.293 98.9212 220.293 99.0573 220.293 99.1934H220.973C221.314 98.445 221.79 97.7646 222.335 97.1523C222.607 96.8122 222.948 96.472 223.288 96.1999C223.628 95.9958 224.037 95.9277 224.445 95.7917V95.1794C224.309 95.3154 224.241 95.3154 224.173 95.3154Z" fill="#F2F2F2"/>
<path d="M220.633 90.553C220.633 93.3424 218.318 95.6555 215.527 95.6555" stroke="#939393" stroke-miterlimit="10"/>
<path d="M225.807 95.6555C222.948 95.6555 220.701 93.3424 220.701 90.553" stroke="#939393" stroke-miterlimit="10"/>
<path d="M215.527 95.6555C218.387 95.6555 220.633 97.9687 220.633 100.758" stroke="#939393" stroke-miterlimit="10"/>
<path d="M220.633 100.758C220.633 97.9687 222.947 95.6555 225.738 95.6555" stroke="#939393" stroke-miterlimit="10"/>
</g>
<defs>
<clipPath id="clip0">
<rect width="306" height="282" fill="white"/>
</clipPath>
</defs>
</svg>
