<svg width="191" height="137" viewBox="0 0 191 137" fill="none" xmlns="http://www.w3.org/2000/svg">
<g clip-path="url(#clip0)">
<path d="M185.01 62.0903C189.51 79.0103 197.58 100.45 181.29 107.08C150.71 119.36 117.5 102.94 96.0799 103.01C74.7299 103.01 16.5499 113.56 2.49995 107.07C-11.5501 100.44 38.9199 74.9604 26.7499 58.7703C10.0899 36.6103 35.1899 27.8703 49.2299 19.4203C63.2799 10.8203 79.67 9.31035 95.3299 12.6303C111.06 15.8703 124.76 30.5403 141.13 39.0803C157.43 47.5303 178.91 48.4803 185.01 62.0903Z" fill="#F2F2F2"/>
<path d="M177.08 14.0605L171.61 13.0605L158.77 83.7505L164.24 84.7505L177.08 14.0605Z" fill="#E4EAEF"/>
<path d="M164.61 85.2907L158.23 84.1207L158.31 83.6607L171.24 12.5107L177.62 13.6807L177.54 14.1407L164.61 85.2907ZM159.31 83.3807L163.86 84.2107L176.54 14.4307L171.99 13.6007L159.31 83.3807Z" fill="#939393"/>
<path d="M177.69 96.4405H160.22C159.83 96.4405 159.52 96.1305 159.52 95.7405C159.52 95.3505 159.83 95.0405 160.22 95.0405H176.09L170 49.7405C169.95 49.3605 170.22 49.0105 170.6 48.9505C170.97 48.8905 171.33 49.1705 171.39 49.5505L177.69 96.4405Z" fill="#939393"/>
<path d="M183.52 96.4004H22.47V97.8004H183.52V96.4004Z" fill="#939393"/>
<path d="M131.2 96.5307L108.28 96.8807L107.62 95.4807L131.14 92.2607L131.2 96.5307Z" fill="#E4EAEF"/>
<path d="M107.84 97.5907L106.57 94.9207L131.82 91.4707L131.9 97.2207L107.84 97.5907ZM108.66 96.0507L108.72 96.1807L130.49 95.8507L130.45 93.0707L108.66 96.0507Z" fill="#939393"/>
<path d="M71.27 96.9703L65.18 53.9803L43.16 46.8203L43.98 96.9703H71.27Z" fill="white" stroke="#939393" stroke-miterlimit="10"/>
<path d="M70.65 53.46L44.01 44.4C42.89 41.95 42.26 39.22 42.26 36.34C42.26 25.66 50.92 17 61.61 17C72.3 17 80.96 25.66 80.96 36.35C80.95 43.77 76.78 50.21 70.65 53.46Z" fill="#E4EAEF" stroke="#939393" stroke-miterlimit="10"/>
<path d="M70.64 53.46L44.01 44.4C42.89 41.95 42.26 39.22 42.26 36.34C42.26 25.66 50.92 17 61.61 17C66.43 17 70.85 18.77 74.23 21.69L65.31 37.94L79.19 44.45C77.4 48.3 74.39 51.47 70.64 53.46Z" fill="white" stroke="#939393" stroke-miterlimit="10"/>
<path d="M67.1599 54.5004L43.1899 46.4404L67.1599 54.5004Z" fill="white"/>
<path d="M67.1599 54.5004L43.1899 46.4404" stroke="#939393" stroke-miterlimit="10"/>
<path d="M61.61 43.4295C65.5202 43.4295 68.69 40.2597 68.69 36.3495C68.69 32.4394 65.5202 29.2695 61.61 29.2695C57.6999 29.2695 54.53 32.4394 54.53 36.3495C54.53 40.2597 57.6999 43.4295 61.61 43.4295Z" fill="white" stroke="#939393" stroke-miterlimit="10"/>
<path d="M61.61 40.0504C63.6535 40.0504 65.31 38.3938 65.31 36.3504C65.31 34.3069 63.6535 32.6504 61.61 32.6504C59.5666 32.6504 57.91 34.3069 57.91 36.3504C57.91 38.3938 59.5666 40.0504 61.61 40.0504Z" fill="white" stroke="#939393" stroke-miterlimit="10"/>
<path d="M107.92 86.6602V93.0102L111.11 91.3302C113.62 90.0102 116.56 89.8802 119.18 90.9802L120.93 91.7202C121.18 91.8302 121.33 91.6801 121.4 91.5901C121.46 91.5101 121.57 91.3101 121.39 91.0901L119.29 88.5901C118.33 87.4401 116.92 86.7802 115.42 86.7602L107.92 86.6602Z" fill="white" stroke="#939393" stroke-miterlimit="10"/>
<path d="M80.16 82.5003L64.91 59.6603C62.84 56.0703 58.25 54.8403 54.66 56.9103C51.07 58.9803 49.84 63.5703 51.91 67.1603L71.16 95.5003L108.16 93.5003V86.5003L80.16 82.5003Z" fill="white" stroke="#939393" stroke-miterlimit="10"/>
</g>
<defs>
<clipPath id="clip0">
<rect width="191" height="137" fill="white"/>
</clipPath>
</defs>
</svg>
