<svg width="191" height="137" viewBox="0 0 191 137" fill="none" xmlns="http://www.w3.org/2000/svg">
<path d="M184.18 76.3995C188.63 88.5372 182.41 104.364 171.73 114.422C161.19 124.479 146.2 128.787 131.42 132.319C116.57 135.793 101.93 138.491 85.32 136.067C68.77 133.565 50.32 125.873 39.78 111.508C29.31 97.0738 26.7 76.0561 33.84 59.8856C40.98 43.5778 57.88 32.1368 74.64 21.6574C91.34 11.1093 107.96 1.6111 120.26 6.04621C132.71 10.4911 140.98 29.0165 152.65 42.4003C164.45 55.794 179.73 64.2619 184.18 76.3995Z" fill="#F2F2F2"/>
<path d="M177.08 24.4353L171.61 23.4541L158.77 92.8164L164.24 93.7976L177.08 24.4353Z" fill="#E4EAEF"/>
<path d="M164.61 94.3271L158.23 93.1791L158.31 92.7277L171.24 22.9141L177.62 24.0621L177.54 24.5134L164.61 94.3271ZM159.31 92.453L163.86 93.2674L176.54 24.798L171.99 23.9836L159.31 92.453Z" fill="#939393"/>
<path d="M177.69 105.268H160.22C159.83 105.268 159.52 104.964 159.52 104.581C159.52 104.199 159.83 103.894 160.22 103.894H176.09L170 59.4452C169.95 59.0724 170.22 58.7289 170.6 58.6701C170.97 58.6112 171.33 58.8859 171.39 59.2588L177.69 105.268Z" fill="#939393"/>
<path d="M183.52 105.229H22.47V106.602H183.52V105.229Z" fill="#939393"/>
<path d="M131.2 105.356L108.28 105.699L107.62 104.326L131.14 101.166L131.2 105.356Z" fill="#E4EAEF"/>
<path d="M107.84 106.396L106.57 103.776L131.82 100.391L131.9 106.033L107.84 106.396ZM108.66 104.885L108.72 105.012L130.49 104.688L130.45 101.961L108.66 104.885Z" fill="#939393"/>
<path d="M160.66 79.3238L74.66 42.0375L74.16 41.5469L167.66 42.0375" fill="#E4EAEF"/>
<path d="M160.66 79.3238L74.66 42.0375L74.16 41.5469L167.66 42.0375" stroke="#939393" stroke-miterlimit="10" stroke-dasharray="5 5"/>
<path d="M71.27 105.787L65.18 63.6046L43.16 56.5791L43.98 105.787H71.27Z" fill="white" stroke="#939393" stroke-miterlimit="10"/>
<path d="M70.65 63.0945L44.01 54.2145C42.89 51.8105 42.26 49.1318 42.26 46.3059C42.26 35.8167 50.92 27.3193 61.61 27.3193C72.3 27.3193 80.96 35.8167 80.96 46.3059C80.95 53.5865 76.78 59.9056 70.65 63.0945Z" fill="#E4EAEF" stroke="#939393" stroke-miterlimit="10"/>
<path d="M70.64 63.0945L44.01 54.2145C42.89 51.8105 42.26 49.1318 42.26 46.3059C42.26 35.8167 50.92 27.3193 61.61 27.3193C66.43 27.3193 70.85 29.0561 74.23 31.9212L65.31 47.866L79.19 54.2538C77.4 58.0315 74.39 61.1517 70.64 63.0945Z" fill="white" stroke="#939393" stroke-miterlimit="10"/>
<path d="M67.1599 64.1147L43.1899 56.2061L67.1599 64.1147Z" fill="white"/>
<path d="M67.1599 64.1147L43.1899 56.2061" stroke="#939393" stroke-miterlimit="10"/>
<path d="M61.61 53.2534C65.5202 53.2534 68.69 50.1431 68.69 46.3064C68.69 42.4697 65.5202 39.3594 61.61 39.3594C57.6999 39.3594 54.53 42.4697 54.53 46.3064C54.53 50.1431 57.6999 53.2534 61.61 53.2534Z" fill="white" stroke="#939393" stroke-miterlimit="10"/>
<path d="M61.61 49.9368C63.6535 49.9368 65.31 48.3114 65.31 46.3063C65.31 44.3012 63.6535 42.6758 61.61 42.6758C59.5666 42.6758 57.91 44.3012 57.91 46.3063C57.91 48.3114 59.5666 49.9368 61.61 49.9368Z" fill="white" stroke="#939393" stroke-miterlimit="10"/>
<path d="M107.92 95.6709V101.902L111.11 100.253C113.62 98.958 116.56 98.8304 119.18 99.9098L120.93 100.636C121.18 100.744 121.33 100.597 121.4 100.508C121.46 100.43 121.57 100.234 121.39 100.018L119.29 97.5646C118.33 96.4362 116.92 95.7886 115.42 95.769L107.92 95.6709Z" fill="white" stroke="#939393" stroke-miterlimit="10"/>
<path d="M80.16 91.5896L64.91 69.1786C62.84 65.656 58.25 64.4491 54.66 66.4802C51.07 68.5114 49.84 73.0152 51.91 76.5377L71.16 104.345L108.16 102.383V95.5145L80.16 91.5896Z" fill="white" stroke="#939393" stroke-miterlimit="10"/>
</svg>
