<svg width="191" height="119" viewBox="0 0 191 119" fill="none" xmlns="http://www.w3.org/2000/svg">
<g clip-path="url(#clip0)">
<path d="M163 88.0896C167.064 103.17 148.624 112.74 133.883 118.64C106.239 129.59 101.962 124.5 82.5872 124.57C63.284 124.57 50.3306 133.97 37.6311 128.19C24.9418 122.28 6.50215 106.31 19.923 85.1396C33.2218 64.1696 24.6573 63.6496 40.2523 50.0596C53.5816 40.6396 71.8079 36.8096 85.9704 39.7696C100.194 42.6596 123.154 55.5896 137.947 63.1996C152.678 70.7296 157.484 75.9496 163 88.0896Z" fill="#F2F2F2"/>
<path d="M84.934 37.4803L93.2242 95.0703H73.7991C67.9574 95.0703 63.2738 90.3103 63.4567 84.5603L62.5525 30.3203" fill="white"/>
<path d="M84.934 37.4803L93.2242 95.0703H73.7991C67.9574 95.0703 63.2738 90.3103 63.4567 84.5603L62.5525 30.3203" stroke="#939393" stroke-miterlimit="10"/>
<path d="M90.4812 36.9602L63.4161 27.9002C62.2782 25.4502 61.6382 22.7202 61.6382 19.8402C61.6382 9.15024 70.4364 0.490234 81.297 0.490234C92.1575 0.490234 100.956 9.15024 100.956 19.8402C100.956 27.2702 96.709 33.7102 90.4812 36.9602Z" fill="#E4EAEF" stroke="#939393" stroke-miterlimit="10"/>
<path d="M90.4812 36.9602L63.4161 27.9002C62.2782 25.4502 61.6382 22.7202 61.6382 19.8402C61.6382 9.15024 70.4364 0.490234 81.297 0.490234C86.1939 0.490234 90.6844 2.26023 94.1184 5.18023L85.056 21.4302L99.1575 27.9402C97.3491 31.8002 94.2809 34.9802 90.4812 36.9602Z" fill="white" stroke="#939393" stroke-miterlimit="10"/>
<path d="M86.9456 37.9995L62.5931 29.9395L86.9456 37.9995Z" fill="white"/>
<path d="M86.9456 37.9995L62.5931 29.9395" stroke="#939393" stroke-miterlimit="10"/>
<path d="M81.2969 26.9295C85.2694 26.9295 88.4898 23.7597 88.4898 19.8495C88.4898 15.9394 85.2694 12.7695 81.2969 12.7695C77.3243 12.7695 74.1039 15.9394 74.1039 19.8495C74.1039 23.7597 77.3243 26.9295 81.2969 26.9295Z" fill="white" stroke="#939393" stroke-miterlimit="10"/>
<path d="M81.2969 23.5504C83.3729 23.5504 85.0559 21.8938 85.0559 19.8504C85.0559 17.8069 83.3729 16.1504 81.2969 16.1504C79.2208 16.1504 77.5378 17.8069 77.5378 19.8504C77.5378 21.8938 79.2208 23.5504 81.2969 23.5504Z" fill="white" stroke="#939393" stroke-miterlimit="10"/>
<path d="M128.356 70.1602V76.5102L131.597 74.8302C134.147 73.5102 137.134 73.3802 139.796 74.4802L141.574 75.2202C141.828 75.3302 141.98 75.1801 142.051 75.0901C142.112 75.0101 142.224 74.8101 142.041 74.5901L139.908 72.0901C138.932 70.9401 137.5 70.2802 135.976 70.2602L128.356 70.1602Z" fill="white" stroke="#939393" stroke-miterlimit="10"/>
<path d="M103.77 105.4H66.4233C58.2753 105.4 51.6512 98.8399 51.6512 90.7799L53.927 63.8799L54.9429 63.9599L52.6774 90.8199C52.6774 98.2899 58.8544 104.4 66.4334 104.4H103.78V105.4H103.77Z" fill="#939393"/>
<path d="M63.5786 77V85.63C63.5786 91.38 68.2723 96.06 74.1141 96.13L123.144 96.77L127.584 136.5H141.807L140.923 89.34C140.852 85.27 136.098 82 130.256 82L105.233 80" fill="white"/>
<path d="M63.5786 77V85.63C63.5786 91.38 68.2723 96.06 74.1141 96.13L123.144 96.77L127.584 136.5H141.807L140.923 89.34C140.852 85.27 136.098 82 130.256 82L105.233 80" stroke="#939393" stroke-miterlimit="10"/>
<path d="M111.704 104.9H62.9283C62.9283 100.25 66.7382 96.4805 71.4319 96.4805H103.191C107.895 96.4805 111.704 100.25 111.704 104.9Z" fill="#E4EAEF"/>
<path d="M112.212 105.4H62.4204V104.9C62.4204 99.9805 66.4639 95.9805 71.432 95.9805H103.191C108.159 95.9805 112.202 99.9805 112.202 104.9V105.4H112.212ZM63.4567 104.4H111.186C110.922 100.27 107.448 96.9805 103.201 96.9805H71.4421C67.1954 96.9805 63.7208 100.27 63.4567 104.4Z" fill="#939393"/>
<path d="M89.5871 104.9H85.0458L90.7148 81.3203H95.2561L89.5871 104.9Z" fill="#E4EAEF"/>
<path d="M89.9935 105.4H84.4159L90.3288 80.8203H95.9064L89.9935 105.4ZM85.696 104.4H89.1909L94.6263 81.8203H91.1314L85.696 104.4Z" fill="#939393"/>
<path d="M90.156 104.97H84.4869V119.71H90.156V104.97Z" fill="#E4EAEF"/>
<path d="M90.664 120.21H83.979V104.47H90.664V120.21ZM84.995 119.21H89.648V105.47H84.995V119.21Z" fill="#939393"/>
<path d="M91.5784 114.79H83.0748V129.53H91.5784V114.79Z" fill="#E4EAEF"/>
<path d="M92.0864 130.03H82.5669V114.29H92.0864V130.03ZM83.5727 129.03H91.0603V115.29H83.5727V129.03Z" fill="#939393"/>
<path d="M81.0835 79.6396H104.908C104.908 84.5996 100.844 88.6197 95.8352 88.6197H90.1662C85.1372 88.6197 81.0835 84.5996 81.0835 79.6396Z" fill="#E4EAEF"/>
<path d="M95.8251 89.1197H90.156C84.8731 89.1197 80.5756 84.8696 80.5756 79.6396V79.1396H105.416V79.6396C105.406 84.8696 101.108 89.1197 95.8251 89.1197ZM81.6017 80.1396C81.8658 84.5896 85.6046 88.1197 90.156 88.1197H95.8251C100.377 88.1197 104.115 84.5796 104.379 80.1396H81.6017Z" fill="#939393"/>
<path d="M55.9082 90.4796L52.9619 37.7896C57.3407 37.5496 61.0896 40.8696 61.3232 45.1996L63.3958 82.1996C63.6396 86.5296 60.287 90.2396 55.9082 90.4796Z" fill="#E4EAEF"/>
<path d="M55.4307 91.0099L52.4235 37.3199L52.9314 37.2899C55.1869 37.1599 57.3407 37.9099 59.017 39.3899C60.7035 40.8799 61.7093 42.9299 61.8312 45.1699L63.9038 82.1599C64.1578 86.7599 60.5918 90.7199 55.9387 90.9699L55.4307 91.0099ZM53.4902 38.2799L56.3857 89.9399C60.226 89.4699 63.1012 86.1099 62.8878 82.2299L60.8153 45.2399C60.7035 43.2699 59.8298 41.4599 58.3363 40.1499C56.9851 38.9499 55.2783 38.2999 53.4902 38.2799Z" fill="#939393"/>
<path d="M100.153 66.0003L84.6496 43.1603C82.5466 39.5703 77.8833 38.3403 74.236 40.4103C70.5888 42.4803 69.3391 47.0703 71.4422 50.6603L91.0095 79.0003L128.6 77.0003V70.0003L100.153 66.0003Z" fill="white" stroke="#939393" stroke-miterlimit="10"/>
</g>
<defs>
<clipPath id="clip0">
<rect width="191" height="137" fill="white"/>
</clipPath>
</defs>
</svg>
