<svg width="191" height="138" viewBox="0 0 191 138" fill="none" xmlns="http://www.w3.org/2000/svg">
  <path d="M183.368 66.1309C187.861 83.1472 167.474 93.946 151.175 100.604C120.61 112.96 115.881 107.216 94.4595 107.295C73.1169 107.295 58.7949 117.902 44.7538 111.38C30.7238 104.711 10.336 86.6904 25.1748 62.8021C39.8787 39.1395 30.4093 38.5527 47.6519 23.2177C62.3895 12.5882 82.5414 8.26641 98.2001 11.6065C113.926 14.8676 139.313 29.4578 155.668 38.0449C171.956 46.5418 177.269 52.4321 183.368 66.1309Z" fill="#F2F2F2"/>
  <g>
    <path d="M122.54 47.3696L115.57 42.9296L119.32 42.0996C118.14 36.9396 116.22 32.2396 113.75 28.2296L109.94 30.3296L112.23 22.3896L120.17 24.6796L116.9 26.4896C119.5 30.7696 121.46 35.8296 122.59 41.3796" fill="#E4EAEF"/>
    <path d="M122.54 47.3696L115.57 42.9296L119.32 42.0996C118.14 36.9396 116.22 32.2396 113.75 28.2296L109.94 30.3296L112.23 22.3896L120.17 24.6796L116.9 26.4896C119.5 30.7696 121.46 35.8296 122.59 41.3796" stroke="#939393" stroke-miterlimit="10"/>
    <path d="M83.88 55.0001C88 44.7601 98.01 37.5301 109.72 37.5301C115.19 37.5301 120.28 39.1201 124.59 41.8501C119.35 33.0101 109.71 27.0801 98.69 27.0801C82.07 27.0801 68.59 40.5501 68.59 57.1801C68.59 73.8001 82.06 87.2801 98.69 87.2801C108.82 87.2801 117.77 82.2701 123.22 74.6101H91.42L83.88 55.0001Z" fill="white" stroke="#939393" stroke-miterlimit="10"/>
    <path d="M124.59 41.8503C120.29 39.1203 115.2 37.5303 109.72 37.5303C98.01 37.5303 87.99 44.7603 83.88 55.0003L91.42 74.6003H123.23C126.73 69.6803 128.79 63.6703 128.79 57.1803C128.79 51.5803 127.25 46.3403 124.59 41.8503Z" fill="#E4EAEF" stroke="#939393" stroke-miterlimit="10"/>
    <path d="M133.05 117.27C131.41 104.91 133.05 89.8496 108.03 89.8496H92.14C67.12 89.8496 68.76 104.91 67.12 117.27H133.05Z" fill="white" stroke="#939393" stroke-miterlimit="10"/>
    <path d="M89.49 113.07V117.27" stroke="#939393" stroke-miterlimit="10"/>
    <path d="M116.41 113.07V117.27" stroke="#939393" stroke-miterlimit="10"/>
    <path d="M115.93 85.2803H82.49V90.8403H115.93V85.2803Z" fill="white" stroke="#939393" stroke-miterlimit="10"/>
    <path d="M103.5 26.6C102.52 26.07 98.21 24.42 94.35 24.99C90.49 25.56 88.6 26.45 86.11 28.29C85.3 28.89 84.63 29.44 84.07 29.96C84.78 28.98 85.52 28.08 86.31 27.27C86.65 26.92 87 26.58 87.35 26.26C87.53 26.1 87.71 25.94 87.89 25.79C88.25 25.49 88.62 25.2 88.99 24.92C89.36 24.65 89.74 24.39 90.13 24.14C90.52 23.9 90.91 23.67 91.3 23.45C91.9 23.13 92.51 22.84 93.13 22.58C93.28 22.52 93.42 22.46 93.57 22.41C93.62 22.39 93.67 22.38 93.72 22.36C93.82 22.33 93.91 22.29 94.01 22.26C94.07 22.24 94.12 22.23 94.18 22.21C94.27 22.18 94.36 22.16 94.44 22.13C94.5 22.11 94.56 22.1 94.62 22.08C94.71 22.06 94.79 22.04 94.88 22.02C94.94 22.01 95 21.99 95.06 21.98C95.14 21.96 95.23 21.95 95.31 21.93C95.37 21.92 95.43 21.91 95.48 21.9C95.57 21.88 95.65 21.87 95.74 21.86C95.79 21.85 95.85 21.84 95.9 21.84C96 21.83 96.09 21.82 96.18 21.8C96.22 21.79 96.27 21.79 96.31 21.78C96.44 21.77 96.57 21.75 96.7 21.74C96.75 21.74 96.8 21.73 96.85 21.73C96.93 21.72 97.01 21.72 97.09 21.72C97.15 21.72 97.21 21.72 97.28 21.71C97.34 21.71 97.41 21.71 97.47 21.7C97.53 21.7 97.6 21.7 97.66 21.7C97.72 21.7 97.78 21.7 97.83 21.7C97.9 21.7 97.96 21.7 98.02 21.7C98.07 21.7 98.12 21.7 98.18 21.71C98.25 21.71 98.31 21.72 98.38 21.72C98.43 21.72 98.47 21.73 98.51 21.73C98.58 21.73 98.65 21.74 98.71 21.74C98.74 21.74 98.78 21.75 98.81 21.75C98.88 21.76 98.96 21.76 99.03 21.77C99.1 21.79 99.17 21.81 99.25 21.83C99.26 21.83 99.26 21.83 99.27 21.84C99.34 21.86 99.41 21.88 99.48 21.9C99.49 21.9 99.51 21.91 99.52 21.91C99.59 21.93 99.66 21.96 99.73 21.98C99.75 21.99 99.77 21.99 99.79 22C99.86 22.02 99.92 22.05 99.99 22.07C100.01 22.08 100.04 22.09 100.06 22.1C100.12 22.12 100.19 22.15 100.26 22.18C100.29 22.19 100.32 22.2 100.35 22.22C100.41 22.25 100.48 22.27 100.54 22.3C100.58 22.32 100.61 22.33 100.65 22.35C100.71 22.38 100.77 22.41 100.84 22.44C100.88 22.46 100.92 22.48 100.96 22.5C101.02 22.53 101.08 22.56 101.14 22.59C101.18 22.61 101.23 22.63 101.27 22.66C101.33 22.69 101.39 22.72 101.45 22.75C101.5 22.78 101.55 22.8 101.59 22.83C101.65 22.86 101.71 22.89 101.76 22.93C101.81 22.96 101.86 22.99 101.91 23.02C101.97 23.05 102.02 23.09 102.08 23.12C102.13 23.15 102.19 23.19 102.24 23.22C102.3 23.26 102.35 23.29 102.41 23.33C102.47 23.37 102.52 23.4 102.58 23.44C102.64 23.48 102.69 23.51 102.75 23.55C102.81 23.59 102.87 23.63 102.93 23.67C102.98 23.71 103.04 23.75 103.09 23.79C103.15 23.83 103.21 23.88 103.27 23.93C103.32 23.97 103.38 24.01 103.43 24.06C103.49 24.11 103.55 24.16 103.62 24.21C103.67 24.25 103.73 24.3 103.78 24.34C103.84 24.39 103.91 24.45 103.97 24.5C104.02 24.55 104.08 24.59 104.13 24.64C104.19 24.7 104.26 24.76 104.32 24.82C104.37 24.87 104.42 24.92 104.48 24.97C104.54 25.03 104.61 25.1 104.67 25.16C104.72 25.21 104.77 25.26 104.82 25.31C104.89 25.38 104.95 25.44 105.02 25.51C105.07 25.56 105.12 25.62 105.17 25.67C105.24 25.74 105.3 25.81 105.37 25.89C105.42 25.95 105.47 26 105.52 26.06C105.59 26.14 105.65 26.21 105.71 26.29C105.76 26.35 105.81 26.41 105.86 26.47C105.92 26.55 105.99 26.63 106.05 26.71C106.1 26.77 106.15 26.84 106.2 26.9C106.26 26.98 106.33 27.07 106.39 27.16C106.44 27.23 106.49 27.29 106.54 27.36C106.6 27.45 106.67 27.54 106.73 27.63C106.78 27.7 106.82 27.77 106.87 27.84C106.93 27.94 107 28.03 107.06 28.13C107.11 28.2 107.15 28.27 107.2 28.35C107.24 28.41 107.27 28.47 107.31 28.53C107.88 28.61 108.37 28.81 108.81 29.05C109.12 29.05 109.42 29.08 109.7 29.13C106.2 22.45 100.41 21.47 99.82 21.35C99.61 21.31 99.31 21.24 98.95 21.18C98.46 21.1 97.84 21.02 97.1 20.99C96.73 20.98 96.34 20.98 95.91 21C94.43 21.07 92.63 21.39 90.59 22.24C89.97 22.5 89.36 22.79 88.76 23.11C88.36 23.32 87.97 23.55 87.59 23.8C87.21 24.05 86.83 24.3 86.45 24.58C85.33 25.4 84.27 26.36 83.27 27.46C83.1 27.64 82.94 27.83 82.77 28.02C80.32 30.9 78.25 34.72 76.65 39.63C76.33 40.61 76.03 41.64 75.74 42.71V42.72H75.73C75.45 42.69 75.22 43.08 75.22 43.08C72.62 52 73.28 59.89 73.76 63.19C72.66 64.34 72.11 65.93 72.08 67.72C71.81 68.63 71.52 69.7 71.45 70.28C71.44 70.32 71.47 70.4 71.5 70.48C70.12 72.03 70.43 75.13 72.33 77.81C72.33 77.82 72.34 77.82 72.34 77.83C72.34 77.84 72.35 77.84 72.35 77.85C72.5 78.06 72.65 78.25 72.81 78.44C74.85 80.89 77.67 81.91 79.42 80.77C79.52 80.89 79.58 80.96 79.58 80.96C79.58 80.96 80.94 80.74 81.22 80.66C81.41 80.61 81.76 80.39 82.12 80.1C84.04 80.46 85.86 80.13 87.26 79.02C90.46 76.47 90.16 70.76 86.58 66.25C84.02 63.02 80.47 61.3 77.48 61.51C76.87 56.82 76.87 50.18 78.77 43.88C78.77 43.88 78.76 43.37 78.53 43.24C78.5 43.23 78.47 43.21 78.43 43.19C78.93 41.96 79.5 40.73 80.15 39.55C80.4 39.09 80.67 38.64 80.94 38.2C81.08 37.98 81.22 37.76 81.36 37.54C81.79 36.89 82.26 36.26 82.75 35.67C82.92 35.47 83.08 35.28 83.26 35.08C83.56 34.75 83.87 34.43 84.19 34.12C84.65 34.13 85.26 34.05 85.51 33.77C85.82 33.41 90.01 29.34 95.35 27.58C100.69 25.82 104.46 27.52 104.46 27.52C104.71 27.26 104.6 27.2 103.5 26.6ZM81.1 35.09C81.4 34.44 81.71 33.82 82.03 33.23C82.14 33.34 82.3 33.45 82.49 33.55C82 34.04 81.54 34.55 81.1 35.09Z" fill="white" stroke="#939393" stroke-miterlimit="10"/>
    <path d="M83.89 34.1302C84.3 34.1902 85.23 34.1602 85.53 33.8002C85.84 33.4402 90.03 29.3702 95.37 27.6102C100.71 25.8502 104.48 27.5502 104.48 27.5502C104.71 27.2602 104.6 27.2002 103.5 26.6002C102.52 26.0702 98.21 24.4202 94.35 24.9902C90.49 25.5602 88.6 26.4502 86.11 28.2902C83.62 30.1302 82.41 31.5102 81.86 32.8502" fill="#E4EAEF"/>
    <path d="M83.89 34.1302C84.3 34.1902 85.23 34.1602 85.53 33.8002C85.84 33.4402 90.03 29.3702 95.37 27.6102C100.71 25.8502 104.48 27.5502 104.48 27.5502C104.71 27.2602 104.6 27.2002 103.5 26.6002C102.52 26.0702 98.21 24.4202 94.35 24.9902C90.49 25.5602 88.6 26.4502 86.11 28.2902C83.62 30.1302 82.41 31.5102 81.86 32.8502" stroke="#939393" stroke-miterlimit="10"/>
    <path d="M85.0673 33.7085C85.1528 33.3884 84.5041 32.9371 83.6184 32.7006C82.7327 32.4641 81.9454 32.5318 81.8599 32.852C81.7744 33.1721 82.4231 33.6234 83.3088 33.8599C84.1945 34.0965 84.9818 34.0287 85.0673 33.7085Z" fill="white" stroke="#939393" stroke-miterlimit="10"/>
    <path d="M84.91 33.3702C84.55 33.0702 84.25 32.9002 83.7 32.7602C83.7 32.7602 83.7 32.7602 83.69 32.7702C83.53 32.7202 83.41 32.6902 83.41 32.7002C80.31 35.3702 78.18 39.1902 76.7 43.0202L76.92 43.1402V43.1502L78.22 43.8402C79.7 40.0102 81.84 36.1802 84.94 33.5102C84.96 33.4802 84.94 33.3902 84.91 33.3702Z" fill="white" stroke="#939393" stroke-miterlimit="10"/>
    <path d="M78.22 43.8298C79.7 39.9998 81.84 36.1698 84.94 33.4998C84.96 33.4798 84.94 33.3998 84.91 33.3698C84.55 33.0698 84.25 32.8998 83.7 32.7598C80.56 35.4298 78.41 39.2798 76.92 43.1398" fill="white"/>
    <path d="M78.22 43.8298C79.7 39.9998 81.84 36.1698 84.94 33.4998C84.96 33.4798 84.94 33.3998 84.91 33.3698C84.55 33.0698 84.25 32.8998 83.7 32.7598C80.56 35.4298 78.41 39.2798 76.92 43.1398" stroke="#939393" stroke-miterlimit="10"/>
    <path d="M78 43.6997C79.49 39.8397 81.64 35.9897 84.78 33.3197C84.26 32.8997 83.43 32.6697 83.41 32.6897C80.31 35.3597 78.18 39.1797 76.7 43.0097" fill="white"/>
    <path d="M78 43.6997C79.49 39.8397 81.64 35.9897 84.78 33.3197C84.26 32.8997 83.43 32.6697 83.41 32.6897C80.31 35.3597 78.18 39.1797 76.7 43.0097" stroke="#939393" stroke-miterlimit="10"/>
    <path d="M83.85 32.8903C83.88 32.8703 83.9 32.8503 83.93 32.8203L83.85 32.8903Z" fill="white"/>
    <path d="M83.85 32.8903C83.88 32.8703 83.9 32.8503 83.93 32.8203" stroke="#939393" stroke-miterlimit="10"/>
    <path d="M107.3 28.5499C107.88 28.6299 108.37 28.8299 108.82 29.0699C109.13 29.0699 109.43 29.0999 109.71 29.1499C106.21 22.4699 100.42 21.4899 99.83 21.3699C98.69 21.1399 95.26 20.3199 90.6 22.2599C83.97 25.0199 78.78 31.2999 75.76 42.7299L76.43 44.2099L78.14 43.6899L78.27 43.0699C81.3 31.6399 86.49 25.3599 93.12 22.5999C95.29 21.6999 97.49 21.6399 99.03 21.7999C101.02 22.3199 104.53 23.9699 107.3 28.5499Z" fill="white" stroke="#939393" stroke-miterlimit="10"/>
    <path d="M107.31 28.5501C107.89 28.6301 108.38 28.8301 108.82 29.0701C109.13 29.0701 109.43 29.1001 109.71 29.1501C108.76 27.4501 105.54 22.4001 99.26 21.6101C96.41 21.2501 98.86 21.7601 98.86 21.7601C100.82 22.2401 104.46 23.8401 107.31 28.5501Z" fill="#E4EAEF" stroke="#939393" stroke-miterlimit="10"/>
    <path d="M109.34 29.0902C109.46 29.1002 109.58 29.1202 109.7 29.1402C106.2 22.4802 100.42 21.4802 99.84 21.3602C98.7 21.1302 95.27 20.3102 90.61 22.2502C83.98 25.0102 78.79 31.2902 75.77 42.7202L76.44 44.2002L78.15 43.6802L78.28 43.0602C81.3 31.6402 86.49 25.3602 93.12 22.6002C95.58 21.5802 98.08 21.6402 99.61 21.8702C101.04 22.0902 105.75 22.8502 109.34 29.0902Z" fill="#E4EAEF" stroke="#939393" stroke-miterlimit="10"/>
    <path d="M87.2734 79.0399C90.4773 76.494 90.1724 70.7777 86.5924 66.2723C83.0123 61.7668 77.5128 60.1783 74.3088 62.7242C71.1048 65.2701 71.4097 70.9864 74.9898 75.4918C78.5699 79.9972 84.0694 81.5858 87.2734 79.0399Z" fill="#E4EAEF" stroke="#939393" stroke-miterlimit="10"/>
    <path d="M86.3562 79.332C88.9246 77.2912 88.3746 72.3244 85.1278 68.2383C81.881 64.1523 77.1669 62.4944 74.5985 64.5352C72.0302 66.576 72.5802 71.5428 75.827 75.6289C79.0738 79.7149 83.7879 81.3728 86.3562 79.332Z" fill="white" stroke="#939393" stroke-miterlimit="10"/>
    <path d="M86.1697 79.1622C88.6473 77.1935 88.0794 72.3553 84.9013 68.3557C81.7232 64.3562 77.1384 62.7098 74.6609 64.6785C72.1833 66.6472 72.7512 71.4854 75.9293 75.485C79.1073 79.4845 83.6921 81.1309 86.1697 79.1622Z" fill="#E4EAEF" stroke="#939393" stroke-miterlimit="10"/>
    <path d="M72.34 77.8199C70.8 75.6599 70.3 73.3999 70.94 71.4299C71.25 70.4599 72.05 69.2399 72.73 68.7499C74.79 67.2899 78.31 68.7199 80.6 71.9499C82.89 75.1799 83.08 78.9799 81.03 80.4399C80.53 80.7899 79.14 81.0999 78.43 81.1899C76.23 81.4499 74.08 80.2699 72.34 77.8199Z" fill="#E4EAEF" stroke="#939393" stroke-miterlimit="10"/>
    <path d="M78.07 64.7399C77.01 60.3099 76.4 51.8199 78.79 43.8999C78.79 43.8999 78.78 43.3899 78.55 43.2599C78.32 43.1299 77.6 42.9199 75.75 42.7399C75.47 42.7099 75.24 43.0999 75.24 43.0999C71.82 54.8599 74.06 64.8499 74.06 64.8499C74.06 64.8499 74.03 64.9999 74.29 65.0799C74.55 65.1599 75.65 65.3899 76.22 65.4399C76.79 65.4899 77.4 65.3599 77.61 65.2299C77.82 65.0999 78.07 64.7399 78.07 64.7399Z" fill="#E4EAEF" stroke="#939393" stroke-miterlimit="10"/>
    <path d="M74.01 64.5999C74.55 64.8899 75.65 65.0899 76.4 65.0899C77.15 65.0899 77.41 65.0799 78 64.3799" fill="white"/>
    <path d="M74.01 64.5999C74.55 64.8899 75.65 65.0899 76.4 65.0899C77.15 65.0899 77.41 65.0799 78 64.3799" stroke="#939393" stroke-miterlimit="10"/>
    <path d="M75.24 43.0996C75.33 42.9496 76.74 43.1096 77.49 43.2396C78.24 43.3796 78.66 43.4696 78.79 43.8996" fill="white"/>
    <path d="M75.24 43.0996C75.33 42.9496 76.74 43.1096 77.49 43.2396C78.24 43.3796 78.66 43.4696 78.79 43.8996" stroke="#939393" stroke-miterlimit="10"/>
    <path d="M88.44 72.54C88.75 72.69 89.08 72.86 89.45 73.03C94.3 75.32 104.49 79.16 118.87 75.68C120.47 75.29 120.59 76.88 120.77 77.7C121.07 79.09 120.67 79.94 119.4 80.25C113.72 81.64 99.91 83.71 88.45 77.35" fill="#E4EAEF"/>
    <path d="M88.44 72.54C88.75 72.69 89.08 72.86 89.45 73.03C94.3 75.32 104.49 79.16 118.87 75.68C120.47 75.29 120.59 76.88 120.77 77.7C121.07 79.09 120.67 79.94 119.4 80.25C113.72 81.64 99.91 83.71 88.45 77.35" stroke="#939393" stroke-miterlimit="10"/>
    <path d="M73.31 30.0304L77.12 32.1304L74.83 24.1904L66.88 26.4804L70.15 28.2904C67.55 32.5704 65.59 37.6304 64.46 43.1804L60.06 42.2104L64.5 49.1804L71.47 44.7404L67.74 43.9004C68.92 38.7404 70.83 34.0404 73.31 30.0304Z" fill="#E4EAEF" stroke="#939393" stroke-miterlimit="10"/>
  </g>
</svg>
