<svg width="55" height="46" viewBox="0 0 55 46" fill="none" xmlns="http://www.w3.org/2000/svg">
<path d="M47.0373 45.3029C40.8071 47.9379 30.9932 42.5032 22.7782 38.9898C14.5632 35.5314 7.94705 33.9943 3.92225 29.1085C-0.0474177 24.2777 -1.42578 16.0982 1.77201 10.9928C4.9698 5.94239 12.6886 3.96613 20.5177 2.09967C28.3467 0.288096 36.2861 -1.41368 42.6265 1.82519C48.967 5.00916 53.7085 13.0789 54.7561 22.4661C55.8587 31.9082 53.2123 42.6129 47.0373 45.3029Z" fill="#F8F9F7"/>
<path d="M42.9286 23.3727V22.1584V35.2731C42.9286 35.9437 42.3849 36.4873 41.7143 36.4873H16.2143C15.5437 36.4873 15 35.9437 15 35.2731V17.0588C15 16.3881 15.5437 15.8445 16.2143 15.8445H30.7377M15 27.5588H22.4812C22.7297 27.5593 22.9534 27.4082 23.0459 27.1776L23.4611 26.1369C23.5571 25.8974 23.794 25.7446 24.0518 25.7561C24.3096 25.7676 24.5319 25.9408 24.6062 26.1879L25.3409 28.6371C25.4171 28.8951 25.6541 29.0722 25.9231 29.0722C26.1922 29.0722 26.4291 28.8951 26.5054 28.6371L28.2697 22.6398C28.3485 22.3718 28.6 22.1921 28.8791 22.2045C29.1582 22.2168 29.3928 22.418 29.4476 22.692L30.9229 30.0676C30.9776 30.3399 31.2101 30.5404 31.4875 30.5544C31.7649 30.5685 32.0165 30.3925 32.0984 30.1271L33.3126 26.1697C33.3883 25.9238 33.6108 25.7523 33.8678 25.7416C34.1249 25.731 34.3608 25.8835 34.4565 26.1223L34.8791 27.1812C34.9715 27.4119 35.1952 27.5629 35.4437 27.5625H42.9286M39.8933 21.9152L33.6834 15.437C32.5652 14.3191 32.2879 12.611 32.9949 11.1967C33.5233 10.1404 34.5271 9.40254 35.6929 9.21346C36.8587 9.02438 38.0443 9.40716 38.8794 10.2423L39.8933 11.2562L40.9072 10.2423C41.7423 9.40716 42.9279 9.02438 44.0937 9.21346C45.2595 9.40254 46.2633 10.1404 46.7917 11.1967C47.4987 12.611 47.2214 14.3191 46.1032 15.437L39.8933 21.9152Z" stroke="black" stroke-width="1.5" stroke-linecap="round" stroke-linejoin="round"/>
</svg>
