<svg width="36" height="36" viewBox="0 0 36 36" fill="none" xmlns="http://www.w3.org/2000/svg">
<path d="M8.87607 21.8951C8.87607 20.6866 7.89645 19.707 6.68803 19.707C5.47962 19.707 4.5 20.6866 4.5 21.8951V26.6462C4.5 27.8546 5.47962 28.8343 6.68803 28.8343C7.89645 28.8343 8.87607 27.8546 8.87607 26.6462V21.8951Z" stroke="black"/>
<path d="M11.6115 8.23779C6.87051 11.1974 4.5 15.2152 4.5 20.2914C4.5 21.5726 4.5 21.5215 4.5 22.0206" stroke="black" stroke-linecap="round"/>
<path d="M27.1188 21.8951C27.1188 20.6866 28.0984 19.707 29.3068 19.707C30.5153 19.707 31.4949 20.6866 31.4949 21.8951V26.6462C31.4949 27.8546 30.5153 28.8343 29.3068 28.8343C28.0984 28.8343 27.1188 27.8546 27.1188 26.6462V21.8951Z" stroke="black"/>
<path d="M24.3833 8.23779C29.1244 11.1974 31.4949 15.2152 31.4949 20.2914C31.4949 21.5726 31.4949 21.5215 31.4949 22.0206" stroke="black" stroke-linecap="round"/>
<path d="M18.0386 34C23.0233 34 27.0642 29.9591 27.0642 24.9744C27.0642 19.9896 23.0233 15.9487 18.0386 15.9487C13.0539 15.9487 9.01294 19.9896 9.01294 24.9744C9.01294 29.9591 13.0539 34 18.0386 34Z" stroke="black"/>
<path d="M13.5977 20.9329C14.5343 20.6232 15.3069 20.5827 15.9153 20.8114" stroke="black" stroke-linecap="round"/>
<path d="M22.4695 21.0337C21.5635 20.6436 20.7974 20.5359 20.1714 20.7107" stroke="black" stroke-linecap="round"/>
<path d="M12.2949 24.9741C13.8673 27.1622 15.7818 28.2562 18.0385 28.2562C20.2952 28.2562 22.2097 27.1622 23.7821 24.9741" stroke="black" stroke-linecap="round"/>
<path fill-rule="evenodd" clip-rule="evenodd" d="M18.0381 10.2051L13.8428 6.03588C13.0872 5.31641 12.8998 4.21713 13.3775 3.30692C13.7344 2.62716 14.4125 2.15223 15.2002 2.03054C15.9878 1.90884 16.7889 2.15521 17.353 2.69266L18.0381 3.34521L18.7241 2.69266C19.2883 2.15521 20.0893 1.90884 20.8769 2.03054C21.6646 2.15223 22.3428 2.62716 22.6996 3.30692C23.1774 4.21713 22.9899 5.31641 22.2343 6.03588L18.0381 10.2051Z" stroke="black" stroke-linecap="round" stroke-linejoin="round"/>
</svg>
