<svg width="16" height="16" viewBox="0 0 16 16" fill="none" xmlns="http://www.w3.org/2000/svg">
    <path fill-rule="evenodd" clip-rule="evenodd" d="M7.83755 1.72308C7.83753 1.7231 7.83751 1.72312 7.83749 1.72314L2.04308 6.41396C1.89999 6.52979 1.6901 6.5077 1.57427 6.36461C1.45843 6.22153 1.48052 6.01163 1.62361 5.8958L7.41808 1.20492L7.41815 1.20487C7.75575 0.931711 8.23835 0.931711 8.57596 1.20487L8.57603 1.20492L14.3705 5.8958C14.5136 6.01163 14.5357 6.22153 14.4198 6.36461C14.304 6.5077 14.0941 6.52979 13.951 6.41396L8.15662 1.72314C8.1566 1.72312 8.15658 1.7231 8.15655 1.72308C8.06352 1.64786 7.93059 1.64786 7.83755 1.72308Z" fill="white" stroke="white" stroke-width="0.3" stroke-linecap="round" stroke-linejoin="round"/>
    <path fill-rule="evenodd" clip-rule="evenodd" d="M8.58381 3.56737C8.58393 3.56748 8.58368 3.56727 8.58381 3.56737L13.5599 7.67593C13.5648 7.68005 13.5697 7.68431 13.5745 7.68871C13.7722 7.87237 13.8912 8.12546 13.9064 8.39492C13.9068 8.40118 13.907 8.40746 13.907 8.41374V14.0797C13.907 14.5879 13.4949 15 12.9866 15H9.46449C9.28039 15 9.13115 14.8508 9.13115 14.6667V10.3038H6.86272V14.6667C6.86272 14.8508 6.71348 15 6.52939 15H3.00727C2.49897 15 2.08691 14.5879 2.08691 14.0797V8.41198C2.08691 8.4057 2.08709 8.39942 2.08745 8.39315C2.10268 8.1237 2.22166 7.87061 2.41942 7.68695C2.42416 7.68255 2.42903 7.67829 2.43402 7.67417L7.41078 3.56503C7.75158 3.28475 8.24421 3.28571 8.58381 3.56737ZM7.83473 4.07952C7.83469 4.07956 7.83478 4.07948 7.83473 4.07952L2.86714 8.1811C2.80109 8.24515 2.76071 8.33114 2.75358 8.42287V14.0797C2.75358 14.2198 2.86716 14.3333 3.00727 14.3333H6.19605V10.264C6.19605 9.91783 6.4767 9.63718 6.8229 9.63718H9.17098C9.51717 9.63718 9.79782 9.91783 9.79782 10.264V14.3333H12.9866C13.1267 14.3333 13.2403 14.2198 13.2403 14.0797V8.42463C13.2332 8.3329 13.1928 8.24691 13.1267 8.18286L8.15864 4.08087L8.15793 4.08028C8.06437 4.00259 7.9287 4.00235 7.83473 4.07952Z" fill="white"/>
    <path d="M8.58381 3.56737C8.58368 3.56727 8.58393 3.56748 8.58381 3.56737ZM8.58381 3.56737L13.5599 7.67593C13.5648 7.68005 13.5697 7.68431 13.5745 7.68871C13.7722 7.87237 13.8912 8.12546 13.9064 8.39492C13.9068 8.40118 13.907 8.40746 13.907 8.41374V14.0797C13.907 14.5879 13.4949 15 12.9866 15H9.46449C9.28039 15 9.13115 14.8508 9.13115 14.6667V10.3038H6.86272V14.6667C6.86272 14.8508 6.71348 15 6.52939 15H3.00727C2.49897 15 2.08691 14.5879 2.08691 14.0797V8.41198C2.08691 8.4057 2.08709 8.39942 2.08745 8.39315C2.10268 8.1237 2.22166 7.87061 2.41942 7.68695C2.42416 7.68255 2.42903 7.67829 2.43402 7.67417L7.41078 3.56503C7.75158 3.28475 8.24421 3.28571 8.58381 3.56737ZM7.83473 4.07952C7.83478 4.07948 7.83469 4.07956 7.83473 4.07952ZM7.83473 4.07952L2.86714 8.1811C2.80109 8.24515 2.76071 8.33114 2.75358 8.42287V14.0797C2.75358 14.2198 2.86716 14.3333 3.00727 14.3333H6.19605V10.264C6.19605 9.91783 6.4767 9.63718 6.8229 9.63718H9.17098C9.51717 9.63718 9.79782 9.91783 9.79782 10.264V14.3333H12.9866C13.1267 14.3333 13.2403 14.2198 13.2403 14.0797V8.42463C13.2332 8.3329 13.1928 8.24691 13.1267 8.18286L8.15864 4.08087L8.15793 4.08028C8.06437 4.00259 7.9287 4.00235 7.83473 4.07952Z" stroke="white" stroke-width="0.3" stroke-linecap="round" stroke-linejoin="round"/>
</svg>
