<svg width="30" height="30" viewBox="0 0 30 30" fill="none" xmlns="http://www.w3.org/2000/svg">
<g clip-path="url(#clip0_307_6767)">
<path d="M15 30C14.8507 30 14.7021 30 14.5542 29.9931L17.6194 21.5681H21.8382C22.5792 21.5681 23.3917 20.9986 23.6438 20.3035L26.9694 11.1681C27.5132 9.67292 26.6569 8.44931 25.0653 8.44931H19.2139L14.3056 21.9444L11.5174 29.5931C4.9125 28.0222 0 22.0833 0 15C0 8.11944 4.63333 2.32083 10.95 0.555556L8.07778 8.45139L3.30139 21.5681H6.48056L10.5417 10.4208H12.9306L8.86944 21.5688H12.0472L15.8333 11.1681C16.3778 9.67292 15.5208 8.44931 13.9313 8.44931H11.2576L14.3257 0.0159722C14.5493 0.00532407 14.7741 0 15 0C23.284 0 30 6.71597 30 15C30 23.284 23.284 30 15 30ZM24.0757 10.4125H21.6875L18.3424 19.5903H20.7313L24.0757 10.4125Z" fill="black"/>
</g>
<defs>
<clipPath id="clip0_307_6767">
<rect width="30" height="30" fill="white"/>
</clipPath>
</defs>
</svg>
