<svg width="208" height="137" viewBox="0 0 208 137" fill="none" xmlns="http://www.w3.org/2000/svg">
<path d="M195.178 64.2644C201.509 82.7231 190.893 107.383 173.509 116.126C156.195 124.787 132.092 117.39 108.522 119.266C85.0213 121.06 62.2829 132.033 46.2899 125.991C30.2857 119.797 21.1059 96.496 20.7585 73.8618C20.411 51.2276 28.8966 29.2712 43.6636 18.6782C58.4178 7.91172 79.4662 8.68209 96.971 11.0534C114.556 13.3423 128.449 17.407 147.162 25.5312C165.794 33.5853 188.914 45.7132 195.178 64.2644Z" fill="#F2F2F2"/>
<path d="M129.945 13.1973C129.945 15.2557 128.298 16.9318 126.275 16.9318" stroke="#939393" stroke-width="0.439523" stroke-miterlimit="10"/>
<path d="M133.614 16.9318C131.591 16.9318 129.945 15.2557 129.945 13.1973" stroke="#939393" stroke-width="0.439523" stroke-miterlimit="10"/>
<path d="M126.275 16.9316C128.298 16.9316 129.945 18.6078 129.945 20.6662" stroke="#939393" stroke-width="0.439523" stroke-miterlimit="10"/>
<path d="M129.945 20.6662C129.945 18.6078 131.591 16.9316 133.614 16.9316" stroke="#939393" stroke-width="0.439523" stroke-miterlimit="10"/>
<path d="M29.9559 58.9453C29.9559 61.261 28.1032 63.1467 25.828 63.1467" stroke="#939393" stroke-width="0.439523" stroke-miterlimit="10"/>
<path d="M34.0839 63.1467C31.8086 63.1467 29.9559 61.261 29.9559 58.9453" stroke="#939393" stroke-width="0.439523" stroke-miterlimit="10"/>
<path d="M25.828 63.1465C28.1032 63.1465 29.9559 65.0321 29.9559 67.3478" stroke="#939393" stroke-width="0.439523" stroke-miterlimit="10"/>
<path d="M29.9559 67.3478C29.9559 65.0321 31.8086 63.1465 34.0839 63.1465" stroke="#939393" stroke-width="0.439523" stroke-miterlimit="10"/>
<path d="M64.8144 116.363C64.8144 118.164 63.3734 119.631 61.6037 119.631" stroke="#939393" stroke-width="0.439523" stroke-miterlimit="10"/>
<path d="M68.025 119.631C66.2554 119.631 64.8144 118.164 64.8144 116.363" stroke="#939393" stroke-width="0.439523" stroke-miterlimit="10"/>
<path d="M61.6037 119.631C63.3734 119.631 64.8144 121.097 64.8144 122.899" stroke="#939393" stroke-width="0.439523" stroke-miterlimit="10"/>
<path d="M64.8144 122.899C64.8144 121.097 66.2554 119.631 68.025 119.631" stroke="#939393" stroke-width="0.439523" stroke-miterlimit="10"/>
<path d="M182.691 23.4688C182.691 25.2699 181.25 26.7365 179.48 26.7365" stroke="#939393" stroke-width="0.439523" stroke-miterlimit="10"/>
<path d="M185.902 26.7365C184.132 26.7365 182.691 25.2699 182.691 23.4688" stroke="#939393" stroke-width="0.439523" stroke-miterlimit="10"/>
<path d="M179.48 26.7363C181.25 26.7363 182.691 28.203 182.691 30.0041" stroke="#939393" stroke-width="0.439523" stroke-miterlimit="10"/>
<path d="M182.691 30.0041C182.691 28.203 184.132 26.7363 185.902 26.7363" stroke="#939393" stroke-width="0.439523" stroke-miterlimit="10"/>
<path d="M159.663 105.044H43.1547C42.3161 105.044 41.6353 104.35 41.6353 103.496V24.251C41.6353 23.3967 42.3161 22.7031 43.1547 22.7031H159.663C160.502 22.7031 161.183 23.3967 161.183 24.251V103.493C161.183 104.35 160.505 105.044 159.663 105.044Z" fill="white" stroke="#939393" stroke-width="0.4895" stroke-miterlimit="10"/>
<path d="M155.476 102.161H47.3741C46.5267 102.161 45.8401 101.461 45.8401 100.598V27.1546C45.8401 26.2913 46.5267 25.5918 47.3741 25.5918H155.476C156.323 25.5918 157.01 26.2913 157.01 27.1546V100.598C157.01 101.461 156.323 102.161 155.476 102.161Z" fill="#E4EAEF" stroke="#939393" stroke-width="0.4895" stroke-miterlimit="10"/>
<path d="M104.438 14.0527H98.3834V28.2902H104.438V14.0527Z" fill="#E4EAEF" stroke="#939393" stroke-width="0.4895" stroke-miterlimit="10"/>
<path d="M101.41 19.4928C105.245 19.4928 108.353 16.3263 108.353 12.4202C108.353 8.51416 105.245 5.34766 101.41 5.34766C97.5762 5.34766 94.4678 8.51416 94.4678 12.4202C94.4678 16.3263 97.5762 19.4928 101.41 19.4928Z" fill="#E4EAEF" stroke="#939393" stroke-width="0.4895" stroke-miterlimit="10"/>
<path d="M101.411 15.5036C103.082 15.5036 104.438 14.1229 104.438 12.4198C104.438 10.7166 103.082 9.33594 101.411 9.33594C99.7387 9.33594 98.3834 10.7166 98.3834 12.4198C98.3834 14.1229 99.7387 15.5036 101.411 15.5036Z" fill="white" stroke="#939393" stroke-width="0.4895" stroke-miterlimit="10"/>
<path d="M114.229 105.043H90.1782V121.796H114.229V105.043Z" fill="white" stroke="#939393" stroke-width="0.4895" stroke-miterlimit="10"/>
<path d="M119.351 121.768H84.871V127.227H119.351V121.768Z" fill="white" stroke="#939393" stroke-width="0.4895" stroke-miterlimit="10"/>
<rect x="52.0339" y="29.7832" width="96.0337" height="68.3666" rx="1.958" fill="white"/>
<mask id="mask0_460_7498" style="mask-type:alpha" maskUnits="userSpaceOnUse" x="53" y="29" width="97" height="70">
<rect x="53.2254" y="29.6237" width="96.2785" height="68.6114" rx="2.08038" fill="white" stroke="black" stroke-width="0.24475"/>
</mask>
<g mask="url(#mask0_460_7498)">
<path d="M51.9718 26.2695H88.2894V109.363H52.6678C52.2834 109.363 51.9718 109.051 51.9718 108.667V26.2695Z" fill="white"/>
<g filter="url(#filter0_dd_460_7498)">
<rect x="54.2961" y="41.7949" width="31.669" height="4.7313" rx="0.556833" fill="#F2F2F2"/>
</g>
<ellipse cx="57.2015" cy="49.6539" rx="0.581082" ry="0.591415" fill="#E4EAEF"/>
<path d="M56.6025 44.1543V44.7642H57.0383V44.3206C57.0383 44.2594 57.0871 44.2097 57.1472 44.2097H57.2562C57.3164 44.2097 57.3651 44.2594 57.3651 44.3206V44.7642H57.801V44.1543" stroke="black" stroke-width="0.104406" stroke-linecap="round" stroke-linejoin="round"/>
<path d="M56.3845 44.0436L57.1246 43.2903C57.145 43.2695 57.1728 43.2578 57.2017 43.2578C57.2306 43.2578 57.2583 43.2695 57.2787 43.2903L58.0188 44.0436" stroke="black" stroke-width="0.104406" stroke-linecap="round" stroke-linejoin="round"/>
<rect x="88.2062" y="30.0039" width="60.0849" height="68.1553" fill="#F2F2F2"/>
<path d="M123.115 35.2872C123.11 35.2964 123.104 35.3033 123.098 35.3079C123.092 35.312 123.084 35.3141 123.075 35.3141C123.065 35.3141 123.054 35.31 123.042 35.3018C123.03 35.2936 123.015 35.2846 122.997 35.2749C122.98 35.2646 122.959 35.2554 122.935 35.2472C122.911 35.2385 122.882 35.2341 122.849 35.2341C122.818 35.2341 122.791 35.238 122.767 35.2456C122.744 35.2533 122.725 35.2641 122.709 35.2779C122.693 35.2918 122.681 35.3082 122.673 35.3271C122.665 35.3456 122.661 35.3658 122.661 35.3879C122.661 35.4161 122.669 35.4396 122.683 35.4586C122.698 35.477 122.718 35.4929 122.742 35.5063C122.766 35.5196 122.794 35.5314 122.826 35.5416C122.857 35.5514 122.889 35.5619 122.921 35.5731C122.954 35.5844 122.986 35.5972 123.017 35.6116C123.048 35.6259 123.076 35.6441 123.1 35.6662C123.125 35.6882 123.144 35.7151 123.159 35.7469C123.174 35.7787 123.182 35.8174 123.182 35.863C123.182 35.9122 123.173 35.9583 123.156 36.0014C123.139 36.0444 123.115 36.0821 123.082 36.1144C123.051 36.1461 123.011 36.1713 122.964 36.1897C122.917 36.2082 122.864 36.2174 122.804 36.2174C122.769 36.2174 122.734 36.2138 122.7 36.2066C122.667 36.2 122.635 36.1905 122.604 36.1782C122.574 36.1654 122.546 36.15 122.519 36.132C122.492 36.1141 122.468 36.0941 122.447 36.0721L122.5 35.986C122.504 35.9788 122.51 35.9732 122.517 35.9691C122.525 35.965 122.532 35.9629 122.541 35.9629C122.553 35.9629 122.566 35.9685 122.58 35.9798C122.595 35.9906 122.612 36.0026 122.632 36.016C122.652 36.0288 122.677 36.0408 122.706 36.0521C122.734 36.0629 122.769 36.0682 122.809 36.0682C122.874 36.0682 122.924 36.0523 122.959 36.0206C122.995 35.9888 123.013 35.945 123.013 35.8891C123.013 35.8578 123.006 35.8325 122.991 35.813C122.976 35.793 122.956 35.7764 122.932 35.763C122.908 35.7497 122.88 35.7384 122.849 35.7292C122.817 35.72 122.786 35.7102 122.753 35.7C122.721 35.6892 122.689 35.6769 122.658 35.6631C122.627 35.6487 122.599 35.6303 122.574 35.6077C122.55 35.5847 122.531 35.5565 122.516 35.5232C122.501 35.4893 122.494 35.4473 122.494 35.3971C122.494 35.3571 122.501 35.3184 122.517 35.281C122.532 35.2436 122.555 35.2105 122.585 35.1818C122.615 35.1526 122.652 35.1293 122.696 35.1119C122.741 35.0944 122.791 35.0857 122.847 35.0857C122.911 35.0857 122.969 35.0957 123.022 35.1157C123.075 35.1357 123.121 35.1641 123.159 35.201L123.115 35.2872ZM123.856 35.7246C123.856 35.6969 123.852 35.6713 123.844 35.6477C123.836 35.6236 123.825 35.6029 123.81 35.5854C123.794 35.5675 123.775 35.5537 123.752 35.5439C123.729 35.5337 123.703 35.5286 123.673 35.5286C123.614 35.5286 123.566 35.5457 123.532 35.5801C123.498 35.6144 123.476 35.6626 123.467 35.7246H123.856ZM123.462 35.8261C123.464 35.8707 123.471 35.9094 123.483 35.9422C123.495 35.9744 123.51 36.0014 123.53 36.0229C123.55 36.0444 123.573 36.0605 123.6 36.0713C123.628 36.0816 123.659 36.0867 123.693 36.0867C123.725 36.0867 123.753 36.0831 123.777 36.0759C123.8 36.0682 123.821 36.06 123.838 36.0513C123.855 36.0421 123.87 36.0339 123.883 36.0267C123.895 36.019 123.906 36.0152 123.916 36.0152C123.93 36.0152 123.94 36.0203 123.947 36.0306L123.994 36.0913C123.975 36.1144 123.953 36.1338 123.928 36.1497C123.903 36.1656 123.877 36.1787 123.85 36.1889C123.822 36.1987 123.793 36.2056 123.764 36.2097C123.735 36.2143 123.707 36.2166 123.679 36.2166C123.625 36.2166 123.574 36.2076 123.527 36.1897C123.481 36.1713 123.441 36.1443 123.407 36.109C123.373 36.0736 123.346 36.0298 123.327 35.9775C123.308 35.9252 123.298 35.865 123.298 35.7969C123.298 35.7425 123.307 35.6918 123.324 35.6446C123.341 35.5975 123.366 35.5565 123.398 35.5216C123.43 35.4868 123.469 35.4594 123.514 35.4394C123.56 35.4189 123.613 35.4086 123.67 35.4086C123.719 35.4086 123.763 35.4166 123.804 35.4325C123.845 35.4478 123.881 35.4706 123.91 35.5009C123.94 35.5311 123.963 35.5683 123.979 35.6123C123.996 35.6559 124.005 35.7056 124.005 35.7615C124.005 35.7871 124.002 35.8043 123.996 35.813C123.991 35.8217 123.98 35.8261 123.966 35.8261H123.462ZM125.402 36.2051H125.237V35.5508H124.87V35.996C124.87 36.0242 124.876 36.0457 124.89 36.0605C124.904 36.0754 124.923 36.0828 124.946 36.0828C124.958 36.0828 124.969 36.0813 124.979 36.0782C124.988 36.0746 124.997 36.0711 125.003 36.0675C125.01 36.0634 125.016 36.0598 125.02 36.0567C125.025 36.0531 125.03 36.0513 125.034 36.0513C125.04 36.0513 125.044 36.0526 125.047 36.0552C125.05 36.0572 125.054 36.0611 125.057 36.0667L125.106 36.1474C125.08 36.17 125.05 36.1874 125.015 36.1997C124.98 36.2115 124.945 36.2174 124.908 36.2174C124.842 36.2174 124.792 36.1992 124.757 36.1628C124.722 36.1259 124.705 36.0741 124.705 36.0075V35.5508H124.365V35.996C124.365 36.0242 124.372 36.0457 124.386 36.0605C124.4 36.0754 124.418 36.0828 124.441 36.0828C124.454 36.0828 124.465 36.0813 124.474 36.0782C124.484 36.0746 124.492 36.0711 124.498 36.0675C124.505 36.0634 124.51 36.0598 124.515 36.0567C124.52 36.0531 124.525 36.0513 124.53 36.0513C124.539 36.0513 124.546 36.0564 124.552 36.0667L124.601 36.1474C124.576 36.17 124.545 36.1874 124.51 36.1997C124.476 36.2115 124.44 36.2174 124.403 36.2174C124.338 36.2174 124.288 36.1992 124.252 36.1628C124.217 36.1259 124.2 36.0741 124.2 36.0075V35.5508H124.114C124.105 35.5508 124.097 35.548 124.09 35.5424C124.083 35.5362 124.08 35.5273 124.08 35.5155V35.4486L124.207 35.4301L124.243 35.2034C124.246 35.1946 124.25 35.1877 124.256 35.1826C124.262 35.177 124.27 35.1741 124.281 35.1741H124.365V35.4317H124.712L124.748 35.2034C124.75 35.1946 124.754 35.1877 124.76 35.1826C124.767 35.177 124.775 35.1741 124.785 35.1741H124.87V35.4317H125.402V36.2051ZM125.432 35.1803C125.432 35.1952 125.429 35.2092 125.423 35.2226C125.417 35.2354 125.409 35.2469 125.399 35.2572C125.389 35.2669 125.377 35.2749 125.363 35.281C125.35 35.2866 125.336 35.2895 125.321 35.2895C125.306 35.2895 125.292 35.2866 125.279 35.281C125.266 35.2749 125.254 35.2669 125.244 35.2572C125.234 35.2469 125.226 35.2354 125.22 35.2226C125.214 35.2092 125.212 35.1952 125.212 35.1803C125.212 35.1649 125.214 35.1506 125.22 35.1372C125.226 35.1234 125.234 35.1116 125.244 35.1019C125.254 35.0916 125.266 35.0837 125.279 35.078C125.292 35.0719 125.306 35.0688 125.321 35.0688C125.336 35.0688 125.35 35.0719 125.363 35.078C125.377 35.0837 125.389 35.0916 125.399 35.1019C125.409 35.1116 125.417 35.1234 125.423 35.1372C125.429 35.1506 125.432 35.1649 125.432 35.1803ZM125.764 35.5247C125.781 35.5073 125.798 35.4916 125.816 35.4778C125.835 35.4635 125.854 35.4512 125.875 35.4409C125.895 35.4307 125.917 35.4227 125.94 35.4171C125.963 35.4114 125.988 35.4086 126.015 35.4086C126.058 35.4086 126.096 35.4158 126.128 35.4301C126.161 35.4445 126.189 35.4647 126.211 35.4909C126.233 35.517 126.25 35.5485 126.261 35.5854C126.273 35.6218 126.278 35.6621 126.278 35.7061V36.2051H126.114V35.7061C126.114 35.6533 126.101 35.6123 126.077 35.5831C126.053 35.5539 126.016 35.5393 125.966 35.5393C125.929 35.5393 125.895 35.5478 125.863 35.5647C125.832 35.5816 125.802 35.6047 125.775 35.6339V36.2051H125.609V35.4209H125.709C125.732 35.4209 125.746 35.4314 125.752 35.4524L125.764 35.5247ZM126.751 35.8061C126.802 35.8061 126.841 35.793 126.866 35.7669C126.892 35.7407 126.905 35.7067 126.905 35.6646C126.905 35.6216 126.892 35.5875 126.866 35.5624C126.841 35.5373 126.802 35.5247 126.751 35.5247C126.7 35.5247 126.662 35.5373 126.636 35.5624C126.61 35.5875 126.597 35.6216 126.597 35.6646C126.597 35.6851 126.601 35.7041 126.607 35.7215C126.614 35.7389 126.624 35.7541 126.637 35.7669C126.649 35.7792 126.665 35.7889 126.684 35.7961C126.704 35.8027 126.726 35.8061 126.751 35.8061ZM126.981 36.2435C126.981 36.2261 126.976 36.2123 126.966 36.202C126.956 36.1912 126.943 36.183 126.926 36.1774C126.909 36.1713 126.889 36.1669 126.866 36.1643C126.844 36.1613 126.82 36.1592 126.794 36.1582C126.769 36.1566 126.743 36.1554 126.717 36.1543C126.69 36.1528 126.665 36.1502 126.64 36.1467C126.616 36.1595 126.596 36.1748 126.58 36.1928C126.564 36.2107 126.557 36.2315 126.557 36.255C126.557 36.2704 126.561 36.2848 126.568 36.2981C126.576 36.3114 126.589 36.323 126.605 36.3327C126.622 36.3424 126.643 36.3501 126.669 36.3558C126.695 36.3614 126.726 36.3642 126.763 36.3642C126.835 36.3642 126.89 36.3529 126.926 36.3304C126.963 36.3078 126.981 36.2789 126.981 36.2435ZM127.147 35.4494V35.5109C127.147 35.5314 127.135 35.5439 127.11 35.5485L127.032 35.5616C127.045 35.5913 127.052 35.6244 127.052 35.6608C127.052 35.6992 127.044 35.7341 127.029 35.7653C127.014 35.7966 126.993 35.8232 126.966 35.8453C126.94 35.8673 126.908 35.8842 126.871 35.896C126.834 35.9078 126.794 35.9137 126.751 35.9137C126.735 35.9137 126.719 35.9129 126.703 35.9114C126.687 35.9094 126.672 35.9068 126.657 35.9037C126.643 35.9124 126.631 35.9217 126.624 35.9314C126.617 35.9411 126.614 35.9511 126.614 35.9614C126.614 35.9783 126.621 35.9908 126.636 35.999C126.651 36.0072 126.67 36.0131 126.694 36.0167C126.719 36.0203 126.747 36.0226 126.778 36.0236C126.809 36.0247 126.841 36.0265 126.873 36.029C126.906 36.0316 126.937 36.0359 126.969 36.0421C127 36.0477 127.028 36.0575 127.052 36.0713C127.076 36.0846 127.096 36.1028 127.111 36.1259C127.126 36.149 127.133 36.1789 127.133 36.2158C127.133 36.2497 127.125 36.2827 127.108 36.315C127.091 36.3473 127.066 36.376 127.034 36.4011C127.002 36.4262 126.963 36.4462 126.917 36.4611C126.871 36.4765 126.819 36.4841 126.76 36.4841C126.701 36.4841 126.65 36.4785 126.607 36.4672C126.564 36.456 126.527 36.4406 126.498 36.4211C126.47 36.4021 126.448 36.3801 126.434 36.355C126.42 36.3299 126.413 36.3037 126.413 36.2766C126.413 36.2397 126.424 36.2082 126.448 36.182C126.471 36.1559 126.503 36.1354 126.543 36.1205C126.521 36.1103 126.504 36.0962 126.491 36.0782C126.478 36.0603 126.471 36.0367 126.471 36.0075C126.471 35.9844 126.48 35.9603 126.497 35.9352C126.514 35.9101 126.539 35.8889 126.573 35.8714C126.534 35.8499 126.503 35.8215 126.481 35.7861C126.458 35.7502 126.447 35.7084 126.447 35.6608C126.447 35.6218 126.454 35.5867 126.469 35.5555C126.484 35.5242 126.506 35.4975 126.533 35.4755C126.56 35.4535 126.592 35.4366 126.629 35.4248C126.666 35.413 126.707 35.4071 126.751 35.4071C126.819 35.4071 126.878 35.4212 126.928 35.4494H127.147ZM127.746 35.5631C127.742 35.5703 127.737 35.5754 127.732 35.5785C127.727 35.5816 127.72 35.5831 127.713 35.5831C127.704 35.5831 127.695 35.5806 127.684 35.5754C127.674 35.5698 127.662 35.5637 127.648 35.557C127.634 35.5503 127.618 35.5444 127.599 35.5393C127.581 35.5337 127.559 35.5309 127.534 35.5309C127.513 35.5309 127.494 35.5334 127.478 35.5385C127.461 35.5432 127.447 35.5501 127.435 35.5593C127.424 35.568 127.415 35.5785 127.409 35.5908C127.403 35.6026 127.4 35.6154 127.4 35.6293C127.4 35.6477 127.406 35.6631 127.417 35.6754C127.428 35.6877 127.443 35.6985 127.461 35.7077C127.48 35.7164 127.501 35.7243 127.524 35.7315C127.548 35.7387 127.572 35.7464 127.597 35.7546C127.621 35.7628 127.645 35.7723 127.669 35.783C127.693 35.7938 127.714 35.8071 127.732 35.823C127.75 35.8384 127.765 35.8573 127.777 35.8799C127.788 35.9019 127.794 35.9288 127.794 35.9606C127.794 35.9975 127.787 36.0316 127.774 36.0629C127.76 36.0941 127.741 36.1213 127.715 36.1443C127.689 36.1674 127.657 36.1853 127.619 36.1982C127.581 36.211 127.538 36.2174 127.488 36.2174C127.461 36.2174 127.435 36.2148 127.409 36.2097C127.384 36.2051 127.36 36.1987 127.337 36.1905C127.314 36.1818 127.293 36.1715 127.273 36.1597C127.254 36.1479 127.236 36.1351 127.221 36.1213L127.259 36.0582C127.264 36.0506 127.269 36.0447 127.276 36.0406C127.283 36.0359 127.292 36.0336 127.302 36.0336C127.313 36.0336 127.324 36.0372 127.334 36.0444C127.345 36.0511 127.357 36.0585 127.371 36.0667C127.385 36.0749 127.402 36.0826 127.422 36.0898C127.442 36.0964 127.467 36.0998 127.497 36.0998C127.521 36.0998 127.543 36.0969 127.561 36.0913C127.579 36.0851 127.593 36.0769 127.605 36.0667C127.617 36.0564 127.626 36.0449 127.631 36.0321C127.637 36.0188 127.64 36.0047 127.64 35.9898C127.64 35.9698 127.634 35.9534 127.623 35.9406C127.612 35.9278 127.596 35.9168 127.577 35.9076C127.559 35.8983 127.538 35.8901 127.514 35.883C127.49 35.8758 127.466 35.8681 127.441 35.8599C127.417 35.8517 127.392 35.8422 127.368 35.8315C127.345 35.8207 127.324 35.8071 127.305 35.7907C127.286 35.7738 127.271 35.7535 127.26 35.73C127.249 35.7059 127.243 35.6767 127.243 35.6423C127.243 35.6111 127.249 35.5813 127.262 35.5532C127.274 35.525 127.293 35.5001 127.317 35.4786C127.341 35.4571 127.371 35.4401 127.407 35.4278C127.443 35.415 127.484 35.4086 127.531 35.4086C127.583 35.4086 127.631 35.4171 127.674 35.434C127.717 35.4509 127.754 35.474 127.783 35.5032L127.746 35.5631Z" fill="black"/>
<path d="M132.609 35.2872C132.603 35.2964 132.597 35.3033 132.591 35.3079C132.585 35.312 132.577 35.3141 132.568 35.3141C132.558 35.3141 132.547 35.31 132.535 35.3018C132.523 35.2936 132.508 35.2846 132.49 35.2749C132.473 35.2646 132.452 35.2554 132.428 35.2472C132.404 35.2385 132.375 35.2341 132.342 35.2341C132.311 35.2341 132.284 35.238 132.261 35.2456C132.238 35.2533 132.218 35.2641 132.202 35.2779C132.186 35.2918 132.174 35.3082 132.166 35.3271C132.158 35.3456 132.155 35.3658 132.155 35.3879C132.155 35.4161 132.162 35.4396 132.177 35.4586C132.192 35.477 132.211 35.4929 132.235 35.5063C132.26 35.5196 132.288 35.5314 132.319 35.5416C132.35 35.5514 132.382 35.5619 132.414 35.5731C132.447 35.5844 132.479 35.5972 132.51 35.6116C132.542 35.6259 132.569 35.6441 132.593 35.6662C132.618 35.6882 132.638 35.7151 132.653 35.7469C132.668 35.7787 132.675 35.8174 132.675 35.863C132.675 35.9122 132.667 35.9583 132.65 36.0014C132.633 36.0444 132.608 36.0821 132.576 36.1144C132.544 36.1461 132.505 36.1713 132.457 36.1897C132.411 36.2082 132.357 36.2174 132.297 36.2174C132.262 36.2174 132.228 36.2138 132.194 36.2066C132.16 36.2 132.128 36.1905 132.098 36.1782C132.067 36.1654 132.039 36.15 132.012 36.132C131.986 36.1141 131.962 36.0941 131.941 36.0721L131.993 35.986C131.998 35.9788 132.004 35.9732 132.011 35.9691C132.018 35.965 132.026 35.9629 132.035 35.9629C132.046 35.9629 132.059 35.9685 132.074 35.9798C132.088 35.9906 132.105 36.0026 132.125 36.016C132.146 36.0288 132.17 36.0408 132.199 36.0521C132.228 36.0629 132.262 36.0682 132.302 36.0682C132.367 36.0682 132.417 36.0523 132.453 36.0206C132.489 35.9888 132.507 35.945 132.507 35.8891C132.507 35.8578 132.499 35.8325 132.484 35.813C132.469 35.793 132.45 35.7764 132.425 35.763C132.401 35.7497 132.373 35.7384 132.342 35.7292C132.311 35.72 132.279 35.7102 132.247 35.7C132.214 35.6892 132.183 35.6769 132.151 35.6631C132.12 35.6487 132.092 35.6303 132.068 35.6077C132.044 35.5847 132.024 35.5565 132.009 35.5232C131.994 35.4893 131.987 35.4473 131.987 35.3971C131.987 35.3571 131.995 35.3184 132.01 35.281C132.026 35.2436 132.049 35.2105 132.078 35.1818C132.109 35.1526 132.146 35.1293 132.19 35.1119C132.234 35.0944 132.284 35.0857 132.341 35.0857C132.404 35.0857 132.462 35.0957 132.515 35.1157C132.568 35.1357 132.614 35.1641 132.653 35.201L132.609 35.2872ZM133.485 35.4209V36.2051H133.385C133.363 36.2051 133.349 36.1946 133.342 36.1736L133.33 36.1005C133.314 36.1179 133.296 36.1338 133.278 36.1482C133.26 36.1625 133.241 36.1748 133.22 36.1851C133.2 36.1953 133.178 36.2033 133.154 36.2089C133.131 36.2146 133.106 36.2174 133.08 36.2174C133.036 36.2174 132.999 36.2102 132.966 36.1959C132.933 36.1815 132.905 36.1613 132.883 36.1351C132.861 36.109 132.844 36.0777 132.833 36.0413C132.821 36.0044 132.816 35.9639 132.816 35.9199V35.4209H132.981V35.9199C132.981 35.9726 132.993 36.0137 133.017 36.0429C133.042 36.0721 133.079 36.0867 133.129 36.0867C133.165 36.0867 133.199 36.0785 133.23 36.0621C133.262 36.0452 133.292 36.0221 133.319 35.9929V35.4209H133.485ZM133.851 36.0083C133.874 36.038 133.899 36.059 133.926 36.0713C133.954 36.0831 133.984 36.089 134.018 36.089C134.082 36.089 134.132 36.0654 134.168 36.0183C134.205 35.9711 134.223 35.9009 134.223 35.8076C134.223 35.7594 134.219 35.7184 134.211 35.6846C134.202 35.6503 134.191 35.6223 134.175 35.6008C134.16 35.5793 134.141 35.5637 134.119 35.5539C134.097 35.5442 134.072 35.5393 134.044 35.5393C134.002 35.5393 133.966 35.5485 133.935 35.567C133.905 35.5849 133.877 35.6108 133.851 35.6446V36.0083ZM133.842 35.5347C133.875 35.4963 133.912 35.4653 133.954 35.4417C133.996 35.4181 134.044 35.4063 134.1 35.4063C134.144 35.4063 134.184 35.4153 134.22 35.4332C134.256 35.4506 134.286 35.4763 134.312 35.5101C134.338 35.5439 134.357 35.586 134.371 35.6362C134.386 35.6859 134.393 35.743 134.393 35.8076C134.393 35.8655 134.385 35.9196 134.369 35.9698C134.353 36.0195 134.331 36.0629 134.302 36.0998C134.273 36.1361 134.237 36.1648 134.196 36.1859C134.154 36.2064 134.107 36.2166 134.055 36.2166C134.009 36.2166 133.97 36.2092 133.938 36.1943C133.906 36.1795 133.877 36.159 133.851 36.1328V36.4657H133.685V35.4209H133.785C133.808 35.4209 133.822 35.4314 133.828 35.4524L133.842 35.5347ZM134.719 36.0083C134.742 36.038 134.767 36.059 134.794 36.0713C134.822 36.0831 134.852 36.089 134.885 36.089C134.95 36.089 135 36.0654 135.036 36.0183C135.072 35.9711 135.091 35.9009 135.091 35.8076C135.091 35.7594 135.087 35.7184 135.078 35.6846C135.07 35.6503 135.058 35.6223 135.043 35.6008C135.028 35.5793 135.009 35.5637 134.987 35.5539C134.965 35.5442 134.94 35.5393 134.912 35.5393C134.87 35.5393 134.834 35.5485 134.803 35.567C134.773 35.5849 134.745 35.6108 134.719 35.6446V36.0083ZM134.71 35.5347C134.743 35.4963 134.78 35.4653 134.822 35.4417C134.864 35.4181 134.912 35.4063 134.968 35.4063C135.012 35.4063 135.052 35.4153 135.088 35.4332C135.123 35.4506 135.154 35.4763 135.18 35.5101C135.205 35.5439 135.225 35.586 135.239 35.6362C135.253 35.6859 135.261 35.743 135.261 35.8076C135.261 35.8655 135.253 35.9196 135.237 35.9698C135.221 36.0195 135.199 36.0629 135.17 36.0998C135.141 36.1361 135.105 36.1648 135.064 36.1859C135.022 36.2064 134.975 36.2166 134.923 36.2166C134.877 36.2166 134.838 36.2092 134.805 36.1943C134.774 36.1795 134.745 36.159 134.719 36.1328V36.4657H134.553V35.4209H134.653C134.676 35.4209 134.69 35.4314 134.696 35.4524L134.71 35.5347ZM135.76 35.4086C135.818 35.4086 135.87 35.4181 135.917 35.4371C135.964 35.456 136.004 35.4829 136.037 35.5178C136.07 35.5526 136.096 35.5949 136.114 35.6446C136.132 35.6944 136.141 35.7502 136.141 35.8122C136.141 35.8742 136.132 35.9301 136.114 35.9798C136.096 36.0295 136.07 36.0721 136.037 36.1074C136.004 36.1423 135.964 36.1692 135.917 36.1882C135.87 36.2071 135.818 36.2166 135.76 36.2166C135.702 36.2166 135.649 36.2071 135.602 36.1882C135.555 36.1692 135.515 36.1423 135.482 36.1074C135.449 36.0721 135.423 36.0295 135.405 35.9798C135.387 35.9301 135.378 35.8742 135.378 35.8122C135.378 35.7502 135.387 35.6944 135.405 35.6446C135.423 35.5949 135.449 35.5526 135.482 35.5178C135.515 35.4829 135.555 35.456 135.602 35.4371C135.649 35.4181 135.702 35.4086 135.76 35.4086ZM135.76 36.0875C135.831 36.0875 135.883 36.0639 135.918 36.0167C135.953 35.9691 135.97 35.9012 135.97 35.813C135.97 35.7248 135.953 35.6569 135.918 35.6093C135.883 35.5611 135.831 35.537 135.76 35.537C135.688 35.537 135.635 35.5611 135.6 35.6093C135.565 35.6569 135.548 35.7248 135.548 35.813C135.548 35.9012 135.565 35.9691 135.6 36.0167C135.635 36.0639 135.688 36.0875 135.76 36.0875ZM136.456 35.5662C136.48 35.5165 136.51 35.4776 136.545 35.4494C136.58 35.4207 136.621 35.4063 136.67 35.4063C136.687 35.4063 136.703 35.4084 136.718 35.4125C136.733 35.4161 136.746 35.4217 136.758 35.4294L136.746 35.5539C136.744 35.5626 136.741 35.5688 136.736 35.5724C136.732 35.5754 136.727 35.577 136.719 35.577C136.712 35.577 136.701 35.5757 136.686 35.5731C136.672 35.5701 136.657 35.5685 136.641 35.5685C136.618 35.5685 136.597 35.5719 136.579 35.5785C136.562 35.5852 136.546 35.5949 136.532 35.6077C136.518 35.6205 136.506 35.6362 136.495 35.6546C136.484 35.6731 136.474 35.6941 136.465 35.7177V36.2051H136.3V35.4209H136.396C136.413 35.4209 136.425 35.4243 136.432 35.4309C136.438 35.4371 136.443 35.4481 136.446 35.464L136.456 35.5662ZM137.119 36.2174C137.053 36.2174 137.003 36.1992 136.968 36.1628C136.933 36.1259 136.916 36.0741 136.916 36.0075V35.5508H136.829C136.82 35.5508 136.812 35.548 136.806 35.5424C136.799 35.5362 136.796 35.5273 136.796 35.5155V35.4486L136.923 35.4301L136.959 35.2034C136.961 35.1946 136.966 35.1877 136.972 35.1826C136.978 35.177 136.986 35.1741 136.996 35.1741H137.081V35.4317H137.298V35.5508H137.081V35.996C137.081 36.0242 137.088 36.0457 137.102 36.0605C137.115 36.0754 137.134 36.0828 137.157 36.0828C137.17 36.0828 137.181 36.0813 137.19 36.0782C137.199 36.0746 137.207 36.0711 137.214 36.0675C137.221 36.0634 137.226 36.0598 137.231 36.0567C137.236 36.0531 137.241 36.0513 137.245 36.0513C137.255 36.0513 137.262 36.0564 137.268 36.0667L137.317 36.1474C137.291 36.17 137.261 36.1874 137.226 36.1997C137.191 36.2115 137.155 36.2174 137.119 36.2174Z" fill="black"/>
</g>
<g clip-path="url(#clip0_460_7498)">
<path d="M119.182 56.1729C123.116 56.1729 126.304 59.4043 126.304 63.3918C126.304 64.2355 126.161 65.045 125.897 65.7989C125.904 65.8074 125.908 65.8181 125.914 65.8288C125.931 65.8437 126.003 65.9249 126.03 65.9527C126.165 66.0894 126.313 66.2154 126.452 66.3478C126.487 66.382 126.519 66.4183 126.553 66.4546C126.934 65.5106 127.147 64.4768 127.147 63.394C127.149 58.9323 123.582 55.3164 119.182 55.3164C114.782 55.3164 111.217 58.9323 111.217 63.3918C111.217 64.6541 111.503 65.848 112.013 66.9138C112.112 66.5913 112.319 66.3264 112.622 66.2026C112.262 65.3397 112.062 64.3893 112.062 63.3918C112.06 59.4043 115.248 56.1729 119.182 56.1729Z" fill="white" stroke="#939393" stroke-width="0.439523" stroke-miterlimit="10"/>
<path d="M122.821 73.9668H118.331V75.6455H122.821V73.9668Z" fill="#E4EAEF" stroke="#939393" stroke-width="0.439523" stroke-miterlimit="10"/>
<path d="M113.383 64.1797H111.659V71.2257H113.383V64.1797Z" fill="white" stroke="#939393" stroke-width="0.439523" stroke-miterlimit="10"/>
<path d="M111.619 70.342C110.905 70.342 110.327 69.7568 110.327 69.0328V66.3737C110.327 65.6497 110.905 65.0645 111.619 65.0645V70.342Z" fill="white" stroke="#939393" stroke-width="0.439523" stroke-miterlimit="10"/>
<path d="M126.713 65.0645C127.427 65.0645 128.005 65.6497 128.005 66.3737V69.0328C128.005 69.7568 127.427 70.342 126.713 70.342V65.0645Z" fill="white" stroke="#939393" stroke-width="0.439523" stroke-miterlimit="10"/>
<path d="M126.683 64.1797H124.96V71.2257H126.683V64.1797Z" fill="white" stroke="#939393" stroke-width="0.439523" stroke-miterlimit="10"/>
<path d="M127.36 70.1719C127.36 72.7113 125.329 74.7724 122.821 74.7724" stroke="#939393" stroke-width="0.439523" stroke-miterlimit="10"/>
</g>
<rect x="104.889" y="85.1016" width="31.1545" height="9.52609" rx="0.768782" fill="black" fill-opacity="0.05"/>
<ellipse cx="121.001" cy="88.1241" rx="0.687988" ry="0.700226" fill="white"/>
<rect x="52.0339" y="29.7832" width="96.0337" height="68.3666" rx="1.958" stroke="#939393" stroke-width="0.4895"/>
<rect x="19.4067" y="77.6172" width="84.8528" height="32.6772" rx="1.25192" fill="white" stroke="#979797" stroke-width="0.4895"/>
<rect x="122.147" y="27.668" width="32.1064" height="12.604" rx="1.25192" fill="white" stroke="#979797" stroke-width="0.4895"/>
<path fill-rule="evenodd" clip-rule="evenodd" d="M151.137 29.6296C151.148 29.6182 151.167 29.6182 151.178 29.6296L152.325 30.7967C152.336 30.8081 152.336 30.8265 152.325 30.8379C152.313 30.8493 152.295 30.8493 152.284 30.8379L151.137 29.6709C151.126 29.6595 151.126 29.641 151.137 29.6296Z" fill="black"/>
<path fill-rule="evenodd" clip-rule="evenodd" d="M152.325 29.6296C152.336 29.641 152.336 29.6595 152.325 29.6709L151.178 30.8379C151.167 30.8493 151.148 30.8493 151.137 30.8379C151.126 30.8265 151.126 30.8081 151.137 30.7967L152.284 29.6296C152.295 29.6182 152.313 29.6182 152.325 29.6296Z" fill="black"/>
<rect x="142.328" y="44.4746" width="64.6715" height="43.414" rx="1.958" fill="white" stroke="#939393" stroke-width="0.4895"/>
<path opacity="0.7" d="M157.725 70.409L148.785 80.3433L157.725 80.3433L166.664 80.3433L175.604 80.3433L184.543 80.3433L193.483 80.3433L202.422 80.3433L202.422 78.8715L193.483 72.8005L184.543 70.041L175.604 70.409L166.664 73.7204L157.725 70.409Z" fill="#E4EAEF" fill-opacity="0.6" stroke="#98A6B1" stroke-width="0.659284"/>
<path opacity="0.7" d="M148.785 80.1573L157.725 60.4727L166.664 64.7039L175.604 63.5081L184.482 65.9917L193.483 62.0364L202.422 76.8459L202.422 78.8695L193.483 72.7986L184.482 70.039L175.604 70.407L166.664 73.7184L157.725 70.407L148.785 80.3413L148.785 80.1573Z" fill="black" fill-opacity="0.03"/>
<path d="M148.785 57.5312L148.785 80.3434" stroke="#F0F0F0" stroke-width="0.439523"/>
<path d="M157.725 57.5312L157.725 80.3434" stroke="#F0F0F0" stroke-width="0.439523"/>
<path d="M166.664 57.5312L166.664 80.3434" stroke="#F0F0F0" stroke-width="0.439523"/>
<path d="M175.604 57.5312L175.604 80.3434" stroke="#F0F0F0" stroke-width="0.439523"/>
<path d="M184.543 57.5312L184.543 80.3434" stroke="#F0F0F0" stroke-width="0.439523"/>
<path d="M193.483 57.5312L193.483 80.3434" stroke="#F0F0F0" stroke-width="0.439523"/>
<path d="M202.413 57.543L202.413 76.2156" stroke="#F0F0F0" stroke-width="0.439523"/>
<path d="M148.785 68.9375L202.422 68.9375" stroke="#F0F0F0" stroke-width="0.439523"/>
<path d="M148.785 57.5312L202.422 57.5313" stroke="#F0F0F0" stroke-width="0.439523"/>
<path d="M148.607 80.288L157.551 60.6816L166.495 64.8765L175.439 63.691L184.383 66.1532L193.327 62.2319L202.271 76.9138" stroke="#979797" stroke-opacity="0.8" stroke-width="0.659284"/>
<ellipse cx="157.694" cy="60.5811" rx="0.687999" ry="0.700226" fill="#707070"/>
<ellipse cx="148.52" cy="80.1866" rx="0.687999" ry="0.700229" fill="#707070"/>
<ellipse cx="157.694" cy="70.3838" rx="0.687999" ry="0.700226" fill="#7F8A92"/>
<ellipse cx="166.867" cy="73.6514" rx="0.687992" ry="0.700226" fill="#7F8A92"/>
<ellipse cx="175.582" cy="70.3838" rx="0.687999" ry="0.700226" fill="#7F8A92"/>
<ellipse cx="184.755" cy="70.3838" rx="0.688007" ry="0.700226" fill="#7F8A92"/>
<ellipse cx="193.469" cy="72.7178" rx="0.687992" ry="0.700229" fill="#7F8A92"/>
<ellipse cx="202.643" cy="79.253" rx="0.687992" ry="0.700229" fill="#7F8A92"/>
<ellipse cx="166.867" cy="64.7823" rx="0.687992" ry="0.700222" fill="#707070"/>
<ellipse cx="175.582" cy="63.8487" rx="0.687999" ry="0.700226" fill="#707070"/>
<ellipse cx="184.755" cy="66.1826" rx="0.688007" ry="0.700222" fill="#707070"/>
<ellipse cx="193.469" cy="62.4483" rx="0.687992" ry="0.700226" fill="#707070"/>
<ellipse cx="202.643" cy="76.919" rx="0.687992" ry="0.700226" fill="#707070"/>
<path d="M59.0796 45.1527V42.8283H60.9256V45.1527H59.0796Z" fill="#B3BDC4"/>
<path d="M60.9256 45.1527V42.8283H62.7716V45.1527H60.9256Z" fill="#B3BDC4"/>
<path d="M62.7716 45.1527V42.8283H64.6176V45.1527H62.7716Z" fill="#B3BDC4"/>
<path d="M64.6176 45.1527V42.8283H66.4636V45.1527H64.6176Z" fill="#B3BDC4"/>
<path d="M59.0796 50.7545V48.4301H60.9256V50.7545H59.0796Z" fill="#B3BDC4"/>
<path d="M60.9256 50.7545V48.4301H62.7716V50.7545H60.9256Z" fill="#B3BDC4"/>
<path d="M63.6946 50.7545V48.4301H65.5406V50.7545H63.6946Z" fill="#B3BDC4"/>
<path d="M65.5406 50.7545V48.4301H67.3866V50.7545H65.5406Z" fill="#B3BDC4"/>
<path d="M67.3866 50.7545V48.4301H69.2326V50.7545H67.3866Z" fill="#B3BDC4"/>
<path d="M69.2326 50.7545V48.4301H71.0786V50.7545H69.2326Z" fill="#B3BDC4"/>
<path d="M59.0796 54.9559V52.6314H60.9256V54.9559H59.0796Z" fill="#B3BDC4"/>
<path d="M60.9256 54.9559V52.6314H62.7716V54.9559H60.9256Z" fill="#B3BDC4"/>
<path d="M62.7716 54.9559V52.6314H64.6176V54.9559H62.7716Z" fill="#B3BDC4"/>
<path d="M64.6176 54.9559V52.6314H66.4636V54.9559H64.6176Z" fill="#B3BDC4"/>
<path d="M67.3866 54.9559V52.6314H69.2326V54.9559H67.3866Z" fill="#B3BDC4"/>
<path d="M69.2326 54.9559V52.6314H71.0786V54.9559H69.2326Z" fill="#B3BDC4"/>
<path d="M71.0786 54.9559V52.6314H72.9246V54.9559H71.0786Z" fill="#B3BDC4"/>
<path d="M72.9246 54.9559V52.6314H74.7706V54.9559H72.9246Z" fill="#B3BDC4"/>
<path d="M102.631 47.4868V44.9457H104.649V47.4868H102.631Z" fill="#B3BDC4"/>
<path d="M104.649 47.4868V44.9457H106.667V47.4868H104.649Z" fill="#B3BDC4"/>
<path d="M106.667 47.4868V44.9457H108.685V47.4868H106.667Z" fill="#B3BDC4"/>
<path d="M108.685 47.4868V44.9457H110.703V47.4868H108.685Z" fill="#B3BDC4"/>
<path d="M111.712 47.4868V44.9457H113.73V47.4868H111.712Z" fill="#B3BDC4"/>
<path d="M113.73 47.4868V44.9457H115.749V47.4868H113.73Z" fill="#B3BDC4"/>
<path d="M115.749 47.4868V44.9457H117.767V47.4868H115.749Z" fill="#B3BDC4"/>
<path d="M117.767 47.4868V44.9457H119.785V47.4868H117.767Z" fill="#B3BDC4"/>
<path d="M119.785 47.4868V44.9457H121.803V47.4868H119.785Z" fill="#B3BDC4"/>
<path d="M121.803 47.4868V44.9457H123.821V47.4868H121.803Z" fill="#B3BDC4"/>
<path d="M123.821 47.4868V44.9457H125.839V47.4868H123.821Z" fill="#B3BDC4"/>
<path d="M126.848 47.4868V44.9457H128.866V47.4868H126.848Z" fill="#B3BDC4"/>
<path d="M128.866 47.4868V44.9457H130.884V47.4868H128.866Z" fill="#B3BDC4"/>
<path d="M130.884 47.4868V44.9457H132.902V47.4868H130.884Z" fill="#B3BDC4"/>
<path d="M132.902 47.4868V44.9457H134.92V47.4868H132.902Z" fill="#B3BDC4"/>
<path d="M134.92 47.4868V44.9457H136.938V47.4868H134.92Z" fill="#B3BDC4"/>
<path d="M109.204 91.7078V90.6914H110.011V91.7078H109.204Z" fill="#B3BDC4"/>
<path d="M110.011 91.7078V90.6914H110.818V91.7078H110.011Z" fill="#B3BDC4"/>
<path d="M110.818 91.7078V90.6914H111.625V91.7078H110.818Z" fill="#B3BDC4"/>
<path d="M111.625 91.7078V90.6914H112.433V91.7078H111.625Z" fill="#B3BDC4"/>
<path d="M112.433 91.7078V90.6914H113.24V91.7078H112.433Z" fill="#B3BDC4"/>
<path d="M113.24 91.7078V90.6914H114.047V91.7078H113.24Z" fill="#B3BDC4"/>
<path d="M114.047 91.7078V90.6914H114.854V91.7078H114.047Z" fill="#B3BDC4"/>
<path d="M114.854 91.7078V90.6914H115.662V91.7078H114.854Z" fill="#B3BDC4"/>
<path d="M115.662 91.7078V90.6914H116.469V91.7078H115.662Z" fill="#B3BDC4"/>
<path d="M122.954 88.7638V87.7474H123.761V88.7638H122.954Z" fill="#B3BDC4"/>
<path d="M123.761 88.7638V87.7474H124.569V88.7638H123.761Z" fill="#B3BDC4"/>
<path d="M124.569 88.7638V87.7474H125.376V88.7638H124.569Z" fill="#B3BDC4"/>
<path d="M125.376 88.7638V87.7474H126.183V88.7638H125.376Z" fill="#B3BDC4"/>
<path d="M126.183 88.7638V87.7474H126.99V88.7638H126.183Z" fill="#B3BDC4"/>
<path d="M126.99 88.7638V87.7474H127.797V88.7638H126.99Z" fill="#B3BDC4"/>
<path d="M127.797 88.7638V87.7474H128.605V88.7638H127.797Z" fill="#B3BDC4"/>
<path d="M128.605 88.7638V87.7474H129.412V88.7638H128.605Z" fill="#B3BDC4"/>
<path d="M129.412 88.7638V87.7474H130.219V88.7638H129.412Z" fill="#B3BDC4"/>
<path d="M109.204 88.4401V87.4237H110.011V88.4401H109.204Z" fill="#B3BDC4"/>
<path d="M110.011 88.4401V87.4237H110.818V88.4401H110.011Z" fill="#B3BDC4"/>
<path d="M110.818 88.4401V87.4237H111.625V88.4401H110.818Z" fill="#B3BDC4"/>
<path d="M111.625 88.4401V87.4237H112.433V88.4401H111.625Z" fill="#B3BDC4"/>
<path d="M112.433 88.4401V87.4237H113.24V88.4401H112.433Z" fill="#B3BDC4"/>
<path d="M113.24 88.4401V87.4237H114.047V88.4401H113.24Z" fill="#B3BDC4"/>
<path d="M114.047 88.4401V87.4237H114.854V88.4401H114.047Z" fill="#B3BDC4"/>
<path d="M123.088 92.0299V91.0135H123.895V92.0299H123.088Z" fill="#B3BDC4"/>
<path d="M123.895 92.0299V91.0135H124.702V92.0299H123.895Z" fill="#B3BDC4"/>
<path d="M124.702 92.0299V91.0135H125.509V92.0299H124.702Z" fill="#B3BDC4"/>
<path d="M125.509 92.0299V91.0135H126.317V92.0299H125.509Z" fill="#B3BDC4"/>
<path d="M126.317 92.0299V91.0135H127.124V92.0299H126.317Z" fill="#B3BDC4"/>
<path d="M127.124 92.0299V91.0135H127.931V92.0299H127.124Z" fill="#B3BDC4"/>
<path d="M127.931 92.0299V91.0135H128.738V92.0299H127.931Z" fill="#B3BDC4"/>
<path d="M129.142 92.0299V91.0135H129.949V92.0299H129.142Z" fill="#B3BDC4"/>
<path d="M129.949 92.0299V91.0135H130.756V92.0299H129.949Z" fill="#B3BDC4"/>
<path d="M130.756 92.0299V91.0135H131.564V92.0299H130.756Z" fill="#B3BDC4"/>
<path d="M131.564 92.0299V91.0135H132.371V92.0299H131.564Z" fill="#B3BDC4"/>
<path d="M148.702 52.155V49.8305H150.548V52.155H148.702Z" fill="#B3BDC4"/>
<path d="M150.548 52.155V49.8305H152.394V52.155H150.548Z" fill="#B3BDC4"/>
<path d="M152.394 52.155V49.8305H154.24V52.155H152.394Z" fill="#B3BDC4"/>
<path d="M154.24 52.155V49.8305H156.086V52.155H154.24Z" fill="#B3BDC4"/>
<path d="M156.086 52.155V49.8305H157.932V52.155H156.086Z" fill="#B3BDC4"/>
<path d="M157.932 52.155V49.8305H159.778V52.155H157.932Z" fill="#B3BDC4"/>
<path d="M160.701 52.155V49.8305H162.547V52.155H160.701Z" fill="#B3BDC4"/>
<path d="M162.547 52.155V49.8305H164.393V52.155H162.547Z" fill="#B3BDC4"/>
<path d="M164.393 52.155V49.8305H166.239V52.155H164.393Z" fill="#B3BDC4"/>
<path d="M166.239 52.155V49.8305H168.085V52.155H166.239Z" fill="#B3BDC4"/>
<path d="M168.085 52.155V49.8305H169.931V52.155H168.085Z" fill="#B3BDC4"/>
<path d="M131.577 33.907V31.873H133.193V33.907H131.577Z" fill="#B3BDC4"/>
<path d="M133.193 33.907V31.873H134.808V33.907H133.193Z" fill="#B3BDC4"/>
<path d="M134.808 33.907V31.873H136.423V33.907H134.808Z" fill="#B3BDC4"/>
<path d="M136.423 33.907V31.873H138.038V33.907H136.423Z" fill="#B3BDC4"/>
<path d="M138.038 33.907V31.873H139.654V33.907H138.038Z" fill="#B3BDC4"/>
<path d="M139.654 33.907V31.873H141.269V33.907H139.654Z" fill="#B3BDC4"/>
<path d="M141.269 33.907V31.873H142.884V33.907H141.269Z" fill="#B3BDC4"/>
<path d="M142.884 33.907V31.873H144.499V33.907H142.884Z" fill="#B3BDC4"/>
<path d="M144.499 33.907V31.873H146.115V33.907H144.499Z" fill="#B3BDC4"/>
<path d="M131.577 37.47V35.4361H133.193V37.47H131.577Z" fill="#B3BDC4"/>
<path d="M133.193 37.47V35.4361H134.808V37.47H133.193Z" fill="#B3BDC4"/>
<path d="M134.808 37.47V35.4361H136.423V37.47H134.808Z" fill="#B3BDC4"/>
<path d="M136.423 37.47V35.4361H138.038V37.47H136.423Z" fill="#B3BDC4"/>
<path d="M138.038 37.47V35.4361H139.654V37.47H138.038Z" fill="#B3BDC4"/>
<path d="M140.461 37.47V35.4361H142.076V37.47H140.461Z" fill="#B3BDC4"/>
<path d="M142.076 37.47V35.4361H143.692V37.47H142.076Z" fill="#B3BDC4"/>
<path d="M143.692 37.47V35.4361H145.307V37.47H143.692Z" fill="#B3BDC4"/>
<path d="M145.307 37.47V35.4361H146.922V37.47H145.307Z" fill="#B3BDC4"/>
<path d="M146.922 37.47V35.4361H148.537V37.47H146.922Z" fill="#B3BDC4"/>
<path d="M27.6886 93.9126V89.5543H31.1499V93.9126H27.6886Z" fill="#B3BDC4"/>
<path d="M31.1499 93.9126V89.5543H34.6111V93.9126H31.1499Z" fill="#B3BDC4"/>
<path d="M34.6111 93.9126V89.5543H38.0724V93.9126H34.6111Z" fill="#B3BDC4"/>
<path d="M38.0724 93.9126V89.5543H41.5336V93.9126H38.0724Z" fill="#B3BDC4"/>
<path d="M27.6886 100.021V95.6623H31.1499V100.021H27.6886Z" fill="#B3BDC4"/>
<path d="M31.1499 100.021V95.6623H34.6111V100.021H31.1499Z" fill="#B3BDC4"/>
<path d="M34.6111 100.021V95.6623H38.0724V100.021H34.6111Z" fill="#B3BDC4"/>
<path d="M38.0724 100.021V95.6623H41.5336V100.021H38.0724Z" fill="#B3BDC4"/>
<path d="M41.5336 100.021V95.6623H44.9949V100.021H41.5336Z" fill="#B3BDC4"/>
<path d="M44.9949 100.021V95.6623H48.4561V100.021H44.9949Z" fill="#B3BDC4"/>
<path fill-rule="evenodd" clip-rule="evenodd" d="M126.561 31.9595C126.656 31.9446 126.751 31.9752 126.816 32.0387L126.936 32.1547C126.991 32.2084 127.078 32.2084 127.134 32.1548L127.254 32.0387C127.319 31.9752 127.414 31.9446 127.509 31.9595C127.604 31.9744 127.682 32.032 127.722 32.1101C127.775 32.213 127.756 32.3379 127.669 32.4218L127.035 33.0631L126.403 32.424L126.401 32.4218C126.314 32.3379 126.295 32.213 126.348 32.1101C126.388 32.032 126.466 31.9744 126.561 31.9595ZM126.517 31.6712C126.337 31.6996 126.178 31.8109 126.094 31.9745C125.98 32.1947 126.026 32.46 126.202 32.632L126.934 33.3722C126.99 33.4288 127.08 33.4288 127.136 33.3722L127.868 32.632C128.044 32.46 128.09 32.1947 127.976 31.9745C127.892 31.8109 127.733 31.6996 127.553 31.6712C127.372 31.6428 127.187 31.6999 127.056 31.8275L127.035 31.8477L127.014 31.8275C126.882 31.6999 126.698 31.6428 126.517 31.6712ZM125.988 33.043L125.986 33.0443L125.977 33.0502C125.969 33.0556 125.957 33.064 125.941 33.0752C125.909 33.0979 125.863 33.1321 125.808 33.1775C125.697 33.2684 125.548 33.4033 125.4 33.5783C125.139 33.8859 124.885 34.31 124.826 34.8333C124.867 34.82 124.911 34.8128 124.957 34.8128H125.148C125.314 34.8128 125.458 34.9083 125.529 35.0483C125.822 34.5095 126.387 34.1447 127.035 34.1447C127.678 34.1447 128.238 34.5035 128.533 35.0351C128.607 34.9024 128.747 34.8128 128.908 34.8128H129.099C129.144 34.8128 129.188 34.82 129.229 34.8333C129.17 34.31 128.916 33.8859 128.656 33.5783C128.508 33.4033 128.359 33.2684 128.248 33.1775C128.192 33.1321 128.146 33.0979 128.114 33.0752C128.099 33.064 128.086 33.0556 128.078 33.0502L128.069 33.0443L128.067 33.043C128 33.0003 127.98 32.9103 128.022 32.842C128.064 32.7736 128.152 32.753 128.219 32.7956C128.219 32.7956 128.219 32.7955 128.143 32.9192L128.219 32.7956L128.22 32.7959L128.221 32.7965L128.224 32.7987L128.236 32.8067C128.246 32.8135 128.261 32.8234 128.279 32.8363C128.315 32.8622 128.366 32.9002 128.427 32.9499C128.549 33.0493 128.711 33.1964 128.873 33.3878C129.196 33.7696 129.529 34.338 129.529 35.0622V35.2504V35.3697V36.2896C129.529 36.5313 129.336 36.7273 129.099 36.7273H128.908C128.791 36.7273 128.686 36.6802 128.608 36.6036C128.341 37.2175 127.737 37.6458 127.035 37.6458C126.329 37.6458 125.722 37.2128 125.457 36.5935C125.379 36.676 125.269 36.7273 125.148 36.7273H124.957C124.719 36.7273 124.527 36.5313 124.527 36.2896V35.3697V35.2504V35.0622C124.527 34.338 124.859 33.7696 125.183 33.3878C125.345 33.1964 125.507 33.0493 125.628 32.9499C125.689 32.9002 125.74 32.8622 125.777 32.8363C125.795 32.8234 125.809 32.8135 125.819 32.8067L125.831 32.7987L125.835 32.7965L125.836 32.7959L125.836 32.7956L125.912 32.9192C125.836 32.7955 125.836 32.7956 125.836 32.7956C125.903 32.753 125.992 32.7736 126.034 32.842C126.076 32.9103 126.055 33.0003 125.988 33.043ZM124.813 35.3697L124.813 35.2504C124.813 35.1698 124.877 35.1045 124.957 35.1045H125.148C125.227 35.1045 125.291 35.1698 125.291 35.2504V36.2896C125.291 36.3702 125.227 36.4355 125.148 36.4355H124.957C124.877 36.4355 124.813 36.3702 124.813 36.2896V35.3698L124.813 35.3697ZM129.099 35.1045C129.178 35.1045 129.242 35.1698 129.242 35.2504V35.3697V36.2896C129.242 36.3702 129.178 36.4355 129.099 36.4355H128.908C128.829 36.4355 128.764 36.3702 128.764 36.2896V35.2504C128.764 35.1698 128.829 35.1045 128.908 35.1045H129.099ZM128.468 35.8952C128.468 36.7009 127.827 37.354 127.035 37.354C126.243 37.354 125.602 36.7009 125.602 35.8952C125.602 35.0895 126.243 34.4364 127.035 34.4364C127.827 34.4364 128.468 35.0895 128.468 35.8952ZM126.798 35.2058C126.77 35.2812 126.688 35.3194 126.614 35.291C126.57 35.2744 126.5 35.2744 126.424 35.2865C126.389 35.2921 126.358 35.2994 126.336 35.3052C126.325 35.3082 126.317 35.3107 126.311 35.3124L126.305 35.3143L126.304 35.3146C126.229 35.3398 126.148 35.2983 126.123 35.2219C126.098 35.1454 126.139 35.0629 126.214 35.0376L126.215 35.0374L126.216 35.037L126.219 35.036L126.229 35.0329C126.237 35.0303 126.249 35.0269 126.264 35.023C126.293 35.0153 126.333 35.0057 126.38 34.9983C126.466 34.9844 126.599 34.9736 126.714 35.0179C126.789 35.0463 126.826 35.1304 126.798 35.2058ZM127.446 35.2774C127.37 35.299 127.291 35.2537 127.269 35.1761C127.248 35.0985 127.293 35.018 127.369 34.9964C127.488 34.9625 127.619 34.9849 127.704 35.0065C127.75 35.018 127.789 35.0312 127.818 35.0414C127.832 35.0465 127.843 35.051 127.851 35.0543L127.861 35.0584L127.864 35.0596L127.865 35.06L127.866 35.0603C127.938 35.0922 127.972 35.178 127.941 35.252C127.909 35.326 127.825 35.3601 127.752 35.3283L127.751 35.3279L127.746 35.3255C127.74 35.3233 127.732 35.32 127.721 35.3161C127.7 35.3083 127.669 35.2983 127.635 35.2897C127.561 35.2709 127.491 35.2646 127.446 35.2774ZM126.11 36.2085C126.16 36.1459 126.25 36.1363 126.312 36.187C126.488 36.3329 126.739 36.4788 127.035 36.4788C127.331 36.4788 127.581 36.3329 127.758 36.187C127.82 36.1363 127.91 36.1459 127.96 36.2085C128.01 36.2711 128 36.363 127.939 36.4137C127.737 36.5801 127.424 36.7705 127.035 36.7705C126.646 36.7705 126.333 36.5801 126.131 36.4137C126.07 36.363 126.06 36.2711 126.11 36.2085Z" fill="#939393"/>
<path d="M187.278 92.5566C187.278 94.615 185.631 96.2912 183.608 96.2912" stroke="#939393" stroke-width="0.439523" stroke-miterlimit="10"/>
<path d="M190.947 96.2912C188.924 96.2912 187.277 94.615 187.277 92.5566" stroke="#939393" stroke-width="0.439523" stroke-miterlimit="10"/>
<path d="M183.608 96.291C185.631 96.291 187.277 97.9671 187.277 100.026" stroke="#939393" stroke-width="0.439523" stroke-miterlimit="10"/>
<path d="M187.277 100.026C187.277 97.9671 188.924 96.291 190.947 96.291" stroke="#939393" stroke-width="0.439523" stroke-miterlimit="10"/>
<g clip-path="url(#clip1_460_7498)">
<g clip-path="url(#clip2_460_7498)">
<path d="M98.4501 95.6327C99.3686 99.1496 101.016 103.606 97.6908 104.984C91.4489 107.536 84.6702 104.124 80.298 104.138C75.9401 104.138 67.9448 104.751 65.077 103.402C62.2091 102.024 68.6306 98.3078 66.1465 94.9427C62.7459 90.3366 67.8693 88.52 70.7351 86.7637C73.6029 84.9761 76.9484 84.6623 80.1449 85.3523C83.3557 86.0258 86.1521 89.075 89.4935 90.85C92.8206 92.6064 97.205 92.8039 98.4501 95.6327Z" fill="#F2F2F2"/>
<path d="M94.131 101.287H91.2264C91.1611 101.287 91.1101 101.235 91.1101 101.169C91.1101 101.102 91.1611 101.05 91.2264 101.05H93.8657L92.8532 93.3786C92.8451 93.3142 92.89 93.256 92.9533 93.2456C93.0145 93.2352 93.0737 93.283 93.0839 93.3474L94.131 101.287Z" fill="#939393"/>
<path d="M86.4011 101.2L82.5902 101.26L82.48 101.023L86.3909 100.479L86.4011 101.2Z" fill="#E4EAEF"/>
<path d="M82.5147 101.377L82.3044 100.924L86.5031 100.34L86.5174 101.313L82.5147 101.377ZM82.6514 101.117L82.6616 101.14L86.2827 101.084L86.2766 100.612L82.6514 101.117Z" fill="#939393"/>
<path d="M76.4034 101.362L75.387 94.0576L71.7087 92.8398L71.846 101.36H76.4034V101.362Z" fill="white" stroke="#939393" stroke-width="0.439523" stroke-miterlimit="10"/>
<path d="M75.7502 94.0804L71.7638 92.7148L75.7502 94.0804Z" fill="white"/>
<path d="M82.529 99.5254V100.6L83.0597 100.315C83.4781 100.091 83.966 100.07 84.4028 100.255L84.6947 100.38C84.7355 100.398 84.762 100.373 84.7722 100.357C84.7824 100.342 84.8008 100.309 84.7702 100.272L84.4212 99.8476C84.2619 99.6522 84.0272 99.542 83.7782 99.5379L82.529 99.5254Z" fill="white" stroke="#939393" stroke-width="0.439523" stroke-miterlimit="10"/>
<path d="M77.9118 98.8248L75.3747 94.9567C75.0297 94.3477 74.2663 94.1398 73.6703 94.4911C73.0722 94.8424 72.8681 95.6197 73.213 96.2267L76.4136 101.026L82.5677 100.687V99.5024L77.9118 98.8248Z" fill="white" stroke="#939393" stroke-width="0.439523" stroke-miterlimit="10"/>
<path d="M93.4541 87.3805L92.5673 87.3047L91.5805 99.2682L92.4673 99.3441L93.4541 87.3805Z" fill="#E4EAEF" stroke="#939393" stroke-width="0.439523" stroke-miterlimit="10"/>
<path d="M93.6819 87.5083L92.296 87.6995C91.9714 87.7452 91.6836 87.4875 91.6836 87.1549C91.6836 86.8223 91.9714 86.5667 92.296 86.6103L93.6819 86.8016C93.8554 86.8265 93.984 86.9762 93.984 87.1549C93.984 87.3337 93.8534 87.4833 93.6819 87.5083Z" fill="#E4EAEF" stroke="#939393" stroke-width="0.439523" stroke-miterlimit="10"/>
<path d="M68.3183 101.383V82.9551" stroke="#939393" stroke-width="0.439523" stroke-miterlimit="10"/>
<path d="M85.9949 79.9531V82.5949" stroke="#939393" stroke-width="0.439523" stroke-miterlimit="10"/>
<path d="M85.9949 85.1602C86.3286 85.1602 86.5991 84.8847 86.5991 84.5449C86.5991 84.2051 86.3286 83.9297 85.9949 83.9297C85.6612 83.9297 85.3907 84.2051 85.3907 84.5449C85.3907 84.8847 85.6612 85.1602 85.9949 85.1602Z" fill="white" stroke="#939393" stroke-width="0.439523" stroke-miterlimit="10"/>
<path d="M85.9949 84.2183C86.7195 84.2183 87.6523 84.659 88.181 84.9437C88.3626 85.0414 88.5831 84.8835 88.5423 84.6777C88.3116 83.4784 87.2767 82.5742 86.0316 82.5742C84.8518 82.5742 83.8619 83.3869 83.5659 84.4927C83.5067 84.7109 83.7455 84.8918 83.9353 84.7712C84.4824 84.4283 85.2029 84.2183 85.9949 84.2183Z" fill="#E4EAEF" stroke="#939393" stroke-width="0.439523" stroke-miterlimit="10"/>
<path d="M84.2109 85.3086L81.8084 86.3063L84.2109 85.3086ZM84.6559 85.9633L83.2536 87.3913L84.6559 85.9633ZM85.2927 86.377L84.2742 88.8421L85.2927 86.377ZM86.052 88.3765V85.8864V88.3765ZM86.7726 86.3458L87.7809 88.8629L86.7726 86.3458ZM87.389 85.9051L89.2914 87.8423L87.389 85.9051Z" fill="white" stroke="#939393" stroke-width="0.439523" stroke-miterlimit="10"/>
<path d="M76.0156 94.1698L71.7638 92.7148L76.0156 94.1698Z" fill="white"/>
<path d="M74.3112 90.0436C74.746 88.9441 75.7849 88.1605 77.0096 88.1168C76.4095 87.4081 75.5257 86.957 74.5337 86.957C72.7293 86.957 71.2658 88.4473 71.2658 90.2848C71.2658 92.1222 72.7293 93.6125 74.5337 93.6125C75.6318 93.6125 76.6014 93.0575 77.1954 92.2115H75.1297L74.3112 90.0436Z" fill="white" stroke="#939393" stroke-width="0.439523" stroke-miterlimit="10"/>
<path d="M77.0076 88.1152C75.7829 88.1589 74.7439 88.9425 74.3092 90.042L75.1277 92.2079H77.1934C77.573 91.6633 77.7996 91.0002 77.7996 90.2811C77.8016 89.4559 77.5016 88.6993 77.0076 88.1152Z" fill="#E4EAEF" stroke="#939393" stroke-width="0.439523" stroke-miterlimit="10"/>
<path d="M75.8748 94.1288L71.6148 93.0937V92.5117L75.8748 93.5468V94.1288Z" fill="white" stroke="#939393" stroke-width="0.439523" stroke-miterlimit="10"/>
<path d="M74.3112 91.5945C74.9726 91.5945 75.5094 91.0478 75.5094 90.3744C75.5094 89.7009 74.9726 89.1543 74.3112 89.1543C73.6499 89.1543 73.113 89.7009 73.113 90.3744C73.111 91.0478 73.6499 91.5945 74.3112 91.5945Z" fill="white" stroke="#939393" stroke-width="0.439523" stroke-miterlimit="10"/>
<path d="M74.3112 91.0145C74.6582 91.0145 74.9378 90.7297 74.9378 90.3764C74.9378 90.023 74.6582 89.7383 74.3112 89.7383C73.9642 89.7383 73.6846 90.023 73.6846 90.3764C73.6846 90.7297 73.9642 91.0145 74.3112 91.0145Z" fill="white" stroke="#939393" stroke-width="0.439523" stroke-miterlimit="10"/>
<path d="M71.8598 93.6895L73.111 93.9867" stroke="#939393" stroke-width="0.439523" stroke-miterlimit="10"/>
<path d="M77.9118 98.8223L77.4301 99.4333" stroke="#939393" stroke-width="0.439523" stroke-miterlimit="10"/>
<line x1="68.2387" y1="101.351" x2="95.3863" y2="101.351" stroke="#939393" stroke-width="0.439523"/>
</g>
</g>
<rect x="165.061" y="79.4902" width="55.4817" height="32.3386" rx="3.84983" transform="rotate(90 165.061 79.4902)" fill="#F2F2F2" stroke="#979797" stroke-width="0.4895"/>
<rect x="163.545" y="81.0176" width="52.4277" height="29.3069" rx="3.84983" transform="rotate(90 163.545 81.0176)" fill="white" stroke="#979797" stroke-width="0.4895"/>
<g clip-path="url(#clip3_460_7498)">
<path d="M149.261 95.2139C153.195 95.2139 156.384 98.4453 156.384 102.433C156.384 103.277 156.24 104.086 155.977 104.84C155.983 104.848 155.987 104.859 155.994 104.87C156.011 104.885 156.082 104.966 156.11 104.994C156.244 105.13 156.392 105.256 156.531 105.389C156.567 105.423 156.599 105.459 156.632 105.496C157.014 104.552 157.226 103.518 157.226 102.435C157.229 97.9733 153.661 94.3574 149.261 94.3574C144.861 94.3574 141.296 97.9733 141.296 102.433C141.296 103.695 141.583 104.889 142.093 105.955C142.192 105.632 142.398 105.367 142.702 105.244C142.341 104.381 142.141 103.43 142.141 102.433C142.139 98.4453 145.327 95.2139 149.261 95.2139Z" fill="white" stroke="#939393" stroke-width="0.439523" stroke-miterlimit="10"/>
<path d="M152.9 113.006H148.41V114.685H152.9V113.006Z" fill="#E4EAEF" stroke="#939393" stroke-width="0.439523" stroke-miterlimit="10"/>
<path d="M143.462 103.217H141.739V110.263H143.462V103.217Z" fill="white" stroke="#939393" stroke-width="0.439523" stroke-miterlimit="10"/>
<path d="M141.699 109.381C140.984 109.381 140.407 108.796 140.407 108.072V105.413C140.407 104.689 140.984 104.104 141.699 104.104V109.381Z" fill="white" stroke="#939393" stroke-width="0.439523" stroke-miterlimit="10"/>
<path d="M156.792 104.104C157.507 104.104 158.084 104.689 158.084 105.413V108.072C158.084 108.796 157.507 109.381 156.792 109.381V104.104Z" fill="white" stroke="#939393" stroke-width="0.439523" stroke-miterlimit="10"/>
<path d="M156.763 103.217H155.039V110.263H156.763V103.217Z" fill="white" stroke="#939393" stroke-width="0.439523" stroke-miterlimit="10"/>
<path d="M157.439 109.211C157.439 111.75 155.408 113.811 152.9 113.811" stroke="#939393" stroke-width="0.439523" stroke-miterlimit="10"/>
</g>
<path d="M158.251 90.4331C158.251 91.5669 157.34 92.483 156.218 92.483C155.097 92.483 154.185 91.5669 154.185 90.4331C154.185 89.2993 155.097 88.3832 156.218 88.3832C157.34 88.3832 158.251 89.2993 158.251 90.4331Z" fill="white" stroke="#939393" stroke-width="0.481229"/>
<rect x="135.754" y="122.756" width="26.2751" height="9.16212" rx="1.92491" fill="black" fill-opacity="0.05"/>
<rect x="138.28" y="125.301" width="9.09523" height="1.52701" fill="#B3BDC4"/>
<rect x="150.913" y="125.301" width="9.09523" height="1.52701" fill="#B3BDC4"/>
<rect x="138.28" y="128.355" width="9.09523" height="1.52703" fill="#B3BDC4"/>
<rect x="150.913" y="128.355" width="9.09523" height="1.52703" fill="#B3BDC4"/>
<g clip-path="url(#clip4_460_7498)">
<path d="M136.712 59.0667C138.368 64.3868 138.35 70.2108 135.626 73.1975C132.884 76.2215 127.436 76.4081 121.712 77.2108C115.988 78.0135 110.007 79.4695 106.05 76.9308C102.093 74.3921 100.197 67.9148 101.761 63.0801C103.326 58.2454 108.332 55.0347 113.338 52.16C118.307 49.2667 123.313 46.6907 127.473 47.8107C131.651 48.9307 135.019 53.728 136.712 59.0667Z" fill="#F2F2F2"/>
<path d="M122.504 72.0403H116.08L117.626 66.7949H120.976L122.504 72.0403Z" fill="white" stroke="#939393" stroke-width="0.481229" stroke-miterlimit="10"/>
<path d="M129.497 67.2608H109.087C106.731 67.2608 104.835 65.3194 104.835 62.9487C104.835 60.5594 106.749 58.6367 109.087 58.6367H129.497C131.853 58.6367 133.749 60.5781 133.749 62.9487C133.767 65.3381 131.853 67.2608 129.497 67.2608Z" fill="white" stroke="#939393" stroke-width="0.481229" stroke-miterlimit="10"/>
<path d="M119.301 65.2266C120.541 65.2266 121.546 64.207 121.546 62.9492C121.546 61.6915 120.541 60.6719 119.301 60.6719C118.061 60.6719 117.056 61.6915 117.056 62.9492C117.056 64.207 118.061 65.2266 119.301 65.2266Z" fill="#E4EAEF" stroke="#939393" stroke-width="0.481229" stroke-miterlimit="10"/>
</g>
<defs>
<filter id="filter0_dd_460_7498" x="54.0177" y="41.7949" width="32.2258" height="5.2873" filterUnits="userSpaceOnUse" color-interpolation-filters="sRGB">
<feFlood flood-opacity="0" result="BackgroundImageFix"/>
<feColorMatrix in="SourceAlpha" type="matrix" values="0 0 0 0 0 0 0 0 0 0 0 0 0 0 0 0 0 0 127 0" result="hardAlpha"/>
<feOffset dy="0.278417"/>
<feGaussianBlur stdDeviation="0.139208"/>
<feColorMatrix type="matrix" values="0 0 0 0 0 0 0 0 0 0 0 0 0 0 0 0 0 0 0.03 0"/>
<feBlend mode="normal" in2="BackgroundImageFix" result="effect1_dropShadow_460_7498"/>
<feColorMatrix in="SourceAlpha" type="matrix" values="0 0 0 0 0 0 0 0 0 0 0 0 0 0 0 0 0 0 127 0" result="hardAlpha"/>
<feOffset dy="0.139208"/>
<feGaussianBlur stdDeviation="0.0696041"/>
<feColorMatrix type="matrix" values="0 0 0 0 0 0 0 0 0 0 0 0 0 0 0 0 0 0 0.04 0"/>
<feBlend mode="normal" in2="effect1_dropShadow_460_7498" result="effect2_dropShadow_460_7498"/>
<feBlend mode="normal" in="SourceGraphic" in2="effect2_dropShadow_460_7498" result="shape"/>
</filter>
<clipPath id="clip0_460_7498">
<rect width="17.8879" height="20.5399" fill="white" transform="translate(110.222 55.2109)"/>
</clipPath>
<clipPath id="clip1_460_7498">
<rect width="38.9864" height="28.4758" fill="white" transform="translate(60.6864 79.9531)"/>
</clipPath>
<clipPath id="clip2_460_7498">
<rect width="38.9925" height="25.9774" fill="white" transform="translate(60.6864 79.9531)"/>
</clipPath>
<clipPath id="clip3_460_7498">
<rect width="18.6958" height="21.8873" fill="white" transform="translate(140.302 93.2324)"/>
</clipPath>
<clipPath id="clip4_460_7498">
<rect width="38.9074" height="30.8375" fill="white" transform="translate(98.9272 47.5293)"/>
</clipPath>
</defs>
</svg>
