<svg width="55" height="46" viewBox="0 0 55 46" fill="none" xmlns="http://www.w3.org/2000/svg">
<path d="M47.0373 0.697147C40.8071 -1.93787 30.9932 3.49685 22.7782 7.01019C14.5632 10.4686 7.94705 12.0057 3.92225 16.8915C-0.047417 21.7223 -1.42578 29.9018 1.77201 35.0072C4.9698 40.0576 12.6886 42.0339 20.5177 43.9003C28.3467 45.7119 36.2861 47.4137 42.6265 44.1748C48.967 40.9908 53.7085 32.9211 54.7561 23.5339C55.8587 14.0918 53.2123 3.38705 47.0373 0.697147Z" fill="#F8F9F7"/>
<path fill-rule="evenodd" clip-rule="evenodd" d="M18.1308 14.1308C20.6157 11.646 23.9859 10.25 27.5 10.25C31.0141 10.25 34.3843 11.646 36.8692 14.1308C39.354 16.6157 40.75 19.9859 40.75 23.5C40.75 27.0141 39.354 30.3843 36.8692 32.8692C34.3843 35.354 31.0141 36.75 27.5 36.75C23.9859 36.75 20.6157 35.354 18.1308 32.8692C15.646 30.3843 14.25 27.0141 14.25 23.5C14.25 19.9859 15.646 16.6157 18.1308 14.1308ZM27.5 11.75C24.3837 11.75 21.395 12.9879 19.1915 15.1915C16.9879 17.395 15.75 20.3837 15.75 23.5C15.75 26.6163 16.9879 29.605 19.1915 31.8085C21.395 34.0121 24.3837 35.25 27.5 35.25C30.6163 35.25 33.605 34.0121 35.8085 31.8085C38.0121 29.605 39.25 26.6163 39.25 23.5C39.25 20.3837 38.0121 17.395 35.8085 15.1915C33.605 12.9879 30.6163 11.75 27.5 11.75ZM26.4355 17.1136C26.6274 16.9854 26.8529 16.917 27.0837 16.917C27.3931 16.917 27.6898 17.0399 27.9086 17.2587C28.1274 17.4775 28.2503 17.7742 28.2503 18.0837C28.2503 18.3144 28.1819 18.54 28.0537 18.7318C27.9255 18.9237 27.7433 19.0732 27.5301 19.1615C27.3169 19.2498 27.0824 19.2729 26.8561 19.2279C26.6297 19.1829 26.4219 19.0718 26.2587 18.9086C26.0955 18.7455 25.9844 18.5376 25.9394 18.3113C25.8944 18.0849 25.9175 17.8504 26.0058 17.6372C26.0941 17.424 26.2436 17.2418 26.4355 17.1136ZM27.2112 18.3916C27.2313 18.3833 27.2506 18.373 27.2688 18.3608C27.3054 18.3364 27.3366 18.3051 27.3608 18.2688C27.3729 18.2508 27.3832 18.2315 27.3916 18.2112C27.4085 18.1706 27.417 18.1272 27.417 18.0837C27.417 18.0619 27.4149 18.0401 27.4106 18.0186C27.3977 17.954 27.366 17.8946 27.3194 17.848C27.2727 17.8013 27.2134 17.7696 27.1487 17.7567C27.1272 17.7524 27.1054 17.7503 27.0837 17.7503C27.0401 17.7503 26.9967 17.7589 26.9561 17.7757C26.9358 17.7841 26.9165 17.7944 26.8985 17.8065C26.8622 17.8307 26.8309 17.8619 26.8065 17.8985C26.7943 17.9167 26.784 17.936 26.7757 17.9561C26.759 17.9963 26.7503 18.0397 26.7503 18.0837C26.7503 18.1057 26.7525 18.1274 26.7567 18.1487C26.7695 18.2129 26.801 18.2724 26.848 18.3194C26.8949 18.3663 26.9544 18.3978 27.0186 18.4106C27.0399 18.4148 27.0617 18.417 27.0837 18.417C27.1276 18.417 27.171 18.4083 27.2112 18.3916ZM25.0835 21.8335C25.0835 21.4193 25.4193 21.0835 25.8335 21.0835H26.6668C27.0868 21.0835 27.4895 21.2503 27.7864 21.5472C28.0833 21.8442 28.2502 22.2469 28.2502 22.6668V26.8335C28.2502 27.0766 28.3467 27.3098 28.5186 27.4817C28.6906 27.6536 28.9237 27.7502 29.1668 27.7502H30.0002C30.4144 27.7502 30.7502 28.0859 30.7502 28.5002C30.7502 28.9144 30.4144 29.2502 30.0002 29.2502H29.1668C28.5259 29.2502 27.9112 28.9956 27.458 28.5423C27.0048 28.0891 26.7502 27.4744 26.7502 26.8335V22.6668C26.7502 22.6447 26.7414 22.6235 26.7258 22.6079C26.7101 22.5923 26.6889 22.5835 26.6668 22.5835H25.8335C25.4193 22.5835 25.0835 22.2477 25.0835 21.8335Z" fill="black"/>
<path d="M28 18C28 18.5523 27.5523 19 27 19C26.4477 19 26 18.5523 26 18C26 17.4477 26.4477 17 27 17C27.5523 17 28 17.4477 28 18Z" fill="black"/>
</svg>
