<svg width="48" height="48" viewBox="0 0 48 48" fill="none" xmlns="http://www.w3.org/2000/svg">
<circle cx="24" cy="24" r="23.25" stroke="black" stroke-width="1.5"/>
<g clip-path="url(#clip0_103_3082)">
<path d="M33.75 27.75V30.75" stroke="black" stroke-width="1.5" stroke-linecap="round" stroke-linejoin="round"/>
<path d="M14.25 30.75V20.25C14.25 19.8522 14.408 19.4706 14.6893 19.1893C14.9706 18.908 15.3522 18.75 15.75 18.75H19.5" stroke="black" stroke-width="1.5" stroke-linecap="round" stroke-linejoin="round"/>
<path d="M26.584 30.75C26.3237 31.2056 25.9476 31.5842 25.4938 31.8476C25.04 32.111 24.5247 32.2497 24 32.2497C23.4753 32.2497 22.96 32.111 22.5062 31.8476C22.0524 31.5842 21.6763 31.2056 21.416 30.75H12.75V32.25C12.75 33.0456 13.0661 33.8087 13.6287 34.3713C14.1913 34.9339 14.9543 35.25 15.75 35.25H32.25C33.0456 35.25 33.8087 34.9339 34.3713 34.3713C34.9339 33.8087 35.25 33.0456 35.25 32.25V30.75H26.584Z" stroke="black" stroke-width="1.5" stroke-linecap="round" stroke-linejoin="round"/>
<path d="M30.6648 13.0164C29.4882 12.6648 28.2349 12.6612 27.0563 13.006C25.8776 13.3508 24.824 14.0293 24.0224 14.9597C23.2208 15.89 22.7056 17.0324 22.5389 18.2491C22.3721 19.4658 22.561 20.7047 23.0828 21.8164L21.0198 26.0054L25.7418 24.7154C26.5262 25.1548 27.3947 25.4236 28.2902 25.5042C29.1857 25.5849 30.0882 25.4755 30.9385 25.1833C31.7889 24.8912 32.5679 24.4227 33.2248 23.8087C33.8816 23.1947 34.4014 22.4488 34.7501 21.6201C35.0988 20.7913 35.2686 19.8983 35.2484 18.9993C35.2282 18.1004 35.0184 17.2159 34.6327 16.4037C34.2471 15.5914 33.6943 14.8697 33.0105 14.2859C32.3268 13.702 31.5274 13.269 30.6648 13.0154V13.0164Z" stroke="black" stroke-width="1.5" stroke-linecap="round" stroke-linejoin="round"/>
<path d="M28.8818 21.7871C28.6747 21.7871 28.5068 21.6192 28.5068 21.4121C28.5068 21.205 28.6747 21.0371 28.8818 21.0371" stroke="black" stroke-width="1.5"/>
<path d="M28.8818 21.7871C29.0889 21.7871 29.2568 21.6192 29.2568 21.4121C29.2568 21.205 29.0889 21.0371 28.8818 21.0371" stroke="black" stroke-width="1.5"/>
<path d="M28.8818 18.7871V15.7871" stroke="black" stroke-width="1.5" stroke-miterlimit="10" stroke-linecap="round"/>
</g>
<defs>
<clipPath id="clip0_103_3082">
<rect width="24" height="24" fill="white" transform="translate(12 12)"/>
</clipPath>
</defs>
</svg>
