<svg width="340" height="220" viewBox="0 0 340 220" fill="none" xmlns="http://www.w3.org/2000/svg">
<g clip-path="url(#clip0_36873_77967)">
<path d="M321.49 85.5659C335.418 118.138 319.021 164.075 288.202 182.093C257.58 199.913 212.439 189.617 169.47 195.953C126.601 202.191 86.299 224.862 56.2704 215.952C26.143 206.646 6.38739 165.758 3.02893 124.87C-0.329531 83.9818 12.4129 43.1929 38.194 22.2044C63.8763 0.918914 102.597 -0.368117 134.898 1.71093C167.396 3.59197 193.375 9.1361 228.638 21.5114C263.803 33.7877 307.661 52.7961 321.49 85.5659Z" fill="#F2F2F2"/>
<path d="M145.2 112.7H148.1" stroke="#939393" stroke-miterlimit="10"/>
<path d="M129.3 106.2C155.6 95.2 310.7 117.9 339.4 124.1" stroke="#939393" stroke-miterlimit="10"/>
<path d="M141.6 160.9L165.5 162.4C171 162.8 176.4 162.6 181.9 161.8C195.5 160 220 156.1 236.4 153.3C270.6 147.6 301.1 157.3 301.1 157.3" stroke="#939393" stroke-miterlimit="10"/>
<path d="M98.6001 143C104.5 144 110 145.1 115.4 146" stroke="#939393" stroke-miterlimit="10"/>
<path d="M28.6001 144.1L39.6001 142.2C42.6001 141.7 45.6001 141.2 48.6001 140.9" stroke="#939393" stroke-miterlimit="10"/>
<path d="M135.4 157.9C135.4 160.1 128.2 161.9 119.3 161.9C110.4 161.9 103.7 160 103.7 157.8C103.7 155.6 110.4 153.9 119.3 153.9C128.2 153.9 135.4 155.7 135.4 157.9Z" stroke="#939393" stroke-miterlimit="10"/>
<path d="M135.4 157.9C135.4 160.1 128.2 161.9 119.3 161.9C110.4 161.9 103.7 160 103.7 157.8C103.7 155.6 110.4 153.9 119.3 153.9C128.2 153.9 135.4 155.7 135.4 157.9Z" stroke="#939393" stroke-miterlimit="10"/>
<path d="M106.3 160.2C107.8 159.6 109.8 159.2 112.3 158.9C114.4 158.6 116.8 158.5 119.3 158.5C122.1 158.5 124.7 158.7 126.9 159C129.2 159.3 131.2 159.8 132.6 160.3" stroke="#939393" stroke-miterlimit="10"/>
<path d="M103.4 157.4C90.1001 167.3 81.7001 165.4 78.6001 167.8" stroke="#939393" stroke-miterlimit="10"/>
<path d="M134.8 156.9C153.1 168.4 160.4 169 164.3 168.6" stroke="#939393" stroke-miterlimit="10"/>
<path d="M225.394 166.885C229.403 166.46 232.568 165.313 232.463 164.325C232.358 163.336 229.023 162.88 225.014 163.306C221.004 163.731 217.839 164.878 217.944 165.866C218.049 166.855 221.385 167.311 225.394 166.885Z" stroke="#939393" stroke-miterlimit="10"/>
<path d="M218.3 165.4C212.8 170.5 208.7 170.2 207.4 171.4" stroke="#939393" stroke-miterlimit="10"/>
<path d="M232.4 164C241.2 168.3 244.2 168.1 245.9 167.7" stroke="#939393" stroke-miterlimit="10"/>
<path d="M81.9898 135.696C82.0226 134.26 77.3495 132.989 71.5523 132.857C65.755 132.725 61.0289 133.781 60.9961 135.217C60.9633 136.652 65.6364 137.923 71.4336 138.055C77.2309 138.188 81.957 137.131 81.9898 135.696Z" stroke="#939393" stroke-miterlimit="10"/>
<path d="M61.5999 134.4C52.7999 140.6 47.5999 140.9 44.8999 141.3" stroke="#939393" stroke-miterlimit="10"/>
<path d="M81.8999 135.2C93.5999 142.9 95.9999 142.3 99.8999 143.2" stroke="#939393" stroke-miterlimit="10"/>
<path d="M18.1001 121.3C49.8001 115.3 86.1001 113.5 125.3 113" stroke="#939393" stroke-miterlimit="10" stroke-linecap="round" stroke-linejoin="round"/>
<path d="M208.9 43.1C208.9 47.1 205.6 50.4 201.6 50.4" stroke="#939393" stroke-miterlimit="10"/>
<path d="M216.2 50.3C212.2 50.3 208.9 47 208.9 43" stroke="#939393" stroke-miterlimit="10"/>
<path d="M201.7 50.3C205.7 50.3 209 53.6 209 57.6" stroke="#939393" stroke-miterlimit="10"/>
<path d="M208.9 57.6C208.9 53.6 212.2 50.3 216.2 50.3" stroke="#939393" stroke-miterlimit="10"/>
<path d="M141.7 51C141.7 53.8 139.5 56 136.7 56" stroke="#939393" stroke-miterlimit="10"/>
<path d="M146.7 56C143.9 56 141.7 53.8 141.7 51" stroke="#939393" stroke-miterlimit="10"/>
<path d="M136.7 56C139.5 56 141.7 58.2 141.7 61" stroke="#939393" stroke-miterlimit="10"/>
<path d="M141.7 61C141.7 58.2 143.9 56 146.7 56" stroke="#939393" stroke-miterlimit="10"/>
<path d="M91.2 32.5C91.2 35.3 89 37.5 86.2 37.5" stroke="#939393" stroke-miterlimit="10"/>
<path d="M96.2 37.5C93.4 37.5 91.2 35.3 91.2 32.5" stroke="#939393" stroke-miterlimit="10"/>
<path d="M86.2 37.5C89 37.5 91.2 39.7 91.2 42.5" stroke="#939393" stroke-miterlimit="10"/>
<path d="M91.2 42.5C91.2 39.7 93.4 37.5 96.2 37.5" stroke="#939393" stroke-miterlimit="10"/>
<path d="M48.5 55.8C48.5 58.6 46.3 60.8 43.5 60.8" stroke="#939393" stroke-miterlimit="10"/>
<path d="M53.5 60.8C50.7 60.8 48.5 58.6 48.5 55.8" stroke="#939393" stroke-miterlimit="10"/>
<path d="M43.5 60.8C46.3 60.8 48.5 63 48.5 65.8" stroke="#939393" stroke-miterlimit="10"/>
<path d="M48.5 65.8C48.5 63 50.7 60.8 53.5 60.8" stroke="#939393" stroke-miterlimit="10"/>
<path d="M72.8999 94.6C72.8999 97.4 70.6999 99.6 67.8999 99.6" stroke="#939393" stroke-miterlimit="10"/>
<path d="M77.8999 99.6C75.0999 99.6 72.8999 97.4 72.8999 94.6" stroke="#939393" stroke-miterlimit="10"/>
<path d="M67.8999 99.6C70.6999 99.6 72.8999 101.8 72.8999 104.6" stroke="#939393" stroke-miterlimit="10"/>
<path d="M72.8999 104.7C72.8999 101.9 75.0999 99.7 77.8999 99.7" stroke="#939393" stroke-miterlimit="10"/>
<path d="M286.4 77.3C286.4 80.1 284.2 82.3 281.4 82.3" stroke="#939393" stroke-miterlimit="10"/>
<path d="M291.4 82.4C288.6 82.4 286.4 80.2 286.4 77.4" stroke="#939393" stroke-miterlimit="10"/>
<path d="M281.3 82.4C284.1 82.4 286.3 84.6 286.3 87.4" stroke="#939393" stroke-miterlimit="10"/>
<path d="M286.4 87.4C286.4 84.6 288.6 82.4 291.4 82.4" stroke="#939393" stroke-miterlimit="10"/>
<path d="M72.5 128.9L71.8 122.3L100.7 119.2C102.6 119 104.5 119.4 106.2 120.5L112.7 124.6L72.5 128.9Z" fill="white" stroke="#939393" stroke-miterlimit="10"/>
<path d="M69 129.3L68.3 122.7L72.1 124.2L72.4 127L69 129.3Z" fill="#E4EAEF" stroke="#939393" stroke-miterlimit="10"/>
<path d="M102.4 113.2L106.6 100L117.8 100.5L111.7 119.2L102.4 113.2Z" fill="#E4EAEF" stroke="#939393" stroke-miterlimit="10"/>
<path d="M152.6 111L158.6 119.4" stroke="#939393" stroke-miterlimit="10"/>
<path d="M174.7 117.9L115.1 98.6L108.3 119.4L176 143.2L181.2 140.5L179.5 132.3L174.8 128L176.3 120.9L174.7 117.9Z" fill="white" stroke="#939393" stroke-miterlimit="10"/>
<path d="M84.4001 107.8L88.9001 94L105.5 103.6L103.5 109.7L84.4001 107.8Z" fill="#E4EAEF" stroke="#939393" stroke-miterlimit="10"/>
<path d="M135.809 116.927L139.2 106.463L129.973 103.472L126.581 113.937L135.809 116.927Z" fill="#E4EAEF" stroke="#939393" stroke-miterlimit="10"/>
<path d="M113.5 139.2C111 146.9 104.7 145.1 96.9 142.6C89.1 140.1 83 137.8 85.5 130.1C88 122.4 96.3 118.2 104 120.7C111.7 123.2 116 131.5 113.5 139.2Z" fill="#E4EAEF" stroke="#939393" stroke-miterlimit="10"/>
<path d="M99.6 141C103.135 141 106 138.135 106 134.6C106 131.065 103.135 128.2 99.6 128.2C96.0653 128.2 93.2 131.065 93.2 134.6C93.2 138.135 96.0653 141 99.6 141Z" fill="white" stroke="#939393" stroke-miterlimit="10"/>
<path d="M168.7 121.5L170.3 116.5L174.7 117.9L176.3 120.9C176 121.8 176.2 125.9 175.3 125.6L169.8 123.5C168.9 123.3 168.4 122.4 168.7 121.5Z" fill="#E4EAEF" stroke="#939393" stroke-miterlimit="10"/>
<path d="M93.3001 106.2L88.9001 120L149.6 139.7C153.6 141 158 140.9 161.9 139.4L177.7 133.5L93.3001 106.2Z" fill="white" stroke="#939393" stroke-miterlimit="10"/>
<path d="M81.3 117.5L85.8 103.7L92.1 110L90.2 116.1L81.3 117.5Z" fill="#E4EAEF" stroke="#939393" stroke-miterlimit="10"/>
<path d="M147.7 129.5L156.2 126.7" stroke="#939393" stroke-miterlimit="10"/>
<path d="M93.9001 123.6L92.9001 121.6" stroke="#939393" stroke-miterlimit="10"/>
<path d="M104.7 144.8L103.5 142.4" stroke="#939393" stroke-miterlimit="10"/>
<path d="M97 142.6L97.6 140.7" stroke="#939393" stroke-miterlimit="10"/>
<path d="M91.6001 138.7L89.4001 139.8" stroke="#939393" stroke-miterlimit="10"/>
<path d="M112.6 128L111.1 128.7" stroke="#939393" stroke-miterlimit="10"/>
<path d="M88.2001 130.9L85.6001 130.1" stroke="#939393" stroke-miterlimit="10"/>
<path d="M113.5 139.2L111.6 138.5" stroke="#939393" stroke-miterlimit="10"/>
<path d="M182.6 122.2L185.9 120.7L182.6 119.9V122.2Z" fill="white" stroke="#939393" stroke-miterlimit="10"/>
<path d="M254.1 96.3C252.3 92.3 234.5 95.4 227.2 96.8C225.3 97.2 223.4 97.8 221.5 98.6L182.6 115.6V125.8L186 131.1L176.3 139.4L182.6 139.5L230.3 118.7C232.1 117.9 233.8 116.9 235.5 115.8C241.4 111.3 255.8 100.3 254.1 96.3Z" fill="white" stroke="#939393" stroke-miterlimit="10"/>
<path d="M189.2 118.3L187.1 113.5L182.5 115.5V123L188.3 120.5C189.2 120.1 189.6 119.1 189.2 118.3Z" fill="#E4EAEF" stroke="#939393" stroke-miterlimit="10"/>
<path d="M215.3 109.7L212.4 103C212.3 102.9 212.4 102.7 212.5 102.7L221.2 98.9C221.3 98.8 221.5 98.9 221.5 99L224.4 105.7C224.5 105.8 224.4 106 224.3 106L215.6 109.8C215.5 109.9 215.4 109.9 215.3 109.7Z" fill="#E4EAEF" stroke="#939393" stroke-miterlimit="10"/>
<path d="M215.3 109.7L212.4 103C212.3 102.9 212.4 102.7 212.5 102.7L214.4 93.2C214.5 93.1 214.7 93.2 214.7 93.3L217.6 100C217.7 100.1 217.6 100.3 217.5 100.3L215.6 109.8C215.5 109.9 215.4 109.9 215.3 109.7Z" fill="white" stroke="#939393" stroke-miterlimit="10"/>
<path d="M227 136C226.6 135.3 226.4 134.6 226.4 133.7C226.4 131.2 228.4 129.2 230.9 129.2C233.4 129.2 235.4 131.2 235.4 133.7C235.4 134.7 235.1 135.7 234.5 136.4" fill="#E4EAEF"/>
<path d="M227 136C226.6 135.3 226.4 134.6 226.4 133.7C226.4 131.2 228.4 129.2 230.9 129.2C233.4 129.2 235.4 131.2 235.4 133.7C235.4 134.7 235.1 135.7 234.5 136.4" stroke="#939393" stroke-miterlimit="10"/>
<path d="M223.4 121.6L228.5 129.8" stroke="#939393" stroke-miterlimit="10"/>
<path d="M227 120L229.6 129.3" stroke="#939393" stroke-miterlimit="10"/>
<path d="M230.8 135C231.573 135 232.2 134.373 232.2 133.6C232.2 132.827 231.573 132.2 230.8 132.2C230.027 132.2 229.4 132.827 229.4 133.6C229.4 134.373 230.027 135 230.8 135Z" fill="white" stroke="#939393" stroke-miterlimit="10"/>
<path d="M235 133.5C236.5 133.9 237.4 134.5 237.4 135C237.3 136 234 136.6 230 136.4C226 136.2 222.8 135.2 222.8 134.2C222.8 133.6 224.1 133.1 225.9 132.9" stroke="#939393" stroke-miterlimit="10"/>
<path d="M223.2 133.8C217 137.9 212.9 137 211.5 138" stroke="#939393" stroke-miterlimit="10"/>
<path d="M237.4 134.6C245.4 140.2 248.4 140.5 250.2 140.4" stroke="#939393" stroke-miterlimit="10"/>
<path d="M107.3 142.2L109.9 140.9" stroke="#939393" stroke-miterlimit="10"/>
<path d="M91.1001 128.4L93.3001 129.3" stroke="#939393" stroke-miterlimit="10"/>
<path d="M155.6 130.6L152.1 134.1L156.1 135.8L153.4 141.3L159.4 141.4L157.7 138.1L157.8 134.1C157.8 134.1 155.9 133.6 155.7 133.3C155.5 133 155.6 130.6 155.6 130.6Z" fill="#F2F2F2"/>
<path d="M159.4 141.2L157.7 138.9L157.8 134.9C157.8 134.9 155.9 134.4 155.7 134.1C155.5 133.8 155.5 131.4 155.5 131.4L152 134.9L156 136.6L153.5 141" stroke="#939393" stroke-miterlimit="10"/>
<path d="M144.8 117.5L146.7 112L152.9 113L148 108.7L142.4 106.7L143 110.3L141.7 114.1C141.7 114.1 143.3 115.2 143.4 115.5C143.4 115.8 144.8 117.5 144.8 117.5Z" fill="#F2F2F2"/>
<path d="M141.7 106.9L143.1 110.1L141.8 113.9C141.8 113.9 143.4 115 143.5 115.3C143.6 115.6 144.8 117.4 144.8 117.4L146.7 111.9L152.9 112.9L147.3 108.9" stroke="#939393" stroke-miterlimit="10"/>
<path d="M206.5 130.3L195.4 130.8L194.9 121.6C194.9 119.2 196.9 117.2 199.3 117.2H202.3C204.7 117.2 206.7 119.2 206.7 121.6L206.5 130.3Z" fill="#E4EAEF" stroke="#939393" stroke-miterlimit="10"/>
<path d="M201.4 120.4C203.554 120.4 205.3 118.654 205.3 116.5C205.3 114.346 203.554 112.6 201.4 112.6C199.246 112.6 197.5 114.346 197.5 116.5C197.5 118.654 199.246 120.4 201.4 120.4Z" fill="white" stroke="#939393" stroke-miterlimit="10"/>
<path d="M201.4 114C200.3 114 199.3 114.7 198.9 115.7L199.6 117.6H203.1L203.8 115.7C203.5 114.7 202.5 114 201.4 114Z" fill="#E4EAEF" stroke="#939393" stroke-miterlimit="10"/>
<path d="M196.1 132.6L194.2 141.2C194.1 141.7 194 142.1 194 142.6V149.9H197.2L197.7 142C197.8 141.1 197.9 140.2 198.2 139.3L199.4 135.7C199.5 135.3 200 135.2 200.3 135.4C200.4 135.5 200.5 135.7 200.5 135.9V150.3L203.7 149.5L204.1 142.1L204.7 135.7L204.2 132.9L197.4 131.7L196.1 132.6Z" fill="white" stroke="#939393" stroke-miterlimit="10"/>
<path d="M204.5 133C206 132.3 207.4 130.7 207.4 129V126.6C207.4 125.5 207.2 124.4 206.8 123.3C206.3 121.9 205.5 120.6 204.4 119.6L204 119.2L198.9 119.1C197.5 119.1 196.2 119.9 195.7 121.1L193.5 125.9C193.1 126.7 193.1 127.6 193.5 128.4L195.3 132.1C195.3 132.1 197.4 133.1 197.5 133.2C197.6 133.3 199.9 133.2 199.9 133.2" fill="white"/>
<path d="M204.5 133C206 132.3 207.4 130.7 207.4 129V126.6C207.4 125.5 207.2 124.4 206.8 123.3C206.3 121.9 205.5 120.6 204.4 119.6L204 119.2L198.9 119.1C197.5 119.1 196.2 119.9 195.7 121.1L193.5 125.9C193.1 126.7 193.1 127.6 193.5 128.4L195.3 132.1C195.3 132.1 197.4 133.1 197.5 133.2C197.6 133.3 199.9 133.2 199.9 133.2" stroke="#939393" stroke-miterlimit="10"/>
<path d="M195.3 132.3L197.8 130.7C197.8 130.7 197.2 130.3 197 130.2C196.9 130.2 196.7 129.9 196.5 129.5C196 128.4 195.9 127.2 196.2 126.1L197 123.6" fill="white"/>
<path d="M195.3 132.3L197.8 130.7C197.8 130.7 197.2 130.3 197 130.2C196.9 130.2 196.7 129.9 196.5 129.5C196 128.4 195.9 127.2 196.2 126.1L197 123.6" stroke="#939393" stroke-miterlimit="10"/>
<path d="M197.9 130.6L200.4 130.9L200 133.3C200.9 133.7 202 133.8 203 133.5L204.4 133L203.5 130.3L204.4 129.5C205 128.9 205.3 128 205.2 127.1L204.8 123.9" stroke="#939393" stroke-miterlimit="10"/>
<path d="M203.1 130.5L200.3 131.1" stroke="#939393" stroke-miterlimit="10"/>
<path d="M202.9 124.6L202.1 125.4L201.4 124.6V123H202.9V124.6Z" fill="white" stroke="#939393" stroke-miterlimit="10"/>
<path d="M195.8 152.9H195.4C194.7 152.9 194.1 152.3 194.1 151.6V151.2C194.1 150.5 194.7 149.9 195.4 149.9H195.7C196.4 149.9 197 150.5 197 151.2V151.6C197.1 152.3 196.5 152.9 195.8 152.9Z" fill="white" stroke="#939393" stroke-miterlimit="10"/>
<path d="M203.6 153H202.6C202.1 153 201 152.5 201 152V151C201 150.4 200.9 150 201.5 150H202.5C203.1 150 205.3 151.1 205.3 151.7V152.7C205.2 153.1 204.1 153 203.6 153Z" fill="white" stroke="#939393" stroke-miterlimit="10"/>
<path d="M197.1 124.6L203.4 130.4" stroke="#939393" stroke-miterlimit="10"/>
<path d="M195.9 121.1L204.6 129.2" stroke="#939393" stroke-miterlimit="10"/>
</g>
<defs>
<clipPath id="clip0_36873_77967">
<rect width="339" height="219.2" fill="white" transform="translate(0.5)"/>
</clipPath>
</defs>
</svg>
