<svg width="42" height="13" viewBox="0 0 42 13" fill="none" xmlns="http://www.w3.org/2000/svg">
<path fill-rule="evenodd" clip-rule="evenodd" d="M39.222 11.725C38.7491 11.9106 38.2076 12.0034 37.5974 12.0034C37.2466 12.0034 36.9008 11.969 36.5602 11.9004C36.2195 11.8317 35.8928 11.7339 35.5801 11.6067C35.2674 11.4796 34.9737 11.3271 34.6991 11.1491C34.4246 10.9711 34.1805 10.7728 33.9669 10.5542L34.5695 9.5703C34.6203 9.49911 34.6864 9.43937 34.7678 9.39106C34.8491 9.34276 34.9356 9.3186 35.0271 9.3186C35.1542 9.3186 35.2915 9.37072 35.439 9.47496C35.5864 9.5792 35.7618 9.69487 35.9652 9.82199C36.1686 9.94911 36.4063 10.0648 36.6784 10.169C36.9504 10.2733 37.2771 10.3254 37.6585 10.3254C38.2432 10.3254 38.6957 10.1868 39.0161 9.90971C39.3364 9.63259 39.4966 9.23471 39.4966 8.71606C39.4966 8.42623 39.4241 8.18979 39.2792 8.00674C39.1343 7.82369 38.9424 7.66988 38.7034 7.5453C38.4644 7.42072 38.1924 7.31521 37.8873 7.22877C37.5822 7.14233 37.272 7.04827 36.9568 6.94657C36.6415 6.84488 36.3313 6.72284 36.0263 6.58047C35.7212 6.4381 35.4491 6.2525 35.2102 6.02369C34.9712 5.79488 34.7792 5.50886 34.6343 5.16564C34.4894 4.82242 34.4169 4.39911 34.4169 3.89572C34.4169 3.49403 34.497 3.1025 34.6572 2.72115C34.8174 2.33979 35.05 2.00166 35.3551 1.70674C35.6602 1.41182 36.0364 1.17538 36.4839 0.997418C36.9313 0.819452 37.4449 0.730469 38.0246 0.730469C38.6754 0.730469 39.2754 0.832164 39.8246 1.03555C40.3737 1.23894 40.8415 1.52369 41.228 1.88979L40.7169 2.85843C40.6559 2.96521 40.5911 3.04276 40.5224 3.09106C40.4538 3.13937 40.3686 3.16352 40.2669 3.16352C40.1602 3.16352 40.0445 3.12411 39.9199 3.0453C39.7953 2.96649 39.6466 2.87877 39.4737 2.78216C39.3008 2.68555 39.0987 2.59784 38.8674 2.51903C38.636 2.44021 38.3627 2.40081 38.0474 2.40081C37.7627 2.40081 37.5135 2.43513 37.3 2.50377C37.0864 2.57242 36.9072 2.66776 36.7623 2.78979C36.6174 2.91182 36.5093 3.05801 36.4381 3.22835C36.3669 3.39869 36.3313 3.58555 36.3313 3.78894C36.3313 4.04827 36.4038 4.26437 36.5487 4.43725C36.6936 4.61013 36.8856 4.75759 37.1246 4.87962C37.3635 5.00166 37.6356 5.11098 37.9407 5.20759C38.2457 5.3042 38.5585 5.40716 38.8788 5.51649C39.1991 5.62581 39.5118 5.75293 39.8169 5.89784C40.122 6.04276 40.3941 6.22581 40.633 6.44699C40.872 6.66818 41.064 6.93894 41.2089 7.25928C41.3538 7.57962 41.4263 7.9686 41.4263 8.42623C41.4263 8.92454 41.3411 9.39106 41.1707 9.82581C41.0004 10.2606 40.7513 10.6394 40.4233 10.9622C40.0953 11.2851 39.6949 11.5394 39.222 11.725ZM6.63021 10.1881V11.8813H0.170044V0.852503H2.22174V10.1881H6.63021ZM17.1255 10.2415V11.8813H10.1696V0.852503H17.1255V2.48471H12.2289V5.54318H16.0882V7.12199H12.2289V10.2415H17.1255ZM22.8233 11.8813V5.10844C22.8233 4.82369 22.8081 4.51352 22.7776 4.17793L28.536 11.5305C28.6377 11.6576 28.7433 11.7478 28.8526 11.8012C28.9619 11.8546 29.0979 11.8813 29.2606 11.8813H30.3132V0.852503H28.5055V7.55674C28.5055 7.7042 28.5106 7.86437 28.5208 8.03725C28.531 8.21013 28.5437 8.38555 28.5589 8.56352L22.7776 1.18047C22.7216 1.10928 22.6708 1.05208 22.625 1.00886C22.5793 0.965638 22.5322 0.932587 22.4839 0.909706C22.4356 0.886825 22.3797 0.87157 22.3161 0.863943C22.2526 0.856316 22.1776 0.852503 22.0911 0.852503H21.0157V11.8813H22.8233Z" fill="white"/>
</svg>
