<svg width="55" height="46" viewBox="0 0 55 46" fill="none" xmlns="http://www.w3.org/2000/svg">
<path d="M7.96274 45.3029C14.1929 47.9379 24.0068 42.5032 32.2218 38.9898C40.4368 35.5314 47.0529 33.9943 51.0777 29.1085C55.0474 24.2777 56.4258 16.0982 53.228 10.9928C50.0302 5.94239 42.3114 3.96613 34.4823 2.09967C26.6533 0.288098 18.7139 -1.41368 12.3735 1.82519C6.03304 5.00916 1.2915 13.0789 0.243944 22.4661C-0.858742 31.9082 1.7877 42.6129 7.96274 45.3029Z" fill="#F8F9F7"/>
<path d="M34.0628 34.1424L28.1782 28.2578M32.2578 24.1792L38.1424 30.0625M16.8579 30.0628L22.7425 24.1782M26.8221 28.2588L20.9375 34.1421M20.9375 12.8589L26.8221 18.7422M22.7425 22.8216L16.8579 16.937M38.1424 16.937L32.2578 22.8216M28.1782 18.7422L34.0628 12.8589M22.6924 23.5001C22.6924 24.7752 23.1989 25.998 24.1005 26.8996C25.0021 27.8012 26.225 28.3078 27.5001 28.3078C28.7752 28.3078 29.998 27.8012 30.8996 26.8996C31.8012 25.998 32.3078 24.7752 32.3078 23.5001C32.3078 22.225 31.8012 21.0021 30.8996 20.1005C29.998 19.1989 28.7752 18.6924 27.5001 18.6924C26.225 18.6924 25.0021 19.1989 24.1005 20.1005C23.1989 21.0021 22.6924 22.225 22.6924 23.5001ZM15 23.5C15 26.8152 16.317 29.9946 18.6612 32.3388C21.0054 34.683 24.1848 36 27.5 36C30.8152 36 33.9946 34.683 36.3388 32.3388C38.683 29.9946 40 26.8152 40 23.5C40 20.1848 38.683 17.0054 36.3388 14.6612C33.9946 12.317 30.8152 11 27.5 11C24.1848 11 21.0054 12.317 18.6612 14.6612C16.317 17.0054 15 20.1848 15 23.5Z" stroke="black" stroke-width="1.5" stroke-linecap="round" stroke-linejoin="round"/>
</svg>
