<svg width="10" height="11" viewBox="0 0 10 11" fill="none" xmlns="http://www.w3.org/2000/svg">
  <path fill-rule="evenodd" clip-rule="evenodd"
        d="M3.31703 2.42125C2.82481 1.92903 2.02675 1.92903 1.53453 2.42125C1.04231 2.91347 1.04231 3.71153 1.53453 4.20375L3.15498 5.8242C3.64721 6.31642 4.44526 6.31642 4.93748 5.8242C5.16122 5.60046 5.52397 5.60046 5.74771 5.8242C5.97145 6.04794 5.97145 6.41069 5.74771 6.63443C4.80801 7.57413 3.28446 7.57413 2.34476 6.63443L0.724305 5.01397C-0.215394 4.07428 -0.215393 2.55072 0.724305 1.61102C1.664 0.671325 3.18756 0.671325 4.12726 1.61102L4.5425 2.02627C4.76624 2.25 4.76624 2.61275 4.5425 2.83649C4.31876 3.06023 3.95601 3.06023 3.73227 2.83649L3.31703 2.42125Z"
        fill="#939393" />
  <path fill-rule="evenodd" clip-rule="evenodd"
        d="M5.90975 8.57897C6.40198 9.07119 7.20003 9.07119 7.69225 8.57897C8.18448 8.08675 8.18448 7.2887 7.69225 6.79647L6.0718 5.17602C5.57958 4.6838 4.78153 4.6838 4.2893 5.17602C4.06556 5.39976 3.70281 5.39976 3.47908 5.17602C3.25534 4.95228 3.25534 4.58953 3.47908 4.36579C4.41877 3.42609 5.94233 3.42609 6.88203 4.36579L8.50248 5.98625C9.44218 6.92595 9.44218 8.4495 8.50248 9.3892C7.56278 10.3289 6.03923 10.3289 5.09953 9.3892L4.68429 8.97396C4.46055 8.75022 4.46055 8.38747 4.68429 8.16373C4.90803 7.93999 5.27078 7.93999 5.49451 8.16373L5.90975 8.57897Z"
        fill="#939393" />
</svg>
