<svg width="12" height="12" viewBox="0 0 12 12" fill="none" xmlns="http://www.w3.org/2000/svg">
<g>
<path fill-rule="evenodd" clip-rule="evenodd" d="M9.70783 3.45994C8.50429 1.70256 6.23378 1.02926 4.26678 1.84644C4.07552 1.9259 3.85606 1.83527 3.77661 1.64401C3.69715 1.45275 3.78778 1.23329 3.97904 1.15384C6.27376 0.2005 8.92257 0.985982 10.3266 3.03616C11.5737 4.85705 11.5356 7.23284 10.3076 8.99906H11.625C11.8321 8.99906 12 9.16695 12 9.37406C12 9.58117 11.8321 9.74906 11.625 9.74906H9.55086C9.52792 9.75117 9.50482 9.75117 9.48186 9.74906H9.375C9.16789 9.74906 9 9.58117 9 9.37406V7.12406C9 6.91695 9.16789 6.74906 9.375 6.74906C9.58211 6.74906 9.75 6.91695 9.75 7.12406V8.48501C10.745 6.98061 10.7566 4.99133 9.70783 3.45994ZM2.25 4.87406V3.51167C1.25133 5.01627 1.23787 7.00835 2.28766 8.54177C3.4919 10.3008 5.76495 10.9738 7.73273 10.1539C7.92391 10.0743 8.14346 10.1647 8.22311 10.3559C8.30276 10.5471 8.21235 10.7666 8.02118 10.8463C5.7255 11.8027 3.0737 11.0176 1.6688 8.96545C0.421115 7.14297 0.460806 4.76516 1.6916 2.99906H0.375C0.167893 2.99906 0 2.83117 0 2.62406C0 2.41695 0.167893 2.24906 0.375 2.24906H2.45078C2.47287 2.24711 2.49511 2.24711 2.51722 2.24906H2.625C2.83211 2.24906 3 2.41695 3 2.62406V4.87406C3 5.08117 2.83211 5.24906 2.625 5.24906C2.41789 5.24906 2.25 5.08117 2.25 4.87406Z" fill="white"/>
</g>
</svg>
