<svg width="12" height="12" viewBox="0 -2 12 12" fill="none" xmlns="http://www.w3.org/2000/svg">
<path fill-rule="evenodd" clip-rule="evenodd" d="M4.375 3.5087C4.375 2.81934 5.04127 2.125 6.04167 2.125C7.04207 2.125 7.70833 2.81934 7.70833 3.5087V4.75H4.375V3.5087ZM3.125 4.75V3.5087C3.125 1.97931 4.51076 0.875 6.04167 0.875C7.57257 0.875 8.95833 1.97931 8.95833 3.5087V4.75H9.5C9.63807 4.75 9.75 4.86193 9.75 5V10.5C9.75 10.6381 9.63807 10.75 9.5 10.75H2.5C2.36193 10.75 2.25 10.6381 2.25 10.5V5C2.25 4.86193 2.36193 4.75 2.5 4.75H3.125Z" fill="#CCCCCC"/>
</svg>
