<svg width="24" height="24" viewBox="0 0 24 24" fill="none" xmlns="http://www.w3.org/2000/svg">
<path fill-rule="evenodd" clip-rule="evenodd" d="M19.6303 4.25C19.8748 4.25 20.073 4.44821 20.073 4.69271V5.7448C20.0732 5.75188 20.0732 5.75894 20.073 5.76598V18.4945C20.0731 18.4986 20.0732 18.5027 20.0732 18.5067C20.0731 18.5097 20.0731 18.5127 20.073 18.5157V19.5677C20.073 19.8122 19.8748 20.0104 19.6303 20.0104C19.3858 20.0104 19.1876 19.8122 19.1876 19.5677V18.8242L15.4189 17.568C14.782 18.2815 13.9588 18.8069 13.039 19.0834C12.0184 19.3903 10.928 19.3758 9.91582 19.042C8.90365 18.7082 8.01862 18.0712 7.38075 17.2174C6.79928 16.439 6.44883 15.5148 6.36638 14.5505L4.13553 13.8069V14.2551C4.13553 14.4996 3.93732 14.6978 3.69282 14.6978C3.44832 14.6978 3.25011 14.4996 3.25011 14.2551V13.2027C3.24996 13.1961 3.24996 13.1894 3.25011 13.1827V11.0778C3.24996 11.0711 3.24996 11.0644 3.25011 11.0577V10.0051C3.25011 9.76063 3.44832 9.56242 3.69282 9.56242C3.93732 9.56242 4.13553 9.76063 4.13553 10.0051V10.4536L19.1876 5.43624V4.69271C19.1876 4.44821 19.3858 4.25 19.6303 4.25ZM7.29931 14.8615C7.41637 15.5207 7.68597 16.1465 8.09008 16.6874C8.61925 17.3958 9.35346 17.9242 10.1931 18.2012C11.0328 18.4781 11.9374 18.4901 12.7841 18.2355C13.4219 18.0438 14.0036 17.7078 14.486 17.257L7.29931 14.8615ZM15.4392 16.6415C15.4226 16.6348 15.4056 16.6291 15.3885 16.6246L4.13553 12.8736V11.3869L19.1876 6.36955V17.8909L15.4392 16.6415Z" fill="black"/>
<path d="M20.073 5.7448H19.9167L19.9168 5.74855L20.073 5.7448ZM20.073 5.76598L19.9168 5.76221V5.76598H20.073ZM20.073 18.4945H19.9167L19.9168 18.4982L20.073 18.4945ZM20.0732 18.5067L20.2294 18.5073V18.5073L20.0732 18.5067ZM20.073 18.5157L19.9168 18.5119V18.5157H20.073ZM19.1876 18.8242H19.3439C19.3439 18.757 19.3008 18.6973 19.237 18.676L19.1876 18.8242ZM15.4189 17.568L15.4683 17.4198C15.4091 17.4 15.3439 17.4174 15.3023 17.4639L15.4189 17.568ZM13.039 19.0834L12.994 18.9338L13.039 19.0834ZM7.38075 17.2174L7.25557 17.3109L7.38075 17.2174ZM6.36638 14.5505L6.52206 14.5372C6.51675 14.475 6.47497 14.422 6.41579 14.4023L6.36638 14.5505ZM4.13553 13.8069L4.18494 13.6587C4.13729 13.6428 4.08492 13.6508 4.04417 13.6801C4.00343 13.7095 3.97928 13.7567 3.97928 13.8069H4.13553ZM3.25011 13.2027H3.40641L3.40632 13.1992L3.25011 13.2027ZM3.25011 13.1827L3.40636 13.1863V13.1827H3.25011ZM3.25011 11.0778H3.40641L3.40632 11.0742L3.25011 11.0778ZM3.25011 11.0577L3.40636 11.0613V11.0577H3.25011ZM4.13553 10.4536H3.97928C3.97928 10.5038 4.00343 10.551 4.04417 10.5804C4.08492 10.6097 4.13729 10.6177 4.18494 10.6018L4.13553 10.4536ZM19.1876 5.43624L19.237 5.58448C19.3008 5.56321 19.3439 5.5035 19.3439 5.43624H19.1876ZM7.29931 14.8615L7.34872 14.7132C7.29645 14.6958 7.23887 14.7072 7.19717 14.7432C7.15548 14.7792 7.13583 14.8345 7.14546 14.8888L7.29931 14.8615ZM8.09008 16.6874L8.21526 16.5939L8.09008 16.6874ZM10.1931 18.2012L10.2421 18.0528V18.0528L10.1931 18.2012ZM12.7841 18.2355L12.8291 18.3851L12.7841 18.2355ZM14.486 17.257L14.5927 17.3712C14.6329 17.3336 14.6504 17.2775 14.6386 17.2237C14.6269 17.1699 14.5877 17.1262 14.5354 17.1088L14.486 17.257ZM15.3885 16.6246L15.339 16.7731L15.3482 16.7755L15.3885 16.6246ZM15.4392 16.6415L15.3808 16.7867L15.3898 16.7897L15.4392 16.6415ZM4.13553 12.8736H3.97928C3.97928 12.9408 4.02232 13.0005 4.08612 13.0218L4.13553 12.8736ZM4.13553 11.3869L4.08612 11.2387C4.02232 11.26 3.97928 11.3197 3.97928 11.3869H4.13553ZM19.1876 6.36955H19.3439C19.3439 6.31933 19.3197 6.27217 19.279 6.2428C19.2382 6.21343 19.1859 6.20544 19.1382 6.22132L19.1876 6.36955ZM19.1876 17.8909L19.1382 18.0392C19.1859 18.055 19.2382 18.0471 19.279 18.0177C19.3197 17.9883 19.3439 17.9412 19.3439 17.8909H19.1876ZM20.2293 4.69271C20.2293 4.36191 19.9611 4.09375 19.6303 4.09375V4.40625C19.7885 4.40625 19.9168 4.5345 19.9168 4.69271H20.2293ZM20.2293 5.7448V4.69271H19.9168V5.7448H20.2293ZM20.2292 5.76974C20.2295 5.76019 20.2295 5.75062 20.2292 5.74106L19.9168 5.74855C19.9169 5.75314 19.9169 5.75769 19.9168 5.76221L20.2292 5.76974ZM20.2293 18.4945V5.76598H19.9168V18.4945H20.2293ZM20.2294 18.5073C20.2294 18.5018 20.2294 18.4963 20.2292 18.4908L19.9168 18.4982C19.9169 18.5009 19.9169 18.5035 19.9169 18.5062L20.2294 18.5073ZM20.2292 18.5195C20.2293 18.5154 20.2294 18.5113 20.2294 18.5073L19.9169 18.5061C19.9169 18.5081 19.9169 18.51 19.9168 18.5119L20.2292 18.5195ZM20.2293 19.5677V18.5157H19.9168V19.5677H20.2293ZM19.6303 20.1667C19.9611 20.1667 20.2293 19.8985 20.2293 19.5677H19.9168C19.9168 19.7259 19.7885 19.8542 19.6303 19.8542V20.1667ZM19.0314 19.5677C19.0314 19.8985 19.2995 20.1667 19.6303 20.1667V19.8542C19.4721 19.8542 19.3439 19.7259 19.3439 19.5677H19.0314ZM19.0314 18.8242V19.5677H19.3439V18.8242H19.0314ZM15.3695 17.7162L19.1382 18.9725L19.237 18.676L15.4683 17.4198L15.3695 17.7162ZM15.3023 17.4639C14.6846 18.1559 13.8862 18.6656 12.994 18.9338L13.084 19.2331C14.0315 18.9482 14.8794 18.407 15.5355 17.6721L15.3023 17.4639ZM12.994 18.9338C12.0041 19.2314 10.9465 19.2174 9.96476 18.8936L9.86689 19.1904C10.9095 19.5343 12.0326 19.5492 13.084 19.2331L12.994 18.9338ZM9.96476 18.8936C8.98303 18.5699 8.12461 17.952 7.50592 17.1238L7.25557 17.3109C7.91262 18.1904 8.82427 18.8466 9.86689 19.1904L9.96476 18.8936ZM7.50592 17.1238C6.94194 16.3689 6.60204 15.4725 6.52206 14.5372L6.2107 14.5638C6.29563 15.5571 6.65661 16.5091 7.25557 17.3109L7.50592 17.1238ZM4.08612 13.9551L6.31697 14.6987L6.41579 14.4023L4.18494 13.6587L4.08612 13.9551ZM4.29178 14.2551V13.8069H3.97928V14.2551H4.29178ZM3.69282 14.8541C4.02362 14.8541 4.29178 14.5859 4.29178 14.2551H3.97928C3.97928 14.4133 3.85103 14.5416 3.69282 14.5416V14.8541ZM3.09386 14.2551C3.09386 14.5859 3.36203 14.8541 3.69282 14.8541V14.5416C3.53462 14.5416 3.40636 14.4133 3.40636 14.2551H3.09386ZM3.09386 13.2027V14.2551H3.40636V13.2027H3.09386ZM3.09391 13.1791C3.0937 13.1882 3.0937 13.1973 3.09391 13.2063L3.40632 13.1992C3.40623 13.1949 3.40623 13.1906 3.40632 13.1863L3.09391 13.1791ZM3.09386 11.0778V13.1827H3.40636V11.0778H3.09386ZM3.09391 11.0542C3.0937 11.0632 3.0937 11.0723 3.09391 11.0814L3.40632 11.0742C3.40623 11.0699 3.40623 11.0656 3.40632 11.0613L3.09391 11.0542ZM3.09386 10.0051V11.0577H3.40636V10.0051H3.09386ZM3.69282 9.40617C3.36203 9.40617 3.09386 9.67434 3.09386 10.0051H3.40636C3.40636 9.84693 3.53462 9.71867 3.69282 9.71867V9.40617ZM4.29178 10.0051C4.29178 9.67434 4.02362 9.40617 3.69282 9.40617V9.71867C3.85103 9.71867 3.97928 9.84693 3.97928 10.0051H4.29178ZM4.29178 10.4536V10.0051H3.97928V10.4536H4.29178ZM19.1382 5.28801L4.08612 10.3054L4.18494 10.6018L19.237 5.58448L19.1382 5.28801ZM19.0314 4.69271V5.43624H19.3439V4.69271H19.0314ZM19.6303 4.09375C19.2995 4.09375 19.0314 4.36191 19.0314 4.69271H19.3439C19.3439 4.5345 19.4721 4.40625 19.6303 4.40625V4.09375ZM7.14546 14.8888C7.26677 15.5719 7.54615 16.2204 7.9649 16.781L8.21526 16.5939C7.8258 16.0726 7.56597 15.4694 7.45315 14.8342L7.14546 14.8888ZM7.9649 16.781C8.51325 17.515 9.27408 18.0626 10.1442 18.3496L10.2421 18.0528C9.43283 17.7859 8.72524 17.2766 8.21526 16.5939L7.9649 16.781ZM10.1442 18.3496C11.0143 18.6365 11.9517 18.6489 12.8291 18.3851L12.7391 18.0859C11.9231 18.3312 11.0513 18.3197 10.2421 18.0528L10.1442 18.3496ZM12.8291 18.3851C13.49 18.1864 14.0928 17.8383 14.5927 17.3712L14.3793 17.1429C13.9144 17.5773 13.3538 17.9011 12.7391 18.0859L12.8291 18.3851ZM7.24989 15.0097L14.4366 17.4053L14.5354 17.1088L7.34872 14.7132L7.24989 15.0097ZM15.3482 16.7755C15.3592 16.7785 15.3702 16.7821 15.3809 16.7864L15.4975 16.4965C15.475 16.4874 15.452 16.4798 15.4288 16.4736L15.3482 16.7755ZM4.08612 13.0218L15.3391 16.7728L15.4379 16.4763L4.18494 12.7253L4.08612 13.0218ZM3.97928 11.3869V12.8736H4.29178V11.3869H3.97928ZM19.1382 6.22132L4.08612 11.2387L4.18494 11.5351L19.237 6.51779L19.1382 6.22132ZM19.3439 17.8909V6.36955H19.0314V17.8909H19.3439ZM15.3898 16.7897L19.1382 18.0392L19.237 17.7427L15.4886 16.4932L15.3898 16.7897Z" fill="black"/>
</svg>
