<svg width="24" height="24" viewBox="0 0 24 24" fill="none" xmlns="http://www.w3.org/2000/svg">
<path fill-rule="evenodd" clip-rule="evenodd" d="M6.7843 9.85742C6.34007 9.85742 5.97995 10.2175 5.97995 10.6618C5.97995 11.106 6.34007 11.4661 6.7843 11.4661C7.22853 11.4661 7.58865 11.106 7.58865 10.6618C7.58865 10.2175 7.22853 9.85742 6.7843 9.85742ZM4.97995 10.6618C4.97995 9.66526 5.78778 8.85742 6.7843 8.85742C7.78081 8.85742 8.58865 9.66526 8.58865 10.6618C8.58865 11.6583 7.78081 12.4661 6.7843 12.4661C5.78778 12.4661 4.97995 11.6583 4.97995 10.6618Z" fill="black"/>
<path fill-rule="evenodd" clip-rule="evenodd" d="M12.0017 9.85742C11.5575 9.85742 11.1973 10.2175 11.1973 10.6618C11.1973 11.106 11.5575 11.4661 12.0017 11.4661C12.4459 11.4661 12.806 11.106 12.806 10.6618C12.806 10.2175 12.4459 9.85742 12.0017 9.85742ZM10.1973 10.6618C10.1973 9.66526 11.0052 8.85742 12.0017 8.85742C12.9982 8.85742 13.806 9.66526 13.806 10.6618C13.806 11.6583 12.9982 12.4661 12.0017 12.4661C11.0052 12.4661 10.1973 11.6583 10.1973 10.6618Z" fill="black"/>
<path fill-rule="evenodd" clip-rule="evenodd" d="M17.2191 9.85742C16.7749 9.85742 16.4147 10.2175 16.4147 10.6618C16.4147 11.106 16.7749 11.4661 17.2191 11.4661C17.6633 11.4661 18.0234 11.106 18.0234 10.6618C18.0234 10.2175 17.6633 9.85742 17.2191 9.85742ZM15.4147 10.6618C15.4147 9.66526 16.2226 8.85742 17.2191 8.85742C18.2156 8.85742 19.0234 9.66526 19.0234 10.6618C19.0234 11.6583 18.2156 12.4661 17.2191 12.4661C16.2226 12.4661 15.4147 11.6583 15.4147 10.6618Z" fill="black"/>
<path fill-rule="evenodd" clip-rule="evenodd" d="M1.5 10.6609C1.5 5.73699 6.2949 1.90002 12 1.90002C17.7051 1.90002 22.5 5.73699 22.5 10.6609C22.5 15.5848 17.7051 19.4218 12 19.4218C10.8043 19.4218 9.61527 19.248 8.47027 18.906L3.11762 21.9646C2.93183 22.0708 2.69907 22.0469 2.53865 21.9053C2.37823 21.7637 2.32572 21.5356 2.40804 21.3381L4.35111 16.6756C2.59004 15.1785 1.54754 12.9943 1.5001 10.6711L1.49989 10.6609H1.5ZM2.5 10.6558C2.54539 12.8033 3.5608 14.8148 5.26186 16.1267C5.44102 16.2649 5.50508 16.5061 5.41805 16.715L3.89555 20.3683L8.16237 17.9302C8.28382 17.8608 8.42879 17.8455 8.56208 17.8879C9.67374 18.2418 10.8334 18.4218 12 18.4218C17.3401 18.4218 21.5 14.8622 21.5 10.6609C21.5 6.45958 17.3401 2.90002 12 2.90002C6.66204 2.90002 2.50336 6.45671 2.5 10.6558Z" fill="black"/>
</svg>
