<svg width="11" height="11" viewBox="0 0 11 11" fill="none" xmlns="http://www.w3.org/2000/svg">
  <path fill-rule="evenodd" clip-rule="evenodd"
        d="M1.90302 1.90302C2.82724 0.978799 4.10552 0.40625 5.51654 0.40625C5.80659 0.40625 6.09143 0.430441 6.36893 0.477108L7.57086 0.679232L6.58419 1.39476C6.31077 1.59304 6.06793 1.83102 5.86422 2.1002C5.43208 2.67123 5.17586 3.38186 5.17586 4.1538C5.17586 5.09472 5.55662 5.94573 6.1737 6.56282C6.79078 7.17989 7.6418 7.56066 8.58272 7.56066C8.82614 7.56066 9.06314 7.5352 9.29138 7.48707L10.4825 7.23591L9.82759 8.26203C9.48687 8.79589 9.04984 9.262 8.54104 9.63616C7.69413 10.259 6.64751 10.6268 5.51654 10.6268C4.10552 10.6268 2.82724 10.0543 1.90302 9.13007C0.978799 8.20585 0.40625 6.92757 0.40625 5.51654C0.40625 4.10552 0.978799 2.82724 1.90302 1.90302ZM5.07321 1.45204C4.12138 1.55458 3.26787 1.98358 2.62573 2.62573C1.88534 3.36611 1.42831 4.38747 1.42831 5.51654C1.42831 6.64562 1.88534 7.66698 2.62573 8.40736C3.36611 9.14775 4.38747 9.60478 5.51654 9.60478C6.4225 9.60478 7.25828 9.31081 7.93554 8.81277C8.03952 8.73631 8.13975 8.65505 8.23591 8.56933C7.15117 8.48522 6.17548 8.01 5.451 7.28552C4.65008 6.4846 4.1538 5.37667 4.1538 4.1538C4.1538 3.15152 4.48745 2.22577 5.04923 1.48344C5.05718 1.47294 5.06517 1.46247 5.07321 1.45204Z"
        fill="#000000" />
</svg>
