<svg width="191" height="137" viewBox="0 0 191 137" fill="none" xmlns="http://www.w3.org/2000/svg">
<g clip-path="url(#clip0)">
<path d="M176.951 43.3622C183.005 59.9095 167.158 85.6876 141.315 106.603C115.344 127.656 79.5064 143.974 53.7834 129.497C28.0603 114.89 12.4427 69.4882 24.3121 44.7907C36.1814 20.0932 75.3816 15.945 109.033 17.6665C142.675 19.2508 170.768 26.6866 176.951 43.3622Z" fill="#F2F2F2"/>
<path d="M76.5023 89.1397C80.4142 89.1397 83.5854 88.3566 83.5854 87.3907C83.5854 86.4247 80.4142 85.6416 76.5023 85.6416C72.5905 85.6416 69.4193 86.4247 69.4193 87.3907C69.4193 88.3566 72.5905 89.1397 76.5023 89.1397Z" stroke="#939393" stroke-miterlimit="10"/>
<path d="M83.5853 87.0703C91.6238 92.0977 94.6003 92.2168 96.3091 92.0336" stroke="#939393" stroke-miterlimit="10"/>
<path d="M4.07349 110.302L57.4581 118.929C58.4043 118.782 65.1934 117.262 71.4496 115.907C78.303 114.423 85.4411 114.817 92.0924 117.061L108.969 120.385C112.23 120.321 135.822 116.859 148.499 114.964C153.277 114.249 185.972 117.07 185.972 117.07" stroke="#939393" stroke-miterlimit="10"/>
<path d="M7.00403 70.5136L66.948 55.4955C68.6843 55.2208 70.439 55.0651 72.1937 55.0377L89.6762 54.7172C92.57 54.6622 104.678 54.241 114.076 53.6732C120.893 53.2611 127.682 54.6347 133.846 57.5834C143.529 62.2079 161.15 68.4074 185.954 68.4074" stroke="#939393" stroke-miterlimit="10"/>
<path d="M128.178 21.3203C128.178 22.6023 127.131 23.6463 125.845 23.6463" stroke="#939393" stroke-miterlimit="10"/>
<path d="M130.512 23.6463C129.226 23.6463 128.178 22.6023 128.178 21.3203" stroke="#939393" stroke-miterlimit="10"/>
<path d="M125.836 23.6462C127.122 23.6462 128.169 24.6902 128.169 25.9722" stroke="#939393" stroke-miterlimit="10"/>
<path d="M128.178 25.9722C128.178 24.6902 129.226 23.6462 130.512 23.6462" stroke="#939393" stroke-miterlimit="10"/>
<path d="M150.824 36.7229C150.824 38.0049 149.776 39.0489 148.49 39.0489" stroke="#939393" stroke-miterlimit="10"/>
<path d="M153.157 39.0489C151.871 39.0489 150.824 38.0049 150.824 36.7229" stroke="#939393" stroke-miterlimit="10"/>
<path d="M148.49 39.0488C149.776 39.0488 150.824 40.0928 150.824 41.3748" stroke="#939393" stroke-miterlimit="10"/>
<path d="M150.824 41.3841C150.824 40.102 151.871 39.0581 153.157 39.0581" stroke="#939393" stroke-miterlimit="10"/>
<path d="M58.6248 27.0344C58.6248 28.3165 57.5775 29.3604 56.2914 29.3604" stroke="#939393" stroke-miterlimit="10"/>
<path d="M60.9583 29.3604C59.6722 29.3604 58.6249 28.3165 58.6249 27.0344" stroke="#939393" stroke-miterlimit="10"/>
<path d="M56.2914 29.3604C57.5775 29.3604 58.6248 30.4043 58.6248 31.6863" stroke="#939393" stroke-miterlimit="10"/>
<path d="M58.6249 31.6863C58.6249 30.4043 59.6722 29.3604 60.9583 29.3604" stroke="#939393" stroke-miterlimit="10"/>
<path d="M132.266 77.977C134.291 77.977 135.932 77.5711 135.932 77.0704C135.932 76.5697 134.291 76.1638 132.266 76.1638C130.242 76.1638 128.601 76.5697 128.601 77.0704C128.601 77.5711 130.242 77.977 132.266 77.977Z" stroke="#939393" stroke-miterlimit="10"/>
<path d="M128.601 77.0703C125.578 79.3139 123.713 78.7736 123.006 79.3139" stroke="#939393" stroke-miterlimit="10"/>
<path d="M135.941 76.9055C140.103 79.5062 141.646 79.5703 142.537 79.4787" stroke="#939393" stroke-miterlimit="10"/>
<path d="M46.1032 78.9018C48.1276 78.9018 49.7687 78.4959 49.7687 77.9952C49.7687 77.4945 48.1276 77.0886 46.1032 77.0886C44.0787 77.0886 42.4376 77.4945 42.4376 77.9952C42.4376 78.4959 44.0787 78.9018 46.1032 78.9018Z" stroke="#939393" stroke-miterlimit="10"/>
<path d="M116.346 39.3968L103.107 28.0966C101.224 26.2651 98.2108 26.3018 96.3734 28.1699C94.5361 30.0471 94.5728 33.0508 96.4469 34.8822L110.935 47.0524" fill="white"/>
<path d="M116.346 39.3968L103.107 28.0966C101.224 26.2651 98.2108 26.3018 96.3734 28.1699C94.5361 30.0471 94.5728 33.0508 96.4469 34.8822L110.935 47.0524" stroke="#939393" stroke-miterlimit="10"/>
<path d="M110.466 46.6127L126.35 59.8726L130.989 54.9734L116.355 39.3967" fill="white"/>
<path d="M110.466 46.6127L126.35 59.8726L130.989 54.9734L116.355 39.3967" stroke="#939393" stroke-miterlimit="10"/>
<path d="M97.5126 35.7798L99.9654 32.6479" stroke="#939393" stroke-miterlimit="10"/>
<path d="M98.8815 37.2447L101.334 34.1221" stroke="#939393" stroke-miterlimit="10"/>
<path d="M130.438 55.6328L126.773 59.543L129.712 60.3397C132.027 60.9716 133.911 62.5833 134.894 64.7627L135.546 66.2279C135.638 66.4385 135.812 66.4294 135.913 66.4202C135.996 66.4019 136.18 66.3469 136.198 66.1089L136.345 63.3616C136.419 62.0979 135.923 60.8892 135.013 60.01L130.438 55.6328Z" fill="white" stroke="#939393" stroke-miterlimit="10"/>
<path d="M80.3517 40.0746L73.9668 54.1861C71.3945 59.8729 73.3329 66.5852 78.5419 70.0376L94.1227 77.4459L100.59 81.585L105.964 108.636L115.004 107.711L112.23 80.7334C112.12 79.6803 111.743 78.673 111.137 77.8122L103.218 66.6035C102.483 65.5688 98.1465 61.4205 98.1465 61.4205L104.026 49.9005C104.191 49.9737 107.995 41.8053 110.54 36.6131V27.4466L90.1172 18.8569" fill="white"/>
<path d="M80.3517 40.0746L73.9668 54.1861C71.3945 59.8729 73.3329 66.5852 78.5419 70.0376L94.1227 77.4459L100.59 81.585L105.964 108.636L115.004 107.711L112.23 80.7334C112.12 79.6803 111.743 78.673 111.137 77.8122L103.218 66.6035C102.483 65.5688 98.1465 61.4205 98.1465 61.4205L104.026 49.9005C104.191 49.9737 107.995 41.8053 110.54 36.6131V27.4466L90.1172 18.8569" stroke="#939393" stroke-miterlimit="10"/>
<path d="M86.4425 70.4405C87.9951 67.7207 89.8416 65.1841 91.3207 62.4186C93.0019 59.2685 93.9114 55.807 95.6385 52.6843C95.7304 52.5195 95.8315 52.3638 95.9417 52.2264C95.9509 51.8052 96.0336 51.3656 96.2173 50.9078C97.4483 47.9408 98.6151 44.9463 99.5521 41.8694C99.6348 41.613 99.7542 41.3749 99.9012 41.1552C100.214 39.6167 100.783 38.0966 100.949 36.5673C101.077 35.3769 100.609 34.2139 100.296 33.0692C100.269 32.9776 100.25 32.8769 100.241 32.7853C99.9655 32.4831 99.7267 32.1168 99.5521 31.6681C99.4419 31.4025 99.3133 31.1645 99.1846 30.9264C99.0193 30.789 98.8539 30.6333 98.6977 30.4593C95.8131 27.1535 93.1581 23.6737 90.1816 20.4595C90.1448 20.4595 90.0989 20.4686 90.0621 20.4686C89.6947 20.8624 89.2629 21.1371 88.8035 21.3294L72.9747 59.4699C72.9287 59.7355 72.8644 59.9919 72.7634 60.2391C72.0376 61.86 71.3302 63.4809 70.7239 65.1475C70.632 65.3948 70.5218 65.6145 70.3748 65.8251C69.9706 67.4277 69.4837 69.0211 68.7671 70.5137C68.4823 71.109 68.1056 71.6676 67.8025 72.2536C67.7657 72.5192 67.7014 72.7756 67.6095 73.032C67.5636 73.1419 67.5269 73.2518 67.4901 73.3617C67.4534 73.554 67.4074 73.7554 67.3615 73.9478C67.2053 74.6712 67.0308 75.4129 66.746 76.0997C66.7644 76.347 66.7735 76.5851 66.7184 76.8323C66.3142 78.9019 65.6711 80.9074 65.1107 82.9403C65.1475 83.2333 65.1383 83.5264 65.0648 83.8194C64.8351 84.7626 64.8168 85.7241 64.6422 86.6674C64.4585 87.6472 64.1186 88.5904 63.8246 89.5428C65.7538 90.3669 74.27 88.334 75.3908 86.7772C76.5575 85.1472 77.3384 83.2608 78.4041 81.5667C79.4605 79.8909 80.8569 78.5356 81.8675 76.8415C82.878 75.1382 83.907 73.554 85.1472 72.0064C85.2942 71.8232 85.4503 71.6676 85.6157 71.521C85.8362 71.1181 86.1118 70.7518 86.4425 70.4405Z" fill="white"/>
<path d="M88.3166 71.8689C91.1462 69.6895 77.3567 66.4661 77.3567 66.4661C77.2098 66.6858 77.0444 66.8965 76.8423 67.0796C75.5102 68.2609 74.1965 69.4422 72.9563 70.7151C72.7725 70.8982 72.5704 71.0539 72.3591 71.1913C71.3302 72.4916 70.2278 73.737 68.96 74.7993C68.4547 75.2297 67.876 75.5777 67.3523 75.9897C67.2053 76.2187 67.04 76.4293 66.8562 76.6124C66.7735 76.6949 66.6909 76.7773 66.6174 76.8597C66.4979 77.0245 66.3785 77.1802 66.2591 77.345C65.8181 77.9403 65.3496 78.5447 64.8076 79.0575C64.7249 79.2864 64.6238 79.5153 64.4768 79.7168C63.255 81.4384 61.831 82.9951 60.4806 84.616C60.3887 84.8999 60.2601 85.1563 60.0763 85.3944C59.4792 86.1636 59.0658 87.0244 58.5146 87.8211C57.9358 88.6361 57.2376 89.3595 56.5762 90.1104C57.9909 91.658 59.2036 93.3613 60.5357 95.0463C60.6276 95.092 60.7194 95.1378 60.8113 95.1928C61.0593 95.3942 61.2982 95.5866 61.5462 95.788C61.8127 96.0719 62.0148 96.3832 62.1709 96.7312C62.2628 96.6488 62.3547 96.5755 62.4465 96.4931C62.6303 96.3466 62.8324 96.2092 63.0253 96.0994C63.1631 95.8338 63.3377 95.5682 63.5673 95.3118C64.881 93.8283 66.5898 93.3155 68.2526 92.354C69.9889 91.3467 73.7188 88.5628 75.3908 87.4639C77.0536 86.3559 85.827 73.7828 88.3166 71.8689Z" fill="white"/>
<path d="M62.2076 96.548C62.3454 96.1634 71.4404 90.0829 75.3999 87.4456L62.2076 96.548Z" fill="white"/>
<path d="M62.2076 96.548C62.3454 96.1634 71.4404 90.0829 75.3999 87.4456" stroke="#939393" stroke-miterlimit="10"/>
<path d="M66.4152 77.3816C63.5214 80.2112 59.4608 87.2166 56.2729 90.1103" stroke="#939393" stroke-miterlimit="10"/>
<path d="M51.2111 115.367C48.7031 112.638 45.1202 108.737 42.6857 106.09C41.2158 104.488 41.326 102.006 42.9246 100.532C43.0807 100.669 46.1951 98.0408 47.9406 97.2441C49.0062 96.7587 49.879 95.9346 50.7517 95.1562C52.4788 93.5994 54.1784 92.0244 55.8963 90.4585C56.0158 90.3486 56.126 90.2478 56.273 90.1196C58.2574 92.2716 60.2141 94.3961 62.2077 96.5573C62.0791 96.6763 61.9505 96.7954 61.8218 96.9053C60.1774 98.4071 58.533 99.9089 56.8977 101.42C56.7048 101.603 56.5762 101.832 56.521 102.088C56.2454 103.425 55.9974 104.762 55.7677 106.099C55.731 106.328 55.7494 106.566 55.832 106.786C56.5486 108.682 57.2744 110.577 58.0369 112.454C58.4962 113.59 58.4778 114.671 57.2927 115.669C57.2835 115.678 57.2744 115.687 57.256 115.696C55.4737 117.225 52.8096 117.097 51.2111 115.367Z" fill="white" stroke="#939393" stroke-miterlimit="10"/>
<path d="M42.8511 102.913C42.7041 103.05 42.5571 103.178 42.4102 103.316C42.548 103.462 42.6674 103.59 42.7868 103.728C42.943 103.581 43.0808 103.462 43.2278 103.325C43.0992 103.178 42.9889 103.059 42.8511 102.913Z" fill="white"/>
<path d="M51.156 115.412C48.6388 112.683 45.0467 108.801 42.603 106.163C41.124 104.561 41.225 102.079 42.8327 100.605C42.9889 100.742 46.1032 98.1139 47.8395 97.2989C48.9052 96.8044 49.7779 95.9894 50.6507 95.2019C52.3778 93.6451 54.0774 92.0609 55.7861 90.4858C55.9055 90.3759 56.0158 90.2752 56.1536 90.147C58.1379 92.2898 60.1039 94.4143 62.0975 96.5755C61.9688 96.6945 61.8402 96.8136 61.7116 96.9326C60.0764 98.4436 58.4319 99.9454 56.8058 101.466C56.6129 101.649 56.4843 101.878 56.4292 102.134C56.1536 103.471 55.9147 104.808 55.6851 106.154C55.6483 106.383 55.6667 106.621 55.7494 106.841C56.4751 108.736 57.2009 110.632 57.9726 112.509C58.4411 113.645 58.4135 114.725 57.2376 115.724C57.2284 115.733 57.2193 115.742 57.2101 115.751C55.4186 117.262 52.7545 117.143 51.156 115.412Z" fill="white" stroke="#939393" stroke-miterlimit="10"/>
<path d="M42.7684 102.977C42.6214 103.114 42.4744 103.242 42.3274 103.379C42.4652 103.526 42.5846 103.654 42.7132 103.792C42.8694 103.645 43.0072 103.526 43.1542 103.389C43.0072 103.242 42.897 103.123 42.7684 102.977Z" fill="white"/>
<path d="M42.9521 100.66L57.0355 115.879" stroke="#939393" stroke-miterlimit="10"/>
<path d="M43.191 106.548L44.367 105.458" stroke="#939393" stroke-miterlimit="10"/>
<path d="M44.7896 108.27L45.9655 107.189" stroke="#939393" stroke-miterlimit="10"/>
<path d="M46.3879 110L47.5638 108.911" stroke="#939393" stroke-miterlimit="10"/>
<path d="M47.9865 111.722L49.1624 110.641" stroke="#939393" stroke-miterlimit="10"/>
<path d="M49.585 113.453L50.7609 112.372" stroke="#939393" stroke-miterlimit="10"/>
<path d="M51.1835 115.183L52.3594 114.094" stroke="#939393" stroke-miterlimit="10"/>
<path d="M53.765 101.868L56.0342 104.323" stroke="#939393" stroke-miterlimit="10"/>
<path d="M53.37 103.517L55.6391 105.962" stroke="#939393" stroke-miterlimit="10"/>
<path d="M54.1692 100.22L56.4383 102.674" stroke="#939393" stroke-miterlimit="10"/>
<path d="M75.3999 87.4457L90.8981 68.8379" stroke="#939393" stroke-miterlimit="10"/>
<path d="M85.5973 24.0491C79.0655 39.7998 66.259 77.3359 66.259 77.3359" stroke="#939393" stroke-miterlimit="10"/>
<path d="M89.9427 19.7634L71.2108 59.0028L68.0781 57.5193C62.5568 54.9003 60.2142 48.3161 62.8416 42.8217L73.5534 20.377C76.1809 14.8734 82.7862 12.5382 88.2983 15.1572C90.0346 15.9723 90.7695 18.0327 89.9427 19.7634Z" fill="#E4EAEF" stroke="#939393" stroke-miterlimit="10"/>
<path d="M69.8143 48.3436C71.7018 48.3436 73.2318 46.8184 73.2318 44.9371C73.2318 43.0557 71.7018 41.5305 69.8143 41.5305C67.9269 41.5305 66.3969 43.0557 66.3969 44.9371C66.3969 46.8184 67.9269 48.3436 69.8143 48.3436Z" fill="white" stroke="#939393" stroke-miterlimit="10"/>
<path d="M83.2455 28.6279L74.9957 25.551" stroke="#939393" stroke-miterlimit="10"/>
<path d="M84.1458 26.54L77.6875 24.1316" stroke="#939393" stroke-miterlimit="10"/>
<path d="M85.092 24.6169L78.6337 22.2085" stroke="#939393" stroke-miterlimit="10"/>
<path d="M81.7388 43.069L93.0753 29.8732C94.9127 27.9959 94.8759 24.9923 93.0018 23.1608C91.1185 21.3294 88.1053 21.366 86.2679 23.2341L74.0494 37.6753" fill="white"/>
<path d="M81.7388 43.069L93.0753 29.8732C94.9127 27.9959 94.8759 24.9923 93.0018 23.1608C91.1185 21.3294 88.1053 21.366 86.2679 23.2341L74.0494 37.6753" stroke="#939393" stroke-miterlimit="10"/>
<path d="M74.4905 37.2083L61.1971 53.0322L66.1121 57.6567L81.7389 43.069" fill="white"/>
<path d="M74.4905 37.2083L61.1971 53.0322L66.1121 57.6567L81.7389 43.069" stroke="#939393" stroke-miterlimit="10"/>
<path d="M85.3677 24.2964L88.5004 26.7414" stroke="#939393" stroke-miterlimit="10"/>
<path d="M83.8885 25.6516L87.0213 28.0966" stroke="#939393" stroke-miterlimit="10"/>
<path d="M65.4414 57.1164L61.5187 53.4626L60.7194 56.393C60.0855 58.7007 58.4686 60.5779 56.2822 61.5578L54.8123 62.2079C54.601 62.2995 54.6102 62.4735 54.6194 62.5742C54.6377 62.6567 54.6928 62.8398 54.9317 62.8581L57.6877 63.0046C58.9555 63.0779 60.1682 62.5834 61.0501 61.6768L65.4414 57.1164Z" fill="white" stroke="#939393" stroke-miterlimit="10"/>
<path d="M110.549 36.613L104.035 49.9004" stroke="#939393" stroke-miterlimit="10"/>
<path d="M109.85 24.6626L93.7735 17.529C93.2131 15.9448 92.9742 14.214 93.1396 12.4283C93.7459 5.78924 99.6347 0.908357 106.286 1.51274C112.946 2.11713 117.843 7.98702 117.237 14.617C116.823 19.2231 113.856 22.9868 109.85 24.6626Z" fill="#E4EAEF" stroke="#939393" stroke-miterlimit="10"/>
<path d="M109.85 24.6627L93.7736 17.5291C93.057 15.4961 92.8641 13.216 93.3785 10.8808C94.5085 5.73437 99.01 1.85164 104.283 1.48535C108.105 1.21978 111.522 2.69412 113.883 5.12998L113.231 5.16661C109.308 5.38639 105.459 6.35707 101.904 8.01456L96.006 10.7709L99.0009 13.1061C103.796 16.8514 109.612 19.0858 115.684 19.5345C114.361 21.8422 112.294 23.6462 109.85 24.6627Z" fill="white" stroke="#939393" stroke-miterlimit="10"/>
<path d="M97.4391 15.1756C99.8736 15.3954 102.032 13.6097 102.253 11.183C102.473 8.75627 100.682 6.60428 98.2475 6.38451C95.813 6.16473 93.6541 7.95042 93.4336 10.3771C93.2132 12.8038 95.0046 14.9558 97.4391 15.1756Z" fill="white" stroke="#939393" stroke-miterlimit="10"/>
<path d="M97.632 13.0787C98.9089 13.1977 100.03 12.2637 100.149 10.9908C100.269 9.71791 99.3315 8.60071 98.0546 8.48166C96.7776 8.36262 95.6568 9.29667 95.5374 10.5695C95.4271 11.8424 96.3642 12.9596 97.632 13.0787Z" fill="white" stroke="#939393" stroke-miterlimit="10"/>
<path d="M66.259 77.3818L68.4639 78.9386" stroke="#939393" stroke-miterlimit="10"/>
<path d="M98.1557 61.4203L75.5377 50.697" stroke="#939393" stroke-miterlimit="10"/>
<path d="M99.6531 58.4718L88.4911 53.188" stroke="#939393" stroke-miterlimit="10"/>
<path d="M81.8674 50.0378L76.8239 47.6477" stroke="#939393" stroke-miterlimit="10"/>
<path d="M74.8762 68.8378L75.7857 69.7169C78.6887 72.5191 82.143 74.6985 85.928 76.1088L93.4152 78.9018L98.7344 82.4274L106.396 108.636L115.436 107.711L112.662 80.7332C112.551 79.6801 112.175 78.6728 111.568 77.812L103.659 66.6034C102.924 65.5686 98.5874 61.4203 98.5874 61.4203L75.5377 50.697" fill="white"/>
<path d="M74.8762 68.8378L75.7857 69.7169C78.6887 72.5191 82.143 74.6985 85.928 76.1088L93.4152 78.9018L98.7344 82.4274L106.396 108.636L115.436 107.711L112.662 80.7332C112.551 79.6801 112.175 78.6728 111.568 77.812L103.659 66.6034C102.924 65.5686 98.5874 61.4203 98.5874 61.4203L75.5377 50.697" stroke="#939393" stroke-miterlimit="10"/>
<path d="M101.628 54.6164L88.9137 34.7083" stroke="#939393" stroke-miterlimit="10"/>
<path d="M104.384 48.6092L92.5885 30.1296" stroke="#939393" stroke-miterlimit="10"/>
<path d="M98.6058 82.7112L101.766 81.9695" stroke="#939393" stroke-miterlimit="10"/>
<path d="M107.398 117.363C107.416 117.564 107.434 117.756 107.453 117.958C107.655 117.94 107.829 117.921 108.013 117.912C107.995 117.702 107.976 117.518 107.958 117.317C107.765 117.326 107.6 117.344 107.398 117.363Z" fill="white"/>
<path d="M122.409 118.407C118.707 118.736 113.424 119.213 109.841 119.542C107.673 119.735 105.753 118.141 105.551 115.98C105.753 115.943 105.551 111.878 105.974 110.009C106.231 108.874 104.393 101.896 104.182 99.5883C104.164 99.4326 111.137 98.5627 114.067 98.2971C114.086 98.4711 114.095 98.6451 114.113 98.8191C114.315 101.035 114.508 103.242 114.729 105.458C114.756 105.715 114.857 105.962 115.032 106.163C115.932 107.189 116.851 108.196 117.779 109.194C117.935 109.368 118.146 109.487 118.367 109.561C120.314 110.138 122.262 110.724 124.228 111.255C125.413 111.575 126.258 112.253 126.341 113.791C126.341 113.81 126.341 113.819 126.341 113.837C126.479 116.163 124.751 118.196 122.409 118.407Z" fill="white" stroke="#939393" stroke-miterlimit="10"/>
<path d="M107.398 117.473C107.416 117.674 107.434 117.866 107.453 118.068C107.655 118.05 107.829 118.031 108.013 118.013C107.995 117.802 107.976 117.619 107.958 117.418C107.765 117.445 107.6 117.454 107.398 117.473Z" fill="white"/>
<path d="M105.67 115.916L126.359 114.039" stroke="#939393" stroke-miterlimit="10"/>
<path d="M110.494 119.313L110.356 117.711" stroke="#939393" stroke-miterlimit="10"/>
<path d="M112.845 119.094L112.698 117.5" stroke="#939393" stroke-miterlimit="10"/>
<path d="M115.197 118.883L115.05 117.29" stroke="#939393" stroke-miterlimit="10"/>
<path d="M117.54 118.672L117.393 117.079" stroke="#939393" stroke-miterlimit="10"/>
<path d="M119.892 118.453L119.745 116.859" stroke="#939393" stroke-miterlimit="10"/>
<path d="M122.234 118.242L122.087 116.648" stroke="#939393" stroke-miterlimit="10"/>
<path d="M113.213 108.095L116.548 107.793" stroke="#939393" stroke-miterlimit="10"/>
<path d="M114.278 109.414L117.613 109.112" stroke="#939393" stroke-miterlimit="10"/>
<path d="M112.147 106.777L115.482 106.475" stroke="#939393" stroke-miterlimit="10"/>
<path d="M105.22 41.9884L103.604 39.8181L105.266 36.3474L107.591 37.4005L105.22 41.9884Z" stroke="#939393" stroke-miterlimit="10"/>
<path d="M74.5916 53.4626L98.1557 61.4204" stroke="#939393" stroke-miterlimit="10"/>
<path d="M109.529 110.834C110.696 110.834 111.642 109.891 111.642 108.728C111.642 107.564 110.696 106.621 109.529 106.621C108.362 106.621 107.416 107.564 107.416 108.728C107.416 109.891 108.362 110.834 109.529 110.834Z" fill="white" stroke="#939393" stroke-miterlimit="10"/>
<path d="M51.1651 101.832C52.3321 101.832 53.2781 100.889 53.2781 99.7258C53.2781 98.5626 52.3321 97.6196 51.1651 97.6196C49.9981 97.6196 49.0521 98.5626 49.0521 99.7258C49.0521 100.889 49.9981 101.832 51.1651 101.832Z" fill="white" stroke="#939393" stroke-miterlimit="10"/>
</g>
<defs>
<clipPath id="clip0">
<rect width="182" height="134" fill="white" transform="translate(4 1)"/>
</clipPath>
</defs>
</svg>
