<svg width="228" height="148" viewBox="0 0 228 148" fill="none" xmlns="http://www.w3.org/2000/svg">
    <g clip-path="url(#clip0)">
        <path d="M12.5576 112.347C5.43931 92.4028 24.5108 61.5123 55.6028 36.4641C86.8291 11.3488 129.874 -8.12563 160.563 9.40138C191.32 27.0627 209.787 81.7255 195.483 111.34C181.179 140.955 134.172 145.723 93.813 143.506C53.5211 141.492 19.9444 132.426 12.5576 112.347Z" fill="#F2F2F2"/>
        <path d="M134.709 122.152C133.098 110.199 134.709 91.7314 110.467 91.7314H95.089C70.8467 91.7314 72.4584 110.199 70.8467 122.152H134.709Z" fill="white" stroke="#939393" stroke-width="0.671533" stroke-miterlimit="10"/>
        <path d="M103.752 92.5372C116.287 92.5372 126.45 82.3751 126.45 69.8394C126.45 57.3038 116.287 47.1416 103.752 47.1416C91.2161 47.1416 81.054 57.3038 81.054 69.8394C81.054 82.3751 91.2161 92.5372 103.752 92.5372Z" fill="white" stroke="#939393" stroke-width="0.671533" stroke-miterlimit="10"/>
        <path d="M118.995 88.5762H88.1721V92.5382H118.995V88.5762Z" fill="white" stroke="#939393" stroke-width="0.671533" stroke-miterlimit="10"/>
        <path d="M103.55 54.999C94.6859 54.999 87.1647 60.4384 84.0757 68.1611L89.7837 82.9348H117.384L123.092 68.1611C120.003 60.5056 112.414 54.999 103.55 54.999Z" fill="#E4EAEF" stroke="#939393" stroke-width="0.671533" stroke-miterlimit="10"/>
        <path d="M80.6511 68.0266C80.6511 54.9317 91.0599 44.3887 103.953 44.3887C116.847 44.3887 127.256 54.9317 127.256 68.0266" stroke="#939393" stroke-width="0.671533" stroke-miterlimit="10"/>
        <path d="M80.6511 70.512C80.6511 57.4171 91.0599 46.874 103.953 46.874C116.847 46.874 127.256 57.4842 127.256 70.512" stroke="#939393" stroke-width="0.671533" stroke-miterlimit="10"/>
        <path fill-rule="evenodd" clip-rule="evenodd" d="M79.6438 77.2271L77.4949 75.0111V67.8928L79.6438 65.6768V77.2271Z" fill="#E4EAEF" stroke="#939393" stroke-width="0.671533" stroke-miterlimit="10"/>
        <path fill-rule="evenodd" clip-rule="evenodd" d="M81.054 78.7043H80.8526C80.181 78.7043 79.6438 78.1671 79.6438 77.4956V65.408C79.6438 64.7364 80.181 64.1992 80.8526 64.1992H81.054C81.7255 64.1992 82.2628 64.7364 82.2628 65.408V77.4284C82.2628 78.1671 81.7255 78.7043 81.054 78.7043Z" fill="#E4EAEF" stroke="#939393" stroke-width="0.671533" stroke-miterlimit="10"/>
        <path fill-rule="evenodd" clip-rule="evenodd" d="M128.867 65.6768L131.016 67.8928V75.0111L128.867 77.2271V65.6768Z" fill="#E4EAEF" stroke="#939393" stroke-width="0.671533" stroke-miterlimit="10"/>
        <path fill-rule="evenodd" clip-rule="evenodd" d="M127.457 64.1992H127.659C128.33 64.1992 128.867 64.7364 128.867 65.408V77.4284C128.867 78.1 128.33 78.6372 127.659 78.6372H127.457C126.786 78.6372 126.248 78.1 126.248 77.4284V65.408C126.248 64.7364 126.786 64.1992 127.457 64.1992Z" fill="#E4EAEF" stroke="#939393" stroke-width="0.671533" stroke-miterlimit="10"/>
        <path fill-rule="evenodd" clip-rule="evenodd" d="M105.565 82.9347C105.565 81.9946 104.826 81.1887 103.886 81.0544V80.9873C90.1199 80.9873 83.8746 76.6223 82.5316 70.9814C82.3972 71.5858 82.2629 72.2574 82.2629 72.8617C82.2629 79.4428 89.9856 84.7479 103.886 84.7479C104.826 84.6807 105.565 83.942 105.565 82.9347Z" fill="#E4EAEF" stroke="#939393" stroke-width="0.671533" stroke-miterlimit="10"/>
        <path d="M62.5866 57.0137H31.3604V63.0575H62.5866V57.0137Z" fill="#E4EAEF" stroke="#939393" stroke-width="0.671533" stroke-miterlimit="10"/>
        <path d="M87.635 114.228V122.152" stroke="#939393" stroke-width="0.671533" stroke-miterlimit="10"/>
        <path d="M118.593 114.228V122.152" stroke="#939393" stroke-width="0.671533" stroke-miterlimit="10"/>
        <path d="M20.616 122.152H177.083" stroke="#939393" stroke-width="0.671533" stroke-miterlimit="10"/>
        <path d="M59.632 57.0134H34.3152V30.6893C34.3152 23.7053 39.9561 18.0645 46.94 18.0645C53.9239 18.0645 59.5648 23.7053 59.5648 30.6893V57.0134H59.632Z" stroke="#939393" stroke-width="0.671533" stroke-miterlimit="10"/>
        <path d="M55.4684 34.6518C55.0655 34.8533 54.864 35.1219 54.6625 35.5248C54.2596 36.3978 54.2596 37.338 54.3268 38.2781C54.4611 39.8898 54.1253 41.3672 53.3195 42.7102C52.1779 44.5234 50.3647 45.5978 48.1487 45.1278C47.9472 45.0606 44.0523 44.5905 43.2465 44.9935C42.1049 45.5307 41.0304 46.2694 39.956 47.0081C39.4859 47.3438 39.0158 47.5453 38.4115 47.3438C38.2771 47.2767 38.21 47.2767 38.0757 47.2095C38.1428 47.1424 38.21 47.0081 38.3443 46.9409C39.5531 46.0679 40.7618 45.2621 41.9034 44.3891C43.918 42.9117 45.8655 41.3 47.6115 39.4869C48.4844 38.6139 49.2903 37.6066 49.7604 36.465C49.8275 36.3307 49.8947 36.1964 49.9618 36.1292C50.4319 35.2562 51.1034 34.6518 52.0436 34.4504C52.8494 34.2489 53.5881 34.3832 54.3268 34.5175C54.3939 34.5175 54.4611 34.5175 54.5282 34.5175C54.7297 34.5175 54.9983 34.4504 55.1998 34.4504C55.3341 34.4504 55.4012 34.5175 55.5355 34.5175C55.5355 34.5847 55.4684 34.6518 55.4684 34.6518Z" fill="#E4EAEF" stroke="#939393" stroke-width="0.671533" stroke-miterlimit="10"/>
        <path d="M50.6333 44.9932V47.4778" stroke="#939393" stroke-width="0.671533" stroke-miterlimit="10"/>
        <path d="M40.6276 31.6963H34.3152V57.0131H40.6276V31.6963Z" stroke="#939393" stroke-width="0.671533" stroke-miterlimit="10"/>
        <path d="M35.7253 24.9814H58.2217" stroke="#939393" stroke-width="0.671533" stroke-miterlimit="10"/>
        <path d="M35.7253 24.9814H58.2217" stroke="#939393" stroke-width="0.671533" stroke-miterlimit="10"/>
        <path d="M35.7253 31.6963H58.2217" stroke="#939393" stroke-width="0.671533" stroke-miterlimit="10"/>
        <path d="M47.0072 18.2656V57.0131H40.6277V19.6087" stroke="#939393" stroke-width="0.671533" stroke-miterlimit="10"/>
        <path d="M53.0509 19.6094V57.0138H46.7385" stroke="#939393" stroke-width="0.671533" stroke-miterlimit="10"/>
        <path d="M53.3196 31.6963H59.632V57.0131H53.3196" stroke="#939393" stroke-width="0.671533" stroke-miterlimit="10"/>
        <path d="M34.3152 52.3799H59.632" stroke="#939393" stroke-width="0.671533" stroke-miterlimit="10"/>
        <path d="M34.3152 45.6641H59.632" stroke="#939393" stroke-width="0.671533" stroke-miterlimit="10"/>
        <path d="M34.3152 38.9492H59.632" stroke="#939393" stroke-width="0.671533" stroke-miterlimit="10"/>
        <path d="M36.4641 89.1123H33.0393V118.19H36.4641V89.1123Z" fill="#E4EAEF" stroke="#939393" stroke-width="0.671533" stroke-miterlimit="10"/>
        <path d="M34.7853 105.296C43.7234 105.296 50.9692 98.0498 50.9692 89.1117C50.9692 80.1735 43.7234 72.9277 34.7853 72.9277C25.8471 72.9277 18.6013 80.1735 18.6013 89.1117C18.6013 98.0498 25.8471 105.296 34.7853 105.296Z" stroke="#939393" stroke-width="0.671533" stroke-miterlimit="10"/>
        <path d="M34.8523 89.5826C33.4421 89.5826 32.1662 88.5753 31.8976 87.1651L30.353 79.1067C30.353 76.622 32.3676 74.6074 34.8523 74.6074C37.337 74.6074 39.3516 76.622 39.3516 79.1067L37.807 87.1651C37.4713 88.5753 36.2625 89.5826 34.8523 89.5826Z" fill="#E4EAEF" stroke="#939393" stroke-width="0.671533" stroke-miterlimit="10"/>
        <path d="M35.5241 88.7095C36.2627 89.9854 35.9941 91.53 34.9197 92.4701L28.6744 97.8424C26.5255 99.0511 23.7722 98.3796 22.5635 96.2307C21.3547 94.0818 22.0262 91.3285 24.1751 90.1197L31.9649 87.4336C33.308 86.8964 34.7854 87.4336 35.5241 88.7095Z" fill="#E4EAEF" stroke="#939393" stroke-width="0.671533" stroke-miterlimit="10"/>
        <path d="M34.5838 88.7095C33.8451 89.9854 34.1137 91.53 35.1882 92.4701L41.4334 97.8424C43.5823 99.0511 46.3356 98.3796 47.5444 96.2307C48.7531 94.0818 48.0816 91.3285 45.9327 90.1197L38.1429 87.4336C36.7998 86.8964 35.3225 87.4336 34.5838 88.7095Z" fill="#E4EAEF" stroke="#939393" stroke-width="0.671533" stroke-miterlimit="10"/>
        <path d="M34.7851 102.476C42.1656 102.476 48.1486 96.493 48.1486 89.1125C48.1486 81.7321 42.1656 75.749 34.7851 75.749C27.4047 75.749 21.4216 81.7321 21.4216 89.1125C21.4216 96.493 27.4047 102.476 34.7851 102.476Z" stroke="#939393" stroke-width="0.671533" stroke-miterlimit="10"/>
        <path d="M34.7852 99.5216C40.5338 99.5216 45.194 94.8615 45.194 89.1129C45.194 83.3643 40.5338 78.7041 34.7852 78.7041C29.0366 78.7041 24.3765 83.3643 24.3765 89.1129C24.3765 94.8615 29.0366 99.5216 34.7852 99.5216Z" stroke="#939393" stroke-width="0.671533" stroke-miterlimit="10"/>
        <path d="M18.6013 89.1123H50.9692" stroke="#939393" stroke-width="0.671533" stroke-miterlimit="10"/>
        <path d="M23.3694 77.6289L46.2687 100.528" stroke="#939393" stroke-width="0.671533" stroke-miterlimit="10"/>
        <path d="M46.2687 77.6289L23.3694 100.528" stroke="#939393" stroke-width="0.671533" stroke-miterlimit="10"/>
        <path d="M34.7853 94.3509C37.6782 94.3509 40.0233 92.0058 40.0233 89.113C40.0233 86.2201 37.6782 83.875 34.7853 83.875C31.8925 83.875 29.5474 86.2201 29.5474 89.113C29.5474 92.0058 31.8925 94.3509 34.7853 94.3509Z" fill="white" stroke="#939393" stroke-width="0.671533" stroke-miterlimit="10"/>
        <path d="M41.9036 118.189H27.9357C25.7196 118.189 23.9736 119.935 23.9736 122.151H45.9328C45.8656 119.935 44.1196 118.189 41.9036 118.189Z" fill="#E4EAEF" stroke="#939393" stroke-width="0.671533" stroke-miterlimit="10"/>
        <path d="M57.6844 45.0599L54.9983 44.5898L52.6479 47.8132H47.6114C46.8728 47.8132 46.537 48.7533 47.1414 49.2234L47.9472 49.7606H51.1706L47.0071 57.0132L48.6859 57.0804L52.9837 49.7606L53.5209 49.022L53.8567 48.5519L57.6844 45.0599Z" stroke="#939393" stroke-width="0.671533" stroke-miterlimit="10"/>
        <path d="M216.905 31.0254H139.813V107.714H216.905V31.0254Z" fill="white" stroke="#939393" stroke-width="0.671533" stroke-miterlimit="10"/>
        <path d="M214.286 33.6445H142.432V105.163H214.286V33.6445Z" fill="white" stroke="#939393" stroke-width="0.671533" stroke-miterlimit="10"/>
        <path d="M143.171 33.7783H214.353V77.7637L211.466 79.4426C206.362 82.3973 200.587 83.8075 194.677 83.4046C185.209 82.8002 160.228 84.2776 158.28 84.6805L143.104 87.5681" fill="#E4EAEF"/>
        <path d="M143.171 33.7783H214.353V77.7637L211.466 79.4426C206.362 82.3973 200.587 83.8075 194.677 83.4046C185.209 82.8002 160.228 84.2776 158.28 84.6805L143.104 87.5681" stroke="#939393" stroke-width="0.671533" stroke-miterlimit="10"/>
        <path d="M157.138 39.9561C157.138 41.7692 155.661 43.2466 153.848 43.2466" stroke="#939393" stroke-width="0.671533" stroke-miterlimit="10"/>
        <path d="M160.429 43.3139C158.616 43.3139 157.139 41.8366 157.139 40.0234" stroke="#939393" stroke-width="0.671533" stroke-miterlimit="10"/>
        <path d="M153.781 43.3135C155.594 43.3135 157.072 44.7908 157.072 46.604" stroke="#939393" stroke-width="0.671533" stroke-miterlimit="10"/>
        <path d="M157.139 46.604C157.139 44.7908 158.616 43.3135 160.429 43.3135" stroke="#939393" stroke-width="0.671533" stroke-miterlimit="10"/>
        <path d="M150.625 53.0508C150.625 54.8639 149.147 56.3413 147.334 56.3413" stroke="#939393" stroke-width="0.671533" stroke-miterlimit="10"/>
        <path d="M153.915 56.3413C152.102 56.3413 150.625 54.8639 150.625 53.0508" stroke="#939393" stroke-width="0.671533" stroke-miterlimit="10"/>
        <path d="M147.267 56.3418C149.08 56.3418 150.558 57.8192 150.558 59.6323" stroke="#939393" stroke-width="0.671533" stroke-miterlimit="10"/>
        <path d="M150.625 59.6997C150.625 57.8866 152.102 56.4092 153.915 56.4092" stroke="#939393" stroke-width="0.671533" stroke-miterlimit="10"/>
        <path d="M204.213 39.9561C204.213 41.7692 202.736 43.2466 200.922 43.2466" stroke="#939393" stroke-width="0.671533" stroke-miterlimit="10"/>
        <path d="M207.503 43.3139C205.69 43.3139 204.213 41.8366 204.213 40.0234" stroke="#939393" stroke-width="0.671533" stroke-miterlimit="10"/>
        <path d="M200.855 43.3135C202.668 43.3135 204.146 44.7908 204.146 46.604" stroke="#939393" stroke-width="0.671533" stroke-miterlimit="10"/>
        <path d="M204.213 46.604C204.213 44.7908 205.69 43.3135 207.503 43.3135" stroke="#939393" stroke-width="0.671533" stroke-miterlimit="10"/>
        <path d="M188.029 93.8801C187.962 93.7458 187.962 93.6786 187.895 93.5443C186.417 90.5896 184.739 87.7692 182.59 85.2845C181.784 84.2772 180.776 83.4713 179.568 83.0013C178.695 82.6655 177.755 82.464 176.747 82.464C175.068 82.464 173.457 82.464 171.778 82.464C170.972 82.464 170.166 82.3969 169.36 82.3969C169.293 82.3969 169.159 82.3297 169.092 82.2626C168.487 81.7254 167.883 81.121 167.279 80.5166C167.212 80.5166 167.212 80.5166 167.144 80.5166C166.204 80.7181 165.264 80.9195 164.324 81.121C163.72 81.2553 163.115 81.3896 162.511 81.5239L161.906 82.3297C161.839 82.1283 161.772 81.9268 161.638 81.7925H161.571C161.436 81.8597 161.302 81.9268 161.168 81.994C161.369 82.1283 161.436 82.3297 161.571 82.7327C162.108 84.5458 162.578 86.2918 163.048 88.1049C163.384 89.5823 163.72 91.0597 163.988 92.537C164.324 94.6188 164.324 96.7005 163.72 98.7823C163.652 98.9838 163.585 99.0509 163.384 99.1181C162.712 99.3195 162.376 99.8567 162.175 100.528C162.108 100.663 162.242 100.797 162.376 100.797C163.317 100.797 164.257 100.797 165.197 100.797C165.331 100.797 165.398 100.73 165.466 100.528C165.734 99.5881 166.003 98.648 166.204 97.6407C166.473 96.3648 166.674 95.0217 166.943 93.7458C167.01 93.3429 167.144 92.94 167.279 92.537C167.614 92.537 167.749 92.6713 167.816 92.94C168.286 94.2159 168.756 95.5589 168.958 96.902C169.025 97.6407 169.025 98.3122 169.092 99.0509C169.092 99.1181 169.025 99.1852 168.958 99.2524C168.487 99.521 168.219 99.9239 168.017 100.461C167.95 100.73 168.017 100.797 168.286 100.797C169.226 100.797 170.099 100.797 171.039 100.797C171.241 100.797 171.308 100.73 171.308 100.528C171.442 98.8494 171.308 97.1706 171.174 95.4918C171.106 94.5516 171.039 93.6786 171.039 92.7385C171.039 92.6713 171.039 92.6042 171.174 92.537C172.114 92.2684 173.121 92.067 174.061 91.7984C174.061 91.7984 174.061 91.7984 174.128 91.8655C174.733 92.8057 175.27 93.7458 175.874 94.6859C176.21 95.2232 176.479 95.7604 176.613 96.3648C176.747 97.0363 176.613 97.775 176.412 98.4465V98.5137C176.344 98.8494 176.21 99.0509 175.807 99.1852C175.203 99.3867 174.867 99.9239 174.666 100.528C174.598 100.73 174.733 100.864 174.934 100.864C175.874 100.864 176.747 100.864 177.687 100.864C177.889 100.864 177.956 100.797 178.023 100.595C178.426 99.2524 178.762 97.9765 179.165 96.6334C179.299 96.0962 179.299 95.6261 179.031 95.156C178.695 94.4173 178.426 93.7458 178.09 93.0071C177.956 92.7385 177.956 92.4699 177.889 92.2013C178.023 92.3356 178.158 92.4027 178.292 92.537C179.232 93.6115 180.239 94.4845 181.314 95.3575C181.851 95.8275 182.321 96.2976 182.59 96.9692C182.858 97.6407 182.925 98.3122 182.858 98.9838C182.858 99.0509 182.791 99.1181 182.724 99.1181C182.12 99.3867 181.784 99.8567 181.649 100.394C181.582 100.663 181.649 100.73 181.918 100.73C182.791 100.73 183.731 100.73 184.604 100.73C184.873 100.73 184.94 100.663 184.94 100.394C184.94 99.0509 184.94 97.7078 184.94 96.3648C184.94 95.7604 184.806 95.2903 184.403 94.8202C184 94.3502 183.664 93.9473 183.261 93.4772C182.522 92.6713 182.254 91.7312 182.455 90.7239C182.791 91.1268 183.127 91.5969 183.53 91.9998C184.403 92.94 185.477 93.6786 186.753 94.0144C187.089 94.0816 187.358 94.0816 187.693 94.1487C188.029 94.283 188.096 94.1487 188.029 93.8801Z" fill="white" stroke="#939393" stroke-width="0.671533" stroke-miterlimit="10"/>
        <path d="M160.765 82.3969C161.168 82.3969 161.571 82.3969 161.974 82.3969C162.041 82.3969 162.108 82.3969 162.108 82.3969C162.108 82.3969 162.108 82.3969 162.175 82.3969C162.377 82.2626 162.578 82.1954 162.779 82.1282C162.645 82.1282 162.511 82.0611 162.377 82.0611C162.309 82.0611 162.309 82.0611 162.242 82.0611C161.839 82.0611 161.504 82.0611 161.101 82.0611C160.832 82.0611 160.563 81.9939 160.429 81.7253C160.295 81.3896 160.161 81.0538 160.026 80.718C159.959 80.5837 160.026 80.5166 160.161 80.5166C160.362 80.5166 160.563 80.4494 160.765 80.3823C161.101 80.3151 161.369 80.248 161.705 80.1808C161.974 80.1136 162.108 79.9122 162.175 79.6436C162.175 79.5093 162.242 79.4421 162.377 79.375C162.78 79.2407 163.25 79.1735 163.652 79.0392C164.391 78.8377 164.996 79.1063 165.398 79.7107L164.055 81.591C164.391 81.5239 164.66 81.4567 164.996 81.3896C165.6 81.2553 166.271 81.1209 166.876 80.9866C166.473 80.5166 166.003 80.0465 165.667 79.5093C165.13 78.7706 164.458 78.502 163.585 78.7034C163.182 78.8377 162.712 78.9049 162.309 79.0392C162.041 79.1063 161.839 79.3078 161.839 79.5764C161.839 79.7779 161.705 79.7779 161.571 79.845C161.235 79.9122 160.966 79.9793 160.631 80.0465C160.429 80.1136 160.228 80.1136 160.026 80.1808C159.758 80.248 159.623 80.4494 159.69 80.718C159.825 81.1209 159.959 81.5239 160.161 81.8596C160.228 82.2626 160.429 82.3969 160.765 82.3969Z" fill="white" stroke="#939393" stroke-width="0.671533" stroke-miterlimit="10"/>
        <path d="M163.72 80.8523C163.115 79.9793 162.041 79.5764 160.966 79.845C160.362 79.9793 159.691 80.1807 159.086 80.315C158.683 80.4493 158.482 80.6508 158.415 81.0537C158.415 81.2552 158.213 81.3895 158.012 81.3895C157.542 81.4566 157.139 81.5238 156.669 81.6581C156.333 81.7253 155.997 81.7924 155.661 81.9267C155.46 81.9939 155.326 82.2625 155.393 82.4639C155.594 83.1355 155.796 83.7399 156.131 84.3442C156.266 84.6128 156.534 84.8143 156.87 84.8143C157.474 84.8143 158.079 84.8143 158.683 84.8143C158.75 84.8143 159.825 84.8143 159.892 84.8143" fill="#E4EAEF"/>
        <path d="M163.72 80.8523C163.115 79.9793 162.041 79.5764 160.966 79.845C160.362 79.9793 159.691 80.1807 159.086 80.315C158.683 80.4493 158.482 80.6508 158.415 81.0537C158.415 81.2552 158.213 81.3895 158.012 81.3895C157.542 81.4566 157.139 81.5238 156.669 81.6581C156.333 81.7253 155.997 81.7924 155.661 81.9267C155.46 81.9939 155.326 82.2625 155.393 82.4639C155.594 83.1355 155.796 83.7399 156.131 84.3442C156.266 84.6128 156.534 84.8143 156.87 84.8143C157.474 84.8143 158.079 84.8143 158.683 84.8143C158.75 84.8143 159.825 84.8143 159.892 84.8143" stroke="#939393" stroke-width="0.671533" stroke-miterlimit="10"/>
        <path d="M155.729 83.1357C155.863 83.5387 156.064 83.9416 156.199 84.3445C156.333 84.6131 156.602 84.8146 156.937 84.8146C157.542 84.8146 158.146 84.8146 158.75 84.8146C158.818 84.8146 159.892 84.8146 159.959 84.8146L161.638 83.1357H155.729Z" fill="white" stroke="#939393" stroke-width="0.671533" stroke-miterlimit="10"/>
        <path d="M162.108 79.7785C162.108 80.2486 162.108 80.7186 162.108 81.1887C162.108 81.7931 162.645 82.4646 163.182 82.5989C163.451 82.6661 163.652 82.5989 163.854 82.4646C164.123 82.2632 164.391 82.0617 164.593 81.7931C164.928 81.323 165.264 80.8529 165.533 80.3829C165.6 80.3157 165.6 80.1814 165.533 80.0471C165.466 79.9128 165.264 79.9128 165.13 80.1143C164.794 80.7186 164.391 81.323 163.854 81.7931C163.384 82.2632 163.048 82.196 162.712 81.6588C162.578 81.4573 162.511 81.2559 162.511 80.9873C162.511 80.0471 162.578 79.0398 162.578 78.0997C162.578 77.9654 162.578 77.8311 162.377 77.8311C162.175 77.8311 162.175 77.9654 162.175 78.0997C162.108 78.704 162.108 79.2413 162.108 79.7785Z" fill="black"/>
        <path d="M160.832 78.9718C160.966 78.9718 161.101 78.8375 161.101 78.7032C161.101 78.5689 161.034 78.4346 160.832 78.4346C160.698 78.4346 160.563 78.5689 160.563 78.7032C160.563 78.8375 160.698 78.9718 160.832 78.9718Z" fill="black"/>
        <path d="M158.079 83.136H161.638L163.048 79.5097C162.31 77.6294 160.496 76.3535 158.415 76.2863C159.422 75.0776 160.966 74.3389 162.645 74.3389C165.734 74.3389 168.286 76.8235 168.286 79.9797C168.286 83.0688 165.801 85.6206 162.645 85.6206C161.638 85.6206 160.765 85.352 159.959 84.9491" fill="white"/>
        <path d="M158.079 83.136H161.638L163.048 79.5097C162.31 77.6294 160.496 76.3535 158.415 76.2863C159.422 75.0776 160.966 74.3389 162.645 74.3389C165.734 74.3389 168.286 76.8235 168.286 79.9797C168.286 83.0688 165.801 85.6206 162.645 85.6206C161.638 85.6206 160.765 85.352 159.959 84.9491" stroke="#939393" stroke-width="0.671533" stroke-miterlimit="10" stroke-linecap="round" stroke-linejoin="round"/>
        <path d="M157.273 81.591C157.139 81.0538 157.004 80.5166 157.004 79.9122C157.004 78.502 157.542 77.226 158.347 76.2188C160.429 76.2859 162.242 77.629 162.981 79.4421L161.571 83.0684H158.012" fill="#E4EAEF"/>
        <path d="M157.273 81.591C157.139 81.0538 157.004 80.5166 157.004 79.9122C157.004 78.502 157.542 77.226 158.347 76.2188C160.429 76.2859 162.242 77.629 162.981 79.4421L161.571 83.0684H158.012" stroke="#939393" stroke-width="0.671533" stroke-miterlimit="10" stroke-linecap="round"/>
        <path d="M163.048 82.1293C161.906 82.1293 160.966 81.1892 160.966 80.0476C160.966 78.906 161.906 77.9658 163.048 77.9658C164.19 77.9658 165.13 78.906 165.13 80.0476C165.063 81.1892 164.19 82.1293 163.048 82.1293Z" fill="#E4EAEF" stroke="#939393" stroke-width="0.671533" stroke-miterlimit="10"/>
        <path d="M163.048 81.1216C162.444 81.1216 161.974 80.6515 161.974 80.0471C161.974 79.4427 162.444 78.9727 163.048 78.9727C163.652 78.9727 164.123 79.4427 164.123 80.0471C164.123 80.6515 163.652 81.1216 163.048 81.1216Z" fill="#E4EAEF" stroke="#939393" stroke-width="0.671533" stroke-miterlimit="10"/>
        <path d="M159.691 83.1357H155.863" stroke="#939393" stroke-width="0.671533" stroke-miterlimit="10"/>
        <path d="M179.349 105.054V33.8047H177.066V105.054H179.349Z" fill="white" stroke="#939393" stroke-width="0.671533" stroke-miterlimit="10"/>
        <path d="M214.286 70.041H142.499V72.5928H214.286V70.041Z" fill="white" stroke="#939393" stroke-width="0.671533" stroke-miterlimit="10"/>
    </g>
    <path d="M62.1913 40.8131L67.431 47.5516L62.1913 40.8131ZM63.8322 38.8319L69.5208 42.0266L63.8322 38.8319ZM64.5524 36.4535L73.1261 37.527L64.5524 36.4535ZM70.0969 32.3023L62.3514 34.4768L70.0969 32.3023ZM63.1395 31.7933L70.0724 26.4013L63.1395 31.7933ZM61.2207 30.2256L65.5547 22.5082L61.2207 30.2256Z" fill="white" stroke="#939393" stroke-width="0.671533" stroke-miterlimit="10"/>
    <path d="M154.855 73.7145L151.632 65.8105L154.855 73.7145ZM152.74 75.1784L148.127 70.565L152.74 75.1784ZM151.404 77.2736L143.439 73.9227L151.404 77.2736ZM144.944 79.7717L152.989 79.7717L144.944 79.7717ZM151.505 82.1422L143.372 85.4596L151.505 82.1422ZM152.928 84.1703L146.669 90.4289L152.928 84.1703Z" fill="white" stroke="#939393" stroke-width="0.671533" stroke-miterlimit="10"/>
    <defs>
        <clipPath id="clip0">
            <rect width="206.161" height="141.358" fill="white" transform="translate(11.0801 2.68652)"/>
        </clipPath>
    </defs>
</svg>
