<svg width="12" height="12" viewBox="0 0 12 12" fill="none" xmlns="http://www.w3.org/2000/svg">
  <path fill-rule="evenodd" clip-rule="evenodd"
        d="M0 6C0 9.31371 2.68629 12 6 12C9.31371 12 12 9.31371 12 6C12 2.68629 9.31371 0 6 0C2.68629 0 0 2.68629 0 6ZM5.35355 9.35355L8.35355 6.35355C8.54882 6.15829 8.54882 5.84171 8.35355 5.64645L5.35355 2.64645C5.15829 2.45118 4.84171 2.45118 4.64645 2.64645C4.45118 2.84171 4.45118 3.15829 4.64645 3.35355L7.29289 6L4.64645 8.64645C4.45118 8.84171 4.45118 9.15829 4.64645 9.35355C4.84171 9.54882 5.15829 9.54882 5.35355 9.35355Z"
        fill="#616161" />
</svg>
