<svg width="12" height="12" viewBox="0 0 12 12" fill="none" xmlns="http://www.w3.org/2000/svg">
  <path fill-rule="evenodd" clip-rule="evenodd"
        d="M12 6C12 9.31371 9.31371 12 6 12C2.68629 12 0 9.31371 0 6C0 2.68629 2.68629 0 6 0C9.31371 0 12 2.68629 12 6ZM6.64645 9.35355L3.64645 6.35355C3.45118 6.15829 3.45118 5.84171 3.64645 5.64645L6.64645 2.64645C6.84171 2.45118 7.15829 2.45118 7.35355 2.64645C7.54882 2.84171 7.54882 3.15829 7.35355 3.35355L4.70711 6L7.35355 8.64645C7.54882 8.84171 7.54882 9.15829 7.35355 9.35355C7.15829 9.54882 6.84171 9.54882 6.64645 9.35355Z"
        fill="#616161" />
</svg>
