<svg width="24" height="25" viewBox="0 0 24 25" fill="none" xmlns="http://www.w3.org/2000/svg">
<path fill-rule="evenodd" clip-rule="evenodd" d="M15.04 22.3896L15.052 22.3966C17.24 23.7896 20.1019 23.4757 21.936 21.6416L22.71 20.8676C23.4298 20.1469 23.4298 18.9793 22.71 18.2586L19.449 14.9996C18.7283 14.2798 17.5607 14.2798 16.84 14.9996V14.9996C16.4943 15.3457 16.0252 15.5402 15.536 15.5402C15.0468 15.5402 14.5777 15.3457 14.232 14.9996L9.014 9.78063C8.29418 9.05991 8.29418 7.89235 9.014 7.17163V7.17163C9.36012 6.82593 9.5546 6.35682 9.5546 5.86763C9.5546 5.37844 9.36012 4.90932 9.014 4.56363L5.754 1.29963C5.03328 0.579812 3.86572 0.579812 3.145 1.29963L2.371 2.07363C0.537281 3.90777 0.223035 6.76924 1.615 8.95763L1.623 8.96963C5.19641 14.2595 9.75097 18.815 15.04 22.3896V22.3896Z" stroke="black" stroke-width="1.5" stroke-linecap="round" stroke-linejoin="round"/>
</svg>
