<svg width="55" height="46" viewBox="0 0 55 46" fill="none" xmlns="http://www.w3.org/2000/svg">
<path d="M47.0373 0.697144C40.8071 -1.93787 30.9932 3.49684 22.7782 7.01019C14.5632 10.4686 7.94705 12.0057 3.92225 16.8915C-0.047417 21.7223 -1.42578 29.9018 1.77201 35.0072C4.9698 40.0576 12.6886 42.0339 20.5177 43.9003C28.3467 45.7119 36.2861 47.4137 42.6265 44.1748C48.967 40.9908 53.7085 32.9211 54.7561 23.5339C55.8587 14.0918 53.2123 3.38705 47.0373 0.697144Z" fill="#F8F9F7"/>
<path d="M28 29.9517V33.9517M21.3333 33.9517H34.6667M13.3333 11.9517H42.6667C43.0348 11.9517 43.3333 12.2501 43.3333 12.6183V29.285C43.3333 29.6532 43.0348 29.9517 42.6667 29.9517H13.3333C12.9651 29.9517 12.6667 29.6532 12.6667 29.285V12.6183C12.6667 12.2501 12.9651 11.9517 13.3333 11.9517ZM26.1019 24.7565C25.9429 24.8469 25.7479 24.8461 25.5896 24.7543C25.4314 24.6626 25.3338 24.4937 25.3333 24.3107V17.8647C25.3338 17.6817 25.4314 17.5128 25.5896 17.4211C25.7479 17.3293 25.9429 17.3285 26.1019 17.4189L31.7413 20.642C31.9013 20.7334 32 20.9035 32 21.0877C32 21.2719 31.9013 21.442 31.7413 21.5334L26.1019 24.7565Z" stroke="black" stroke-width="1.5" stroke-linecap="round" stroke-linejoin="round"/>
</svg>
