<svg width="18" height="18" viewBox="0 0 18 18" fill="none" xmlns="http://www.w3.org/2000/svg">
<path fill-rule="evenodd" clip-rule="evenodd" d="M1.5 9C1.5 4.86075 4.86 1.5 9 1.5C13.14 1.5 16.5 4.86075 16.5 9C16.5 13.14 13.14 16.5 9 16.5C4.86 16.5 1.5 13.14 1.5 9ZM8.7 11.8501L11.7 9.60013C12.0975 9.30088 12.0975 8.70013 11.7 8.40013L8.7 6.15013C8.205 5.78263 7.5 6.13513 7.5 6.75013V11.2501C7.5 11.8659 8.205 12.2176 8.7 11.8501Z" fill="black"/>
<mask id="mask0_25650_55561" style="mask-type:alpha" maskUnits="userSpaceOnUse" x="1" y="1" width="16" height="16">
<path fill-rule="evenodd" clip-rule="evenodd" d="M1.5 9C1.5 4.86075 4.86 1.5 9 1.5C13.14 1.5 16.5 4.86075 16.5 9C16.5 13.14 13.14 16.5 9 16.5C4.86 16.5 1.5 13.14 1.5 9ZM8.7 11.8501L11.7 9.60013C12.0975 9.30088 12.0975 8.70013 11.7 8.40013L8.7 6.15013C8.205 5.78263 7.5 6.13513 7.5 6.75013V11.2501C7.5 11.8659 8.205 12.2176 8.7 11.8501Z" fill="white"/>
</mask>
<g mask="url(#mask0_25650_55561)">
<rect width="19.5" height="19.5" fill="black"/>
</g>
</svg>
