<svg width="35" height="18" viewBox="0 0 35 18" fill="none" xmlns="http://www.w3.org/2000/svg">
    <rect width="35" height="18" rx="4" fill="url(#paint0_linear)"/>
    <path d="M8.71241 6.114H6.57941V12H7.90241V10.002H8.80241C9.93641 10.002 10.5754 9.264 10.5754 8.067C10.5754 6.852 9.90041 6.114 8.71241 6.114ZM7.90241 7.185H8.66741C9.08141 7.185 9.26141 7.437 9.26141 8.085C9.26141 8.724 9.08141 8.994 8.66741 8.994H7.90241V7.185ZM13.7611 6.033C12.3751 6.033 11.6191 6.852 11.6191 8.13V9.984C11.6191 11.253 12.3751 12.081 13.7611 12.081C15.1381 12.081 15.9031 11.253 15.9031 9.975V8.13C15.9031 6.852 15.1381 6.033 13.7611 6.033ZM14.5711 9.975C14.5711 10.731 14.3191 11.028 13.7611 11.028C13.1851 11.028 12.9421 10.731 12.9421 9.984V8.13C12.9421 7.401 13.1941 7.113 13.7611 7.113C14.3281 7.113 14.5711 7.41 14.5711 8.13V9.975ZM17.2298 6.114V12H20.5238V10.848H18.5078V6.114H17.2298ZM25.2679 6.114H23.8099L22.8379 8.94H22.8199L21.8659 6.114H20.3989L22.1719 10.218V12H23.4859V10.245L25.2679 6.114ZM27.3964 11.208H28.2874V9.651H29.5744V8.751H28.2874V7.203H27.3964V8.751H26.1364V9.651H27.3964V11.208Z" fill="white"/>
    <defs>
        <linearGradient id="paint0_linear" x1="-17.5" y1="9" x2="-2.8583" y2="37.47" gradientUnits="userSpaceOnUse">
            <stop stop-color="#F70C5F"/>
            <stop offset="1" stop-color="#1E4C7D"/>
        </linearGradient>
    </defs>
</svg>
