
<svg width="154" height="36" viewBox="0 0 154 36" version="1.1" xmlns="http://www.w3.org/2000/svg" xmlns:xlink="http://www.w3.org/1999/xlink">
    <defs>
        <path d="M27.3161451,15.6527638 L20.7531455,19.4065327 L20.7851156,19.2301508 L20.7851156,19.0718593 L20.7851156,18.8140704 L20.7851156,18.7733668 L20.7851156,18.4567839 L20.7851156,17.859799 L20.7851156,17.4979899 L20.7577127,17.1678392 L20.7257426,16.8105528 L20.6983397,16.6115578 L20.648101,16.2633166 L20.5841608,15.9241206 L20.5156535,15.5894472 L20.4334448,15.2592965 L20.3786389,15.0557789 L20.2827287,14.739196 L20.1776842,14.4316583 L20.081774,14.178392 L19.9584608,13.8753769 L19.8260134,13.5859296 L19.6889988,13.301005 L19.5382827,13.0160804 L19.3738652,12.740201 L19.3738652,12.7130653 L19.2003133,12.4417085 L19.0176272,12.1703518 L18.8258067,11.9080402 L18.6202848,11.6457286 L18.4010615,11.3834171 L18.3736585,11.3562814 L18.1453009,11.1030151 L17.8986746,10.8497487 L17.642914,10.5964824 L17.3688848,10.3477387 L17.3688848,10.3477387 L17.0811541,10.098995 L16.7751548,9.85025126 L16.4645884,9.61507538 L16.1220519,9.36180905 L15.7475453,9.1040201 L15.4689489,8.91859296 L15.0396365,8.64723618 L14.5555182,8.35326633 L14.3956678,8.25829146 L13.806505,7.91005025 L13.655789,7.82864322 L13.2858495,7.61155779 L0,0 L0,4.76683417 L6.56299958,8.5160804 L6.3940149,8.57939698 L6.24786599,8.64271357 L6.01037401,8.75125628 L6.01037401,8.75125628 L6.01037401,8.75125628 L5.72721049,8.90050251 L5.42577836,9.07236181 L5.20655499,9.19899497 L4.90055571,9.39346734 L4.62195935,9.58341709 L4.32509437,9.79145729 L4.165244,9.91356784 L3.88664763,10.1306533 L3.61718557,10.3522613 L3.36142498,10.5829146 L3.11479869,10.8135678 L2.96408262,10.9628141 L2.73572495,11.2025126 L2.51650158,11.4512563 L2.34294975,11.6592965 L2.14199499,11.9125628 L1.9547417,12.1703518 L1.77205556,12.4326633 L1.60307088,12.7040201 L1.43865335,12.9844221 L1.43865335,13.0070352 L1.28793729,13.2919598 L1.14178838,13.5859296 L1.00934092,13.8844221 L0.881460626,14.1874372 L0.767281789,14.5040201 L0.767281789,14.5447236 L0.657670104,14.8703518 L0.561759881,15.2050251 L0.470416811,15.5487437 L0.388208048,15.9060302 L0.388208048,15.9376884 L0.315133592,16.3085427 L0.251193443,16.6974874 L0.196387601,17.0819095 L0.150716066,17.5025126 L0.109611684,17.9547739 L0.109611684,18.2894472 L0.0822087631,18.7914573 L0.0822087631,19.3522613 L0.0822087631,36 L4.25201991,33.6211055 L4.25201991,26.1316583 L4.38903452,26.2447236 L4.51691481,26.3396985 L4.73613818,26.4889447 L4.73613818,26.4889447 L4.73613818,26.4889447 L5.00560024,26.6562814 L5.31159952,26.8326633 L5.53082289,26.9547739 L5.85965794,27.1221106 L6.15652292,27.2668342 L6.48992513,27.4160804 L6.66347696,27.4884422 L6.99687917,27.619598 L7.33028137,27.7371859 L7.65911643,27.8457286 L7.98795148,27.9407035 L8.18890623,27.9949749 L8.51774128,28.0718593 L8.84200918,28.1351759 L9.10690409,28.180402 L9.43573914,28.2256281 L9.76000704,28.261809 L10.0705735,28.2844221 L10.3994085,28.2844221 L10.7465122,28.2844221 L11.0707801,28.2844221 L11.4041823,28.261809 L11.7330174,28.2256281 L12.0664196,28.180402 L12.4043889,28.121608 L12.436359,28.121608 L12.7788955,28.0492462 L13.121432,27.9678392 L13.4731028,27.8683417 L13.833908,27.759799 L13.833908,27.759799 L14.1947131,27.6331658 L14.5692197,27.4929648 L14.9254576,27.3482412 L15.3228,27.1763819 L15.738411,26.9819095 L16.035276,26.8371859 L16.4919913,26.6065327 L16.9943782,26.3396985 L17.1542286,26.2537688 L17.7570928,25.9145729 L17.8986746,25.8331658 L18.2731812,25.620603 L31.5544636,18.0271357 L27.3161451,15.6527638 Z M10.4861844,24.1643233 C7.97536892,24.1661511 5.7107571,22.6698305 4.74862914,20.3732867 C3.78650118,18.076743 4.31639744,15.4323979 6.09115904,13.6736503 C7.86592063,11.9149026 10.5359174,11.3882277 12.855786,12.3392819 C15.1756547,13.2903361 16.6883789,15.5317606 16.6883789,18.0180905 C16.6883789,21.4107948 13.9123005,24.1618251 10.4861844,24.1643233 Z" id="path-1"></path>
    </defs>
    <g id="Artboard" stroke="none" stroke-width="1" fill="none" fill-rule="evenodd">
        <g id="Group-6">
            <g id="Group-2">
                <mask id="mask-2" fill="white">
                    <use xlink:href="#path-1"></use>
                </mask>
                <use id="Mask" fill="#FFFFFF" fill-rule="nonzero" xlink:href="#path-1"></use>
                <path d="M43.8052381,11.9250959 C42.0838656,11.8966606 40.4262757,12.5687833 39.2206603,13.7840593 C38.0150448,14.9993354 37.3672969,16.6510231 37.429113,18.3523129 L37.429113,30.5454545 L40.6354978,28.711048 L40.6354978,23.3754162 C41.5666953,24.0697249 42.708051,24.4320934 43.8739463,24.4035897 C46.1685179,24.4549885 48.3104727,23.270719 49.4677547,21.3108182 C50.6250367,19.3509174 50.6152384,16.9242993 49.4421661,14.9735991 C48.2690937,13.0228989 46.1176437,11.8555804 43.8235603,11.9250959 L43.8052381,11.9250959 Z M43.8052381,21.2692457 C42.0698175,21.2692457 40.6629811,19.8781194 40.6629811,18.1620781 C40.6629811,16.4460368 42.0698175,15.0549105 43.8052381,15.0549105 C45.5406587,15.0549105 46.9474951,16.4460368 46.9474951,18.1620781 C46.989994,18.9983265 46.6726057,19.8132998 46.0738564,20.4053629 C45.4751071,20.997426 44.6509303,21.31127 43.8052381,21.2692457 L43.8052381,21.2692457 Z M65.7552318,8.02075411 L68.9616165,6.18181818 L68.9616165,23.9325322 L65.7552318,23.9325322 L65.7552318,8.02075411 Z M57.7575922,11.9250959 C54.2795436,11.9600397 51.4855379,14.7706608 51.5098785,18.2099635 C51.5342192,21.6492662 54.367732,24.4209447 57.8459345,24.407798 C61.3241371,24.3945574 64.1360618,21.6014643 64.1338027,18.1620781 C64.1425113,16.4950299 63.4725948,14.8945965 62.2748979,13.7213506 C61.0772009,12.5481046 59.4524706,11.9007364 57.7667533,11.9250959 L57.7575922,11.9250959 Z M57.7575922,21.2692457 C56.0221716,21.2692457 54.6153352,19.8781194 54.6153352,18.1620781 C54.6153352,16.4460368 56.0221716,15.0549105 57.7575922,15.0549105 C59.4930128,15.0549105 60.8998492,16.4460368 60.8998492,18.1620781 C60.9421376,18.9966745 60.6259671,19.8101095 60.0292782,20.4018605 C59.4325892,20.9936114 58.6108946,21.3086249 57.7667533,21.2692457 L57.7575922,21.2692457 Z M83.6560197,12.3961534 L76.15766,29.3451639 L72.7314088,29.3451639 L75.3285805,23.6743565 L70.2899759,12.3961534 L73.7895158,12.3961534 L77.0966726,19.7926617 L80.2389297,12.3961534 L83.6560197,12.3961534 Z" id="Mask" fill-rule="nonzero"></path>
            </g>
            <g id="Group-5" transform="translate(37.000000, 6.000000)" fill="#FFFFFF" fill-rule="nonzero">
                <path d="M6.80523809,5.92509591 C5.08386561,5.89666056 3.42627571,6.5687833 2.22066026,7.78405934 C1.01504482,8.99933539 0.367296936,10.6510231 0.429113043,12.3523129 L0.429113043,24.5454545 L3.63549777,22.711048 L3.63549777,17.3754162 C4.56669534,18.0697249 5.70805095,18.4320934 6.87394634,18.4035897 C9.16851794,18.4549885 11.3104727,17.270719 12.4677547,15.3108182 C13.6250367,13.3509174 13.6152384,10.9242993 12.4421661,8.97359909 C11.2690937,7.02289889 9.11764366,5.8555804 6.82356029,5.92509591 L6.80523809,5.92509591 Z M6.80523809,15.2692457 C5.06981746,15.2692457 3.66298106,13.8781194 3.66298106,12.1620781 C3.66298106,10.4460368 5.06981746,9.05491051 6.80523809,9.05491051 C8.54065873,9.05491051 9.94749512,10.4460368 9.94749512,12.1620781 C9.98999395,12.9983265 9.6726057,13.8132998 9.07385642,14.4053629 C8.47510713,14.997426 7.65093027,15.31127 6.80523809,15.2692457 L6.80523809,15.2692457 Z M28.7552318,2.02075411 L31.9616165,0.181818182 L31.9616165,17.9325322 L28.7552318,17.9325322 L28.7552318,2.02075411 Z M20.7575922,5.92509591 C17.2795436,5.96003967 14.4855379,8.77066075 14.5098785,12.2099635 C14.5342192,15.6492662 17.367732,18.4209447 20.8459345,18.407798 C24.3241371,18.3945574 27.1360618,15.6014643 27.1338027,12.1620781 C27.1425113,10.4950299 26.4725948,8.89459654 25.2748979,7.7213506 C24.0772009,6.54810465 22.4524706,5.90073643 20.7667533,5.92509591 L20.7575922,5.92509591 Z M20.7575922,15.2692457 C19.0221716,15.2692457 17.6153352,13.8781194 17.6153352,12.1620781 C17.6153352,10.4460368 19.0221716,9.05491051 20.7575922,9.05491051 C22.4930128,9.05491051 23.8998492,10.4460368 23.8998492,12.1620781 C23.9421376,12.9966745 23.6259671,13.8101095 23.0292782,14.4018605 C22.4325892,14.9936114 21.6108946,15.3086249 20.7667533,15.2692457 L20.7575922,15.2692457 Z M46.6560197,6.39615339 L39.15766,23.3451639 L35.7314088,23.3451639 L38.3285805,17.6743565 L33.2899759,6.39615339 L36.7895158,6.39615339 L40.0966726,13.7926617 L43.2389297,6.39615339 L46.6560197,6.39615339 Z" id="Mask"></path>
            </g>
            <path d="M101.112903,2.51612903 L101.241935,2.51612903 C101.518078,2.51612903 101.741935,2.73998666 101.741935,3.01612903 L101.741935,33.1129032 C101.741935,33.3890456 101.518078,33.6129032 101.241935,33.6129032 L101.112903,33.6129032 C100.836761,33.6129032 100.612903,33.3890456 100.612903,33.1129032 L100.612903,3.01612903 C100.612903,2.73998666 100.836761,2.51612903 101.112903,2.51612903 Z" id="Rectangle" fill="#FFFFFF"></path>
            <path d="M118.750452,22.696 L123.710452,22.696 L123.710452,24 L117.198452,24 L117.198452,12.536 L118.750452,12.536 L118.750452,22.696 Z M132.486452,12.536 L132.486452,13.8 L126.982452,13.8 L126.982452,17.608 L131.438452,17.608 L131.438452,18.824 L126.982452,18.824 L126.982452,22.736 L132.486452,22.736 L132.486452,24 L125.422452,24 L125.422452,12.536 L132.486452,12.536 Z M135.518452,12.536 C135.657119,12.536 135.759785,12.5533332 135.826452,12.588 C135.893119,12.6226668 135.969118,12.6933328 136.054452,12.8 L142.694452,21.44 C142.678452,21.3013326 142.667785,21.1666673 142.662452,21.036 C142.657118,20.9053327 142.654452,20.7786673 142.654452,20.656 L142.654452,12.536 L144.014452,12.536 L144.014452,24 L143.230452,24 C143.107784,24 143.005119,23.9786669 142.922452,23.936 C142.839785,23.8933331 142.758452,23.8213338 142.678452,23.72 L136.046452,15.088 C136.057118,15.221334 136.065118,15.3519994 136.070452,15.48 C136.075785,15.6080006 136.078452,15.7253328 136.078452,15.832 L136.078452,24 L134.718452,24 L134.718452,12.536 L135.518452,12.536 Z M152.686452,14.328 C152.638451,14.408 152.587785,14.4679998 152.534452,14.508 C152.481118,14.5480002 152.411785,14.568 152.326452,14.568 C152.235784,14.568 152.130452,14.5226671 152.010452,14.432 C151.890451,14.3413329 151.738453,14.2413339 151.554452,14.132 C151.370451,14.0226661 151.14912,13.9226671 150.890452,13.832 C150.631784,13.7413329 150.318453,13.696 149.950452,13.696 C149.603783,13.696 149.29712,13.7426662 149.030452,13.836 C148.763784,13.9293338 148.541119,14.0559992 148.362452,14.216 C148.183784,14.3760008 148.049119,14.5639989 147.958452,14.78 C147.867784,14.9960011 147.822452,15.2293321 147.822452,15.48 C147.822452,15.8000016 147.901117,16.0653323 148.058452,16.276 C148.215786,16.4866677 148.423784,16.6666659 148.682452,16.816 C148.94112,16.9653341 149.23445,17.0946661 149.562452,17.204 C149.890453,17.3133339 150.22645,17.4266661 150.570452,17.544 C150.914453,17.6613339 151.25045,17.7933326 151.578452,17.94 C151.906453,18.0866674 152.199784,18.2719989 152.458452,18.496 C152.71712,18.7200011 152.925117,18.994665 153.082452,19.32 C153.239786,19.645335 153.318452,20.045331 153.318452,20.52 C153.318452,21.0213358 153.233119,21.4919978 153.062452,21.932 C152.891784,22.3720022 152.642453,22.754665 152.314452,23.08 C151.98645,23.405335 151.583787,23.6613324 151.106452,23.848 C150.629116,24.0346676 150.086455,24.128 149.478452,24.128 C148.737115,24.128 148.061121,23.9933347 147.450452,23.724 C146.839782,23.4546653 146.318454,23.090669 145.886452,22.632 L146.334452,21.896 C146.377118,21.837333 146.429118,21.7880002 146.490452,21.748 C146.551785,21.7079998 146.619785,21.688 146.694452,21.688 C146.784052,21.688 146.883891,21.7263996 146.993971,21.8031998 L147.078452,21.868 C147.222452,21.9880006 147.402451,22.1199993 147.618452,22.264 C147.834453,22.408 148.095783,22.5399994 148.402452,22.66 C148.70912,22.7800006 149.083783,22.84 149.526452,22.84 C149.894453,22.84 150.22245,22.7893338 150.510452,22.688 C150.798453,22.5866662 151.042451,22.4440009 151.242452,22.26 C151.442453,22.0759991 151.595784,21.8560013 151.702452,21.6 C151.809119,21.3439987 151.862452,21.0586682 151.862452,20.744 C151.862452,20.3973316 151.783786,20.1133344 151.626452,19.892 C151.469117,19.6706656 151.262453,19.4853341 151.006452,19.336 C150.75045,19.1866659 150.458453,19.0600005 150.130452,18.956 L149.122452,18.636 L149.122452,18.636 C148.77845,18.5266661 148.442453,18.4000007 148.114452,18.256 C147.78645,18.1119993 147.494453,17.9253345 147.238452,17.696 C146.98245,17.4666655 146.775786,17.1800017 146.618452,16.836 C146.461117,16.4919983 146.382452,16.0666692 146.382452,15.56 C146.382452,15.1546646 146.461117,14.7626686 146.618452,14.384 C146.775786,14.0053314 147.003783,13.6693348 147.302452,13.376 C147.60112,13.0826652 147.970449,12.8480009 148.410452,12.672 C148.850454,12.4959991 149.355782,12.408 149.926452,12.408 C150.566455,12.408 151.150449,12.5093323 151.678452,12.712 C152.206454,12.9146677 152.667783,13.2079981 153.062452,13.592 L152.686452,14.328 Z" id="LENS" fill="#FFFFFF" fill-rule="nonzero"></path>
        </g>
    </g>
</svg>