<svg width="48" height="27" viewBox="0 0 48 27" fill="none" xmlns="http://www.w3.org/2000/svg">
<path fill-rule="evenodd" clip-rule="evenodd" d="M29.3984 2.79951V19.3468H32.6964V0.887207L29.3984 2.79951ZM6.839 6.85995H6.8199C5.04947 6.82994 3.34453 7.52922 2.10422 8.79291C0.864305 10.0566 0.197765 11.7744 0.261301 13.5433V26.2235L3.5597 24.3159V18.7668C4.51741 19.4887 5.69146 19.866 6.89084 19.8364C9.2514 19.8898 11.4545 18.6581 12.6445 16.6199C13.8349 14.5821 13.8252 12.0586 12.6184 10.0297C11.4459 8.05855 9.32273 6.85644 7.03857 6.85644C6.9723 6.85644 6.90565 6.85761 6.839 6.85995ZM6.8199 16.5766C5.03544 16.5766 3.58776 15.1301 3.58776 13.3457C3.58776 11.5612 5.03544 10.1147 6.8199 10.1147C8.60513 10.1147 10.0524 11.5612 10.0524 13.3457C10.0961 14.2153 9.76982 15.0627 9.15395 15.6785C8.57473 16.2574 7.79047 16.5805 6.97542 16.5805C6.92358 16.5805 6.87174 16.579 6.8199 16.5766ZM21.1813 6.85995H21.1719C17.5945 6.8962 14.7201 9.81884 14.7455 13.3955C14.7704 16.9723 17.6853 19.8544 21.2628 19.8407C24.8406 19.8271 27.7329 16.9224 27.7305 13.3457C27.7399 11.6119 27.0507 9.94786 25.8182 8.72743C24.6091 7.52961 22.9755 6.85917 21.2752 6.85917C21.244 6.85917 21.2129 6.85956 21.1813 6.85995ZM17.9394 13.3457C17.9394 11.5612 19.3871 10.1147 21.1719 10.1147C22.9572 10.1147 24.4041 11.5612 24.4041 13.3457C24.4477 14.2133 24.1223 15.0592 23.5087 15.675C22.8952 16.2905 22.0497 16.6179 21.1813 16.5766H21.1719C19.3871 16.5766 17.9394 15.1301 17.9394 13.3457ZM44.297 7.34952L41.0641 15.0412L37.6628 7.34952H34.063L39.2461 19.0779L36.5741 24.975H40.0989L47.8113 7.34952H44.297Z" fill="white"/>
</svg>
