<svg width="58" height="10" viewBox="0 0 58 10" fill="none" xmlns="http://www.w3.org/2000/svg">
<path d="M3.67788 0.818588H0.800627V9H2.3018V6.02267H3.77796C5.30416 6.02267 6.16733 5.0469 6.16733 3.43314C6.16733 1.79435 5.26663 0.818588 3.67788 0.818588ZM2.3018 2.04455H3.62784C4.36592 2.04455 4.67867 2.45737 4.67867 3.45816C4.67867 4.43392 4.36592 4.88427 3.62784 4.88427H2.3018V2.04455ZM10.69 0.706C8.81355 0.706 7.78774 1.81937 7.78774 3.58326V6.24784C7.78774 7.99922 8.81355 9.11259 10.69 9.11259C12.5665 9.11259 13.6048 7.99922 13.6048 6.24784V3.57075C13.6048 1.81937 12.5665 0.706 10.69 0.706ZM12.0911 6.24784C12.0911 7.39875 11.6408 7.91165 10.69 7.91165C9.73927 7.91165 9.28892 7.39875 9.28892 6.24784V3.58326C9.28892 2.44486 9.73927 1.94447 10.69 1.94447C11.6408 1.94447 12.0911 2.45737 12.0911 3.58326V6.24784ZM15.679 0.818588V9H20.17V7.69898H17.1301V0.818588H15.679ZM26.6938 0.818588H25.0175L23.4162 5.02188H23.3912L21.7899 0.818588H20.1136L22.6531 6.39796V9H24.1543V6.39796L26.6938 0.818588ZM31.7233 0.818588V9H36.2143V7.69898H33.1744V0.818588H31.7233ZM38.008 0.818588V9H42.9118V7.73651H39.5092V5.35965H42.0237V4.23376H39.5092V2.09459H42.7868V0.818588H38.008ZM44.818 0.818588V9H46.1566V3.68333H46.1816L49.3466 9H50.3974V0.818588H49.0714V5.97263H49.0463L45.9564 0.818588H44.818ZM54.7911 0.706C53.2649 0.706 52.3392 1.66926 52.3392 2.90773C52.3392 5.54729 56.0296 5.20953 56.0296 6.92337C56.0296 7.5989 55.6417 7.93667 54.8411 7.93667C54.2031 7.93667 53.5651 7.56137 53.3024 6.79827L52.189 7.19859C52.5143 8.37451 53.6026 9.11259 54.8536 9.11259C56.4174 9.11259 57.4432 8.26192 57.4432 6.77326C57.4432 4.08365 53.8153 4.38388 53.8153 2.84518C53.8153 2.26973 54.1281 1.88192 54.9287 1.88192C55.6042 1.88192 56.1421 2.20718 56.3923 2.85769L57.4181 2.35729C56.9803 1.344 56.1296 0.706 54.7911 0.706Z" fill="white"/>
</svg>
