<svg width="48" height="48" viewBox="0 0 48 48" fill="none" xmlns="http://www.w3.org/2000/svg">
<circle cx="24" cy="24" r="23.25" stroke="black" stroke-width="1.5"/>
<path fill-rule="evenodd" clip-rule="evenodd" d="M30.376 22.5H17.626C14.9366 22.4929 12.7581 20.3144 12.751 17.625V17.625C12.7587 14.9358 14.9368 12.7577 17.626 12.75H30.376C33.0649 12.7582 35.2427 14.936 35.251 17.625V17.625C35.2433 20.3142 33.0652 22.4923 30.376 22.5Z" stroke="black" stroke-width="1.5" stroke-linecap="round" stroke-linejoin="round"/>
<path fill-rule="evenodd" clip-rule="evenodd" d="M30.376 35.25H17.626C14.9366 35.2429 12.7581 33.0644 12.751 30.375V30.375C12.7587 27.6858 14.9368 25.5077 17.626 25.5H30.376C33.0649 25.5082 35.2427 27.686 35.251 30.375V30.375C35.2433 33.0642 33.0652 35.2423 30.376 35.25V35.25Z" stroke="black" stroke-width="1.5" stroke-linecap="round" stroke-linejoin="round"/>
<path fill-rule="evenodd" clip-rule="evenodd" d="M17.626 19.5C18.6615 19.5 19.501 18.6605 19.501 17.625C19.501 16.5895 18.6615 15.75 17.626 15.75C16.5904 15.75 15.751 16.5895 15.751 17.625C15.751 18.6605 16.5904 19.5 17.626 19.5Z" stroke="black" stroke-width="1.5" stroke-linecap="round" stroke-linejoin="round"/>
<path fill-rule="evenodd" clip-rule="evenodd" d="M30.376 32.25C31.4115 32.25 32.251 31.4105 32.251 30.375C32.251 29.3395 31.4115 28.5 30.376 28.5C29.3404 28.5 28.501 29.3395 28.501 30.375C28.501 31.4105 29.3404 32.25 30.376 32.25Z" stroke="black" stroke-width="1.5" stroke-linecap="round" stroke-linejoin="round"/>
</svg>
