<svg width="51" height="16" viewBox="0 0 51 16" fill="none" xmlns="http://www.w3.org/2000/svg">
<path d="M0 4C0 1.79086 1.79086 0 4 0H47C49.2091 0 51 1.79086 51 4V12C51 14.2091 49.2091 16 47 16H4C1.79086 16 0 14.2091 0 12V4Z" fill="#5D748E"/>
<path d="M9.91162 5.114H7.77863V11H9.10163V9.002H10.0016C11.1356 9.002 11.7746 8.264 11.7746 7.067C11.7746 5.852 11.0996 5.114 9.91162 5.114ZM9.10163 6.185H9.86663C10.2806 6.185 10.4606 6.437 10.4606 7.085C10.4606 7.724 10.2806 7.994 9.86663 7.994H9.10163V6.185ZM15.8154 11H17.2374L16.0134 8.435C16.6164 8.201 16.9224 7.616 16.9224 6.851C16.9224 5.807 16.3554 5.114 14.9964 5.114H12.9984V11H14.3214V8.723H14.8434L15.8154 11ZM14.3214 6.176H14.9604C15.4554 6.176 15.6174 6.383 15.6174 6.95C15.6174 7.454 15.4824 7.742 14.9694 7.742H14.3214V6.176ZM18.306 5.114V11H21.87V9.884H19.629V8.48H21.24V7.49H19.629V6.239H21.798V5.114H18.306ZM27.6846 5.114H26.2266L25.1646 9.443H25.1466L24.0756 5.114H22.6176L24.4626 11H25.8396L27.6846 5.114ZM28.7911 5.114V11H30.1231V5.114H28.7911ZM31.7151 5.114V11H35.2791V9.884H33.0381V8.48H34.6491V7.49H33.0381V6.239H35.2071V5.114H31.7151ZM43.6048 5.114H42.2998L41.4448 9.47H41.4268L40.4908 5.114H39.2668L38.3308 9.452H38.3128L37.4578 5.114H36.1438L37.5838 11H38.9968L39.8788 7.157H39.8968L40.7428 11H42.1648L43.6048 5.114Z" fill="white"/>
</svg>
