<svg width="30" height="35" viewBox="0 0 30 35" fill="none" xmlns="http://www.w3.org/2000/svg">
<path fill-rule="evenodd" clip-rule="evenodd" d="M0 4.5773L6.20545 8.17778L6.04563 8.23898L5.90765 8.29939L5.68313 8.40386L5.41534 8.5473L5.13002 8.71218L4.92304 8.83379L4.63343 9.0205L4.37032 9.20293L4.08928 9.4025L3.93843 9.51982L3.67493 9.72836L3.42001 9.94119L3.17834 10.1626L2.94486 10.384L2.80259 10.5274L2.58664 10.7578L2.37966 10.9967L2.21517 11.1963L2.02535 11.4391L1.84799 11.6871L1.67531 11.9389L1.51589 12.1996L1.35997 12.469V12.4904L1.21809 12.7644L1.07972 13.0462L0.954594 13.3331L0.83337 13.6239L0.725398 13.928V13.9673L0.621714 14.2799L0.530893 14.6011L0.44475 14.9313L0.366792 15.2743V15.3047L0.298189 15.661L0.237382 16.034L0.18554 16.4035L0.142273 16.8073L0.103684 17.2416V17.5631L0.0779579 18.0453V18.5836V34.5704L4.02029 32.2859V25.0939L4.15009 25.2022L4.27053 25.2938L4.4779 25.4369L4.73321 25.5975L5.02205 25.7666L5.22941 25.8843L5.54047 26.0453L5.8215 26.1841L6.13645 26.3271L6.30055 26.3969L6.6155 26.5228L6.93084 26.6355L7.2419 26.7399L7.55295 26.8311L7.74277 26.8834L8.05383 26.957L8.36059 27.0179L8.61084 27.0611L8.92189 27.1044L9.22826 27.1395L9.52216 27.1613H9.83282H10.161H10.4678L10.7831 27.1395L11.0938 27.1044L11.4091 27.0611L11.7288 27.0046H11.7588L12.0831 26.9348L12.4066 26.8569L12.7391 26.7618L13.0802 26.6569L13.4216 26.5357L13.7755 26.4008L14.1123 26.2621L14.4881 26.0968L14.8814 25.9101L15.162 25.7713L15.5935 25.5499L16.0687 25.2938L16.2195 25.2112L16.7898 24.8849L16.9239 24.8074L17.2778 24.6031L29.8356 17.3109L25.8282 15.0311L19.6228 18.6358L19.6528 18.4663V18.3146V18.0671V18.0278V17.7237V17.1503V16.803L19.6271 16.4861L19.597 16.1431L19.5709 15.9517L19.5238 15.6173L19.463 15.2914L19.3983 14.9706L19.3203 14.6533L19.2685 14.4581L19.178 14.154L19.0786 13.8586L18.9878 13.6153L18.8713 13.3242L18.7461 13.0462L18.6163 12.7726L18.4741 12.499L18.3185 12.2343V12.2082L18.1544 11.9474L17.9818 11.6871L17.8005 11.4352L17.606 11.1831L17.3986 10.9313L17.3729 10.9055L17.157 10.6623L16.9239 10.4187L16.6822 10.1754L16.423 9.9369L16.1505 9.69796L15.8617 9.45902L15.5678 9.23294L15.2439 8.9901L14.8896 8.74258L14.6265 8.56445L14.2203 8.30368L13.7627 8.02147L13.6114 7.93065L13.0544 7.59621L12.9118 7.51787L12.5621 7.30933L0 0V4.5773ZM4.48998 19.5639C3.58021 17.3589 4.08109 14.8194 5.75953 13.1304C7.43757 11.4419 9.96185 10.9359 12.1556 11.8492C14.3493 12.7625 15.7795 14.9149 15.7795 17.3024C15.7795 20.5602 13.1546 23.2022 9.91507 23.2049C9.9139 23.2049 9.91234 23.2049 9.91156 23.2049C9.91117 23.2049 9.91078 23.2049 9.91039 23.2049C7.53814 23.2049 5.39936 21.7682 4.48998 19.5639Z" fill="white"/>
</svg>
