<svg width="56" height="25" viewBox="0 0 56 25" fill="none" xmlns="http://www.w3.org/2000/svg">
<path fill-rule="evenodd" clip-rule="evenodd" d="M13.8923 12.9909L18.2856 10.4781L21.1228 12.0675L12.2322 17.1506L11.9815 17.2929L11.8867 17.3474L11.4832 17.5745L11.3762 17.632L11.0399 17.8106L10.7341 17.965L10.5354 18.0619L10.2572 18.1921L9.99122 18.3071L9.75275 18.404L9.50205 18.4979L9.26053 18.5826L9.019 18.6553L8.78359 18.7219L8.5543 18.7764L8.325 18.8248H8.3036L8.07736 18.8642L7.85418 18.8945L7.63405 18.9187L7.41087 18.9338H7.1938H6.96145H6.74132L6.53343 18.9187L6.31636 18.8945L6.09623 18.8642L5.91891 18.8339L5.70184 18.7915L5.48172 18.7401L5.3472 18.7037L5.12707 18.6402L4.90695 18.5675L4.68377 18.4888L4.46059 18.401L4.34441 18.3525L4.12123 18.2526L3.9225 18.1558L3.70238 18.0437L3.55563 17.962L3.35079 17.8439L3.17041 17.7319L3.02366 17.632L2.93806 17.5684L2.84634 17.4927V22.5062L0.0550312 24.0987V12.9546V12.5792L0.0733749 12.2431V12.0191L0.100891 11.7163L0.131463 11.4348L0.168151 11.1774L0.210953 10.9171L0.25987 10.6688V10.6476L0.314901 10.4085L0.376047 10.1784L0.44025 9.95433L0.513625 9.73635V9.70911L0.590057 9.49718L0.675661 9.29434L0.764322 9.09453L0.862156 8.89774L0.963046 8.70701V8.69188L1.07311 8.50417L1.18623 8.32252L1.30852 8.14693L1.43387 7.97436L1.56839 7.80483L1.68457 7.66556L1.83132 7.49905L1.98418 7.3386L2.08507 7.23869L2.25016 7.08429L2.42137 6.92989L2.60175 6.78154L2.78825 6.63622L2.89525 6.55448L3.09398 6.41522L3.28047 6.28806L3.48531 6.15788L3.63206 6.07311L3.83384 5.95807L4.02339 5.85816L4.18237 5.7855L4.2802 5.74312L4.39332 5.70073L0 3.19096V0L8.89365 5.09524L9.1413 5.24056L9.24219 5.29505L9.63658 5.52817L9.74358 5.59174L10.0677 5.78853L10.355 5.97018L10.5415 6.0943L10.7922 6.26687L11.0215 6.43641L11.2294 6.59384L11.4343 6.76035L11.6269 6.92686L11.8103 7.09337L11.9815 7.26291L12.1466 7.43245L12.2995 7.60199L12.3178 7.62015L12.4646 7.79574L12.6021 7.97134L12.7306 8.14693L12.8528 8.32858L12.969 8.51023V8.52839L13.0791 8.71307L13.18 8.9038L13.2717 9.09453L13.3604 9.28829L13.4429 9.49113L13.5071 9.66067L13.5774 9.86654L13.6416 10.0785L13.6783 10.2147L13.7333 10.4357L13.7792 10.6597L13.822 10.8868L13.8556 11.1199L13.874 11.2531L13.8954 11.4923L13.9137 11.7133V11.9555V12.3551V12.567V12.5943V12.7669V12.8728L13.8923 12.9909ZM3.17876 13.638C3.82282 15.1753 5.33876 16.1769 7.01952 16.1757C9.31299 16.1741 11.1713 14.3325 11.1713 12.0614C11.1713 10.397 10.1587 8.89659 8.60575 8.25995C7.05282 7.6233 5.2655 7.97587 4.07746 9.15318C2.88942 10.3305 2.5347 12.1007 3.17876 13.638Z" fill="#EB3C00"/>
<path fill-rule="evenodd" clip-rule="evenodd" d="M44.0172 5.36918L46.1636 4.13818V16.0207H44.0172V5.36918ZM26.2547 9.22712C27.0618 8.4136 28.1714 7.96368 29.3237 7.98271H29.3359C30.8716 7.93618 32.3118 8.71759 33.0971 10.0234C33.8823 11.3292 33.8889 12.9536 33.1142 14.2656C32.3395 15.5776 30.9057 16.3703 29.3697 16.3359C28.5892 16.355 27.8252 16.1124 27.2018 15.6476V19.2194L25.0554 20.4473V12.2851C25.0141 11.1463 25.4477 10.0406 26.2547 9.22712ZM27.2202 12.1578C27.2202 13.3066 28.162 14.2378 29.3237 14.2378C29.8898 14.2659 30.4415 14.0558 30.8423 13.6595C31.2431 13.2632 31.4556 12.7176 31.4271 12.1578C31.4271 11.0091 30.4854 10.0779 29.3237 10.0779C28.162 10.0779 27.2202 11.0091 27.2202 12.1578ZM34.4813 12.19C34.465 9.88767 36.3353 8.00621 38.6635 7.98282H38.6697C39.7981 7.96651 40.8857 8.39987 41.6875 9.18525C42.4892 9.97063 42.9376 11.042 42.9318 12.1579C42.9333 14.4603 41.051 16.33 38.7227 16.3388C36.3943 16.3476 34.4976 14.4923 34.4813 12.19ZM38.6635 14.2378C37.5018 14.2378 36.5601 13.3066 36.5601 12.1578C36.5601 11.0091 37.5018 10.0779 38.6635 10.0779C39.8252 10.0779 40.767 11.0091 40.767 12.1578C40.7953 12.7165 40.5836 13.261 40.1842 13.6572C39.7848 14.0533 39.2347 14.2642 38.6696 14.2378H38.6635ZM50.9806 19.6439L56.0001 8.29812H53.7127L51.6092 13.2494L49.3954 8.29812H47.0527L50.4256 15.8478L48.6871 19.6439H50.9806Z" fill="#00263E"/>
</svg>
