<svg width="55" height="46" viewBox="0 0 55 46" fill="none" xmlns="http://www.w3.org/2000/svg">
<path d="M7.96275 0.697147C14.1929 -1.93787 24.0068 3.49685 32.2218 7.01019C40.4368 10.4686 47.0529 12.0057 51.0778 16.8915C55.0474 21.7223 56.4258 29.9018 53.228 35.0072C50.0302 40.0576 42.3114 42.0339 34.4823 43.9003C26.6533 45.7119 18.7139 47.4137 12.3735 44.1748C6.03304 40.9908 1.2915 32.9211 0.243946 23.5339C-0.85874 14.0918 1.78771 3.38705 7.96275 0.697147Z" fill="#F8F9F7"/>
<path d="M19.4465 29.8844C17.3968 27.9913 16.1069 25.3982 15.8233 22.6008C15.5397 19.8035 16.2824 16.9982 17.9093 14.7215C19.5363 12.4448 21.9333 10.8564 24.642 10.26C27.3507 9.66367 30.1811 10.1012 32.5918 11.489M15.4944 29.8029C14.0625 32.3479 13.5832 34.3227 14.3918 35.1443C15.6195 36.3886 19.4606 34.6293 23.9085 31.0509M28.9997 30.1467L24.7738 25.8592M28.9997 30.1467L38.3913 20.616C39.1575 19.8391 39.701 18.8655 39.9636 17.7992L40.568 15.3465C40.6096 15.1773 40.6072 15 40.5613 14.8319C40.5153 14.6639 40.4273 14.5107 40.3057 14.3874C40.1842 14.2641 40.0332 14.1748 39.8676 14.1281C39.7019 14.0815 39.5272 14.0792 39.3604 14.1213L36.9441 14.7369C35.8928 15.0022 34.9326 15.5528 34.1665 16.3297L24.7738 25.8592M28.9997 30.1467L30.153 33.6593C30.1797 33.7413 30.2267 33.815 30.2895 33.8733C30.3523 33.9317 30.4288 33.9727 30.5117 33.9925C30.5946 34.0124 30.6811 34.0103 30.7629 33.9865C30.8448 33.9628 30.9193 33.9181 30.9793 33.8569L32.1857 32.6329C32.7101 32.1008 33.0781 31.4311 33.2484 30.6988C33.4187 29.9665 33.3847 29.2005 33.1501 28.4868L32.5221 26.5706L28.9997 30.1467ZM24.7738 25.8592L21.3127 24.6891C21.2319 24.662 21.1592 24.6143 21.1017 24.5506C21.0442 24.4869 21.0038 24.4093 20.9842 24.3252C20.9647 24.2411 20.9667 24.1534 20.9901 24.0703C21.0136 23.9873 21.0576 23.9117 21.118 23.8508L22.3244 22.6268C22.8488 22.0948 23.5089 21.7215 24.2307 21.5487C24.9525 21.3759 25.7075 21.4104 26.411 21.6484L28.2997 22.2855L24.7738 25.8592Z" stroke="black" stroke-width="1.5" stroke-linecap="round" stroke-linejoin="round"/>
</svg>
