<svg width="16" height="16" viewBox="0 0 16 16" fill="none" xmlns="http://www.w3.org/2000/svg">
<path fill-rule="evenodd" clip-rule="evenodd" d="M3.99137 0.523709C7.32197 -0.891766 11.1694 0.660757 12.5849 3.99137C13.5836 6.34127 13.1048 8.94846 11.5665 10.7772L15.8366 15.0479C16.0545 15.2659 16.0545 15.6192 15.8365 15.8372C15.6186 16.0551 15.2652 16.0551 15.0473 15.8371L10.7775 11.5667C10.2901 11.9771 9.7342 12.3227 9.11725 12.5849C5.78664 14.0004 1.93918 12.4479 0.523709 9.11725C-0.891766 5.78664 0.660756 1.93918 3.99137 0.523709ZM10.4312 10.3674C10.4199 10.3771 10.4089 10.3873 10.3981 10.398C10.3873 10.4088 10.377 10.42 10.3673 10.4314C9.89452 10.8966 9.32809 11.2825 8.68069 11.5577C5.91741 12.732 2.72532 11.444 1.55095 8.68069C0.376586 5.91741 1.66465 2.72532 4.42793 1.55095C7.19121 0.376586 10.3833 1.66465 11.5577 4.42793C12.4444 6.51434 11.9272 8.84522 10.4312 10.3674Z" fill="black"/>
</svg>
