<svg width="25" height="24" viewBox="0 0 25 24" fill="none" xmlns="http://www.w3.org/2000/svg">
<path d="M12.0013 0C10.9966 0 10.1006 0.632226 9.76377 1.57881L9.31375 2.84385C9.18325 3.2092 8.90376 3.50275 8.54465 3.65129C8.18555 3.79982 7.78035 3.78946 7.42931 3.62276L6.21631 3.04676C5.30963 2.61205 4.2253 2.79725 3.51298 3.50957C2.80065 4.2219 2.61546 5.30622 3.05098 6.21459L3.62617 7.4259C3.7927 7.77684 3.80284 8.18203 3.65403 8.54099C3.50522 8.89995 3.21137 9.17911 2.84526 9.30935L1.58026 9.75935C0.633086 10.0955 0 10.992 0 11.9974C0 13.0028 0.633086 13.8993 1.58059 14.2356L2.84526 14.6855C3.21198 14.8158 3.50614 15.0952 3.65499 15.4545C3.80383 15.8138 3.79342 16.2194 3.62633 16.5706L3.05017 17.784C2.61546 18.6906 2.80065 19.775 3.51298 20.4873C4.2253 21.1996 5.30963 21.3848 6.218 20.9493L7.4276 20.374C7.77899 20.2068 8.18474 20.1964 8.54425 20.3453C8.90376 20.4941 9.18336 20.7883 9.31374 21.155L9.76375 22.42C10.1006 23.3666 10.9966 23.9989 12.0013 23.9989C13.0061 23.9989 13.9021 23.3666 14.2389 22.42L14.6889 21.155C14.8192 20.7883 15.0986 20.4941 15.4579 20.3453C15.8172 20.1964 16.2228 20.2068 16.574 20.3739L17.7874 20.9501C18.6946 21.3834 19.7776 21.1976 20.4893 20.4859C21.201 19.7742 21.3868 18.6912 20.953 17.7829L20.3751 16.5721C20.2083 16.2214 20.1978 15.8158 20.3467 15.4565C20.4955 15.0972 20.7897 14.8178 21.1562 14.6876L22.4214 14.2375C23.3686 13.9013 24.0017 13.0048 24.0017 11.9994C24.0017 10.994 23.3686 10.0975 22.4211 9.76123L21.1564 9.31135C20.7897 9.18109 20.4955 8.90168 20.3467 8.54235C20.1978 8.18302 20.2083 7.77745 20.3753 7.42623L20.9532 6.21351C21.3868 5.30569 21.201 4.22268 20.4893 3.51099C19.7776 2.7993 18.6946 2.61348 17.7864 3.04724L16.5738 3.62505C16.2228 3.79201 15.8172 3.80243 15.4579 3.65358C15.0986 3.50473 14.8192 3.21057 14.689 2.84407L14.2389 1.57885C13.9021 0.632226 13.0061 0 12.0013 0ZM12.0013 1C12.583 1 13.1018 1.36603 13.2968 1.91405L13.7468 3.17901C13.9716 3.81203 14.4544 4.32028 15.0752 4.57745C15.6961 4.83463 16.3968 4.81664 17.0036 4.52794L18.2169 3.9498C18.7431 3.69849 19.3701 3.80607 19.7822 4.2181C20.1942 4.63013 20.3018 5.25713 20.0506 5.78295L19.4725 6.99635C19.1836 7.60345 19.1656 8.30421 19.4228 8.92505C19.68 9.5459 20.1882 10.0287 20.8215 10.2536L22.0863 10.7035C22.6351 10.8983 23.0017 11.4173 23.0017 11.9994C23.0017 12.5815 22.6351 13.1005 22.0866 13.2952L20.8213 13.7453C20.1882 13.9702 19.68 14.453 19.4228 15.0738C19.1656 15.6947 19.1836 16.3954 19.4723 17.0022L20.0506 18.2138C20.3018 18.7397 20.1942 19.3667 19.7822 19.7788C19.3701 20.1908 18.7431 20.2984 18.2173 20.0472L17.0033 19.4708C16.3968 19.1822 15.6961 19.1642 15.0752 19.4214C14.4544 19.6786 13.9716 20.1868 13.7467 20.8201L13.2968 22.0849C13.1018 22.6328 12.583 22.9989 12.0013 22.9989C11.4197 22.9989 10.9009 22.6328 10.7059 22.0848L10.2559 20.8199C10.0307 20.1866 9.54779 19.6785 8.92682 19.4213C8.30585 19.1642 7.60501 19.1822 6.99807 19.4709L5.78707 20.0469C5.25993 20.2996 4.63236 20.1924 4.22009 19.7802C3.80781 19.3679 3.70063 18.7403 3.95269 18.2146L4.5295 16.9999C4.81804 16.3934 4.83604 15.6927 4.57886 15.0718C4.32168 14.451 3.81343 13.9682 3.18019 13.7433L1.91541 13.2933C1.36652 13.0985 1 12.5795 1 11.9974C1 11.4153 1.36652 10.8963 1.91508 10.7016L3.18041 10.2515C3.81297 10.0265 4.32068 9.54416 4.5778 8.92394C4.83491 8.30373 4.81738 7.60365 4.52956 6.99708L3.9535 5.78395C3.70063 5.25653 3.80781 4.62895 4.22009 4.21668C4.63236 3.80441 5.25993 3.69722 5.78567 3.94929L7.00036 4.52609C7.60671 4.81402 8.30659 4.83192 8.92687 4.57536C9.54714 4.3188 10.0299 3.81175 10.2557 3.17963L10.7059 1.91401C10.9009 1.36603 11.4197 1 12.0013 1Z" fill="black"/>
<path d="M12.0008 6.99951C9.23941 6.99951 7.00084 9.23809 7.00084 11.9995C7.00084 14.7609 9.23941 16.9995 12.0008 16.9995C14.7623 16.9995 17.0008 14.7609 17.0008 11.9995C17.0008 9.23809 14.7623 6.99951 12.0008 6.99951ZM12.0008 7.99951C14.21 7.99951 16.0008 9.79037 16.0008 11.9995C16.0008 14.2087 14.21 15.9995 12.0008 15.9995C9.7917 15.9995 8.00084 14.2087 8.00084 11.9995C8.00084 9.79037 9.7917 7.99951 12.0008 7.99951Z" fill="black"/>
</svg>