<svg width="191" height="137" viewBox="0 0 191 137" fill="none" xmlns="http://www.w3.org/2000/svg">
<path d="M9.8598 73.46C5.2198 56.09 16.8098 34.23 33.5998 27.42C50.3198 20.69 72.2598 7.07 94.3398 7C116.35 7 138.28 20.62 152.76 27.28C167.24 34.08 174.19 56.09 172.96 76.87C171.73 97.65 162.32 117.19 147.84 125.88C133.36 134.71 113.82 132.54 97.6698 129.14C81.4498 125.81 69.6298 109.51 52.7598 100.75C35.9598 92.05 14.4198 90.91 9.8598 73.46Z" fill="#F2F2F2"/>
<path d="M8.83008 108.14H181.99" stroke="#939393" stroke-miterlimit="10"/>
<path d="M33.3096 64.1699C37.5496 64.1699 37.5496 67.4899 41.7896 67.4899C46.0296 67.4899 46.0296 64.1699 50.2696 64.1699C54.5096 64.1699 54.5096 67.4899 58.7496 67.4899C62.9896 67.4899 62.9896 64.1699 67.2296 64.1699C71.4696 64.1699 71.4696 67.4899 75.7096 67.4899C79.9496 67.4899 79.9496 64.1699 84.1896 64.1699C88.4296 64.1699 88.4296 67.4899 92.6696 67.4899C96.9096 67.4899 96.9096 64.1699 101.15 64.1699C105.39 64.1699 105.39 67.4899 109.63 67.4899C113.87 67.4899 113.87 64.1699 118.11 64.1699C122.35 64.1699 122.35 67.4899 126.59 67.4899C130.83 67.4899 130.83 64.1699 135.07 64.1699C139.31 64.1699 139.31 67.4899 143.55 67.4899" stroke="#939393" stroke-miterlimit="10"/>
<path d="M16.5 72.8005C20.74 72.8005 20.74 69.4805 24.98 69.4805C29.22 69.4805 29.22 72.8005 33.46 72.8005C37.7 72.8005 37.7 69.4805 41.94 69.4805C46.18 69.4805 46.18 72.8005 50.42 72.8005C54.66 72.8005 54.66 69.4805 58.9 69.4805C63.14 69.4805 63.14 72.8005 67.38 72.8005C71.62 72.8005 71.62 69.4805 75.86 69.4805C80.1 69.4805 80.1 72.8005 84.34 72.8005C88.58 72.8005 88.58 69.4805 92.82 69.4805C97.06 69.4805 97.06 72.8005 101.3 72.8005C105.54 72.8005 105.54 69.4805 109.78 69.4805C114.02 69.4805 114.02 72.8005 118.26 72.8005C122.5 72.8005 122.5 69.4805 126.74 69.4805C130.98 69.4805 130.98 72.8005 135.22 72.8005C139.46 72.8005 139.46 69.4805 143.7 69.4805C147.94 69.4805 147.94 72.8005 152.18 72.8005C156.42 72.8005 156.42 69.4805 160.66 69.4805" stroke="#939393" stroke-miterlimit="10"/>
<path d="M24.8301 78.28C29.0701 78.28 29.0701 74.96 33.3101 74.96C37.5501 74.96 37.5501 78.28 41.7901 78.28C46.0301 78.28 46.0301 74.96 50.2701 74.96C54.5101 74.96 54.5101 78.28 58.7501 78.28C62.9901 78.28 62.9901 74.96 67.2301 74.96C71.4701 74.96 71.4701 78.28 75.7101 78.28C79.9501 78.28 79.9501 74.96 84.1901 74.96C88.4301 74.96 88.4301 78.28 92.6701 78.28C96.9101 78.28 96.9101 74.96 101.15 74.96C105.39 74.96 105.39 78.28 109.63 78.28C113.87 78.28 113.87 74.96 118.11 74.96C122.35 74.96 122.35 78.28 126.59 78.28C130.83 78.28 130.83 74.96 135.07 74.96C139.31 74.96 139.31 78.28 143.55 78.28C147.79 78.28 147.79 74.96 152.03 74.96" stroke="#939393" stroke-miterlimit="10"/>
<path d="M8.01953 80.2695C12.2595 80.2695 12.2595 83.5895 16.4995 83.5895C20.7395 83.5895 20.7395 80.2695 24.9795 80.2695C29.2195 80.2695 29.2195 83.5895 33.4595 83.5895C37.6995 83.5895 37.6995 80.2695 41.9395 80.2695C46.1795 80.2695 46.1795 83.5895 50.4195 83.5895C54.6595 83.5895 54.6595 80.2695 58.8995 80.2695C63.1395 80.2695 63.1395 83.5895 67.3795 83.5895C71.6195 83.5895 71.6195 80.2695 75.8595 80.2695C80.0995 80.2695 80.0995 83.5895 84.3395 83.5895C88.5795 83.5895 88.5795 80.2695 92.8195 80.2695C97.0595 80.2695 97.0595 83.5895 101.3 83.5895C105.54 83.5895 105.54 80.2695 109.78 80.2695C114.02 80.2695 114.02 83.5895 118.26 83.5895C122.5 83.5895 122.5 80.2695 126.74 80.2695C130.98 80.2695 130.98 83.5895 135.22 83.5895C139.46 83.5895 139.46 80.2695 143.7 80.2695" stroke="#939393" stroke-miterlimit="10"/>
<path d="M16.3496 85.75C20.5896 85.75 20.5896 89.07 24.8296 89.07C29.0696 89.07 29.0696 85.75 33.3096 85.75C37.5496 85.75 37.5496 89.07 41.7896 89.07C46.0296 89.07 46.0296 85.75 50.2696 85.75C54.5096 85.75 54.5096 89.07 58.7496 89.07C62.9896 89.07 62.9896 85.75 67.2296 85.75C71.4696 85.75 71.4696 89.07 75.7096 89.07C79.9496 89.07 79.9496 85.75 84.1896 85.75C88.4296 85.75 88.4296 89.07 92.6696 89.07C96.9096 89.07 96.9096 85.75 101.15 85.75C105.39 85.75 105.39 89.07 109.63 89.07C113.87 89.07 113.87 85.75 118.11 85.75C122.35 85.75 122.35 89.07 126.59 89.07C130.83 89.07 130.83 85.75 135.07 85.75C139.31 85.75 139.31 89.07 143.55 89.07C147.79 89.07 147.79 85.75 152.03 85.75C156.27 85.75 156.27 89.07 160.52 89.07C164.76 89.07 164.76 85.75 169 85.75" stroke="#939393" stroke-miterlimit="10"/>
<path d="M33.46 94.3796C37.7 94.3796 37.7 91.0596 41.94 91.0596C46.18 91.0596 46.18 94.3796 50.42 94.3796C54.66 94.3796 54.66 91.0596 58.9 91.0596C63.14 91.0596 63.14 94.3796 67.38 94.3796C71.62 94.3796 71.62 91.0596 75.86 91.0596C80.1 91.0596 80.1 94.3796 84.34 94.3796C88.58 94.3796 88.58 91.0596 92.82 91.0596C97.06 91.0596 97.06 94.3796 101.3 94.3796C105.54 94.3796 105.54 91.0596 109.78 91.0596C114.02 91.0596 114.02 94.3796 118.26 94.3796C122.5 94.3796 122.5 91.0596 126.74 91.0596C130.98 91.0596 130.98 94.3796 135.22 94.3796C139.46 94.3796 139.46 91.0596 143.7 91.0596C147.94 91.0596 147.94 94.3796 152.18 94.3796" stroke="#939393" stroke-miterlimit="10"/>
<path d="M64.4099 108.14H36.2599C34.1099 108.14 32.3299 106.45 32.2199 104.3L30.4199 68.2998H70.2499L68.4399 104.3C68.3399 106.45 66.5599 108.14 64.4099 108.14Z" fill="white" stroke="#939393" stroke-miterlimit="10"/>
<path d="M77.3202 48.7804C71.9202 49.9004 66.6302 46.4204 65.5202 41.0204C64.4002 35.6204 67.8802 30.3304 73.2802 29.2204C77.0002 28.4504 80.8702 28.8004 84.3902 30.2204L95.7002 34.7904L87.1302 43.4604C84.4502 46.1604 81.0402 48.0104 77.3202 48.7804Z" fill="#E4EAEF" stroke="#939393" stroke-miterlimit="10"/>
<path d="M27.1299 16.0004C32.5599 16.9504 36.1999 22.1304 35.2399 27.5704C34.2899 33.0004 29.1099 36.6404 23.6699 35.6804C19.9299 35.0204 16.4599 33.2704 13.7099 30.6504L4.87988 22.2404L16.0399 17.3404C19.5299 15.8104 23.3899 15.3504 27.1299 16.0004Z" fill="#E4EAEF" stroke="#939393" stroke-miterlimit="10"/>
<path d="M20.0703 24.9004C36.7903 24.9004 50.3403 38.4504 50.3403 55.1704V68.3004" stroke="#939393" stroke-miterlimit="10"/>
<path d="M80.6001 37.9004C63.8801 37.9004 50.3301 51.4504 50.3301 68.1704" stroke="#939393" stroke-miterlimit="10"/>
<path d="M30.6904 73.6797H38.6804" stroke="#939393" stroke-miterlimit="10"/>
<path d="M30.6904 77.6797H39.6804" stroke="#939393" stroke-miterlimit="10"/>
<path d="M31.1602 81.6797H40.6302" stroke="#939393" stroke-miterlimit="10"/>
<path d="M60.6904 93.6797H68.6804" stroke="#939393" stroke-miterlimit="10"/>
<path d="M59.6904 97.6797H68.6804" stroke="#939393" stroke-miterlimit="10"/>
<path d="M59.1602 101.68H68.1602" stroke="#939393" stroke-miterlimit="10"/>
</svg>
