<svg width="14" height="14" viewBox="0 0 14 14" fill="none" xmlns="http://www.w3.org/2000/svg">
<circle cx="7.10946" cy="6.83212" r="6.83212" fill="#318461"/>
<path d="M4.287 7.53623L5.33317 9.02093C5.46692 9.22088 5.69615 9.34771 5.94425 9.35512C6.19234 9.36254 6.42873 9.24962 6.57888 9.05197L9.92414 4.81964C10.0338 4.68087 10.0102 4.47947 9.87147 4.3698C9.73271 4.26012 9.53131 4.2837 9.42163 4.42246L6.07262 8.65966C6.0439 8.69736 6.00461 8.71613 5.96337 8.7149C5.92214 8.71367 5.88404 8.69259 5.86109 8.65831L4.81059 7.16729C4.70871 7.02271 4.50891 6.98809 4.36433 7.08997C4.21975 7.19185 4.18513 7.39164 4.287 7.53623Z" fill="white"/>
</svg>
