<svg width="17" height="16" viewBox="0 0 17 16" fill="none" xmlns="http://www.w3.org/2000/svg">
  <path fill-rule="evenodd" clip-rule="evenodd"
        d="M8.89521 0.680951C8.89521 0.398718 8.66641 0.169922 8.38418 0.169922C8.10194 0.169922 7.87315 0.398718 7.87315 0.680951V2.72507C7.87315 3.0073 8.10194 3.2361 8.38418 3.2361C8.66641 3.2361 8.89521 3.0073 8.89521 2.72507V0.680951ZM5.65869 8.17605C5.65869 6.6708 6.87893 5.45056 8.38418 5.45056C9.88943 5.45056 11.1097 6.6708 11.1097 8.17605C11.1097 9.6813 9.88943 10.9015 8.38418 10.9015C6.87893 10.9015 5.65869 9.6813 5.65869 8.17605ZM8.38418 4.4285C6.31446 4.4285 4.63663 6.10634 4.63663 8.17605C4.63663 10.2458 6.31446 11.9236 8.38418 11.9236C10.4539 11.9236 12.1317 10.2458 12.1317 8.17605C12.1317 6.10634 10.4539 4.4285 8.38418 4.4285ZM14.6364 3.17536C14.814 3.3947 14.7802 3.71649 14.5609 3.89411L12.9723 5.18051C12.753 5.35813 12.4312 5.32431 12.2536 5.10497C12.076 4.88563 12.1098 4.56384 12.3291 4.38622L13.9177 3.09982C14.137 2.9222 14.4588 2.95603 14.6364 3.17536ZM15.5758 10.3443C15.8508 10.4078 16.1252 10.2363 16.1887 9.96129C16.2522 9.68629 16.0807 9.41189 15.8057 9.3484L13.814 8.88857C13.539 8.82508 13.2646 8.99655 13.2011 9.27155C13.1376 9.54655 13.3091 9.82095 13.5841 9.88443L15.5758 10.3443ZM11.8648 15.386C11.6111 15.5097 11.3052 15.4043 11.1814 15.1507L10.2854 13.3134C10.1616 13.0598 10.267 12.7538 10.5207 12.6301C10.7743 12.5064 11.0803 12.6117 11.204 12.8654L12.1001 14.7026C12.2238 14.9563 12.1185 15.2622 11.8648 15.386ZM4.66827 14.7027C4.54455 14.9563 4.64989 15.2623 4.90356 15.386C5.15723 15.5097 5.46317 15.4044 5.58689 15.1507L6.48298 13.3135C6.6067 13.0598 6.50136 12.7539 6.24769 12.6301C5.99402 12.5064 5.68808 12.6117 5.56436 12.8654L4.66827 14.7027ZM0.579617 9.96128C0.516128 9.68628 0.687592 9.41188 0.962592 9.34839L2.95432 8.88857C3.22932 8.82508 3.50372 8.99654 3.56721 9.27154C3.6307 9.54654 3.45923 9.82094 3.18423 9.88443L1.19251 10.3443C0.917505 10.4077 0.643106 10.2363 0.579617 9.96128ZM2.85066 3.09986C2.63132 2.92224 2.30953 2.95606 2.13191 3.1754C1.95429 3.39474 1.98812 3.71653 2.20745 3.89414L3.79603 5.18055C4.01537 5.35816 4.33716 5.32434 4.51478 5.10501C4.69239 4.88567 4.65857 4.56388 4.43923 4.38626L2.85066 3.09986Z"
        fill="#000000" />
</svg>
