<svg width="48" height="48" viewBox="0 0 48 48" fill="none" xmlns="http://www.w3.org/2000/svg">
<circle cx="24" cy="24" r="23.25" stroke="black" stroke-width="1.5"/>
<path d="M27.3223 14.5488C30.8644 15.4562 33.5039 18.4187 33.9982 22.0416C34.4924 25.6645 32.7429 29.2258 29.5733 31.0488V35.2488" stroke="black" stroke-width="1.5" stroke-linecap="round" stroke-linejoin="round"/>
<path fill-rule="evenodd" clip-rule="evenodd" d="M25.0723 27C27.1433 27 28.8223 25.3211 28.8223 23.25C28.8223 21.1789 27.1433 19.5 25.0723 19.5C23.0012 19.5 21.3223 21.1789 21.3223 23.25C21.3223 25.3211 23.0012 27 25.0723 27Z" stroke="black" stroke-width="1.5" stroke-linecap="round" stroke-linejoin="round"/>
<path d="M22.8223 20.25V13.5C22.8223 13.0858 23.1581 12.75 23.5723 12.75H26.5723C26.9865 12.75 27.3223 13.0858 27.3223 13.5V20.25" stroke="black" stroke-width="1.5" stroke-linecap="round" stroke-linejoin="round"/>
<path d="M16.0728 27.7609L15.1368 27.5269C14.6637 27.4085 14.2777 27.0675 14.1019 26.6126C13.926 26.1577 13.9823 25.6458 14.2528 25.2399L16.0728 22.5109V21.7609C16.0728 18.2189 18.9408 15.2499 22.8218 14.4609" stroke="black" stroke-width="1.5" stroke-linecap="round" stroke-linejoin="round"/>
<path d="M20.5733 35.2495V33.0105L19.5663 33.1775C19.1525 33.2477 18.7286 33.2296 18.3223 33.1245" stroke="black" stroke-width="1.5" stroke-linecap="round" stroke-linejoin="round"/>
<path d="M25.0723 23.25C25.0723 27.3921 21.7144 30.75 17.5723 30.75H16.0723" stroke="black" stroke-width="1.5" stroke-linecap="round" stroke-linejoin="round"/>
</svg>
