<svg width="55" height="46" viewBox="0 0 55 46" fill="none" xmlns="http://www.w3.org/2000/svg">
<path d="M7.96274 45.3029C14.1929 47.9379 24.0068 42.5032 32.2218 38.9898C40.4368 35.5314 47.0529 33.9943 51.0777 29.1085C55.0474 24.2777 56.4258 16.0982 53.228 10.9928C50.0302 5.94239 42.3114 3.96613 34.4823 2.09967C26.6533 0.288098 18.7139 -1.41368 12.3735 1.82519C6.03304 5.00916 1.2915 13.0789 0.243944 22.4661C-0.858742 31.9082 1.7877 42.6129 7.96274 45.3029Z" fill="#F8F9F7"/>
<path d="M30.9858 10.0239C32.9339 10.5229 34.689 11.5914 36.0268 13.0929C37.3646 14.5944 38.2243 16.4607 38.4962 18.4532C38.768 20.4458 38.4396 22.4742 37.5529 24.2792C36.6661 26.0841 35.2614 27.5837 33.5181 28.5864V33.3114M25.9233 16.4375V8.84375C25.9233 8.61997 26.0122 8.40536 26.1704 8.24713C26.3286 8.08889 26.5432 8 26.767 8H30.142C30.3658 8 30.5804 8.08889 30.7386 8.24713C30.8969 8.40536 30.9858 8.61997 30.9858 8.84375V16.4375M18.3308 24.8874L17.2778 24.6242C17.0155 24.5585 16.7729 24.4308 16.5702 24.2518C16.3676 24.0728 16.211 23.8477 16.1135 23.5956C16.016 23.3434 15.9806 23.0715 16.0101 22.8027C16.0397 22.534 16.1333 22.2763 16.2833 22.0513L18.3308 18.9812V18.1374C18.3308 14.1527 21.5573 10.8125 25.9234 9.92491M23.3931 33.3125V30.7936L22.2603 30.9815C21.7948 31.0605 21.3179 31.0401 20.8608 30.9219M28.4545 19.8125C28.4545 22.0503 27.5656 24.1964 25.9832 25.7787C24.4009 27.3611 22.2548 28.25 20.017 28.25H18.3295M24.2358 19.8125C24.2358 20.9314 24.6802 22.0044 25.4714 22.7956C26.2626 23.5868 27.3356 24.0312 28.4545 24.0312C29.5734 24.0312 30.6465 23.5868 31.4376 22.7956C32.2288 22.0044 32.6733 20.9314 32.6733 19.8125C32.6733 18.6936 32.2288 17.6206 31.4376 16.8294C30.6465 16.0382 29.5734 15.5938 28.4545 15.5938C27.3356 15.5938 26.2626 16.0382 25.4714 16.8294C24.6802 17.6206 24.2358 18.6936 24.2358 19.8125Z" stroke="black" stroke-width="1.5" stroke-linecap="round" stroke-linejoin="round"/>
</svg>
