<svg width="12" height="12" viewBox="0 0 12 12" fill="none" xmlns="http://www.w3.org/2000/svg">
  <path fill-rule="evenodd" clip-rule="evenodd"
        d="M6 12C2.68629 12 0 9.31371 0 6C0 2.68629 2.68629 0 6 0C9.31371 0 12 2.68629 12 6C12 9.31371 9.31371 12 6 12ZM2.64645 6.64645L5.64645 3.64645C5.84171 3.45118 6.15829 3.45118 6.35355 3.64645L9.35355 6.64645C9.54882 6.84171 9.54882 7.15829 9.35355 7.35355C9.15829 7.54882 8.84171 7.54882 8.64645 7.35355L6 4.70711L3.35355 7.35355C3.15829 7.54882 2.84171 7.54882 2.64645 7.35355C2.45118 7.15829 2.45118 6.84171 2.64645 6.64645Z"
        fill="#616161" />
</svg>
