<svg width="172" height="117" viewBox="0 0 172 117" fill="none" xmlns="http://www.w3.org/2000/svg">
<g clip-path="url(#clip0)">
<path d="M170.54 60.9487C175.359 78.9824 163.307 101.679 145.831 108.742C128.43 115.73 105.602 106.94 82.6252 107.015C59.7226 107.015 36.8988 115.805 21.8286 108.895C6.76289 101.832 -0.470426 78.9868 0.810929 57.4196C2.09228 35.8525 11.8839 15.5635 26.9541 6.54224C42.0198 -2.62294 62.3597 -0.367632 79.1572 3.16146C96.0335 6.6164 109.214 11.5022 126.769 20.5932C144.248 29.6144 165.791 42.8409 170.54 60.9487Z" fill="#F2F2F2"/>
<path d="M84.9535 115.546C105.614 115.546 122.362 98.8396 122.362 78.231C122.362 57.6225 105.614 40.916 84.9535 40.916C64.2933 40.916 47.5449 57.6225 47.5449 78.231C47.5449 98.8396 64.2933 115.546 84.9535 115.546Z" fill="#F7F8F9" stroke="#939393" stroke-width="0.814416" stroke-miterlimit="10"/>
<path d="M84.9534 104.605C99.5561 104.605 111.394 92.797 111.394 78.2308C111.394 63.6647 99.5561 51.8564 84.9534 51.8564C70.3508 51.8564 58.5129 63.6647 58.5129 78.2308C58.5129 92.797 70.3508 104.605 84.9534 104.605Z" fill="#F7F8F9" stroke="#939393" stroke-width="0.814416" stroke-miterlimit="10"/>
<path d="M84.9535 115.546C105.614 115.546 122.362 98.8396 122.362 78.231C122.362 57.6225 105.614 40.916 84.9535 40.916C64.2933 40.916 47.5449 57.6225 47.5449 78.231C47.5449 98.8396 64.2933 115.546 84.9535 115.546Z" fill="#E4EAEF" stroke="#939393" stroke-width="0.814416" stroke-miterlimit="10"/>
<path d="M57.1704 62.348C59.9868 57.4622 64.0582 53.3878 68.9519 50.5654L57.1704 62.348Z" fill="#F7F8F9"/>
<path d="M57.1704 62.348C59.9868 57.4622 64.0582 53.3878 68.9519 50.5654" stroke="#939393" stroke-width="0.814416" stroke-miterlimit="10"/>
<path d="M117.009 78.2485C117.009 95.8984 102.665 110.207 84.9709 110.207" stroke="#939393" stroke-width="0.814416" stroke-miterlimit="10"/>
<path d="M85.0015 104.44C99.6042 104.44 111.442 92.6315 111.442 78.0653C111.442 63.4991 99.6042 51.6909 85.0015 51.6909C70.3988 51.6909 58.561 63.4991 58.561 78.0653C58.561 92.6315 70.3988 104.44 85.0015 104.44Z" fill="white" stroke="#939393" stroke-width="0.814416" stroke-miterlimit="10"/>
<path d="M84.8267 104.684V97.4033" stroke="#939393" stroke-width="0.814416" stroke-miterlimit="10"/>
<path d="M58.478 78.3618H65.7769H58.478Z" fill="#F7F8F9"/>
<path d="M58.478 78.3618H65.7769" stroke="#939393" stroke-width="0.814416" stroke-miterlimit="10"/>
<path d="M111.254 78.3618H103.955" stroke="#939393" stroke-width="0.814416" stroke-miterlimit="10"/>
<path d="M84.8267 52.04V59.3207" stroke="#939393" stroke-width="0.814416" stroke-miterlimit="10"/>
<path d="M98.0249 101.177L94.3733 94.8687" stroke="#939393" stroke-width="0.814416" stroke-miterlimit="10"/>
<path d="M62.0115 91.5229L68.3352 87.8804L62.0115 91.5229Z" fill="#F7F8F9"/>
<path d="M62.0115 91.5229L68.3352 87.8804" stroke="#939393" stroke-width="0.814416" stroke-miterlimit="10"/>
<path d="M107.716 65.2007L101.397 68.8432" stroke="#939393" stroke-width="0.814416" stroke-miterlimit="10"/>
<path d="M71.637 55.5859L75.2886 61.8895" stroke="#939393" stroke-width="0.814416" stroke-miterlimit="10"/>
<path d="M107.69 91.5575L101.366 87.915" stroke="#939393" stroke-width="0.814416" stroke-miterlimit="10"/>
<path d="M71.6587 101.159L75.3103 94.8555L71.6587 101.159Z" fill="#F7F8F9"/>
<path d="M71.6587 101.159L75.3103 94.8555" stroke="#939393" stroke-width="0.814416" stroke-miterlimit="10"/>
<path d="M98.0511 55.5688L94.3994 61.8724" stroke="#939393" stroke-width="0.814416" stroke-miterlimit="10"/>
<path d="M61.9854 65.2358L68.3047 68.8784" stroke="#939393" stroke-width="0.814416" stroke-miterlimit="10"/>
<path d="M91.4259 103.437L90.7568 100.47" stroke="#939393" stroke-width="0.814416" stroke-miterlimit="10"/>
<path d="M59.5015 85.1144L62.7158 84.2812L59.5015 85.1144Z" fill="#F7F8F9"/>
<path d="M59.5015 85.1144L62.7158 84.2812" stroke="#939393" stroke-width="0.814416" stroke-miterlimit="10"/>
<path d="M110.668 71.5913L107.021 72.4376" stroke="#939393" stroke-width="0.814416" stroke-miterlimit="10"/>
<path d="M77.8689 52.8335L78.8879 56.2754" stroke="#939393" stroke-width="0.814416" stroke-miterlimit="10"/>
<path d="M103.671 97.3292L101.051 94.5679" stroke="#939393" stroke-width="0.814416" stroke-miterlimit="10"/>
<path d="M66.0613 96.8932L68.6502 94.5376L66.0613 96.8932Z" fill="#F7F8F9"/>
<path d="M66.0613 96.8932L68.6502 94.5376" stroke="#939393" stroke-width="0.814416" stroke-miterlimit="10"/>
<path d="M103.671 59.8135L101.082 62.1822" stroke="#939393" stroke-width="0.814416" stroke-miterlimit="10"/>
<path d="M66.0613 59.8135L68.6196 62.2171" stroke="#939393" stroke-width="0.814416" stroke-miterlimit="10"/>
<path d="M110.668 85.1148L106.994 84.3296" stroke="#939393" stroke-width="0.814416" stroke-miterlimit="10"/>
<path d="M78.3062 103.436L78.9184 100.461L78.3062 103.436Z" fill="#F7F8F9"/>
<path d="M78.3062 103.436L78.9184 100.461" stroke="#939393" stroke-width="0.814416" stroke-miterlimit="10"/>
<path d="M91.8629 52.3975L90.7915 56.2712" stroke="#939393" stroke-width="0.814416" stroke-miterlimit="10"/>
<path d="M59.5012 71.5913L62.6937 72.4899" stroke="#939393" stroke-width="0.814416" stroke-miterlimit="10"/>
<path d="M84.9537 37.1297C88.2143 37.1297 90.8575 34.4931 90.8575 31.2407C90.8575 27.9882 88.2143 25.3516 84.9537 25.3516C81.693 25.3516 79.0498 27.9882 79.0498 31.2407C79.0498 34.4931 81.693 37.1297 84.9537 37.1297Z" stroke="#939393" stroke-width="0.814416" stroke-miterlimit="10"/>
<path d="M85.8151 40.8375H84.0921C83.1868 40.8375 82.4478 40.1047 82.4478 39.1973V35.4937C82.4478 34.5907 83.1825 33.8535 84.0921 33.8535H85.8151C86.7204 33.8535 87.4595 34.5864 87.4595 35.4937V39.1973C87.4595 40.1047 86.7204 40.8375 85.8151 40.8375Z" fill="#E4EAEF" stroke="#939393" stroke-width="0.814416" stroke-miterlimit="10"/>
<path d="M83.554 74.2089V65.9205C83.554 65.1964 84.14 64.6118 84.8659 64.6118C85.5919 64.6118 86.1779 65.1964 86.1779 65.9205V74.2089" fill="#E4EAEF"/>
<path d="M83.554 74.2089V65.9205C83.554 65.1964 84.14 64.6118 84.8659 64.6118C85.5919 64.6118 86.1779 65.1964 86.1779 65.9205V74.2089" stroke="#939393" stroke-width="0.814416" stroke-miterlimit="10"/>
<path d="M84.9535 82.5061C87.3204 82.5061 89.2392 80.5921 89.2392 78.2311C89.2392 75.8701 87.3204 73.9561 84.9535 73.9561C82.5865 73.9561 80.6677 75.8701 80.6677 78.2311C80.6677 80.5921 82.5865 82.5061 84.9535 82.5061Z" fill="#E4EAEF" stroke="#939393" stroke-width="0.814416" stroke-miterlimit="10"/>
</g>
<defs>
<clipPath id="clip0">
<rect width="170.941" height="116.124" fill="white" transform="translate(0.668457 0.0805664)"/>
</clipPath>
</defs>
</svg>
