<svg width="12" height="12" viewBox="0 0 12 12" fill="none" xmlns="http://www.w3.org/2000/svg">
<path fill-rule="evenodd" clip-rule="evenodd" d="M6.00002 0C6.48735 0 6.93226 0.277145 7.14715 0.714636L11.8836 10.3634C12.0566 10.7155 12.0357 11.132 11.8282 11.4649C11.6207 11.7979 11.2561 12.0001 10.864 11.9999H1.13627C0.743963 12.0001 0.379311 11.7979 0.171825 11.4649C-0.0356601 11.132 -0.0565839 10.7155 0.116392 10.3636L4.85294 0.714549C5.06779 0.277145 5.5127 0 6.00002 0ZM6.00002 0.75C5.79869 0.75 5.61487 0.864501 5.52615 1.04513L0.789558 10.6943C0.730801 10.8138 0.737905 10.9552 0.808346 11.0683C0.878786 11.1813 1.00259 11.25 1.13602 11.2499H10.8643C10.9975 11.25 11.1213 11.1813 11.1917 11.0683C11.2621 10.9552 11.2692 10.8138 11.2104 10.6941L6.47393 1.04521C6.38517 0.864501 6.20136 0.75 6.00002 0.75ZM6.37502 7.87488V4.12488C6.37502 3.91777 6.20713 3.74988 6.00002 3.74988C5.79291 3.74988 5.62502 3.91777 5.62502 4.12488V7.87488C5.62502 8.08199 5.79291 8.24988 6.00002 8.24988C6.20713 8.24988 6.37502 8.08199 6.37502 7.87488ZM5.43752 9.56238C5.43752 9.87304 5.68936 10.1249 6.00002 10.1249C6.31068 10.1249 6.56252 9.87304 6.56252 9.56238C6.56252 9.27243 6.34314 9.03372 6.06131 9.00318L5.9998 8.99988C5.68924 9 5.43752 9.25179 5.43752 9.56238Z" fill="white"/>
</svg>
