<svg width="24" height="24" viewBox="0 0 24 24" fill="none" xmlns="http://www.w3.org/2000/svg">
<path fill-rule="evenodd" clip-rule="evenodd" d="M12 0C12.9747 0 13.8645 0.554289 14.2943 1.42927L23.7671 20.7269C24.1133 21.431 24.0714 22.264 23.6564 22.9299C23.2415 23.5958 22.5122 24.0003 21.728 23.9998H2.27254C1.48793 24.0003 0.758622 23.5958 0.343651 22.9299C-0.0713202 22.264 -0.113168 21.431 0.232785 20.7273L9.70587 1.4291C10.1356 0.554289 11.0254 0 12 0ZM12 1.5C11.5974 1.5 11.2297 1.729 11.0523 2.09025L1.57912 21.3886C1.4616 21.6277 1.47581 21.9105 1.61669 22.1365C1.75757 22.3626 2.00517 22.4999 2.27204 22.4998H21.7285C21.9949 22.4999 22.2425 22.3626 22.3834 22.1365C22.5243 21.9105 22.5385 21.6277 22.4208 21.3883L12.9479 2.09043C12.7703 1.729 12.4027 1.5 12 1.5ZM12.75 15.7498V8.24976C12.75 7.83555 12.4143 7.49976 12 7.49976C11.5858 7.49976 11.25 7.83555 11.25 8.24976V15.7498C11.25 16.164 11.5858 16.4998 12 16.4998C12.4143 16.4998 12.75 16.164 12.75 15.7498ZM10.875 19.1248C10.875 19.7461 11.3787 20.2498 12 20.2498C12.6214 20.2498 13.125 19.7461 13.125 19.1248C13.125 18.5449 12.6863 18.0674 12.1226 18.0064L11.9996 17.9998C11.3785 18 10.875 18.5036 10.875 19.1248Z" fill="white"/>
</svg>
