<svg width="16" height="16" viewBox="0 0 16 16" fill="none" xmlns="http://www.w3.org/2000/svg">
<path fill-rule="evenodd" clip-rule="evenodd" d="M8 0C3.58172 0 0 3.58172 0 8C0 12.4183 3.58172 16 8 16C12.4183 16 16 12.4183 16 8C16 3.58172 12.4183 0 8 0ZM1 8C1 4.13401 4.13401 1 8 1C11.866 1 15 4.13401 15 8C15 11.866 11.866 15 8 15C4.13401 15 1 11.866 1 8ZM7 4.75C7 4.33579 7.33579 4 7.75 4C8.16422 4 8.5 4.33579 8.5 4.75C8.5 5.16421 8.16422 5.5 7.75 5.5C7.33579 5.5 7 5.16421 7 4.75ZM6.5 7C6.5 6.72386 6.72386 6.5 7 6.5H7.5C8.05229 6.5 8.5 6.94772 8.5 7.5V10C8.5 10.2761 8.72386 10.5 9 10.5H9.5C9.77614 10.5 10 10.7239 10 11C10 11.2761 9.77614 11.5 9.5 11.5H9C8.17157 11.5 7.5 10.8284 7.5 10V7.5H7C6.72386 7.5 6.5 7.27614 6.5 7Z" fill="white"/>
</svg>
