<svg width="24" height="24" viewBox="0 0 24 24" fill="none" xmlns="http://www.w3.org/2000/svg">
<path fill-rule="evenodd" clip-rule="evenodd" d="M12 0C18.6274 0 24 5.37258 24 12C24 18.6274 18.6274 24 12 24C5.37258 24 0 18.6274 0 12C0 5.37258 5.37258 0 12 0ZM12 1.5C6.20101 1.5 1.5 6.20101 1.5 12C1.5 17.799 6.20101 22.5 12 22.5C17.799 22.5 22.5 17.799 22.5 12C22.5 6.20101 17.799 1.5 12 1.5ZM7.83691 17.133L5.38691 13.656C5.14833 13.3174 5.2294 12.8495 5.568 12.6109C5.9066 12.3723 6.3745 12.4534 6.61309 12.792L9.07323 16.2838C9.12698 16.3641 9.2162 16.4134 9.31277 16.4163C9.40933 16.4192 9.50134 16.3752 9.5686 16.2869L17.4116 6.36394C17.6684 6.03897 18.1401 5.98375 18.4651 6.2406C18.79 6.49745 18.8452 6.9691 18.5884 7.29406L10.7542 17.2057C10.4026 17.6686 9.84899 17.933 9.26797 17.9156C8.68696 17.8983 8.15013 17.6013 7.83691 17.133Z" fill="white"/>
</svg>
