<svg width="30" height="34" viewBox="0 0 30 34" fill="none" xmlns="http://www.w3.org/2000/svg">
<path d="M1.29858 28.8885C9.41646 23.153 9.41646 31.0423 17.9742 29.6304" stroke="black" stroke-linecap="round" stroke-linejoin="round"/>
<path fill-rule="evenodd" clip-rule="evenodd" d="M24.7961 26.5029V32.9999H20.2482C18.9924 32.9999 17.9743 32.0303 17.9743 30.8343V28.6686C17.9743 27.4725 18.9924 26.5029 20.2482 26.5029H24.7961Z" stroke="black" stroke-linecap="round" stroke-linejoin="round"/>
<path d="M29.344 31.9173V27.5859H24.7961V31.9173H29.344Z" stroke="black" stroke-linecap="round" stroke-linejoin="round"/>
<path d="M27.5753 10.8535H12.4156C11.5784 10.8535 10.8997 11.5322 10.8997 12.3695V21.4653C10.8997 22.3025 11.5784 22.9812 12.4156 22.9812H27.5753C28.4125 22.9812 29.0912 22.3025 29.0912 21.4653V12.3695C29.0912 11.5322 28.4125 10.8535 27.5753 10.8535Z" stroke="black"/>
<path d="M12.3838 10.8535H6.3519C5.51466 10.8535 4.83594 11.5322 4.83594 12.3695V21.4653C4.83594 22.3025 5.51466 22.9812 6.3519 22.9812H12.3838" stroke="black"/>
<path fill-rule="evenodd" clip-rule="evenodd" d="M17.6699 5.69073C17.4812 5.44917 17.1922 5.30747 16.8857 5.30625L3.45565 5.25286C2.62074 5.24954 2.14965 6.21035 2.66355 6.86837L5.12945 10.0258C5.31811 10.2673 5.60711 10.409 5.9136 10.4103L19.3437 10.4636C20.1786 10.467 20.6497 9.50616 20.1358 8.84814L17.6699 5.69073Z" stroke="black"/>
<path d="M25.5542 4.87121L27.5868 2.51562" stroke="black" stroke-linecap="round"/>
<path d="M28.5859 7.50848L29.4583 7.06396" stroke="black" stroke-linecap="round"/>
<path d="M22.5222 1.97913V1" stroke="black" stroke-linecap="round"/>
</svg>
