<svg width="11" height="11" viewBox="0 0 11 11" fill="none" xmlns="http://www.w3.org/2000/svg">
  <path fill-rule="evenodd" clip-rule="evenodd"
        d="M10.3541 0.938544C10.1418 0.703912 9.77951 0.685797 9.54488 0.898083L0.989325 8.63882C0.754693 8.85111 0.736578 9.21341 0.948864 9.44804C1.16115 9.68267 1.52345 9.70079 1.75808 9.4885L10.3136 1.74776C10.5483 1.53547 10.5664 1.17318 10.3541 0.938544ZM3.32212 4.82922L2.47138 5.59893L1.46132 4.5887L1.46131 4.58869C0.672923 3.80012 0.672923 2.5218 1.46131 1.73323L1.46157 1.73297L1.80208 1.39282L1.80231 1.3926L1.8024 1.39251C2.18109 1.01379 2.69473 0.801025 3.23032 0.801025C3.766 0.801025 4.27974 1.01387 4.65845 1.39272L4.65855 1.39282L5.25496 1.98923C5.4787 2.21297 5.4787 2.57572 5.25496 2.79946C5.03122 3.02319 4.66847 3.02319 4.44473 2.79946L3.84823 2.20295L3.84813 2.20285C3.6843 2.03895 3.46206 1.94686 3.23032 1.94686C2.99858 1.94686 2.77633 2.03895 2.6125 2.20285L2.61219 2.20317L2.27163 2.54337L2.27151 2.54348C1.9306 2.8846 1.93063 3.43747 2.27161 3.77854L2.27163 3.77855L3.32212 4.82922ZM8.18882 5.0612L7.33808 5.83091L8.72624 7.2193L8.72626 7.21931C9.06728 7.56042 9.06727 8.11338 8.72624 8.45449L8.38557 8.79516L8.38546 8.79527C8.04412 9.13632 7.49099 9.13632 7.14964 8.79527L7.14954 8.79516L6.78742 8.43304L6.59473 8.24036L6.5338 8.17942L6.51697 8.16259L6.51256 8.15819L6.51143 8.15706L6.51115 8.15677L6.51111 8.15673L6.51108 8.1567L6.51106 8.15668L6.10594 8.56179L6.51105 8.15668C6.28732 7.93294 5.92457 7.93294 5.70083 8.15668C5.47709 8.38042 5.47709 8.74317 5.70083 8.96691L6.10594 8.56179L5.70083 8.96691L5.70085 8.96693L5.70092 8.967L5.70121 8.96729L5.70233 8.96841L5.70674 8.97282L5.72357 8.98965L5.78451 9.05059L5.97719 9.24327L6.33942 9.60549L6.33952 9.6056C7.12832 10.394 8.40678 10.394 9.19558 9.6056L9.19569 9.60549L9.53652 9.26467L9.53656 9.26462C10.3249 8.47606 10.3249 7.19773 9.53656 6.40916L9.53655 6.40915L8.18882 5.0612Z"
        fill="#939393" />
</svg>
