<svg width="24" height="24" viewBox="0 0 24 24" fill="none" xmlns="http://www.w3.org/2000/svg">
<path fill-rule="evenodd" clip-rule="evenodd" d="M21.3708 2.66455C21.1855 2.45978 20.8693 2.44397 20.6645 2.62924L16.1213 6.73977C15.8852 6.4128 15.5008 6.20001 15.0667 6.20001H3.50001C2.39544 6.20001 1.50001 7.09544 1.50001 8.20001V15.8667C1.50001 16.9712 2.39544 17.8667 3.50001 17.8667H3.82316L1.57364 19.902C1.36887 20.0872 1.35306 20.4034 1.53832 20.6082C1.72359 20.813 2.03978 20.8288 2.24455 20.6435L21.3355 3.37077C21.5402 3.1855 21.556 2.86932 21.3708 2.66455ZM15.0667 7.20001C15.2083 7.20001 15.3269 7.29808 15.3585 7.42998L4.92842 16.8667H3.50001C2.94772 16.8667 2.50001 16.419 2.50001 15.8667V8.20001C2.50001 7.64773 2.94772 7.20001 3.50001 7.20001H15.0667ZM22.5 7.9071C22.5 7.01619 21.4228 6.57002 20.7928 7.19999L16.6666 11.3262C16.2761 11.7167 16.2761 12.3499 16.6666 12.7404L20.7928 16.8667C21.4228 17.4966 22.5 17.0505 22.5 16.1595V7.9071ZM21.5 16.1595L17.3737 12.0333L21.5 7.90709V16.1595ZM16.3667 12C16.3667 11.7239 16.1428 11.5 15.8667 11.5C15.5905 11.5 15.3667 11.7239 15.3667 12V15.8667C15.3667 16.419 14.919 16.8667 14.3667 16.8667H10C9.72386 16.8667 9.50001 17.0905 9.50001 17.3667C9.50001 17.6428 9.72386 17.8667 10 17.8667H14.3667C15.4712 17.8667 16.3667 16.9713 16.3667 15.8667V12Z" fill="black"/>
</svg>
