<?xml version="1.0" encoding="UTF-8" standalone="no"?>
<svg
        xmlns="http://www.w3.org/2000/svg"
        width="74.338303px"
        height="67.193497px"
        viewBox="0 0 74.338302 67.193494"
        version="1.1"
>
    <g
            transform="matrix(-0.022857,0,0,-0.022857,74.673831,67.404556)"
            fill="#000000"
            stroke="none">
        <path
                d="m 258,2921 c -23,-15 -49,-42 -60,-60 -22,-39 -25,-107 -4,-148 8,-17 228,-243 488,-503 l 473,-472 V 1331 925 l 27,-61 c 30,-69 108,-155 162,-178 30,-13 109,-16 460,-18 l 423,-2 317,-316 c 175,-174 328,-322 340,-328 71,-35 173,5 213,83 26,50 27,86 3,130 -26,48 -2646,2671 -2693,2695 -53,28 -100,25 -149,-9 z"
                id="path12"/>
        <path
                d="m 1559,2279 c -18,-8 82,-112 761,-792 430,-431 789,-783 798,-783 8,0 37,22 63,50 87,89 86,85 86,725 -1,306 -4,570 -8,586 -18,74 -85,158 -156,196 -42,22 -46,23 -782,25 -408,1 -750,-2 -762,-7 z"
                id="path14"/>
        <path
                d="m 121,2213 c -40,-13 -90,-59 -89,-82 0,-9 -4,-21 -8,-25 -5,-4 -9,-286 -9,-626 -1,-611 -1,-618 21,-662 40,-79 135,-109 218,-69 22,11 149,133 303,292 l 265,272 -1,160 c -1,88 -1,164 -2,170 0,5 -119,130 -265,277 -307,308 -335,327 -433,293 z"
                id="path16"/>
    </g>
</svg>
