<svg width="191" height="128" viewBox="0 0 191 128" fill="none" xmlns="http://www.w3.org/2000/svg">
<g clip-path="url(#clip0)">
<path d="M179.653 42.7046C185.906 59.7318 169.537 86.2574 142.842 107.779C116.015 129.443 78.9956 146.234 52.4245 131.337C25.8534 116.307 9.72095 69.5882 21.9816 44.1746C34.2423 18.7609 74.7347 14.4923 109.495 16.2639C144.247 17.894 173.266 25.5454 179.653 42.7046Z" fill="#F2F2F2"/>
<path d="M75.8927 89.8203C79.9335 89.8203 83.2093 89.0145 83.2093 88.0205C83.2093 87.0265 79.9335 86.2207 75.8927 86.2207C71.8519 86.2207 68.5762 87.0265 68.5762 88.0205C68.5762 89.0145 71.8519 89.8203 75.8927 89.8203Z" stroke="#939393" stroke-miterlimit="10"/>
<path d="M68.5856 88.0195C62.5597 92.4672 58.8397 91.4024 57.4258 92.4766" stroke="#939393" stroke-miterlimit="10"/>
<path d="M83.209 87.6895C91.5124 92.8626 94.5871 92.9851 96.3522 92.7967" stroke="#939393" stroke-miterlimit="10"/>
<path d="M1.07617 111.605L56.2207 120.482C57.1981 120.331 64.211 118.767 70.6735 117.372C77.7528 115.846 85.1262 116.251 91.9968 118.56L109.429 121.98C112.798 121.914 137.168 118.352 150.263 116.402C155.198 115.667 188.972 118.569 188.972 118.569" stroke="#939393" stroke-miterlimit="10"/>
<path d="M4.10352 70.6525L66.0237 55.1989C67.8172 54.9162 69.6297 54.756 71.4423 54.7277L89.5011 54.3979C92.4904 54.3414 104.998 53.9079 114.706 53.3237C121.747 52.8997 128.76 54.3131 135.127 57.3473C145.13 62.1059 163.331 68.4852 188.953 68.4852" stroke="#939393" stroke-miterlimit="10"/>
<path d="M129.272 20.0332C129.272 21.3524 128.19 22.4266 126.861 22.4266" stroke="#939393" stroke-miterlimit="10"/>
<path d="M131.682 22.4266C130.353 22.4266 129.271 21.3524 129.271 20.0332" stroke="#939393" stroke-miterlimit="10"/>
<path d="M126.853 22.4258C128.181 22.4258 129.263 23.5 129.263 24.8192" stroke="#939393" stroke-miterlimit="10"/>
<path d="M129.271 24.8192C129.271 23.5 130.353 22.4258 131.682 22.4258" stroke="#939393" stroke-miterlimit="10"/>
<path d="M152.664 35.8828C152.664 37.202 151.582 38.2762 150.254 38.2762" stroke="#939393" stroke-miterlimit="10"/>
<path d="M155.074 38.286C153.746 38.286 152.664 37.2118 152.664 35.8926" stroke="#939393" stroke-miterlimit="10"/>
<path d="M150.254 38.2852C151.582 38.2852 152.664 39.3594 152.664 40.6786" stroke="#939393" stroke-miterlimit="10"/>
<path d="M152.664 40.6786C152.664 39.3594 153.746 38.2852 155.074 38.2852" stroke="#939393" stroke-miterlimit="10"/>
<path d="M57.426 25.9141C57.426 27.2333 56.3442 28.3075 55.0156 28.3075" stroke="#939393" stroke-miterlimit="10"/>
<path d="M59.8362 28.3075C58.5076 28.3075 57.4258 27.2333 57.4258 25.9141" stroke="#939393" stroke-miterlimit="10"/>
<path d="M55.0156 28.3066C56.3442 28.3066 57.426 29.3809 57.426 30.7001" stroke="#939393" stroke-miterlimit="10"/>
<path d="M57.4258 30.7098C57.4258 29.3906 58.5076 28.3164 59.8362 28.3164" stroke="#939393" stroke-miterlimit="10"/>
<path d="M133.495 78.3325C135.587 78.3325 137.282 77.9149 137.282 77.3997C137.282 76.8845 135.587 76.4668 133.495 76.4668C131.404 76.4668 129.709 76.8845 129.709 77.3997C129.709 77.9149 131.404 78.3325 133.495 78.3325Z" stroke="#939393" stroke-miterlimit="10"/>
<path d="M129.709 77.4004C126.587 79.709 124.66 79.1531 123.93 79.709" stroke="#939393" stroke-miterlimit="10"/>
<path d="M137.291 77.2305C141.59 79.9066 143.184 79.9725 144.105 79.8783" stroke="#939393" stroke-miterlimit="10"/>
<path d="M44.4915 79.2837C46.5826 79.2837 48.2778 78.866 48.2778 78.3508C48.2778 77.8356 46.5826 77.418 44.4915 77.418C42.4003 77.418 40.7051 77.8356 40.7051 78.3508C40.7051 78.866 42.4003 79.2837 44.4915 79.2837Z" stroke="#939393" stroke-miterlimit="10"/>
<path d="M81.7001 78.3516C78.578 80.6602 76.6516 80.1042 75.9209 80.6602" stroke="#939393" stroke-miterlimit="10"/>
<path d="M116.148 39.5103L102.473 27.8824C100.528 25.9978 97.4152 26.0355 95.5172 27.9578C93.6193 29.8895 93.6573 32.9802 95.5932 34.8648L110.558 47.3879" fill="white"/>
<path d="M116.148 39.5103L102.473 27.8824C100.528 25.9978 97.4152 26.0355 95.5172 27.9578C93.6193 29.8895 93.6573 32.9802 95.5932 34.8648L110.558 47.3879" stroke="#939393" stroke-miterlimit="10"/>
<path d="M110.074 46.935L126.482 60.5794L131.274 55.5382L116.157 39.5098" fill="white"/>
<path d="M110.074 46.935L126.482 60.5794L131.274 55.5382L116.157 39.5098" stroke="#939393" stroke-miterlimit="10"/>
<path d="M96.6943 35.7796L99.2281 32.5664" stroke="#939393" stroke-miterlimit="10"/>
<path d="M98.0986 37.2953L100.632 34.082" stroke="#939393" stroke-miterlimit="10"/>
<path d="M130.705 56.2168L126.919 60.2404L129.956 61.0602C132.347 61.7104 134.292 63.3688 135.308 65.6115L135.982 67.1191C136.076 67.3359 136.257 67.3264 136.361 67.317C136.447 67.2982 136.636 67.2416 136.655 66.9966L136.807 64.1698C136.883 62.8694 136.371 61.6256 135.431 60.721L130.705 56.2168Z" fill="white" stroke="#939393" stroke-miterlimit="10"/>
<path d="M78.9577 40.2079L72.3624 54.7287C69.7053 60.5803 71.7076 67.4873 77.0882 71.0398L93.1827 78.6629L99.8635 82.9221L105.415 110.757L114.753 109.806L111.887 82.0457C111.773 80.9621 111.384 79.9256 110.758 79.0398L102.587 67.5062C101.828 66.4414 97.3487 62.1728 97.3487 62.1728L103.422 50.3187C103.593 50.3941 107.522 41.9889 110.15 36.6461V27.2137L89.0547 18.375" fill="white"/>
<path d="M78.9577 40.2079L72.3624 54.7287C69.7053 60.5803 71.7076 67.4873 77.0882 71.0398L93.1827 78.6629L99.8635 82.9221L105.415 110.757L114.753 109.806L111.887 82.0457C111.773 80.9621 111.384 79.9256 110.758 79.0398L102.587 67.5062C101.828 66.4414 97.3487 62.1728 97.3487 62.1728L103.422 50.3187C103.593 50.3941 107.522 41.9889 110.15 36.6461V27.2137L89.0547 18.375" stroke="#939393" stroke-miterlimit="10"/>
<path d="M85.2493 71.4538C86.8531 68.6552 88.7605 66.045 90.2883 63.1993C92.025 59.9578 92.9644 56.396 94.7485 53.1827C94.8434 53.0131 94.9478 52.8529 95.0617 52.7116C95.0711 52.2781 95.1565 51.8258 95.3463 51.3547C96.618 48.3017 97.8231 45.2204 98.7911 42.0543C98.8765 41.7904 98.9999 41.5454 99.1517 41.3193C99.4743 39.7362 100.063 38.172 100.234 36.5984C100.366 35.3734 99.8824 34.1767 99.5598 32.9988C99.5313 32.9046 99.5123 32.8009 99.5028 32.7067C99.2181 32.3957 98.9714 32.0188 98.7911 31.5571C98.6772 31.2838 98.5444 31.0388 98.4115 30.7938C98.2407 30.6525 98.0699 30.4923 97.9086 30.3133C94.9288 26.9116 92.1863 23.3309 89.1116 20.0234C89.0737 20.0234 89.0262 20.0329 88.9883 20.0329C88.6087 20.438 88.1627 20.7207 87.6882 20.9186L71.3375 60.1651C71.29 60.4384 71.2236 60.7022 71.1192 60.9567C70.3695 62.6245 69.6388 64.2924 69.0125 66.0073C68.9176 66.2618 68.8037 66.4879 68.6519 66.7046C68.2343 68.3537 67.7314 69.9932 66.9912 71.5292C66.697 72.1417 66.3079 72.7165 65.9948 73.3195C65.9568 73.5928 65.8904 73.8567 65.7955 74.1205C65.748 74.2336 65.7101 74.3466 65.6721 74.4597C65.6342 74.6576 65.5867 74.8649 65.5393 75.0628C65.3779 75.8072 65.1976 76.5705 64.9035 77.2772C64.9224 77.5316 64.9319 77.7766 64.875 78.031C64.4574 80.1606 63.7932 82.2242 63.2143 84.3161C63.2522 84.6176 63.2428 84.9192 63.1668 85.2207C62.9296 86.1913 62.9106 87.1807 62.7303 88.1512C62.5405 89.1595 62.1894 90.1301 61.8857 91.11C63.8786 91.9581 72.6755 89.8662 73.8332 88.2643C75.0384 86.587 75.8451 84.6459 76.9459 82.9027C78.0372 81.1783 79.4796 79.7837 80.5235 78.0404C81.5673 76.2878 82.6302 74.6576 83.9113 73.0651C84.0631 72.8767 84.2244 72.7165 84.3953 72.5657C84.6325 72.1511 84.9172 71.7742 85.2493 71.4538Z" fill="white"/>
<path d="M87.1941 72.9248C90.1169 70.6821 75.8729 67.3652 75.8729 67.3652C75.721 67.5914 75.5502 67.8081 75.3414 67.9966C73.9654 69.2121 72.6084 70.4277 71.3273 71.7375C71.1375 71.9259 70.9288 72.0861 70.7105 72.2275C69.6476 73.5655 68.5089 74.847 67.1993 75.9401C66.6774 76.383 66.0795 76.7411 65.5386 77.1651C65.3868 77.4007 65.216 77.6174 65.0262 77.8058C64.9408 77.8907 64.8554 77.9755 64.7794 78.0603C64.6561 78.2299 64.5327 78.3901 64.4093 78.5597C63.9538 79.1722 63.4699 79.7941 62.91 80.3218C62.8246 80.5573 62.7202 80.7929 62.5683 81.0002C61.3062 82.7717 59.8353 84.3736 58.4403 86.0415C58.3454 86.3336 58.2126 86.5974 58.0228 86.8424C57.406 87.634 56.9789 88.5197 56.4095 89.3395C55.8117 90.1782 55.0905 90.9226 54.4072 91.6952C55.8686 93.2877 57.1213 95.0404 58.4973 96.7742C58.5922 96.8213 58.6871 96.8684 58.782 96.925C59.0382 97.1323 59.2849 97.3302 59.5411 97.5375C59.8163 97.8296 60.0251 98.15 60.1864 98.508C60.2813 98.4232 60.3762 98.3478 60.4711 98.263C60.6609 98.1123 60.8697 97.9709 61.069 97.8578C61.2113 97.5846 61.3916 97.3113 61.6289 97.0475C62.9859 95.521 64.751 94.9933 66.4686 94.0039C68.2622 92.9673 72.115 90.1028 73.8421 88.972C75.5597 87.8318 84.6224 74.8942 87.1941 72.9248Z" fill="white"/>
<path d="M60.2158 98.3195C60.3582 97.9237 69.7529 91.6669 73.843 88.9531L60.2158 98.3195Z" fill="white"/>
<path d="M60.2158 98.3195C60.3582 97.9237 69.7529 91.6669 73.843 88.9531" stroke="#939393" stroke-miterlimit="10"/>
<path d="M64.5713 78.5977C61.5821 81.5093 57.3876 88.7179 54.0947 91.6955" stroke="#939393" stroke-miterlimit="10"/>
<path d="M48.8657 117.684C46.275 114.876 42.5741 110.862 40.0593 108.139C38.5409 106.49 38.6548 103.936 40.306 102.419C40.4673 102.56 43.6844 99.8559 45.4874 99.0361C46.5882 98.5367 47.4897 97.6886 48.3912 96.8877C50.1753 95.2858 51.9309 93.6651 53.7055 92.0537C53.8288 91.9407 53.9427 91.837 54.0945 91.7051C56.1443 93.9195 58.1656 96.1056 60.2249 98.3294C60.092 98.4519 59.9591 98.5744 59.8263 98.6875C58.1276 100.233 56.429 101.778 54.7398 103.333C54.5405 103.521 54.4077 103.757 54.3507 104.021C54.0661 105.397 53.8098 106.772 53.5726 108.148C53.5346 108.384 53.5536 108.629 53.639 108.855C54.3792 110.805 55.1289 112.756 55.9165 114.688C56.391 115.856 56.372 116.968 55.1479 117.995C55.1384 118.004 55.1289 118.014 55.1099 118.023C53.2689 119.597 50.5074 119.465 48.8657 117.684Z" fill="white" stroke="#939393" stroke-miterlimit="10"/>
<path d="M40.2299 104.869C40.0781 105.01 39.9262 105.142 39.7744 105.284C39.9168 105.435 40.0401 105.566 40.1635 105.708C40.3248 105.557 40.4672 105.435 40.619 105.293C40.4861 105.142 40.3723 105.02 40.2299 104.869Z" fill="white"/>
<path d="M48.7992 117.73C46.199 114.922 42.4886 110.927 39.9643 108.213C38.4365 106.564 38.5408 104.011 40.2015 102.493C40.3629 102.635 43.5799 99.9304 45.3734 99.0917C46.4742 98.5829 47.3757 97.7443 48.2773 96.9339C50.0613 95.332 51.8169 93.7018 53.582 92.0811C53.7053 91.968 53.8192 91.8643 53.9616 91.7324C56.0113 93.9374 58.0421 96.1235 60.1014 98.3473C59.9685 98.4698 59.8357 98.5923 59.7028 98.7148C58.0137 100.27 56.315 101.815 54.6353 103.379C54.4361 103.568 54.3032 103.803 54.2463 104.067C53.9616 105.443 53.7148 106.819 53.4776 108.204C53.4396 108.439 53.4586 108.684 53.544 108.91C54.2937 110.861 55.0434 112.812 55.8405 114.743C56.3245 115.912 56.296 117.024 55.0814 118.051C55.0719 118.06 55.0624 118.07 55.0529 118.079C53.2119 119.634 50.4504 119.511 48.7992 117.73Z" fill="white" stroke="#939393" stroke-miterlimit="10"/>
<path d="M40.1352 104.934C39.9834 105.075 39.8315 105.207 39.6797 105.348C39.822 105.499 39.9454 105.631 40.0783 105.772C40.2396 105.621 40.3819 105.499 40.5338 105.358C40.3914 105.207 40.2775 105.084 40.1352 104.934Z" fill="white"/>
<path d="M40.334 102.551L54.8817 118.212" stroke="#939393" stroke-miterlimit="10"/>
<path d="M40.5811 108.61L41.7957 107.488" stroke="#939393" stroke-miterlimit="10"/>
<path d="M42.2324 110.381L43.4471 109.27" stroke="#939393" stroke-miterlimit="10"/>
<path d="M43.8838 112.162L45.0985 111.041" stroke="#939393" stroke-miterlimit="10"/>
<path d="M45.5254 113.934L46.7496 112.822" stroke="#939393" stroke-miterlimit="10"/>
<path d="M47.1768 115.713L48.4009 114.602" stroke="#939393" stroke-miterlimit="10"/>
<path d="M48.8281 117.494L50.0523 116.373" stroke="#939393" stroke-miterlimit="10"/>
<path d="M51.5039 103.795L53.8479 106.32" stroke="#939393" stroke-miterlimit="10"/>
<path d="M51.0957 105.49L53.4396 108.006" stroke="#939393" stroke-miterlimit="10"/>
<path d="M51.9209 102.098L54.2649 104.623" stroke="#939393" stroke-miterlimit="10"/>
<path d="M73.8525 88.9524L89.8616 69.8145" stroke="#939393" stroke-miterlimit="10"/>
<path d="M84.3762 23.7168C77.629 39.9242 64.4004 78.5488 64.4004 78.5488" stroke="#939393" stroke-miterlimit="10"/>
<path d="M88.8741 19.3078L69.5247 59.685L66.2887 58.1585C60.5854 55.4636 58.1655 48.6885 60.8796 43.0347L71.9445 19.9391C74.6586 14.2759 81.4817 11.8731 87.1755 14.568C88.9595 15.4067 89.7187 17.5268 88.8741 19.3078Z" fill="#E4EAEF" stroke="#939393" stroke-miterlimit="10"/>
<path d="M68.0731 48.7157C70.0228 48.7157 71.6033 47.1464 71.6033 45.2104C71.6033 43.2745 70.0228 41.7051 68.0731 41.7051C66.1235 41.7051 64.543 43.2745 64.543 45.2104C64.543 47.1464 66.1235 48.7157 68.0731 48.7157Z" fill="white" stroke="#939393" stroke-miterlimit="10"/>
<path d="M81.956 28.4298L73.4248 25.2637" stroke="#939393" stroke-miterlimit="10"/>
<path d="M82.8861 26.281L76.2148 23.8027" stroke="#939393" stroke-miterlimit="10"/>
<path d="M83.8636 24.3025L77.1924 21.8242" stroke="#939393" stroke-miterlimit="10"/>
<path d="M80.3904 43.2897L92.1007 29.7113C93.9986 27.7796 93.9606 24.6888 92.0247 22.8043C90.0794 20.9197 86.9667 20.9574 85.0688 22.8796L72.457 37.7396" fill="white"/>
<path d="M80.3904 43.2897L92.1007 29.7113C93.9986 27.7796 93.9606 24.6888 92.0247 22.8043C90.0794 20.9197 86.9667 20.9574 85.0688 22.8796L72.457 37.7396" stroke="#939393" stroke-miterlimit="10"/>
<path d="M72.9129 37.2598L59.1719 53.5426L64.2489 58.3012L80.3908 43.2904" fill="white"/>
<path d="M72.9129 37.2598L59.1719 53.5426L64.2489 58.3012L80.3908 43.2904" stroke="#939393" stroke-miterlimit="10"/>
<path d="M84.1387 23.9727L87.3746 26.4886" stroke="#939393" stroke-miterlimit="10"/>
<path d="M82.6211 25.3672L85.8571 27.8831" stroke="#939393" stroke-miterlimit="10"/>
<path d="M63.5655 57.7441L59.5134 53.9844L58.6878 56.9997C58.033 59.3743 56.3629 61.306 54.1043 62.3142L52.586 62.9833C52.3677 63.0775 52.3772 63.2565 52.3867 63.3602C52.4057 63.445 52.4626 63.6335 52.7093 63.6523L55.5562 63.8031C56.8658 63.8785 58.1185 63.3696 59.0295 62.4367L63.5655 57.7441Z" fill="white" stroke="#939393" stroke-miterlimit="10"/>
<path d="M110.16 36.6465L103.432 50.3192" stroke="#939393" stroke-miterlimit="10"/>
<path d="M109.439 24.3498L92.832 17.0093C92.2531 15.3792 92.0064 13.5982 92.1772 11.7607C92.8035 4.92912 98.8864 -0.0932975 105.757 0.528616C112.627 1.15053 117.695 7.19063 117.069 14.0128C116.642 18.7526 113.576 22.6254 109.439 24.3498Z" fill="#E4EAEF" stroke="#939393" stroke-miterlimit="10"/>
<path d="M109.439 24.3498L92.832 17.0093C92.2531 15.3792 92.0064 13.5982 92.1772 11.7607C92.8035 4.92912 98.8864 -0.0932975 105.757 0.528616C108.86 0.811304 111.593 2.19647 113.605 4.2601L106.915 14.1259L115.465 19.0918C114.089 21.4475 111.963 23.3038 109.439 24.3498Z" fill="white" stroke="#939393" stroke-miterlimit="10"/>
<path d="M104.21 17.4144C106.725 17.6406 108.955 15.8031 109.183 13.3061C109.411 10.809 107.56 8.59459 105.045 8.36843C102.53 8.14228 100.3 9.97976 100.073 12.4768C99.8449 14.9739 101.695 17.1883 104.21 17.4144Z" fill="white" stroke="#939393" stroke-miterlimit="10"/>
<path d="M104.409 15.2565C105.728 15.379 106.886 14.4178 107.009 13.108C107.133 11.7982 106.165 10.6486 104.846 10.5261C103.527 10.4036 102.369 11.3648 102.245 12.6746C102.132 13.9844 103.1 15.134 104.409 15.2565Z" fill="white" stroke="#939393" stroke-miterlimit="10"/>
<path d="M64.4102 78.5977L66.6877 80.1996" stroke="#939393" stroke-miterlimit="10"/>
<path d="M97.3482 62.1729L73.9941 51.1387" stroke="#939393" stroke-miterlimit="10"/>
<path d="M98.905 59.1379L87.375 53.6914" stroke="#939393" stroke-miterlimit="10"/>
<path d="M80.5328 50.4594L75.3135 48" stroke="#939393" stroke-miterlimit="10"/>
<path d="M111.213 79.0306L103.043 67.4969C102.284 66.4321 97.8045 62.1635 97.8045 62.1635L73.9949 51.1387L72.8087 54.7288C70.1516 60.5805 72.1539 67.4875 77.5345 71.0399L93.629 78.6631L100.31 82.9222L105.861 110.758L115.199 109.806L112.333 82.0459C112.229 80.9622 111.84 79.9257 111.213 79.0306Z" fill="white" stroke="#939393" stroke-miterlimit="10"/>
<path d="M100.945 55.171L87.8115 34.6855" stroke="#939393" stroke-miterlimit="10"/>
<path d="M103.792 48.9901L91.6074 29.9746" stroke="#939393" stroke-miterlimit="10"/>
<path d="M100.319 82.9215L103.584 82.1582" stroke="#939393" stroke-miterlimit="10"/>
<path d="M106.905 119.739C106.924 119.946 106.943 120.144 106.962 120.351C107.171 120.332 107.351 120.313 107.541 120.304C107.522 120.087 107.503 119.899 107.484 119.691C107.275 119.701 107.114 119.72 106.905 119.739Z" fill="white"/>
<path d="M122.402 120.812C118.577 121.151 113.121 121.641 109.42 121.98C107.18 122.178 105.197 120.539 104.988 118.315C105.197 118.277 104.988 114.093 105.425 112.171C105.69 111.003 103.793 103.822 103.574 101.448C103.555 101.288 110.758 100.392 113.785 100.119C113.804 100.298 113.814 100.477 113.833 100.656C114.041 102.937 114.241 105.208 114.468 107.488C114.497 107.752 114.601 108.006 114.782 108.213C115.712 109.269 116.661 110.305 117.619 111.332C117.78 111.511 117.999 111.634 118.226 111.709C120.238 112.303 122.25 112.906 124.281 113.453C125.505 113.782 126.378 114.48 126.463 116.063C126.463 116.082 126.463 116.091 126.463 116.11C126.606 118.494 124.831 120.595 122.402 120.812Z" fill="white" stroke="#939393" stroke-miterlimit="10"/>
<path d="M106.905 119.851C106.924 120.059 106.943 120.257 106.962 120.464C107.171 120.445 107.351 120.426 107.541 120.407C107.522 120.191 107.503 120.002 107.484 119.795C107.275 119.823 107.114 119.833 106.905 119.851Z" fill="white"/>
<path d="M105.121 118.25L126.482 116.309" stroke="#939393" stroke-miterlimit="10"/>
<path d="M110.103 121.735L109.951 120.096" stroke="#939393" stroke-miterlimit="10"/>
<path d="M112.533 121.519L112.381 119.879" stroke="#939393" stroke-miterlimit="10"/>
<path d="M114.953 121.302L114.801 119.662" stroke="#939393" stroke-miterlimit="10"/>
<path d="M117.381 121.085L117.229 119.445" stroke="#939393" stroke-miterlimit="10"/>
<path d="M119.801 120.858L119.649 119.219" stroke="#939393" stroke-miterlimit="10"/>
<path d="M122.231 120.642L122.079 119.002" stroke="#939393" stroke-miterlimit="10"/>
<path d="M112.912 110.202L116.357 109.891" stroke="#939393" stroke-miterlimit="10"/>
<path d="M114.013 111.559L117.457 111.248" stroke="#939393" stroke-miterlimit="10"/>
<path d="M111.812 108.844L115.247 108.533" stroke="#939393" stroke-miterlimit="10"/>
<path d="M104.656 42.1776L102.985 39.9443L104.693 36.373L107.104 37.4567L104.656 42.1776Z" stroke="#939393" stroke-miterlimit="10"/>
<path d="M73.0078 53.9844L97.3488 62.1729" stroke="#939393" stroke-miterlimit="10"/>
<circle cx="47.5" cy="101.5" r="2" fill="white" stroke="#939393"/>
<circle cx="108.5" cy="110.5" r="2" fill="white" stroke="#939393"/>
</g>
<defs>
<clipPath id="clip0">
<rect width="191" height="137" fill="white"/>
</clipPath>
</defs>
</svg>
