<svg width="191" height="137" viewBox="0 0 191 137" fill="none" xmlns="http://www.w3.org/2000/svg">
  <path d="M177.19 69.7002C181.69 86.6202 189.76 108.06 173.47 114.69C142.89 126.97 109.68 110.55 88.26 110.62C66.91 110.62 27.74 113.57 13.69 107.08C-0.360025 100.45 31.1 82.5702 18.93 66.3802C2.26998 44.2202 27.37 35.4802 41.41 27.0302C55.46 18.4302 71.85 16.9202 87.51 20.2402C103.24 23.4802 116.94 38.1502 133.31 46.6902C149.61 55.1402 171.09 56.0902 177.19 69.7002Z" fill="#F2F2F2"/>
  <path d="M137.74 17.5H52.74V76.2H137.74V17.5Z" fill="#E4EAEF" stroke="#939393" stroke-miterlimit="10"/>
  <path d="M135.74 19.5H54.74V74.2H135.74V19.5Z" fill="white" stroke="#939393" stroke-miterlimit="10"/>
  <path d="M135.74 45.3199L119.51 41.2899C117.33 41.1099 115.14 41.2699 113.01 41.7599L76.75 50.1399L70.83 52.7599L54.74 54.7099V19.6099H135.74V45.3199Z" fill="#E4EAEF" stroke="#939393" stroke-miterlimit="10"/>
  <path d="M117.22 55.7598C119.424 55.7598 121.21 55.3165 121.21 54.7698C121.21 54.223 119.424 53.7798 117.22 53.7798C115.016 53.7798 113.23 54.223 113.23 54.7698C113.23 55.3165 115.016 55.7598 117.22 55.7598Z" stroke="#939393" stroke-miterlimit="10"/>
  <path d="M113.22 54.77C109.93 57.22 107.9 56.63 107.13 57.22" stroke="#939393" stroke-miterlimit="10"/>
  <path d="M121.21 54.5898C125.74 57.4298 127.42 57.4998 128.39 57.3998" stroke="#939393" stroke-miterlimit="10"/>
  <path d="M62 24.3398C62 25.7398 60.86 26.8798 59.46 26.8798" stroke="#939393" stroke-miterlimit="10"/>
  <path d="M64.54 26.8798C63.14 26.8798 62 25.7398 62 24.3398" stroke="#939393" stroke-miterlimit="10"/>
  <path d="M59.46 26.8799C60.86 26.8799 62 28.0199 62 29.4199" stroke="#939393" stroke-miterlimit="10"/>
  <path d="M62 29.4301C62 28.0301 63.14 26.8901 64.54 26.8901" stroke="#939393" stroke-miterlimit="10"/>
  <path d="M99 34.3398C99 35.7398 97.86 36.8798 96.46 36.8798" stroke="#939393" stroke-miterlimit="10"/>
  <path d="M101.54 36.8798C100.14 36.8798 99 35.7398 99 34.3398" stroke="#939393" stroke-miterlimit="10"/>
  <path d="M96.46 36.8799C97.86 36.8799 99 38.0199 99 39.4199" stroke="#939393" stroke-miterlimit="10"/>
  <path d="M99 39.4301C99 38.0301 100.14 36.8901 101.54 36.8901" stroke="#939393" stroke-miterlimit="10"/>
  <path d="M128 24.3398C128 25.7398 126.86 26.8798 125.46 26.8798" stroke="#939393" stroke-miterlimit="10"/>
  <path d="M130.54 26.8798C129.14 26.8798 128 25.7398 128 24.3398" stroke="#939393" stroke-miterlimit="10"/>
  <path d="M125.46 26.8799C126.86 26.8799 128 28.0199 128 29.4199" stroke="#939393" stroke-miterlimit="10"/>
  <path d="M128 29.4301C128 28.0301 129.14 26.8901 130.54 26.8901" stroke="#939393" stroke-miterlimit="10"/>
  <path d="M60.34 62.7498C61.6323 62.7498 62.68 62.4902 62.68 62.1698C62.68 61.8495 61.6323 61.5898 60.34 61.5898C59.0476 61.5898 58 61.8495 58 62.1698C58 62.4902 59.0476 62.7498 60.34 62.7498Z" stroke="#939393" stroke-miterlimit="10"/>
  <path d="M58 62.1699C56.07 63.5999 55.41 63.5399 54.96 63.8899" stroke="#939393" stroke-miterlimit="10"/>
  <path d="M62.68 62.0698C65.34 63.7398 66.32 63.7798 66.89 63.7198" stroke="#939393" stroke-miterlimit="10"/>
  <path d="M54.74 54.7098L69.12 53.0098" stroke="#939393" stroke-miterlimit="10"/>
  <path d="M156.04 96.4H141.81C141.49 96.4 141.24 96.15 141.24 95.83C141.24 95.51 141.49 95.26 141.81 95.26H154.74L149.78 58.35C149.74 58.04 149.96 57.76 150.27 57.71C150.57 57.66 150.86 57.89 150.91 58.2L156.04 96.4Z" fill="#939393"/>
  <path d="M102.14 97.1398V82.1298C100.91 71.2498 92.93 62.8398 83.26 62.8398H71.27C61.6 62.8398 53.62 71.2398 52.39 82.1298V97.1398" fill="white"/>
  <path d="M102.14 97.1398V82.1298C100.91 71.2498 92.93 62.8398 83.26 62.8398H71.27C61.6 62.8398 53.62 71.2398 52.39 82.1298V97.1398" stroke="#939393" stroke-miterlimit="10"/>
  <path d="M135.74 47.3701H54.8V49.3301H135.74V47.3701Z" fill="#E4EAEF" stroke="#939393" stroke-miterlimit="10"/>
  <path d="M109.009 73.6074L109.009 19.6074H107.279L107.279 73.6074H109.009Z" fill="#E4EAEF" stroke="#939393" stroke-miterlimit="10"/>
  <path d="M82.0151 88.814L82.0151 19.604H80.2851L80.2851 88.814H82.0151Z" fill="#E4EAEF" stroke="#939393" stroke-miterlimit="10"/>
  <path d="M77.26 62.8398C84.7213 62.8398 90.77 56.7912 90.77 49.3298C90.77 41.8685 84.7213 35.8198 77.26 35.8198C69.7986 35.8198 63.75 41.8685 63.75 49.3298C63.75 56.7912 69.7986 62.8398 77.26 62.8398Z" fill="white" stroke="#939393" stroke-miterlimit="10"/>
  <path d="M57.88 97.3598V79.4298C57.88 66.1898 63.25 60.8198 69.88 60.8198H84.64C91.27 60.8198 96.64 66.1898 96.64 72.8198V97.3598" fill="#E4EAEF"/>
  <path d="M57.88 97.3598V79.4298C57.88 66.1898 63.25 60.8198 69.88 60.8198H84.64C91.27 60.8198 96.64 66.1898 96.64 72.8198V97.3598" stroke="#939393" stroke-miterlimit="10"/>
  <path d="M60.82 96.7401V75.1201C60.82 68.4901 66.19 63.1201 72.82 63.1201H81.69C88.32 63.1201 93.69 68.4901 93.69 75.1201V96.7401" fill="white"/>
  <path d="M60.82 96.7401V75.1201C60.82 68.4901 66.19 63.1201 72.82 63.1201H81.69C88.32 63.1201 93.69 68.4901 93.69 75.1201V96.7401" stroke="#939393" stroke-miterlimit="10"/>
  <path d="M79.21 75.52H75.04C72.81 75.52 71.05 77.44 71.25 79.66L71.9 86.93C72.05 88.65 73.34 90.02 74.99 90.33V96.59H79.55V90.25C81.06 89.85 82.21 88.55 82.36 86.93L83 79.66C83.2 77.44 81.44 75.52 79.21 75.52Z" fill="#E4EAEF" stroke="#939393" stroke-miterlimit="10"/>
  <path d="M66.34 41.3799V57.2999" stroke="#939393" stroke-miterlimit="10"/>
  <path d="M88.27 41.3799V56.9999" stroke="#939393" stroke-miterlimit="10"/>
  <path d="M160.79 96.3701H29.57V97.5101H160.79V96.3701Z" fill="#939393"/>
  <path d="M135.42 67.3301C133.21 67.3301 131.43 66.8901 131.43 66.3401C131.43 65.7901 133.22 65.3501 135.42 65.3501" stroke="#939393" stroke-miterlimit="10"/>
  <path d="M131.43 66.3398C128.14 68.7898 125.62 68.6798 124.85 69.2798" stroke="#939393" stroke-miterlimit="10"/>
  <path d="M152.713 30.009L148.368 29.644L143.533 87.2019L147.878 87.5668L152.713 30.009Z" fill="#E4EAEF" stroke="#939393" stroke-miterlimit="10"/>
  <path d="M36.19 54.7701C40.1444 54.7701 43.35 50.5257 43.35 45.2901C43.35 40.0544 40.1444 35.8101 36.19 35.8101C32.2357 35.8101 29.03 40.0544 29.03 45.2901C29.03 50.5257 32.2357 54.7701 36.19 54.7701Z" fill="white" stroke="#939393" stroke-miterlimit="10"/>
  <path d="M36.19 51.9401C38.968 51.9401 41.22 48.9628 41.22 45.2901C41.22 41.6174 38.968 38.6401 36.19 38.6401C33.412 38.6401 31.16 41.6174 31.16 45.2901C31.16 48.9628 33.412 51.9401 36.19 51.9401Z" fill="#E4EAEF" stroke="#939393" stroke-miterlimit="10"/>
  <path d="M32.77 36.9599L36.19 31.1099L39.62 36.9599" stroke="#939393" stroke-miterlimit="10"/>
  <path d="M37.96 46.0801C38.47 45.6001 38.8 44.9301 38.8 44.1801C38.8 42.7401 37.63 41.5801 36.2 41.5801C34.77 41.5801 33.6 42.7501 33.6 44.1801C33.6 44.9301 33.93 45.6101 34.44 46.0801C33.26 46.5701 32.35 47.5501 31.91 48.7501C32.79 50.6701 34.38 51.9501 36.2 51.9501C38.02 51.9501 39.61 50.6701 40.49 48.7501C40.05 47.5501 39.13 46.5701 37.96 46.0801Z" fill="white" stroke="#939393" stroke-miterlimit="10"/>
  <path d="M36.19 46.7698C37.626 46.7698 38.79 45.6058 38.79 44.1698C38.79 42.7339 37.626 41.5698 36.19 41.5698C34.7541 41.5698 33.59 42.7339 33.59 44.1698C33.59 45.6058 34.7541 46.7698 36.19 46.7698Z" fill="white" stroke="#939393" stroke-miterlimit="10"/>
  <path d="M128.83 96.3997H110.18V94.7197L128.83 93.7197V96.3997Z" fill="white" stroke="#939393" stroke-miterlimit="10"/>
</svg>
