<svg width="143" height="113" viewBox="0 0 143 113" fill="none" xmlns="http://www.w3.org/2000/svg">
<g clip-path="url(#clip0)">
<path d="M142.448 60.8292C146.368 75.4987 128.587 84.8017 114.381 90.545C87.7257 101.191 83.603 96.2447 64.9304 96.3102C46.3179 96.3102 33.8349 105.455 21.5924 99.8316C9.34996 94.0827 -8.42594 78.5451 4.51093 57.9575C17.3275 37.5664 9.0711 37.0532 24.1076 23.8358C36.957 14.6748 54.5306 10.9515 68.1837 13.8232C81.897 16.6348 104.031 29.2134 118.291 36.611C132.496 43.943 137.133 49.0312 142.448 60.8292Z" fill="#F2F2F2"/>
<path d="M118.433 43.2449C116.979 32.4843 106.721 0.273438 71.2512 0.273438C35.7814 0.273438 25.5238 32.4843 24.0693 43.2449L26.4369 44.1948C26.6064 43.0101 26.9017 41.5306 27.3336 39.8655C27.3446 39.8655 27.3555 39.8709 27.3664 39.8709C27.7328 39.8709 28.0444 39.6635 28.1374 39.325C29.2966 35.0175 32.5937 30.9775 35.6939 28.4934C36.0439 28.9848 36.7383 29.0612 37.2905 28.6627C42.3592 25.0212 54.8368 17.7601 71.2567 17.7929C87.6765 17.7601 100.149 25.0212 105.223 28.6627C105.781 29.0612 106.469 28.9848 106.819 28.4934C109.92 30.972 113.217 35.0175 114.376 39.3195C114.469 39.658 114.781 39.8655 115.147 39.8655C115.158 39.8655 115.169 39.86 115.18 39.86C115.617 41.5252 115.907 43.0047 116.076 44.1894L118.433 43.2449ZM107.907 26.861C107.929 26.8337 107.946 26.801 107.968 26.7737C108.334 26.2277 108.154 25.3924 107.563 24.9448C101.92 20.6809 88.8084 12.3825 71.2512 12.4044C53.694 12.3825 40.5822 20.6864 34.9394 24.9448C34.3434 25.3924 34.1684 26.2223 34.5348 26.7737C34.5566 26.801 34.573 26.8337 34.5949 26.861C33.2443 27.9256 31.8555 29.2796 30.5925 30.8246C36.1751 18.6937 48.0676 4.34074 71.2512 4.34074C94.4348 4.34074 106.322 18.6991 111.915 30.8301C110.647 29.285 109.258 27.9311 107.907 26.861Z" fill="white" stroke="#231F20" stroke-miterlimit="10" stroke-linecap="round" stroke-linejoin="round"/>
<path d="M126.64 82.2856C125.711 82.1108 125 82.4493 124.929 82.8752C124.524 85.2446 122.665 89.9179 115.497 93.1226C115.519 91.2172 114.994 89.7323 113.862 88.9898C113.829 88.9679 113.785 88.957 113.753 88.9352C113.796 88.7659 113.835 88.6131 113.845 88.4875C114.075 86.2273 114.31 82.9789 114.31 81.7068C114.31 80.4348 113.845 80.0253 112.916 79.4466C117.383 69.3029 121.621 54.0055 117.383 35.5143C117.307 35.1704 117.061 34.952 116.875 34.8319C116.738 34.7445 116.563 34.7172 116.437 34.7445C115.754 34.8919 113.452 35.4433 112.566 36.3278C111.522 37.3705 111.981 37.9492 112.276 39.6307C115.152 56.0965 111.276 67.6487 106.787 75.3739C101.958 69.7834 89.0106 69.8543 80.9511 82.4384C71.6612 96.9497 79.77 106.433 84.877 107.847C86.8673 108.398 88.781 108.327 90.5963 107.776C91.4712 108.671 92.7178 109.872 92.7178 109.872L99.0496 112.455C99.1152 112.482 99.1753 112.509 99.2409 112.531L99.2901 112.553L99.2956 112.547C102.363 113.552 107.596 109.992 111.5 104.063C112.796 102.092 113.791 100.094 114.463 98.2163C114.469 98.1944 114.48 98.1726 114.485 98.1508C114.491 98.1289 114.502 98.1071 114.507 98.0852C114.671 97.6048 114.917 97.0752 115.497 96.8896C122.058 94.8041 127.745 90.371 128.27 83.705C128.319 83.039 127.57 82.4603 126.64 82.2856Z" fill="#E4EAEF" stroke="#939393" stroke-miterlimit="10"/>
<path d="M61.5459 82.4384C53.4918 69.8543 40.5385 69.7834 35.7104 75.3739C31.2213 67.6487 27.3447 56.0965 30.2207 39.6307C30.516 37.9492 30.9753 37.3705 29.9309 36.3278C29.0452 35.4433 26.7432 34.8919 26.0597 34.7445C25.9394 34.7172 25.759 34.7445 25.6223 34.8319C25.4309 34.952 25.1903 35.1758 25.1138 35.5143C20.8762 54.0001 25.1138 69.3029 29.581 79.4466C28.6515 80.0253 28.1867 80.4293 28.1867 81.7068C28.1867 82.9844 28.4164 86.2273 28.6515 88.4875C28.6624 88.6131 28.6952 88.7659 28.7444 88.9352C28.7062 88.957 28.6679 88.9679 28.6351 88.9898C25.7262 90.9006 26.7869 97.6485 31.0026 104.063C34.9067 109.998 40.1394 113.557 43.2068 112.547L43.2123 112.553L43.2615 112.531C43.3271 112.509 43.3873 112.482 43.4529 112.455L48.7457 110.298L48.8934 110.658C48.9535 110.8 49.1175 110.866 49.2597 110.806L49.6042 110.664C49.7463 110.604 49.812 110.44 49.7518 110.298L49.6042 109.949L49.7791 109.878C49.7791 109.878 51.0203 108.677 51.9007 107.781C53.716 108.327 55.6242 108.398 57.62 107.852C62.727 106.433 70.8357 96.9497 61.5459 82.4384Z" fill="#E4EAEF" stroke="#939393" stroke-miterlimit="10"/>
<path d="M71.2512 0.273438C35.7814 0.273438 25.5238 32.4843 24.0693 43.2449L26.4369 44.1948C27.8531 34.2258 37.8045 4.34074 71.2512 4.34074C104.698 4.34074 114.655 34.2313 116.065 44.1948L118.433 43.2449C116.979 32.4843 106.721 0.273438 71.2512 0.273438Z" fill="#E4EAEF" stroke="#939393" stroke-miterlimit="10"/>
<path d="M27.361 39.8706C27.2516 39.8706 27.1368 39.8543 27.0274 39.816C26.5353 39.6468 26.2291 39.1555 26.3439 38.7132C27.782 33.2374 32.4078 28.1437 36.1423 25.747C36.5633 25.4795 37.1593 25.616 37.4819 26.0582C37.799 26.495 37.7225 27.0627 37.3015 27.3303C33.8239 29.5468 29.4934 34.2583 28.1319 39.3247C28.039 39.6632 27.7273 39.8706 27.361 39.8706Z" fill="white" stroke="#939393" stroke-miterlimit="10"/>
<path d="M115.136 39.8706C115.245 39.8706 115.36 39.8543 115.469 39.816C115.962 39.6468 116.268 39.1555 116.153 38.7132C114.715 33.2374 110.089 28.1437 106.355 25.747C105.934 25.4795 105.338 25.616 105.015 26.0582C104.698 26.495 104.774 27.0627 105.195 27.3303C108.673 29.5468 113.004 34.2583 114.365 39.3247C114.458 39.6632 114.77 39.8706 115.136 39.8706Z" fill="white" stroke="#939393" stroke-miterlimit="10"/>
<path d="M106.836 28.477C106.491 28.9957 105.781 29.0721 105.217 28.6681C100.149 25.0266 87.6711 17.7656 71.2512 17.7983C54.8314 17.7656 42.3593 25.0266 37.2851 28.6681C36.7165 29.0721 36.0056 28.9957 35.6666 28.477C35.2894 27.9092 34.9121 27.3415 34.5348 26.7737C34.1685 26.2277 34.3489 25.3924 34.9394 24.9448C40.5822 20.6864 53.694 12.3825 71.2512 12.4044C88.8084 12.3771 101.92 20.6809 107.563 24.9448C108.159 25.3924 108.334 26.2223 107.968 26.7737C107.59 27.3415 107.213 27.9092 106.836 28.477Z" fill="white"/>
<path d="M106.836 28.477C106.491 28.9957 105.781 29.0721 105.217 28.6681C100.149 25.0266 87.6711 17.7656 71.2512 17.7983C54.8314 17.7656 42.3593 25.0266 37.2851 28.6681C36.7165 29.0721 36.0056 28.9957 35.6666 28.477C35.2894 27.9092 34.9121 27.3415 34.5348 26.7737C34.1685 26.2277 34.3489 25.3924 34.9394 24.9448C40.5822 20.6864 53.694 12.3825 71.2512 12.4044C88.8084 12.3771 101.92 20.6809 107.563 24.9448C108.159 25.3924 108.334 26.2223 107.968 26.7737C107.59 27.3415 107.213 27.9092 106.836 28.477Z" fill="white" stroke="#939393" stroke-miterlimit="10"/>
<path d="M34.8684 76.5471C38.8162 69.8265 52.9614 69.024 61.5514 82.4379C70.8412 96.9491 62.7324 106.432 57.6255 107.846C41.6868 112.247 30.8386 76.8146 34.8684 76.5471Z" fill="#E4EAEF" stroke="#939393" stroke-miterlimit="10"/>
<path d="M35.4971 77.5574C45.5469 66.1144 72.5963 98.8329 57.6199 107.847L35.4971 77.5574Z" fill="#E4EAEF"/>
<path d="M35.4971 77.5574C45.5469 66.1144 72.5963 98.8329 57.6199 107.847" stroke="#939393" stroke-miterlimit="10"/>
<path d="M52.338 95.5572C49.5494 89.1806 45.4322 84.5455 36.3774 76.4873C35.9127 76.602 30.5159 78.8622 29.5864 79.4409C28.6569 80.0196 28.1921 80.4236 28.1921 81.7011C28.1921 82.9786 28.4218 86.2215 28.6569 88.4818C28.6678 88.6073 28.7006 88.7602 28.7498 88.9294C28.7116 88.9513 28.6733 88.9622 28.6405 88.984C25.7316 90.8948 26.7923 97.6427 31.008 104.058C34.9121 109.992 40.1448 113.552 43.2122 112.542L43.2177 112.547L43.2669 112.525C43.3325 112.503 43.3927 112.476 43.4583 112.449L49.79 109.866C49.79 109.866 51.5288 108.185 52.3435 107.317C53.1582 106.449 55.1266 101.934 52.338 95.5572Z" fill="#E4EAEF" stroke="#939393" stroke-miterlimit="10"/>
<path d="M47.4716 110.816C49.7845 109.872 50.6593 102.627 45.4266 94.6071C44.8853 93.7718 44.3057 92.9857 43.7097 92.2432" stroke="#939393" stroke-miterlimit="10"/>
<path d="M43.0432 111.748C45.7416 109.978 44.7579 103.722 40.8461 97.7742C36.9342 91.8261 31.5756 88.4384 28.8771 90.2077C26.1787 91.9769 27.1624 98.233 31.0742 104.181C34.9861 110.129 40.3448 113.517 43.0432 111.748Z" fill="#E4EAEF" stroke="#939393" stroke-miterlimit="10"/>
<path d="M38.8394 104.625C39.8743 103.946 39.5187 101.58 38.0451 99.339C36.5716 97.0983 34.538 95.832 33.5031 96.5106C32.4681 97.1892 32.8237 99.5556 34.2973 101.796C35.7709 104.037 37.8044 105.303 38.8394 104.625Z" fill="#E4EAEF" stroke="#939393" stroke-miterlimit="10"/>
<path d="M34.4582 83.3877L31.1502 85.7626L28.0828 89.4641" fill="#E4EAEF"/>
<path d="M34.4582 83.3877L31.1502 85.7626L28.0828 89.4641" stroke="#939393" stroke-miterlimit="10"/>
<path d="M28.6076 88.023C28.4381 86.1231 28.4819 84.4307 29.5809 83.9667C30.6799 83.5026 31.5548 83.3279 32.539 83.0385C33.5232 82.7492 34.3434 82.6891 36.1696 84.1959C37.9959 85.7028 41.3969 88.9348 43.7043 92.2377" stroke="#939393" stroke-miterlimit="10"/>
<path d="M28.5366 80.3193C28.903 79.9262 31.0956 79.271 32.2001 78.9817C33.3046 78.6923 33.999 78.8725 34.8684 79.6532C35.7377 80.4339 40.8447 84.7797 46.7117 92.7177C52.5786 100.656 52.0592 107.622 50.3751 109.304" stroke="#939393" stroke-miterlimit="10"/>
<path d="M34.7263 99.75L35.6449 101.781L35.8035 100.607L34.7263 99.75Z" fill="#929497"/>
<path d="M37.2851 101.53H37.1047L35.9893 99.4609H36.1752L37.2851 101.53Z" fill="#929497"/>
<path d="M36.8205 101.53H36.6401L35.5247 99.4609H35.7106L36.8205 101.53Z" fill="#929497"/>
<path d="M39.4614 99.4717L40.2214 101.148L40.3527 100.181L39.4614 99.4717Z" fill="#929497"/>
<path d="M39.259 99.4717H39.095L39.855 101.148H40.019L39.259 99.4717Z" fill="#929497"/>
<path d="M31.8884 102.201L31.1885 100.766L30.937 101.661L31.8884 102.201Z" fill="#929497"/>
<path d="M31.7025 100.635L31.4346 100.689L32.1345 102.131L32.3969 102.071L31.7025 100.635Z" fill="#929497"/>
<path d="M107.634 76.5471C103.686 69.8265 89.541 69.024 80.9511 82.4379C71.6612 96.9491 79.77 106.432 84.877 107.846C100.816 112.247 111.658 76.8146 107.634 76.5471Z" fill="#E4EAEF" stroke="#939393" stroke-miterlimit="10"/>
<path d="M107 77.5574C96.9499 66.1144 69.9006 98.8329 84.877 107.847L107 77.5574Z" fill="#E4EAEF"/>
<path d="M107 77.5574C96.9499 66.1144 69.9006 98.8329 84.877 107.847" stroke="#939393" stroke-miterlimit="10"/>
<path d="M90.1589 95.5572C92.9475 89.1806 97.0648 84.5455 106.12 76.4873C106.584 76.602 111.981 78.8622 112.911 79.4409C113.84 80.0196 114.305 80.4236 114.305 81.7011C114.305 82.9786 114.075 86.2215 113.84 88.4818C113.829 88.6073 113.796 88.7602 113.747 88.9294C113.785 88.9513 113.824 88.9622 113.856 88.984C116.765 90.8948 115.705 97.6427 111.489 104.058C107.585 109.992 102.352 113.552 99.2847 112.542L99.2793 112.547L99.23 112.525C99.1644 112.503 99.1043 112.476 99.0387 112.449L92.7069 109.866C92.7069 109.866 90.9682 108.185 90.1535 107.317C89.3388 106.449 87.3758 101.934 90.1589 95.5572Z" fill="#E4EAEF" stroke="#939393" stroke-miterlimit="10"/>
<path d="M95.0307 110.816C92.7178 109.872 91.843 102.627 97.0757 94.6071C97.617 93.7718 98.1966 92.9857 98.7926 92.2432" stroke="#939393" stroke-miterlimit="10"/>
<path d="M111.495 104.055C115.714 97.6405 116.774 90.8937 113.864 88.9854C110.953 87.0772 105.174 90.7301 100.956 97.1445C96.7372 103.559 95.6768 110.306 98.5872 112.214C101.498 114.122 107.277 110.469 111.495 104.055Z" fill="#E4EAEF" stroke="#939393" stroke-miterlimit="10"/>
<path d="M113.889 88.023C114.059 86.1231 114.015 84.4307 112.916 83.9667C111.812 83.5026 110.942 83.3279 109.958 83.0385C108.974 82.7492 108.154 82.6891 106.327 84.1959C104.501 85.7028 101.1 88.9348 98.7927 92.2377" stroke="#939393" stroke-miterlimit="10"/>
<path d="M103.063 80.1506L101.488 81.6083C101.133 81.9358 101.182 82.5091 101.587 82.7711C101.871 82.9568 102.248 82.924 102.494 82.6947L104.069 81.237C104.424 80.9095 104.375 80.3362 103.971 80.0742C103.686 79.8885 103.309 79.9213 103.063 80.1506Z" fill="#E4EAEF" stroke="#939393" stroke-miterlimit="10"/>
<path d="M103.533 81.6789L103.331 80.8545L101.625 81.0892L101.92 82.2248C101.997 82.4596 102.216 82.6288 102.5 82.6889" stroke="#939393" stroke-miterlimit="10"/>
<path d="M102.551 81.6455C103.023 81.595 103.373 81.2528 103.333 80.881C103.293 80.5093 102.878 80.2488 102.407 80.2993C101.935 80.3497 101.586 80.692 101.625 81.0637C101.665 81.4355 102.08 81.696 102.551 81.6455Z" fill="#E4EAEF" stroke="#939393" stroke-miterlimit="10"/>
<path d="M106.458 99.7503L107.016 99.3408L107.158 99.0351L107.098 99.0078L106.568 99.046C106.48 99.0515 106.382 99.1443 106.322 99.2699L105.436 101.159C105.387 101.268 105.376 101.377 105.409 101.454L105.677 102.038L105.737 102.065L105.955 101.596L105.862 101.017L106.458 99.7503Z" fill="#808080"/>
<path d="M107.629 99.2314L107.569 99.2041L107.426 99.5098L107.476 100.176L106.885 101.437L106.371 101.759L106.152 102.229L106.212 102.256L106.847 102.059C106.923 102.038 107.005 101.95 107.055 101.846L107.94 99.9575C108 99.8319 108.006 99.7009 107.951 99.6354L107.629 99.2314Z" fill="#808080"/>
<path d="M98.5956 105.373L98.0051 105.733C97.9997 105.788 97.9833 105.843 97.9778 105.892L98.5792 105.493C98.5792 105.46 98.5902 105.417 98.5956 105.373Z" fill="#808080"/>
<path d="M98.552 105.821L97.956 106.214C97.9505 106.264 97.9505 106.313 97.9451 106.362L98.5465 105.93C98.5465 105.898 98.5465 105.86 98.552 105.821Z" fill="#808080"/>
<path d="M98.8472 104.085C98.8581 104.041 98.869 103.998 98.88 103.954L98.3113 104.205C98.2949 104.26 98.284 104.32 98.2676 104.374L98.8472 104.085Z" fill="#808080"/>
<path d="M98.7324 104.565C98.7433 104.521 98.7488 104.483 98.7542 104.439L98.1747 104.729C98.1637 104.783 98.1528 104.838 98.1418 104.893L98.7324 104.565Z" fill="#808080"/>
<path d="M98.6776 104.909L98.0925 105.237C98.0816 105.291 98.0761 105.346 98.0652 105.395L98.6557 105.035C98.6612 104.991 98.6666 104.953 98.6776 104.909Z" fill="#808080"/>
<path d="M98.5191 106.252L97.9177 106.683C97.9177 106.732 97.9067 106.787 97.9067 106.831L98.5082 106.367C98.5137 106.334 98.5191 106.29 98.5191 106.252Z" fill="#808080"/>
<path d="M104.927 109.353L104.807 110.035C104.851 110.008 104.9 109.986 104.944 109.959L105.037 109.293C104.999 109.315 104.966 109.331 104.927 109.353Z" fill="#808080"/>
<path d="M106.978 107.874L107.011 108.447C107.06 108.409 107.104 108.365 107.153 108.321L107.087 107.775C107.049 107.808 107.011 107.841 106.978 107.874Z" fill="#808080"/>
<path d="M105.332 109.107L105.239 109.773C105.288 109.74 105.332 109.708 105.381 109.68L105.442 109.036C105.409 109.058 105.37 109.08 105.332 109.107Z" fill="#808080"/>
<path d="M104.528 109.583L104.375 110.287C104.419 110.26 104.468 110.233 104.512 110.211L104.632 109.528C104.599 109.545 104.561 109.567 104.528 109.583Z" fill="#808080"/>
<path d="M99.7494 101.415L99.2464 101.47C99.219 101.53 99.1972 101.59 99.1753 101.65L99.6947 101.552C99.7111 101.508 99.7275 101.464 99.7494 101.415Z" fill="#808080"/>
<path d="M105.851 108.753C105.813 108.78 105.78 108.802 105.742 108.829L105.682 109.474C105.731 109.441 105.775 109.414 105.824 109.381L105.851 108.753Z" fill="#808080"/>
<path d="M108.591 106.318L108.749 106.776C108.793 106.727 108.837 106.678 108.886 106.629L108.7 106.203C108.662 106.241 108.629 106.285 108.591 106.318Z" fill="#808080"/>
<path d="M108.192 106.733L108.317 107.224C108.361 107.175 108.41 107.131 108.454 107.087L108.296 106.629C108.263 106.662 108.23 106.694 108.192 106.733Z" fill="#808080"/>
<path d="M99.3394 102.452L98.8036 102.589C98.7817 102.649 98.7653 102.703 98.7434 102.763L99.2902 102.589C99.3121 102.54 99.323 102.496 99.3394 102.452Z" fill="#808080"/>
<path d="M99.5363 101.934L99.0169 102.032C98.995 102.092 98.9677 102.152 98.9458 102.212L99.4816 102.076C99.498 102.026 99.5199 101.983 99.5363 101.934Z" fill="#808080"/>
<path d="M107.792 107.132L107.891 107.65C107.935 107.607 107.984 107.557 108.028 107.514L107.902 107.022C107.864 107.061 107.825 107.099 107.792 107.132Z" fill="#808080"/>
<path d="M108.979 105.886L109.165 106.312C109.209 106.263 109.252 106.214 109.302 106.165L109.083 105.771C109.05 105.81 109.017 105.848 108.979 105.886Z" fill="#808080"/>
<path d="M99.1699 102.955L98.6231 103.13C98.6067 103.19 98.5849 103.244 98.563 103.304L99.1207 103.092C99.1371 103.048 99.1535 103.004 99.1699 102.955Z" fill="#808080"/>
<path d="M99.0058 103.462L98.448 103.675C98.4316 103.729 98.4207 103.784 98.4043 103.844L98.9729 103.593C98.9893 103.549 98.9948 103.506 99.0058 103.462Z" fill="#808080"/>
<path d="M107.382 107.513L107.448 108.059C107.497 108.016 107.541 107.977 107.59 107.934L107.492 107.415C107.459 107.448 107.421 107.475 107.382 107.513Z" fill="#808080"/>
<path d="M99.9737 100.896L99.4925 100.913C99.4652 100.973 99.4324 101.033 99.405 101.093L99.9081 101.038C99.9299 100.989 99.9518 100.946 99.9737 100.896Z" fill="#808080"/>
<path d="M106.261 108.447C106.223 108.475 106.19 108.507 106.152 108.535L106.125 109.157C106.174 109.124 106.218 109.081 106.267 109.048L106.261 108.447Z" fill="#808080"/>
<path d="M106.677 108.125C106.639 108.152 106.606 108.18 106.568 108.212L106.573 108.813C106.622 108.775 106.666 108.742 106.715 108.704L106.677 108.125Z" fill="#808080"/>
<path d="M104.467 105.821C104.593 105.636 104.624 105.439 104.536 105.379C104.449 105.32 104.276 105.421 104.15 105.606C104.025 105.79 103.993 105.988 104.081 106.047C104.168 106.106 104.341 106.005 104.467 105.821Z" fill="#808080"/>
<path d="M103.951 105.467C104.077 105.283 104.108 105.085 104.021 105.026C103.933 104.966 103.761 105.068 103.635 105.252C103.509 105.436 103.478 105.634 103.565 105.694C103.652 105.753 103.825 105.652 103.951 105.467Z" fill="#808080"/>
<path d="M103.436 105.113C103.562 104.928 103.593 104.731 103.505 104.671C103.418 104.612 103.245 104.713 103.119 104.898C102.994 105.082 102.962 105.28 103.05 105.339C103.137 105.398 103.31 105.297 103.436 105.113Z" fill="#808080"/>
<path d="M102.925 104.761C103.051 104.577 103.082 104.379 102.994 104.32C102.907 104.26 102.734 104.362 102.608 104.546C102.483 104.73 102.451 104.928 102.539 104.987C102.626 105.047 102.799 104.946 102.925 104.761Z" fill="#808080"/>
<path d="M102.409 104.407C102.535 104.222 102.566 104.025 102.479 103.965C102.391 103.906 102.219 104.007 102.093 104.192C101.967 104.376 101.936 104.574 102.023 104.633C102.11 104.692 102.283 104.591 102.409 104.407Z" fill="#808080"/>
<path d="M104.042 110.385H104.047L104.053 110.336L104.058 110.293V110.254V110.233L104.047 110.222H104.031H104.036L104.042 110.227L104.047 110.26V110.265V110.304V110.309L104.042 110.353V110.358L104.031 110.402V110.429L104.042 110.424V110.385Z" fill="#808080"/>
<path d="M104.009 110.21L104.003 110.199L104.014 110.177L103.987 110.199L103.981 110.205L103.932 110.237L103.779 110.319H103.763L103.757 110.297L103.801 110.074L103.839 110.024L104.02 109.926H104.025L104.096 109.915L104.107 109.926L104.113 109.992V110.013L104.091 110.074L104.08 110.09L104.096 110.074L104.129 109.986L104.113 109.904L104.02 109.926L103.795 110.046L103.681 110.619L103.697 110.609L103.741 110.368L103.779 110.319L103.954 110.226L103.96 110.221L104.003 110.21H104.009Z" fill="#808080"/>
<path d="M104.107 110.434L104.113 110.401L104.102 110.374V110.341L104.107 110.319V110.298L104.113 110.254V110.249V110.205V110.199L104.107 110.167L104.102 110.161L104.085 110.145L104.124 110.101L104.14 110.074L104.178 109.965V109.959V109.943V109.937L104.162 109.839L104.146 109.828L104.031 109.85L104.02 109.855L103.763 109.992L103.724 110.041L103.593 110.685L103.599 110.707H103.615L103.686 110.669L103.708 110.647L103.719 110.62L103.768 110.38L103.91 110.303L103.943 110.292L103.954 110.298L103.96 110.319V110.352L103.954 110.396L103.949 110.44L103.943 110.478V110.489L103.949 110.511L103.971 110.516L104.047 110.472L104.107 110.434ZM104.031 110.429L104.036 110.396L104.042 110.352L104.047 110.309V110.303V110.265V110.259L104.042 110.232L104.036 110.227H104.047L104.058 110.238L104.063 110.259V110.298L104.058 110.341L104.053 110.385V110.39V110.423L104.031 110.429ZM103.954 110.227L103.779 110.319L103.741 110.369L103.692 110.609L103.681 110.614L103.796 110.041L104.02 109.921L104.118 109.905L104.135 109.981L104.102 110.068L104.091 110.085L104.102 110.068L104.124 110.008L104.129 109.992L104.124 109.926L104.107 109.915L104.042 109.926L104.031 109.932L103.85 110.03L103.812 110.079L103.768 110.303L103.774 110.325H103.79L103.943 110.243L103.992 110.21L104.003 110.205L104.031 110.183L104.02 110.205L104.025 110.216H104.02L103.954 110.227ZM103.943 110.167L103.823 110.232L103.856 110.079L104.003 110.003L104.053 109.997L104.058 110.041L104.042 110.085L104.02 110.117L103.987 110.145L103.943 110.167Z" fill="#808080"/>
<path d="M97.9888 107.437H97.9943L97.9724 107.159L98.0052 107.132L98.47 106.738V106.728L97.9724 107.142L97.9888 107.437Z" fill="#808080"/>
<path d="M98.5245 106.618L97.9668 107.093L97.9121 107.142L97.9394 107.519V107.546L98.0324 107.47L98.0597 107.443L98.0379 107.164L98.5026 106.771L98.53 106.744V106.716L98.5245 106.662V106.651V106.618ZM98.4698 106.738L98.0051 107.131L97.9777 107.159L97.9996 107.437L97.9777 107.142L98.4753 106.722L98.4698 106.738Z" fill="#808080"/>
<path d="M104.867 79.8608L104.84 79.5168L105.185 79.5332L105.152 79.0801L104.84 79.4022L104.818 79.1237L104.731 79.1183L104.753 79.4131L104.468 79.4022L104.474 79.4895L104.742 79.5004L104.414 79.8389L104.867 79.8608ZM104.764 79.6151L104.774 79.768L104.621 79.7625L104.764 79.6151ZM105.092 79.4404L104.938 79.4349L105.081 79.293L105.092 79.4404Z" fill="#929497"/>
<path d="M101.003 83.0561L100.615 83.4561L100.69 83.5282L101.078 83.1282L101.003 83.0561Z" fill="#929497"/>
<path d="M101.122 83.3436L101.024 83.3763C101.067 83.5074 101.034 83.6548 100.936 83.7585C100.788 83.9113 100.542 83.9168 100.389 83.7694C100.236 83.622 100.231 83.3763 100.378 83.2235C100.482 83.1197 100.63 83.0815 100.767 83.1197L100.794 83.0215C100.624 82.9723 100.438 83.016 100.307 83.1525C100.121 83.3436 100.127 83.6548 100.318 83.8404C100.51 84.026 100.821 84.0205 101.007 83.8295C101.133 83.6984 101.171 83.5074 101.122 83.3436Z" fill="#929497"/>
</g>
<defs>
<clipPath id="clip0">
<rect width="143" height="113" fill="white"/>
</clipPath>
</defs>
</svg>
