<svg width="15" height="15" viewBox="0 0 15 15" fill="none" xmlns="http://www.w3.org/2000/svg">
  <path fill-rule="evenodd" clip-rule="evenodd" d="M7.50003 0.000244141C8.10918 0.000244141 8.66532 0.346675 8.93394 0.89354L14.8544 12.9546C15.0708 13.3946 15.0446 13.9152 14.7853 14.3314C14.5259 14.7476 14.0701 15.0004 13.58 15.0001H1.42034C0.929954 15.0004 0.474138 14.7476 0.214782 14.3314C-0.0445751 13.9152 -0.0707298 13.3946 0.14549 12.9548L6.06617 0.893431C6.33474 0.346675 6.89087 0.000244141 7.50003 0.000244141ZM7.50001 0.937744C7.24834 0.937744 7.01857 1.08087 6.90767 1.30665L0.986927 13.3681C0.913481 13.5175 0.92236 13.6943 1.01041 13.8356C1.09846 13.9769 1.25321 14.0627 1.42001 14.0626H13.5803C13.7468 14.0627 13.9016 13.9769 13.9896 13.8356C14.0777 13.6943 14.0865 13.5175 14.013 13.3679L8.0924 1.30676C7.98144 1.08087 7.75168 0.937744 7.50001 0.937744ZM7.96875 9.84399V5.15649C7.96875 4.89761 7.75888 4.68774 7.5 4.68774C7.24112 4.68774 7.03125 4.89761 7.03125 5.15649V9.84399C7.03125 10.1029 7.24112 10.3127 7.5 10.3127C7.75888 10.3127 7.96875 10.1029 7.96875 9.84399ZM6.79688 11.9534C6.79688 12.3417 7.11167 12.6565 7.5 12.6565C7.88833 12.6565 8.20312 12.3417 8.20312 11.9534C8.20312 11.5909 7.9289 11.2925 7.57661 11.2544L7.49972 11.2502C7.11153 11.2504 6.79688 11.5651 6.79688 11.9534Z" fill="#E2184A"/>
</svg>
