<svg width="16" height="16" viewBox="0 0 16 16" fill="none" xmlns="http://www.w3.org/2000/svg">
<path fill-rule="evenodd" clip-rule="evenodd" d="M8.00003 0C8.64979 0 9.243 0.369526 9.52953 0.952849L15.8447 13.8179C16.0755 14.2874 16.0476 14.8426 15.771 15.2866C15.4943 15.7305 15.0081 16.0002 14.4854 15.9998H1.51503C0.991951 16.0002 0.505748 15.7305 0.2291 15.2866C-0.0475468 14.8426 -0.0754451 14.2874 0.15519 13.8182L6.47058 0.952732C6.75705 0.369526 7.35026 0 8.00003 0ZM8.00004 0.999921C7.7316 0.999921 7.48651 1.15259 7.36822 1.39342L1.05276 14.259C0.974416 14.4184 0.983887 14.6069 1.07781 14.7576C1.17173 14.9083 1.33679 14.9999 1.51471 14.9998H14.4857C14.6633 14.9999 14.8284 14.9083 14.9223 14.7576C15.0162 14.6069 15.0257 14.4184 14.9472 14.2588L8.63193 1.39354C8.51357 1.15259 8.26849 0.999921 8.00004 0.999921ZM8.50004 10.4998V5.49976C8.50004 5.22362 8.27619 4.99976 8.00004 4.99976C7.7239 4.99976 7.50004 5.22362 7.50004 5.49976V10.4998C7.50004 10.7759 7.7239 10.9998 8.00004 10.9998C8.27619 10.9998 8.50004 10.7759 8.50004 10.4998ZM7.25004 12.7498C7.25004 13.164 7.58583 13.4998 8.00004 13.4998C8.41426 13.4998 8.75004 13.164 8.75004 12.7498C8.75004 12.3632 8.45754 12.0449 8.08176 12.0042L7.99975 11.9998C7.58567 11.9999 7.25004 12.3356 7.25004 12.7498Z" fill="#FFCA03"/>
</svg>
