<svg width="55" height="46" viewBox="0 0 55 46" fill="none" xmlns="http://www.w3.org/2000/svg">
<path d="M7.96274 45.3029C14.1929 47.9379 24.0068 42.5032 32.2218 38.9898C40.4368 35.5314 47.0529 33.9943 51.0777 29.1085C55.0474 24.2777 56.4258 16.0982 53.228 10.9928C50.0302 5.9424 42.3114 3.96614 34.4823 2.09967C26.6533 0.288102 18.7139 -1.41368 12.3735 1.82519C6.03304 5.00916 1.2915 13.0789 0.243944 22.4661C-0.858742 31.9082 1.7877 42.613 7.96274 45.3029Z" fill="#F8F9F7"/>
<path d="M17 34H38.6701M38.6701 30.6661H17V17.7196C16.9999 17.4643 17.0585 17.2124 17.1712 16.9833C17.284 16.7542 17.4478 16.554 17.6501 16.3983L26.8182 9.34605C27.1097 9.12167 27.4672 9 27.8351 9C28.2029 9 28.5604 9.12167 28.8519 9.34605L38.02 16.3983C38.2224 16.554 38.3862 16.7542 38.4989 16.9833C38.6116 17.2124 38.6702 17.4643 38.6701 17.7196V30.6661ZM28.4243 16.2659L29.8123 18.9974H32.176C32.3061 18.9942 32.4342 19.0304 32.5434 19.1011C32.6526 19.1719 32.738 19.274 32.7883 19.394C32.8386 19.5141 32.8515 19.6465 32.8253 19.774C32.7992 19.9015 32.7351 20.0182 32.6416 20.1087L30.4713 22.2446L31.6737 25.0061C31.7263 25.1326 31.7379 25.2723 31.707 25.4057C31.676 25.5391 31.604 25.6594 31.501 25.7497C31.3981 25.84 31.2694 25.8958 31.1331 25.9091C30.9968 25.9224 30.8598 25.8927 30.7413 25.8241L27.8353 24.186L24.9293 25.8196C24.8108 25.8882 24.6737 25.918 24.5374 25.9047C24.4012 25.8913 24.2725 25.8356 24.1695 25.7453C24.0666 25.655 23.9946 25.5346 23.9636 25.4013C23.9326 25.2679 23.9443 25.1281 23.9969 25.0017L25.1993 22.2401L23.029 20.1042C22.9354 20.0137 22.8714 19.8971 22.8452 19.7696C22.8191 19.6421 22.832 19.5096 22.8823 19.3896C22.9326 19.2695 23.0179 19.1675 23.1272 19.0967C23.2364 19.0259 23.3645 18.9898 23.4946 18.993H25.8583L27.2463 16.2659C27.3014 16.157 27.3856 16.0655 27.4896 16.0016C27.5936 15.9376 27.7132 15.9038 27.8353 15.9038C27.9573 15.9038 28.077 15.9376 28.181 16.0016C28.2849 16.0655 28.3692 16.157 28.4243 16.2659Z" stroke="black" stroke-width="1.5" stroke-linecap="round" stroke-linejoin="round"/>
</svg>
