<svg width="55" height="46" viewBox="0 0 55 46" fill="none" xmlns="http://www.w3.org/2000/svg">
<path d="M47.0373 45.3029C40.8071 47.9379 30.9932 42.5032 22.7782 38.9898C14.5632 35.5314 7.94705 33.9943 3.92225 29.1085C-0.0474177 24.2777 -1.42578 16.0982 1.77201 10.9928C4.9698 5.94239 12.6886 3.96613 20.5177 2.09967C28.3467 0.2881 36.2861 -1.41368 42.6265 1.82519C48.967 5.00916 53.7085 13.0789 54.7561 22.4661C55.8587 31.9082 53.2123 42.613 47.0373 45.3029Z" fill="#F8F9F7"/>
<path d="M26.6682 29.3358H15V11H40.0034V16.0007M15 21.0015L23.3345 29.3359M31.6689 11L36.6696 16.0007M32.21 28.4834L31.321 35.0165C31.2893 35.1913 31.3142 35.3717 31.3922 35.5314C31.4701 35.6911 31.597 35.8218 31.7543 35.9043C31.9117 35.9869 32.0913 36.0171 32.267 35.9906C32.4427 35.964 32.6053 35.882 32.7312 35.7566L35.0082 33.4785L37.2851 35.7566C37.411 35.882 37.5737 35.964 37.7494 35.9906C37.925 36.0171 38.1046 35.9869 38.262 35.9043C38.4193 35.8218 38.5462 35.6911 38.6242 35.5314C38.7021 35.3717 38.727 35.1913 38.6953 35.0165L37.8063 28.4834M15 19.3345L23.3345 11M30.002 24.3351C30.002 24.9918 30.1313 25.6421 30.3826 26.2488C30.6339 26.8555 31.0023 27.4068 31.4666 27.8712C31.931 28.3355 32.4822 28.7039 33.0889 28.9552C33.6957 29.2065 34.3459 29.3358 35.0026 29.3358C35.6593 29.3358 36.3096 29.2065 36.9163 28.9552C37.523 28.7039 38.0743 28.3355 38.5386 27.8712C39.003 27.4068 39.3713 26.8555 39.6226 26.2488C39.874 25.6421 40.0033 24.9918 40.0033 24.3351C40.0033 23.6784 39.874 23.0282 39.6226 22.4215C39.3713 21.8148 39.003 21.2635 38.5386 20.7991C38.0743 20.3348 37.523 19.9664 36.9163 19.7151C36.3096 19.4638 35.6593 19.3345 35.0026 19.3345C34.3459 19.3345 33.6957 19.4638 33.0889 19.7151C32.4822 19.9664 31.931 20.3348 31.4666 20.7991C31.0023 21.2635 30.6339 21.8148 30.3826 22.4215C30.1313 23.0282 30.002 23.6784 30.002 24.3351Z" stroke="black" stroke-width="1.5" stroke-linecap="round" stroke-linejoin="round"/>
<path d="M35.0027 23.9185C34.9202 23.9185 34.8397 23.9429 34.7711 23.9887C34.7026 24.0345 34.6492 24.0996 34.6177 24.1757C34.5861 24.2519 34.5779 24.3356 34.5939 24.4165C34.61 24.4973 34.6497 24.5716 34.708 24.6298C34.7663 24.6881 34.8405 24.7278 34.9214 24.7439C35.0022 24.76 35.086 24.7517 35.1621 24.7202C35.2383 24.6886 35.3034 24.6352 35.3492 24.5667C35.3949 24.4982 35.4194 24.4176 35.4194 24.3352C35.4194 24.2247 35.3755 24.1187 35.2973 24.0405C35.2192 23.9624 35.1132 23.9185 35.0027 23.9185Z" fill="black" stroke="black" stroke-width="1.5" stroke-linecap="round" stroke-linejoin="round"/>
</svg>
