<svg width="174" height="108" viewBox="0 0 174 108" fill="none" xmlns="http://www.w3.org/2000/svg">
<g clip-path="url(#clip0)">
<path d="M166.55 58.64C171.18 76.01 159.6 97.88 142.81 104.68C126.09 111.41 104.15 102.94 82.07 103.01C60.06 103.01 38.13 111.48 23.65 104.82C9.17003 98.02 2.22003 76.01 3.45003 55.23C4.68003 34.45 14.09 14.91 28.57 6.23002C43.05 -2.60998 62.6 -0.429981 78.74 2.97002C94.96 6.30002 107.62 11 124.49 19.76C141.29 28.45 161.99 41.19 166.55 58.64Z" fill="#F2F2F2"/>
<path d="M111.03 21.0391C111.06 21.1491 111.07 21.2691 111.13 21.3591C112.49 23.3191 112.97 25.5391 112.99 27.8791C113.01 30.9291 112.35 33.8791 111.36 36.7391C110.71 38.5891 109.92 40.3991 109.2 42.2191C109.12 42.4091 109.06 42.6091 109 42.7991C108.59 43.5891 108.18 44.3891 107.76 45.1791C107.43 45.7991 107.09 46.4191 106.72 47.0991C106.63 46.9791 106.56 46.9091 106.51 46.8291C104.74 43.6191 102.92 40.4391 101.22 37.1891C100.3 35.4291 99.4901 33.5991 98.8301 31.7291C97.7501 28.6391 97.3901 25.4291 97.7801 22.1591C97.9201 20.9691 98.1401 19.7891 98.3501 18.6191C98.3801 18.4591 98.5201 18.2491 98.6601 18.1991C101.15 17.2591 103.68 16.8491 106.3 17.6491C108.12 18.2091 109.54 19.3291 110.73 20.7791C110.8 20.8791 110.92 20.9591 111.03 21.0391Z" fill="#F2F2F2"/>
<path d="M117.61 25.7595C117.41 23.3995 116.94 21.1095 115.91 18.9595C115.62 18.3395 115.21 17.7795 114.86 17.1895C114.59 16.7895 114.36 16.3595 114.06 15.9895C112.71 14.3495 111.03 13.1895 108.94 12.6695C106.46 12.0595 104.02 12.3395 101.65 13.1695C99.7599 13.8295 97.9199 14.6295 95.9399 15.0595C92.4599 15.7995 88.9699 16.2395 85.4099 15.9895C84.9399 15.9595 78.9399 14.9195 77.8399 14.5695C74.6999 13.5695 71.5899 12.4895 68.4499 11.4995C64.7899 10.3395 61.0199 9.77953 57.1799 9.76953C57.0099 9.76953 56.8499 9.83953 56.6799 9.87953C56.4799 10.0695 56.2699 10.2595 56.0699 10.4495C56.0799 10.6095 56.0499 10.7895 56.1199 10.9095C56.5899 11.8095 57.0199 12.7395 57.5699 13.5895C59.0899 15.9495 60.0199 18.5095 60.1699 21.3195C60.2599 23.0695 60.2499 24.8395 60.1599 26.5995C60.0799 28.1795 59.8999 29.7495 59.4099 31.2695C58.5199 34.0495 56.9699 36.4795 55.4999 38.9595C54.1199 41.2895 52.7599 43.6195 51.4699 45.9895C50.9299 46.9795 49.2499 51.6695 49.0899 52.2995C47.9499 56.7795 47.9099 61.2895 48.7699 65.8195C49.4999 69.6495 50.9099 73.2295 52.9499 76.5495C54.6299 79.2895 56.6799 81.7195 59.0799 83.8595C59.8599 84.5595 60.6999 85.1795 61.4999 85.8295C60.7099 86.2695 60.6699 87.0995 60.5499 87.9595C60.7599 87.9595 60.9399 87.9595 61.1099 87.9595C66.4899 87.9495 71.8699 87.9395 77.2399 87.9395C81.0599 87.9395 84.8799 87.9495 88.7099 87.9595C88.8399 87.9595 88.9599 87.9195 89.0899 87.8995C89.2299 87.9195 89.3799 87.9595 89.5199 87.9595C92.1899 87.9595 94.8499 87.9595 97.5199 87.9595C97.6299 87.9595 97.7399 87.9395 97.8799 87.9295C97.6399 87.0995 97.2899 86.3795 96.6099 85.8495C96.6899 85.7795 96.7399 85.7295 96.7999 85.6895C99.7099 83.4895 102.3 80.9695 104.44 77.9995C106.13 75.6595 107.48 73.1395 108.46 70.4195C109.9 66.3995 110.42 62.2595 109.96 58.0095C109.88 57.2295 110.04 56.5695 110.37 55.8995C110.71 55.1995 110.98 54.4695 111.28 53.7495C111.38 53.5695 111.49 53.3995 111.57 53.2095C112.26 51.4695 112.95 49.7295 113.63 47.9895C113.69 47.8495 113.69 47.6795 113.72 47.5295C113.9 47.0695 114.1 46.6195 114.26 46.1495C115.52 42.5095 116.51 38.8095 117.13 35.0095C117.62 31.9395 117.88 28.8695 117.61 25.7595ZM111.36 36.7395C110.71 38.5895 109.92 40.3995 109.2 42.2195C109.12 42.4095 109.06 42.6095 109 42.7995C108.59 43.5895 108.18 44.3895 107.76 45.1795C107.43 45.7995 107.09 46.4195 106.72 47.0995C106.63 46.9795 106.56 46.9095 106.51 46.8295C104.74 43.6195 102.92 40.4395 101.22 37.1895C100.3 35.4295 99.4899 33.5995 98.8299 31.7295C97.7499 28.6395 97.3899 25.4295 97.7799 22.1595C97.9199 20.9695 98.1399 19.7895 98.3499 18.6195C98.3799 18.4595 98.5199 18.2495 98.6599 18.1995C101.15 17.2595 103.68 16.8495 106.3 17.6495C108.12 18.2095 109.54 19.3295 110.73 20.7795C110.82 20.8895 110.94 20.9595 111.05 21.0495C111.08 21.1595 111.09 21.2795 111.15 21.3695C112.51 23.3295 112.99 25.5495 113.01 27.8895C113.01 30.9295 112.36 33.8795 111.36 36.7395Z" fill="white" stroke="#939393" stroke-miterlimit="10"/>
<path d="M107.55 58.2394C107.54 58.5194 107.5 58.7994 107.51 59.0694C107.76 63.1594 107.06 67.0894 105.46 70.8494C103.85 74.6294 101.5 77.8794 98.5301 80.6894C97.5301 81.6294 96.4401 82.4794 95.3701 83.3494C95.2101 83.4794 94.9401 83.5394 94.7201 83.5394C91.2501 83.5394 87.7901 83.5194 84.3201 83.5094C84.1801 83.5094 84.0401 83.5494 83.9001 83.5694C83.2101 83.5494 82.5301 83.4994 81.8401 83.4994C75.8501 83.4794 69.8701 83.4594 63.8801 83.4794C63.1501 83.4794 62.5801 83.2794 62.0301 82.8394C58.3901 79.8994 55.5201 76.3594 53.5201 72.1194C51.2001 67.1894 50.3301 62.0094 50.8601 56.6094C51.0001 55.1494 51.4101 53.7094 51.6801 52.2594C51.7201 52.0394 51.9201 51.3694 51.9601 51.2494C52.4201 50.0494 52.8801 48.8494 53.3401 47.6494C53.3801 47.5394 53.5001 47.4594 53.5201 47.3494C53.7601 46.3194 54.4701 46.2594 55.3701 46.2694C63.3301 46.2994 71.2801 46.2894 79.2401 46.2894C87.1501 46.2894 95.0501 46.2894 102.96 46.2794C103.33 46.2794 103.54 46.3794 103.72 46.7094C105.52 50.1094 106.91 53.6394 107.38 57.4794C107.42 57.7494 107.5 57.9894 107.55 58.2394Z" fill="#E4EAEF" stroke="#939393" stroke-miterlimit="10"/>
<path d="M0 88.0996H173.16" stroke="#939393" stroke-miterlimit="10"/>
<path d="M50.6498 87.7905H35.8998L34.5898 55.4805H51.9698L50.6498 87.7905Z" fill="white" stroke="#939393" stroke-miterlimit="10"/>
<path d="M48.4799 85.83H38.0799L37.3799 68.5H49.1799L48.4799 85.83Z" fill="#E4EAEF" stroke="#939393" stroke-miterlimit="10"/>
<path d="M98.5401 80.7002H86.8701" stroke="#939393" stroke-miterlimit="10"/>
<path d="M101.48 77.7598H81.4102" stroke="#939393" stroke-miterlimit="10"/>
<path d="M103.16 74.8096H91.4902" stroke="#939393" stroke-miterlimit="10"/>
<path d="M104.84 71.8701H84.77" stroke="#939393" stroke-miterlimit="10"/>
<path d="M106.1 68.9297H90.23" stroke="#939393" stroke-miterlimit="10"/>
<path d="M106.94 65.9902H95.27" stroke="#939393" stroke-miterlimit="10"/>
<path d="M107.36 63.0498H99.8999" stroke="#939393" stroke-miterlimit="10"/>
<path d="M43.2798 86.1101V58.3701" stroke="#939393" stroke-miterlimit="10"/>
<path d="M40.3399 86.1101L39.9199 58.3701" stroke="#939393" stroke-miterlimit="10"/>
<path d="M46.2202 86.1101L46.6402 58.3701" stroke="#939393" stroke-miterlimit="10"/>
</g>
<defs>
<clipPath id="clip0">
<rect width="173.16" height="107.38" fill="white"/>
</clipPath>
</defs>
</svg>
