<svg width="14" height="14" viewBox="0 0 14 14" fill="none" xmlns="http://www.w3.org/2000/svg">
<path fill-rule="evenodd" clip-rule="evenodd" d="M9.80218 0.020521C10.5642 -0.0592552 11.3325 0.0947397 12.005 0.462044C12.0971 0.512382 12.1602 0.603202 12.1751 0.707142C12.1901 0.811081 12.1552 0.915986 12.0809 0.990249L10.1943 2.87747V3.80513H11.1219L13.0092 1.91847L13.0099 1.91777C13.0841 1.84358 13.189 1.80872 13.2929 1.82368C13.3968 1.83865 13.4876 1.90169 13.538 1.99382C13.9053 2.66627 14.0593 3.43457 13.9795 4.19663C13.8997 4.95869 13.5899 5.67843 13.0913 6.26023C12.5927 6.84204 11.9289 7.25835 11.188 7.45386C10.5165 7.63106 9.81053 7.61926 9.14753 7.42187L3.10514 13.4666C2.76402 13.8077 2.30133 13.9994 1.81892 13.9994C1.33651 13.9994 0.873863 13.8078 0.532749 13.4667C0.191636 13.1255 0 12.6629 0 12.1805C0 11.6981 0.191636 11.2354 0.532749 10.8943L6.57693 4.85247C6.37954 4.18947 6.36774 3.48349 6.54495 2.81198C6.74046 2.07111 7.15677 1.40728 7.73857 0.908673C8.32037 0.410067 9.04012 0.100297 9.80218 0.020521ZM11.2701 0.858399C10.8253 0.694518 10.347 0.633797 9.87159 0.683564C9.2441 0.749253 8.65145 1.00432 8.17239 1.41488C7.69333 1.82544 7.35053 2.37205 7.18955 2.98208C7.02856 3.59212 7.05702 4.23669 7.27112 4.83017C7.31497 4.95173 7.28462 5.08768 7.19322 5.17904L1.00415 11.3657C1.00414 11.3657 1.00417 11.3657 1.00415 11.3657C0.788093 11.5818 0.666667 11.8749 0.666667 12.1805C0.666667 12.4861 0.788064 12.7792 1.00415 12.9952C1.22024 13.2113 1.51332 13.3327 1.81892 13.3327C2.12452 13.3327 2.4176 13.2113 2.63369 12.9952L8.82096 6.80558C8.91232 6.71419 9.04827 6.68383 9.16983 6.72768C9.76331 6.94179 10.4079 6.97024 11.0179 6.80926C11.628 6.64827 12.1746 6.30548 12.5851 5.82641C12.9957 5.34735 13.2507 4.75471 13.3164 4.12722C13.3662 3.65182 13.3055 3.17347 13.1416 2.72873L11.4956 4.3742C11.4331 4.43669 11.3484 4.47179 11.26 4.47179H9.86094C9.67685 4.47179 9.52761 4.32256 9.52761 4.13846V2.73943C9.52761 2.65104 9.56271 2.56627 9.6252 2.50377L11.2701 0.858399Z" fill="black"/>
</svg>
